<?xml version="1.0" encoding="UTF-8"?>
<svg id="Camada_2" data-name="Camada 2" xmlns="http://www.w3.org/2000/svg" viewBox="0 0 700.41 219.34">
  <defs>
    <style>
      .cls-1 {
        fill: #6ba9b9;
      }

      .cls-2 {
        fill: #ba6a2b;
      }

      .cls-3 {
        fill: none;
      }

      .cls-4 {
        fill: #eeead5;
      }

      .cls-5 {
        fill: #ad6636;
      }
    </style>
  </defs>
  <g id="Camada_1-2" data-name="Camada 1">
    <g>
      <path class="cls-4" d="M147.55,144.76c-4.1-.03-8.93-2.48-9.92-6.52-1.31-5.36,4.33-11.35,13.73-14.58l2.35-.81,1.4,2.05c1.36,1.98,2.27,4.16,2.71,6.47.39,2.08.93,4.92-.61,7.89-1.73,3.34-5.48,5.5-9.56,5.5h-.09Z"/>
      <polygon class="cls-4" points="16.83 83.59 11.77 74.26 15.26 64.6 30.99 55.26 25.39 76.63 23.22 86.98 16.83 83.59"/>
      <polygon class="cls-4" points="191.25 88.38 182.18 82.92 180.45 74.41 178.47 65.45 172.24 60.08 165.71 53.45 173.67 40.36 180.94 41.85 184.13 20.96 196.44 14.85 203.49 21.04 213.5 19.75 217.95 27.7 224.1 29.03 226.12 37.43 222.53 48.5 219.76 58.03 219.76 67.77 214.55 76.22 210.4 83.85 201.59 88.78 191.25 88.38"/>
      <polygon class="cls-4" points="163.33 98.73 172.28 99.86 179.04 95.26 182.18 90.46 187.12 81.66 205.93 83.9 195.12 104.06 188.07 113.66 177.81 117.65 157.65 118.53 163.33 98.73"/>
      <polygon class="cls-4" points="157.15 182.94 163.82 178.26 171.84 177.27 182.56 178.8 174.57 195.15 161.82 206.84 149.17 213.29 129.32 214.71 157.15 182.94"/>
      <polygon class="cls-4" points="123.95 206.83 124.26 195.56 122.18 184.42 132.73 172.07 146.88 171.22 148.11 170.83 155.36 165.78 164.16 164.17 177.51 168.25 182.25 184.74 168.96 182.24 161.51 185.99 137.91 214.2 123.95 206.83"/>
      <polygon class="cls-4" points="123.54 171.64 111.23 155.17 123.35 144.85 135.14 155.11 139.15 160.72 145.81 175.81 129.44 180.97 123.54 171.64"/>
      <polygon class="cls-4" points="57.3 215.67 46.85 208.71 33.14 192.57 36.15 177.17 50.07 167.9 57.75 163.12 68.12 164.54 74.55 179.8 74.93 185.83 74.95 186.02 87.11 188.86 92.34 201.6 85.28 213.08 69.78 217.29 57.3 215.67"/>
      <polygon class="cls-4" points="53.01 174.53 60.53 168.08 67.38 156.51 72.23 150.65 87.97 154.86 85.48 170.16 76.87 181.91 62.95 187.3 53.01 174.53"/>
      <polygon class="cls-4" points="6.94 160 1.53 147.52 4.62 139.72 3.85 135.42 4.98 125.44 23.32 118.73 29.62 121.69 33.26 126.17 35 126.57 44.61 132.29 47.48 137.73 50.55 140.92 52.51 150.47 47.56 157.81 43.79 158.69 42.77 162.52 35.03 168.05 27.93 167.82 19.79 171.33 6.94 160"/>
      <path class="cls-4" d="M95.63,163.55c-.43,0-.75,0-.96-.01-2.94-.06-5.48-.44-9.35-1.38-.55-.12-1.17-.28-1.83-.45,0,0-.51-.14-.62-.17-.78-.2-1.61-.43-2.51-.68l-1.83-.51c-2.51-.7-4.69-1.31-6.54-1.84l-.27-.08c-1.21-.35-2.28-.67-3.23-.96-3.23-.98-4.91-1.64-5.97-2.34-1.75-1.19-3.18-2.43-4.84-3.87-2.34-2.03-5.25-4.56-10.44-8.13l-.14-.09-.13-.11c-.67-.57-1.57-1.34-2.6-2.32-.47-.44-.99-.94-1.51-1.48-.1-.1-2.57-2.62-5.4-6.43-1.16-1.54-2.25-3.14-3.24-4.74-2.43-3.94-4.64-7.9-6.6-11.8l-.16.07-2.01,4.43.26,1.04,1.62,6.47-2.86,5.8-6.91,2.39-7.87-2.81-1.8-2.74-.12-.18-1.03-1.58-2.86-4.35.49-11.86,5.12-9.5,10.42-6.48c-1.81-6.25-2.1-9.89-2.11-10.04-.07-.93-.13-1.92-.16-2.95-.01-.14-.02-.26-.02-.34-.04-1.25-.04-2.57,0-3.92.13-5.24.87-10.44,2.19-15.47.38-1.43.77-2.74,1.2-4.01.02-.05.08-.23.08-.23,1.32-3.94,3.05-7.78,5.14-11.41,3.35-5.83,7.68-11.09,12.87-15.65,1.34-1.18,2.79-2.35,4.28-3.47l.87-.65h.02c5.08-3.67,9.94-6.25,13.55-8.15.08-.04.15-.09.23-.13l.52-.28c1.01-.54,2.1-1.11,3.25-1.69,7.24-3.69,17.14-8.02,29.43-8.76,1.13-.08,2.33-.11,3.53-.11h.26c4.45.02,8.93.53,13.34,1.53,2.09.46,4.2,1.05,6.27,1.75,1.12.37,2.29.79,3.53,1.29l3.02,1.2-1.19,3.03c-.59,1.51-1.17,3.85-.53,6.43,1.4,5.75,7.82,7.98,8.69,8.26l1.29.23,2.69,4.56-.3,1.27c-.56,2.41.21,4.92,2.03,6.55,1.22,1.09,2.81,1.69,4.48,1.69.9,0,1.77-.17,2.6-.51l1.62-.66,5.36,3.61v1.74c0,1.09.22,4.84,3.09,7.38,1.64,1.45,3.88,2.25,6.31,2.25,1.48,0,2.94-.29,4.34-.86l2.95-1.21,1.27,2.93c.51,1.17.98,2.35,1.41,3.51.6,1.58,1.16,3.24,1.66,4.91,1.25,4.16,2.59,9.18,2.77,16.03.07,2.7-.06,5.47-.4,8.23-.01.12-.03.25-.05.37-.03.3-.07.62-.13.97l-.03.21c-.28,1.9-.68,3.86-1.19,5.82-.08.38-.19.77-.32,1.22-.22.8-.45,1.6-.73,2.47-.81,2.52-1.82,5.1-3.02,7.68-.31.64-.59,1.23-.89,1.82-.45.9-.91,1.78-1.41,2.68-7.07,12.81-17.44,22.47-22.68,25.83l-.1.06c-2.6,1.64-5.53,3.52-8.47,5.46-1.27.84-2.26,1.5-3.05,2.02l-.28.19c-1.06.71-1.73,1.17-2.23,1.51l-.12.08c-.31.22-.57.39-.84.57l-.09.06c-.37.24-.74.49-1.29.82-1.61.99-3.39,2.05-5.48,3.12v1.23h-2.55c-.43.2-.83.37-1.21.53-3.18,1.36-6.54,2.41-9.95,3.1-4.08.83-7.49,1-9.63,1Z"/>
      <path class="cls-4" d="M21.38,101.47c-.15-.32-.22-.61-.27-.76l5.61-3.01,3.68,4.28-4.95,1.22-2.79,1.1-1.28-2.83Z"/>
      <path class="cls-4" d="M21.38,101.47c-.15-.32-.22-.61-.27-.76l5.61-3.01,3.68,4.28-4.95,1.22-2.79,1.1-1.28-2.83Z"/>
      <rect class="cls-4" x="187.83" y="30.56" width="23.75" height="10.11" transform="translate(120.68 222.45) rotate(-77.18)"/>
      <path class="cls-4" d="M210.63,54.66c-.55-.27-1.09-.54-1.63-.81-1.05-.53-2.05-1.03-3.06-1.48l-.06-.03c-4.21-2.01-8.84-3.36-14.14-4.14l-2.76-.41-.07-7.55,2.8-.42c1.33-.2,2.7-.3,4.07-.3,7.68,0,15.13,3.14,19.93,8.4l.85.93v1.26c0,1.12-.11,1.26-1.93,3.6l-1.63,2.09-2.38-1.16Z"/>
      <path class="cls-4" d="M190.15,64.05c-2.16-4.88-5.39-9.31-9.33-12.81l-2.61-2.32,7.52-7.39,2.28,2.61c4.33,4.98,7.61,10.93,9.48,17.21l.87,2.93-6.96,2.56-1.24-2.79Z"/>
      <path class="cls-4" d="M59.9,135.24c-3.54,0-7.51-3.3-8.83-7.35-.62-1.88-.55-3.46-.4-5.34.14-1.78.54-3.7,1.15-5.56.62-1.89,1.06-3.26,2.27-4.42,1.84-1.77,4.13-2.14,5.72-2.14.49,0,.85.04,1.01.05,3.17.31,6.06,2.26,7.38,4.97.35.73.45,1.24.52,1.66.05.27.12.65.34,1.44.29,1.04.48,1.47.65,1.85.19.45.41.95.58,1.77.58,2.89-.1,7.09-2.98,9.5-.36.31-.63.46-.93.62-.22.12-.62.33-1.68.98-2.42,1.47-2.77,1.66-3.43,1.81-.43.1-.89.16-1.36.16Z"/>
      <path class="cls-4" d="M84.17,42.41c-1.44,0-2.68-.37-3.7-1.11-3.13-2.27-2.48-6.58-2.24-8.2.23-1.53.68-2.68,1.02-3.38.65-1.34,1.38-2.14,2.39-3.26.86-.95,1.6-1.61,2.45-2.37l.68-.61c1.72-1.56,2.43-2.1,3.49-2.46.77-.26,1.62-.4,2.46-.4,1.89,0,3.66.67,4.98,1.88,1.81,1.67,2.56,4.01,2.21,6.98-.14,1.24-.51,2.09-.93,3.08-.36.86-.74,1.39-1.06,1.86-.3.43-.64.92-1.22,2.02l-.17.32c-.53,1.02-1.09,2.08-2.37,3.02-.85.62-1.55.8-2.11.95-.28.07-.59.16-1.11.34-.67.24-1.08.42-1.43.59-.67.31-1.42.66-2.65.74-.19.01-.43.03-.7.03Z"/>
      <path class="cls-4" d="M109.44,20.27l-.14-.04c-.96-.29-1.93-.55-2.86-.77l-3.1-.74,1.8-8.29-5.72,3.54-6.31,3.92h-1.21s-1.96.12-1.96.12l-.97-1.67-3.45-5.63,3.91-2.44,10.93-6.78c1.57-.96,3.36-1.47,5.17-1.47,2.95,0,5.72,1.31,7.6,3.59,1.88,2.28,2.62,5.26,2.05,8.17l-2,9.26-3.74-.75Z"/>
      <path class="cls-4" d="M24.03,140.63l-2.07-3.93,2.71-1.57c1.92-1.12,2.78-2.68,2.35-4.28-.4-1.48-1.99-2.98-4.64-2.98l-3.43.05.05-10.29,3.37.13c6.71.26,12.35,4.68,13.7,10.77,1.29,5.77-1.5,11.21-7.28,14.19l-4.76,2.45v-4.54Z"/>
      <path class="cls-4" d="M25.35,168.55c-3.13-2.84-4.81-7.02-4.49-11.19l.24-3.08,8.83.18.12,3.06c.05,1.26.7,2.49,1.69,3.19l2.86,2.05-6.74,8.06-2.52-2.28Z"/>
      <path class="cls-4" d="M36.37,158.98c-.25-.82-.71-1.58-1.32-2.19-.65-.65-1.5-1.15-2.4-1.43l-2.82-.85,1.49-7.58,2.97.31c4.8.5,9.18,3.53,11.42,7.9l1.6,3.11-9.86,4.22-1.06-3.48Z"/>
      <path class="cls-4" d="M45.36,178.62c-.49-4.46.82-8.67,3.67-11.85,2.96-3.3,7.32-5.2,11.96-5.2,2.07,0,4.12.37,6.09,1.11l3.1,1.16-3.73,9.59-3.11-1.35c-1.01-.44-2.05-.66-3.09-.66-1.78,0-3.44.68-4.57,1.87-1.12,1.18-1.66,2.79-1.56,4.64l.17,3.19-8.58.65-.34-3.14Z"/>
      <path class="cls-4" d="M62.63,196.14c-3.9,0-7.61-1.56-10.46-4.38l-2.26-2.24,5.67-6,2.36,2.11c1.43,1.28,2.95,1.54,3.97,1.54h0c1.72,0,3.42-.74,4.56-1.98.74-.81,1.59-2.2,1.41-4.27l-.28-3.37,10.3-.5.08,3.34c.1,4.19-1.43,8.11-4.31,11.06-2.91,2.98-6.93,4.69-11.04,4.69h0Z"/>
      <path class="cls-4" d="M67.77,219.34c-7.54,0-14.26-2.23-19.42-6.44l-.07-.06-.07-.06c-5.25-4.81-9.99-10.48-14.09-16.83-2.91-4.68-3.5-10.03-1.69-15.09,2-5.62,6.73-10.19,12.65-12.23,1.73-.63,3.32-1.04,4.99-1.28l3.24-.46,1.4,10-3.21.47c-3.31.49-6.69,2.56-8.41,5.15-1.18,1.78-1.52,3.65-1.02,5.55l.02.09c.32,1.39,1.25,2.7,2.33,4.21.26.37.53.74.78,1.11,1.94,2.74,4.57,5.86,7.38,8.75l.06.07.06.07c2.23,2.57,4.96,4.41,7.68,5.2,2.51.71,5.15,1.08,7.83,1.08,1.98,0,3.92-.2,5.78-.6,2.32-.5,4.43-1.24,6.29-2.19,2.65-1.49,3.85-4.84,2.73-7.64-1.65-3.96-4.94-4.8-7.4-4.8-4.01,0-8.38,2.19-10.87,5.45l-1.8,2.35-6.68-4.17,1.22-2.62c3.21-6.89,10.38-11.33,18.27-11.33s14.26,4.34,17.02,11.34c3.27,8.01-.71,17.81-8.69,21.35-5.07,2.33-10.72,3.56-16.32,3.56Z"/>
      <path class="cls-4" d="M129.17,209.88l23.33-25.48c1.61-2.31,5.04-6.26,10.77-8.38,2.47-.91,5.07-1.38,7.72-1.38,4.21,0,7.57,1.17,9.19,1.87l3,1.29-3.99,9.29-3-1.29c-.92-.39-2.81-1.05-5.19-1.05-1.45,0-2.88.25-4.23.75-3.3,1.22-5.23,3.56-6.09,4.85l-.07.11-.32.41-23.66,25.83-7.46-6.83Z"/>
      <path class="cls-4" d="M143.76,122.34c-.21,0-.42-.02-.63-.05-3.44-.5-4.54-4.18-5.19-6.38-.57-1.9-.52-3.1-.44-3.84.09-.79.27-1.29.83-2.76,1.07-2.81,1.54-3.9,2.66-5.03.39-.4.7-.64,1.09-.94,1.51-1.17,3.07-2.38,5.13-2.38.42,0,.83.05,1.23.16,1.89.49,3.34,2.04,4.08,4.36.36,1.13.33,2.01.29,3.02v.13c-.07,1.88-.06,2.58-.05,2.96,0,.46,0,.77-.1,1.38-.19,1.13-.6,3.49-2.45,5.7-1.25,1.49-2.61,2.25-3.19,2.58-1.02.57-1.98,1.11-3.26,1.11Z"/>
      <path class="cls-4" d="M106.71,148.14c-2.52,0-4.46-1.21-5.61-1.94-1.55-.97-2.55-2.02-3.05-3.21-.64-1.53-.47-2.89-.42-3.33.36-2.84,2.31-4.52,3.48-5.52.74-.63,1.65-1.42,3.14-1.87.65-.2,1.32-.29,2.1-.29.48,0,1,.04,1.57.11,1.67.22,3.41.44,5.28,1.64,1.01.64,4.08,2.61,4.19,6.24.08,2.63-1.55,5.32-3.97,6.53-.71.36-1.28.47-1.82.58-.41.08-.97.2-1.99.5-.44.13-.62.19-.71.23-.21.08-.44.15-.81.22-.44.08-.91.12-1.36.12Z"/>
      <path class="cls-4" d="M50.77,80.37c-1.95,0-3.46-.95-4.02-1.36-.39-.29-.59-.52-.79-.75-.12-.14-.34-.39-.8-.9-.28-.3-.49-.53-.66-.72-.58-.62-.92-.99-1.31-1.71-.32-.59-.73-1.55-.89-2.78-.1-.74-.09-1.54.02-2.31.11-.74.34-1.86,1.07-3.06.4-.65,1.33-2.16,3.23-2.86.57-.21,1.16-.32,1.77-.32,1.55,0,2.8.64,4.55,1.53,1.02.52,2.07,1.18,2.82,2.44.39.66.51,1.18.64,1.77l.11.47c.14.62.25,1.04.34,1.35.18.68.33,1.26.3,2.16-.02.63-.13,1.6-.57,2.68-.31.77-1.27,3.1-3.84,4.02-.63.22-1.29.34-1.97.34Z"/>
      <path class="cls-4" d="M98.17,134.76c-1.8,0-3.57-.2-5.27-.58-5.18-1.17-8.57-3.85-10.2-5.15-8.88-7.03-10.71-16.87-11.4-20.58-.96-5.13-.85-10.37.3-15.59l1.92-8.82,6.52,6.27c2.66,2.57,5.6,4.85,8.73,6.8,2.79,1.73,9.28,5.76,18.49,7,1.86.25,3.77.38,5.67.38s3.84-.13,5.75-.38l5.62-.73.1,5.66c.07,3.95-.72,7.67-2.36,11.06-4.25,8.78-13.84,14.68-23.87,14.68ZM84.45,115.86c1.22,2.07,2.73,3.81,4.52,5.23,1.28,1.02,3.22,2.55,6.16,3.22.94.21,1.94.32,2.96.32,3,0,6.06-.92,8.69-2.49-5.06-.41-10.04-1.45-14.84-3.11-2.57-.89-5.08-1.95-7.5-3.17Z"/>
      <path class="cls-4" d="M61.89,92.31l1.95-2.33c4.44-5.31,10.98-8.81,17.96-9.59l3.44-.38.58,11.48-3.54-.11c-.17,0-.34,0-.51,0-4.25,0-8.54,1.66-11.76,4.57l-2.26,2.03-5.86-5.65Z"/>
      <path class="cls-4" d="M113.09,105.02c-4.43,0-8.48-2.26-10.57-5.89l-2.81-4.89h4.51s1.17-.91,1.17-.91l-4.08-2.23.9-2.61c1.59-4.59,5.86-7.56,10.89-7.56,3.31,0,6.5,1.35,8.77,3.71,3.98,4,4.36,10.91.87,15.48-2.18,3.11-5.69,4.89-9.64,4.89ZM108.89,94.17c.9.87,2.12,1.4,3.26,1.4.38,0,.73-.06,1.04-.17,1.04-.35,1.86-1.58,1.82-2.65-.03-1.38-1.65-2.41-3.02-2.41h-.2c-1.01.03-2.02.64-3.02,1.84l-.86,1.04.98.96Z"/>
      <path class="cls-4" d="M121.95,92.39c-1.18,0-2.36-.1-3.52-.31l-1.69-.3-2.49-5.48c-1.65-.31-3.21-1.1-4.58-2.32-.59-.55-1.05-1.06-1.45-1.59l-.04-.06c-.71-1.02-1.32-2.14-1.82-3.34l-.25-.6v-.06c-3.08-8.36,1.03-15.88,1.51-16.73,4.23-7.32,9.46-9.12,13.1-9.34.27-.02.55-.02.81-.02,7.41,0,12.18,6.04,13.47,7.89,3.4,4.86,4.6,11.86,3.13,18.26-1.27,5.49-4.27,9.78-8.44,12.1-2.26,1.26-4.87,1.89-7.75,1.89ZM126.39,74.19c-.13,3.14-1.16,5.98-2.78,8.12.83-.08,1.27-.21,1.4-.28,1.74-.97,3.05-3.04,3.69-5.82.87-3.73.23-7.86-1.63-10.53-.27-.39-2.66-3.74-5.49-3.74-.08,0-.16,0-.24,0-.21.01-.42.04-.62.09,2.08,1.31,3.78,3.45,4.76,6.16l.67,1.84-.61.68,1-.03-.14,3.51Z"/>
      <path class="cls-4" d="M89.87,75c-.63,0-1.25-.12-1.85-.35-2.72-1.08-5.61-1.63-8.59-1.63-2.61,0-5.17.42-7.6,1.26-.46.16-.93.24-1.41.24-1.72,0-3.27-1.02-3.95-2.6-.93-2.17.06-4.7,2.22-5.64.2-.09.41-.17.62-.26-.56-.53-.98-1.2-1.21-1.97l-1.59-5.39,3.06-.96c1.94-.61,3.97-.91,6.03-.91,7.2,0,14.16,3.78,18.02,9.7h.02s.21.36.21.36c.1.16.19.31.29.47h0c.98,1.62,1,3.52.1,5.11-.9,1.59-2.57,2.57-4.37,2.57Z"/>
      <path class="cls-4" d="M20.15,83.95c.09-2.23.4-4.94,1.07-9.34l6.46.93c-.38,2.77-.71,5.67-1.02,8.84l-6.51-.44Z"/>
      <path class="cls-4" d="M106.42,19.45c-3.87-.95-7.84-1.47-11.79-1.54-.82-.02-1.65-.03-2.49-.04l-11.21-.12,15.04-9.34,6.28-3.89c.97-.6,2.1-.92,3.26-.92,1.9,0,3.67.82,4.85,2.26,1.19,1.45,1.66,3.33,1.3,5.17l-2,9.21-3.25-.8Z"/>
      <path class="cls-4" d="M42.8,28.5l.55-2.25c.93-3.85,3.9-6.83,7.75-7.78.83-.21,1.69-.31,2.56-.31,1.66,0,3.32.4,4.8,1.15l1.66.84,9.37,4.72-5.31,3.01c-.8.45-1.64.9-2.58,1.37-2.93,1.47-4.56,1.99-5.86,2.42l-.1.03c-.95.3-1.58.49-2.84,1.16-1.58.83-2.4,1.43-6.08,5.37l-8.51,9.11,4.6-18.83Z"/>
      <path class="cls-4" d="M22.53,112.46c-.81-2.13-1.57-4.46-2.41-7.06l-.19-.59c-.25-.78-.55-1.73-.88-2.85l-.79-2.71,2.56-1.17c.8-.36,1.55-.68,2.3-.98.07-.03.15-.06.24-.09.37-.14.73-.27,1.09-.4l3.28-1.15.94,3.35c.21.75.42,1.43.6,2.03l.07.22c.1.28.18.55.26.8l.14.44c.77,2.39,1.44,4.46,2.11,6.28l1.09,2.97-2.94,1.18c-.1.04-.47.2-.47.2-.8.36-1.58.76-2.33,1.19l-3.32,1.91-1.36-3.58Z"/>
      <path class="cls-4" d="M146,47c-.09-.58-.15-1.15-.17-1.73l6.37-1.1c.3.96.3,1.85.28,2.44l-6.48.39Z"/>
      <path class="cls-4" d="M223.72,28.98c-.28-.21-.58-.4-.87-.58-1.02-.62-2.12-1.08-3.26-1.39-.37-1.49-1.01-2.91-1.89-4.18-1.87-2.7-4.71-4.52-7.79-5.01-.58-.09-1.17-.14-1.75-.14-1.58,0-3.15.33-4.61.97-1.94-2.19-4.6-3.63-7.57-4-.49-.06-.99-.09-1.48-.09-5.44,0-10.31,3.71-11.83,9.03l-.04.15c-1.24,5.25-2.17,10.6-2.77,15.94-.53-.13-1.07-.24-1.61-.33-.18-.03-.37-.06-.55-.08-.46-.06-.94-.09-1.41-.09-3.08,0-6.05,1.31-8.13,3.58-2.41,2.63-3.35,6.12-2.58,9.62l.02.09c1.26,5.48,5.07,8.55,6.65,9.61l.09.06.39.23.1.05c.58.29,1.08.65,1.47,1.08.57.62.81,1.29,1.49,3.37.22.68.47,1.43.77,2.28l.02.06c.81,2.3,1.4,4.93,1.8,8.02.09.67.22,1.35.4,2,.59,2.14,1.69,4.14,3.17,5.8l.08.09.38.36.1.08c.25.21.51.39.77.59l-3.35,5.55-.17.31-.03.07c-.51,1.09-2.51,4.73-6.71,5.98-.7.21-1.41.34-2.14.39.03-.34.06-.71.11-1.13.04-.39.08-.74.13-1.08l.02-.11.02-.12v-.03c.03-.29.07-.57.1-.78.02-.14.05-.28.06-.43.26-1.59.51-2.6.76-3.59.32-1.23.68-2.63.84-4.86.21-2.96-.17-4.41-1.42-9.23-.53-2.06-1.34-5.18-2.44-9.68l-.7-2.94c-.06-.26-.12-.51-.18-.77l-.02-.08c-.77-3.27-1.01-4.26-1.82-6.11-.18-.4-.41-.91-.79-1.66-.37-.72-.78-1.47-1.22-2.24-.75-1.29-2.13-2.1-3.62-2.1-.29,0-.59.03-.88.09-.39.08-.78.13-1.17.15-.09,0-.18,0-.27,0-.55,0-.96-.07-1.07-.09-.14-.03-.28-.05-.43-.09h-.03s-.08-.03-.08-.03c-.02,0-.19-.06-.19-.06-.1-.03-.2-.07-.3-.11l-.2-.08c-2.8-1.24-3.51-2.87-3.61-3.13-.06-.28-.04-.61-.02-1.11,0-.16.02-.33.02-.48v-.32s-.04-.32-.04-.32c-.05-.32-.08-.63-.09-.94l-.02-.42-.12-.4c-.21-.7-.56-1.36-1.06-1.99-.5-.62-1.03-1.05-1.39-1.3l-.2-.14-.22-.11c-1.11-.55-2.35-.85-3.6-.85h-.89l-.25.06h-.07s-.06.02-.06.02c-.09.01-.19.02-.32.03-.13.01-.25.02-.38.02-.37,0-.74-.05-1.1-.15l-.07-.02c-.12-.03-.24-.07-.35-.11l-.08-.03c-.2-.08-.41-.18-.61-.29-.19-.11-.41-.26-.64-.45-.25-.21-.47-.44-.66-.7-.2-.26-.36-.53-.51-.86-.02-.03-.03-.07-.04-.09l-.05-.15s-.08-.2-.09-.22l-.03-.11-.02-.08-.05-.16c-.1-.36-.15-.77-.13-1.19v-.08s0-.24,0-.24c0-1.55-.52-3.05-1.48-4.21-1.07-1.31-2.6-2.14-4.31-2.34l-.24-.04c-.18-.02-.37-.05-.58-.1l-.09-.02c-.25-.05-.48-.11-.69-.17l-.1-.03-.12-.03-.12-.04c-.87-.27-1.67-.66-2.4-1.18-.08-.06-.17-.12-.25-.19l-.46-.38c-.13-.11-.25-.24-.37-.36l-.05-.06c-.09-.09-.18-.19-.26-.29l-.05-.05c-.11-.13-.22-.27-.34-.45-.24-.34-.45-.69-.65-1.09,0,0-.31-.61-.51-1.36-.21-.75-.31-1.64-.3-2.56.02-1.9-.92-3.66-2.5-4.7l-.54-.35c-1.5-.97-2.85-1.67-4.26-2.23-1.61-.63-3.58-1.38-6.05-2.14l-.04-.02-.25-.07c-1.22-.36-2.36-.67-3.49-.94l-.38-.13h-1.93l2.55-1.59h-11.34c-1.01-.07-2-.11-2.93-.12-1.18-.03-2.41-.05-3.67-.05h-.37c-7.23,0-15.66.68-23.4,5.75-1,.66-1.95,1.35-2.74,1.94l-.15.11c-.72.53-1.47,1.07-2.31,1.64l-2.14-1.08c-1.98-1-4.2-1.53-6.41-1.53-1.16,0-2.32.14-3.44.42-5.13,1.27-9.1,5.26-10.36,10.41l-1.75,7.19h-.01s-.01.07-.01.07c-.6.65-1.23,1.34-1.95,2.11l-5.21,5.65c-5.61,6.08-6.62,7.18-8.02,9.93-1.17,2.31-1.86,4.41-2.64,8.31-4.34,1.73-7.69,5.35-9.04,9.92-1.77,6.05.36,12.57,5.31,16.42,0,.39,0,.78,0,1.15.1,3.16.46,6.35,1.04,9.51-.03.01-.06.03-.08.04-2.31,1.19-4.52,2.57-6.57,4.11-4.99,3.74-8.17,9.39-8.71,15.5-.15,1.63-.15,3.33-.02,5.06.2,2.33.68,4.63,1.42,6.84-1.65,3.24-1.93,6.99-.72,10.51C1.4,140.14.04,143.42,0,147.42c-.06,7.11,4.06,11.88,5.82,13.92,1.72,1.99,3.73,3.7,6,5.09,1.64,3.26,4.75,5.6,8.35,6.22.64.11,1.29.17,1.94.17,2.73,0,5.35-.96,7.42-2.7.73.11,1.45.16,2.18.16,2.28,0,4.45-.53,6.44-1.59,3.81-2.01,5.67-5.21,6.59-7.73,2.22-.72,4.12-1.92,5.58-3.53,1.84-2.04,2.89-4.6,3.2-7.36.25.2.51.41.78.62,1.53,1.24,2.62,2.19,3.61,3.05,2.07,1.8,3.43,2.99,6.24,4.28.18.08.36.15.55.23-.93,2.19-2.09,4.27-3.48,6.2-1.66,2.31-3.63,4.4-5.86,6.2l-1.62,1.32-.22,2.08c-.18,1.67-.24,5.97,2.95,9.77,3.5,4.16,8.28,4.61,10.18,4.61.39,0,.69-.02.85-.03l.63-.05.6-.2c4.56-1.53,8.71-4.1,11.98-7.44,5.51-5.62,7.56-12.23,8.29-17.11,1.47.32,3.11.54,5.66.56.2,0,.41,0,.63,0,3.88,0,11.12-.37,18.14-2.65,2.88,3,5.45,6.27,7.65,9.78,1.32,2.1,2.52,4.29,3.58,6.55-1.54,2.11-2.68,4.45-3.38,6.97l-.05.18-.03.19c-.54,3.46.09,7.05,1.74,10.09-1.55,4.5-1.11,9.23,1.26,13.2,2.95,4.95,8.46,8.14,14.68,8.54.65.05,1.3.08,1.96.08,6.26,0,11.98-2.49,16.28-4.66,7.39-3.52,13.96-8.77,19.02-15.19,3.34-4.06,9.51-11.58,6.3-21.24-2.57-7.9-10.01-13-18.95-13-6.19,0-12.04,2.44-16.06,6.69-.19.19-.38.39-.58.6-.15-.04-.31-.07-.46-.1-.76-2.59-1.75-5.1-2.96-7.48-2.42-4.8-5.77-9.15-9.82-12.89.17-.06.34-.13.51-.19l.07-.03c1.27-.48,2.7-1.03,4.72-2.17,1.31-.74,2.12-1.32,2.99-2.08h.08l.29-.29c.94.38,1.94.71,3.14.91.67.12,1.69.27,2.76.27,3.73,0,7.32-1.51,9.85-4.13,3.35-3.48,4.42-8.39,2.78-12.84l-.82-2.19c.62-1.04,1.2-2.13,1.87-3.41l.37-.71c.44-.83.85-1.61,1.24-2.34h8.97c9.76,0,18.84-5.26,23.71-13.72l10.08-17.54c1.19-.69,2.32-1.49,3.38-2.39,2.18-1.88,3.95-4.12,5.29-6.67,1.65-1.82,3.06-3.84,4.19-6.01,1.84-3.55,2.91-7.41,3.17-11.47v-.07c.1-2.4.38-4.8.84-7.13.81-4.2,2.19-8.31,4.1-12.21,2.51-5.11,1.07-11.19-3.42-14.46ZM42.79,150.66c-.46.51-1.42.86-2.58.94l-4.43.31-.26,4.38s-.25,2.48-2.11,3.46c-.52.28-1.09.41-1.73.41-1,0-1.78-.34-1.79-.35l-4.2-1.91-2.28,4c-.28.49-.78.79-1.31.79-.08,0-.15,0-.22-.02-.53-.09-1-.53-1.15-1.1l-.58-2.16-1.99-1.02c-1.81-.93-3.39-2.16-4.68-3.66-1.27-1.47-3.39-3.93-3.36-7.22,0-.62.09-1.21.23-1.76.95.41,1.95.72,3,.92l3.2.59,1.74-9.34c.7-.05,1.41-.13,2.1-.29,1.73-.41,3.34-1.17,4.78-2.25,1.45-1.09,2.49-2.53,3.11-4.14l-.21,3.48,3.26.19c1.39.08,3.48.48,5.53,1.93,2.32,1.63,3.4,3.8,3.83,4.94l.28.74.49.62c2.45,3.08,2.35,6.41,1.34,7.53ZM17.39,137.62v-2.91l.03,2.92h-.03ZM28.67,124.63l-.05.8c-.16-.63-.38-1.25-.67-1.85-.09-.2-.19-.39-.27-.53-.22-.39-.38-.79-.48-1.18-.04-.17-.07-.33-.09-.49.72,1,1.5,1.96,2.35,2.88.14.15.28.29.42.44l-1.2-.07ZM66.22,178.31c-.53-.05-1.43-.26-2.04-.99-.17-.2-.29-.41-.39-.62,2.08-1.92,3.96-4.05,5.61-6.34,2.15-2.99,3.87-6.22,5.18-9.65,1.63.23,3.13.45,4.49.68-.39,3.38-1.68,8.24-5.61,12.25-1.98,2.02-4.47,3.63-7.23,4.66ZM149.33,181.62c.76-.92,1.55-1.87,2.32-2.87l.06-.08.06-.09c2.32-3.45,6.77-5.67,11.34-5.67,2.24,0,7.67.61,9.61,6.28.99,2.98,0,5.88-3.41,10.03l-.09.12c-4.48,5.98-10.26,10.7-16.7,13.65l-.07.04c-3.77,1.84-7.79,3.55-11.67,3.55-.35,0-.7-.01-1.05-.04h-.07c-2.93-.18-5.44-1.56-6.55-3.59-.89-1.63-.77-3.54.33-5.53l2.07-3.45-1.87-1.8c-1.11-1.07-2.37-2.8-2.19-5.02.4-1.29,1.07-2.57,1.91-3.62l.05-.06c1.48-1.95,3.87-3.24,6.57-3.58-1.01,1.65-1.79,3.19-2.4,4.72l-1.14,2.85,6.87,3.25,1.45-2.77c1.17-2.23,2.81-4.21,4.55-6.3ZM135.68,170.26c-1.03.28-2.03.64-3,1.06-.95-1.85-1.97-3.66-3.08-5.41-2-3.18-4.26-6.21-6.75-9.04.5-.36,1-.74,1.47-1.13l.31-.26c4.12,3.28,7.46,7.3,9.74,11.81.49.96.91,1.96,1.31,2.97ZM150.66,135.41c-.09.09-.15.15-.17.16,0,0-.19.16-.2.16l-.3.2c-.15.08-.26.14-.32.17l-.33.13c-.13.04-.26.08-.37.1-.05.01-.1.02-.15.03l-.19.03c-.06,0-.13.01-.24.02-.08,0-.16.01-.25.01-.09,0-.17,0-.26-.01l-.24-.02c-.13-.02-.26-.05-.4-.08,0,0-.2-.05-.2-.05-.14-.04-.26-.08-.4-.14l-.15-.07-.16-.05c-.38-.12-.8-.28-1.23-.47h-.02c-.53-.26-1.06-.5-1.59-.74-.5-.23-.99-.45-1.49-.68l-1.23-.55-.58-.53-.19.18-.06-.02-1.61,1.56c-.29.28-.56.55-.81.79l-.03.03c-.35.34-.66.64-.94.91l-.75.73c-.11.11-.21.21-.34.33-.54.5-.76.67-1.56,1.14-1.32.75-2.23,1.09-3.27,1.49l-.09.03c-1.59.6-3.39,1.28-6.33,3.09-2.81,1.74-4.7,3.32-5.83,4.26l-.18.15-.36.31c-6.82,5.62-18.93,6.06-22.48,6.06-.21,0-.39,0-.58,0-2.64-.02-3.5-.26-5.39-.77-2.38-.64-5.98-1.6-14.4-2.73l-.14-.02c-1.74-.23-3.9-.51-6.49-1.7-1.44-.67-1.94-1.08-3.83-2.72l-.08-.07c-.95-.82-2.13-1.85-3.8-3.2-2.72-2.2-4.79-3.71-6.46-4.92l-.13-.09c-2.89-2.11-4.08-2.98-5.6-5.22-.46-.67-.58-.93-.82-1.43-.39-.82-.83-1.7-1.89-3.35-2.72-4.22-5.21-6.73-7.22-8.74l-.09-.09c-.56-.56-1.08-1.08-1.55-1.59-.73-.79-1.38-1.62-1.98-2.52,1.8-.45,3.64-.68,5.49-.69,2.66-.01,4.86-2.1,5.01-4.76.08-1.38-.42-2.76-1.37-3.77-.95-1.01-2.29-1.59-3.71-1.59-3.11.02-6.19.47-9.1,1.32-.16.05-.33.1-.49.15l-.04-.11-3.1,1.24c-.15.06-.31.13-.47.2l-.21.09c-1.06.48-2.03.97-2.96,1.51l-2.37,1.37.05.14-.02.02-.14.13c-1.28,1.24-4.28,4.71-4.52,9.98-.06,1.31.06,2.61.34,3.81.27,1.25.72,2.48,1.34,3.66-.19.09-.38.17-.57.21-.21.05-.43.07-.65.07-1.36,0-2.77-.9-3.63-2.32v-.02c-.82-1.94-1.32-3.95-1.49-6-.09-1.07-.09-2.19,0-3.3.29-3.26,2.01-6.3,4.69-8.31,1.61-1.21,3.35-2.29,5.15-3.22.51-.27.97-.49,1.41-.68.66-.3,1.28-.56,1.91-.81l.21-.08c.33-.13.64-.24.98-.36,3.92-1.39,8.08-2.1,12.34-2.12,2.73-.01,4.95-2.16,5.05-4.88.05-1.38-.45-2.69-1.41-3.68-.95-.99-2.29-1.55-3.69-1.55-3.98.02-7.89.53-11.68,1.5-.31-2.04-.51-4.12-.58-6.2-.02-.51-.01-.99,0-1.49l.12-2.73-.48-.11.9-1.24-4.3-3.1c-1.8-1.29-2.58-3.59-1.96-5.71.54-1.86,2.06-3.25,3.95-3.65l4.8-1-.55-2.64.39-.02.48-2.52c.81-4.29,1.31-5.47,1.91-6.67.75-1.47,1.25-2.04,6.45-7.66l4.75-5.17c.79-.86,1.5-1.63,2.15-2.34l1.54.49.7-3.54.16-.64.21-.85h0l1.42-5.84.39-1.6c.36-1.48,1.5-2.62,2.98-2.99.32-.08.65-.12.99-.12.64,0,1.27.15,1.85.44l1.67.85.53.27.17.09.71.36h0l4.06,2.05,1.52-.86c.08-.05.16-.1.24-.14.49-.28.97-.56,1.45-.86.13-.08.27-.17.41-.25.48-.3.96-.62,1.47-.95.08-.05.15-.1.23-.15l4.61-3.11-.16-.08c.17-.12.35-.25.52-.36,5.51-3.6,11.82-4.1,17.81-4.1h.08c.29,0,.57,0,.86,0h.15s.1,0,.1,0h.26s.93,0,.93,0l3.61-2.25,2.69-1.67,5.72-3.56-1.81,8.32,3.1.74c.91.22,1.84.47,2.77.74-.27,2.37-.13,4.75.42,7.02,1.92,7.85,7.95,12.06,11.92,14.04.15,4.55,2.14,8.89,5.55,11.96,3.07,2.76,7.07,4.27,11.25,4.27.11,0,.21,0,.32,0,.85,2.92,2.49,6.23,5.62,9.01,3.51,3.12,8.12,4.84,12.98,4.84.76,0,1.53-.04,2.29-.13.9,3.69,1.58,6.32,2.14,8.44.89,3.4,1.14,4.41,1.14,5.29,0,.21,0,.42-.03.69-.09,1.25-.26,1.93-.54,3.05-.39,1.51-.92,3.57-1.35,7.56-.34,3.08-.31,4.57-.29,5.59,0,.73.01,1-.14,1.88-.27,1.53-.5,1.99-2.89,6.4l-.36.66c-.98,1.81-2.31,4.28-4.01,7.51l-.37.69c-.73,1.39-1.28,2.44-1.83,3.34h0s-.27.44-.31.5l-.73.73h0s0,0,0,0v.3c-.18.24-.37.47-.57.72l-.74.9v.26l-.52.87,2.57,4.46.07.18.59,1.66c.21.87-.05,1.78-.74,2.5ZM187.34,101.89c-3.07,5.33-8.79,8.64-14.94,8.64h-3.59c.34-.7.61-1.34.84-1.96.17,0,.34.02.5.02,1.96,0,3.89-.28,5.75-.84,7.95-2.37,11.77-8.92,12.85-11.11l3.38-5.59h1.44l-6.24,10.85ZM218.06,38.98c-2.3,4.7-3.97,9.66-4.95,14.75-.54,2.82-.88,5.69-1,8.55-.17,2.61-.86,5.1-2.04,7.38-.81,1.55-1.84,2.99-3.06,4.26l-.18.19-.62.9-.11.23c-.76,1.59-1.81,2.97-3.13,4.1-.72.62-1.51,1.15-2.35,1.59h-5c-.95-.2-1.87-.47-2.76-.84-1.28-.53-2.48-1.23-3.58-2.08-.26-.35-.56-.85-.74-1.48-.05-.19-.09-.39-.12-.59-.33-2.59-.79-4.95-1.38-7.14l.11-.04-1.11-3.14c-.25-.71-.46-1.35-.66-1.96-.84-2.54-1.56-4.74-3.64-7-1.14-1.24-2.5-2.29-4.05-3.11-.63-.47-1.83-1.57-2.24-3.36v-.03c-.05-.21,0-.4.17-.57.17-.19.42-.3.67-.3.04,0,.07,0,.12,0,.09.01.17.02.25.04,2,.32,3.44,1.27,4.3,2.02l1.54,1.33,6.71-2.84.11-2.03c.09-1.7.23-3.45.4-5.2.54-5.5,1.45-11.01,2.71-16.38.29-.91,1.15-1.57,2.07-1.57.08,0,.16,0,.23.01,1.07.13,1.9,1.17,1.85,2.31l-.12,2.68,8.64,2.09,1.12-2.44c.45-.99,1.35-1.52,1.96-1.52.05,0,.1,0,.16.01.28.04.7.27,1.05.78.44.63.58,1.38.42,2.17l-.35,1.71,4.55,4.6,1.71-.33c.07-.01.28-.05.54-.05.51,0,.96.12,1.35.35.06.03.11.07.16.1.42.31.64,1.12.29,1.83Z"/>
      <polygon class="cls-4" points="17.96 87.27 16.09 81.46 22.58 77.11 26.99 79.85 26.6 85.14 24.18 89.55 17.96 87.27"/>
      <path class="cls-4" d="M20.84,61.09l1.89-5.35,6.01,1.97,1.49,2.82-1.52,7.2-2.82-.09c-.08,0-.17,0-.26.01-.14.01-.28.04-.42.08l-3.79,1-.58-7.63Z"/>
      <path class="cls-4" d="M147.57,141.5c-2.98-.02-6.23-1.79-6.78-4.04-.77-3.15,3.59-7.96,11.62-10.72.71,1.03,1.73,2.82,2.19,5.24.34,1.8.72,3.81-.3,5.78-1.26,2.43-4.1,3.76-6.73,3.74Z"/>
      <polygon class="cls-4" points="25.82 62.12 17.93 66.81 15.34 73.99 19.23 81.17 20.92 82.07 22.22 75.88 25.82 62.12"/>
      <g>
        <polygon class="cls-4" points="221.4 31.78 215.82 30.57 211.73 23.26 202.45 24.46 195.93 18.74 187.1 23.13 183.64 45.73 175.26 44.02 169.81 52.97 174.47 57.7 181.41 63.68 183.64 73.76 185.09 80.87 192.21 85.16 200.79 85.49 207.99 81.47 211.73 74.59 216.49 66.84 216.49 57.57 219.41 47.54 222.73 37.3 221.4 31.78"/>
        <path class="cls-4" d="M184.97,92.15l-3.56,5.44-8.32,5.66-6.61-.84h0c.11-.36.21-.72.29-1.09.47-1.8.85-3.65,1.13-5.54,0-.04,0-.09.02-.13.05-.32.1-.65.13-.97.02-.11.04-.22.04-.32.31-2.53.46-5.12.39-7.79-.18-6.79-1.63-11.82-2.64-15.18-.47-1.56-1-3.14-1.59-4.71-.41-1.11-.86-2.23-1.35-3.34-4.88,2-10.41,1.26-14.05-1.97-3.9-3.46-4.18-8.39-4.18-9.82l-2.48-1.67c-3.55,1.46-7.67.77-10.5-1.77-2.7-2.42-3.86-6.15-3.02-9.72l-1.27-2.15c-.1-.02-9.14-2.6-11.1-10.66-.85-3.47-.05-6.57.66-8.4-1.11-.44-2.23-.85-3.37-1.23-1.95-.66-3.93-1.21-5.95-1.66-4.1-.92-8.32-1.43-12.62-1.44h-.26c-1.13,0-2.24.04-3.33.11-11.64.7-21.16,4.86-28.15,8.41-1.35.68-2.59,1.35-3.75,1.96-.05.03-.1.05-.15.09h0c-3.98,2.1-8.96,4.76-14.05,8.55h0c-1.36,1.01-2.73,2.12-4.08,3.31-4.37,3.84-8.64,8.65-12.2,14.83-2.11,3.67-3.7,7.32-4.87,10.82-.02.06-.04.13-.06.19-.44,1.31-.82,2.59-1.15,3.84-1.49,5.67-1.98,10.78-2.08,14.73-.04,1.42-.03,2.69,0,3.78,0,.05,0,.11,0,.15.04,1.23.11,2.23.16,2.94,0,0,.28,3.66,2.22,10.13.29.97.62,2.02,1.01,3.12l.22.25s-.07.03-.12.04c-.04-.1-.07-.2-.1-.3l-1.07-1.18-1.41.88-9.85,6.12-4.35,8.08-.41,10.06,2.29,3.48-1.47.54-.85,7.51.85,4.75-2.93,7.41,4.59,10.57c3.58,3.16,7.17,6.32,10.75,9.48,2.3-.99,4.6-1.99,6.91-2.98l6.73.22,5.88-4.2,1.23-4.59,4.43-1.04,3.47-5.15-1.5-7.28-2.74-2.84-2.65-5.04-8.39-4.99-2.34-.54-3.87-4.77-4.39-2.07-.61.22-.31-1.24-.22-.9,2.99-6.59,1.31-.58,2.86-1.27c.2.42.4.84.61,1.28,1.94,3.99,4.31,8.36,7.2,13.05,1.01,1.63,2.07,3.16,3.09,4.51,2.73,3.67,5.11,6.09,5.11,6.09.49.5.98.97,1.43,1.39.97.92,1.82,1.65,2.47,2.2,8.96,6.16,11.35,9.34,15.24,11.97.75.5,2.39,1.11,5.12,1.94.93.29,1.99.6,3.18.95l-2.57,3.1-5.31,8.98-6.27-.86-6.68,4.16-3.25,2.17-9.44,6.3-2.45,12.52,12.4,14.6,9.43,6.29,11.08,1.44,13.63-3.71,5.51-8.96-3.97-9.65-12.78-2.98-.27-2.57-.35-5.55h0l3.47-1.34,7.59-10.35,1.69-10.37s0,0,.01,0c.71.18,1.37.35,2,.49,3.9.95,6.18,1.24,8.67,1.29.99.03,4.85.09,9.85-.92,3.55-.72,6.66-1.77,9.36-2.93.59-.24,1.16-.5,1.71-.76l10.55,14.12,4.63,7.31,2.55-.81-7.74,9.05,1.86,9.95-.27,9.59,9.84,5.19,22.34-26.7,9.03-4.55,9.18,1.72-2.79-9.7-10.9-3.34-7.32,1.34-7.08,4.93-2.09.65-10.13.61,4.02-1.27-5.05-11.45-3.59-5.02-7.91-6.89s0,0,0,0c.52-.36,1.22-.84,2.39-1.62.83-.56,1.91-1.27,3.34-2.22,4.69-3.1,8.04-5.2,8.6-5.55,4.01-2.58,14.32-11.52,21.59-24.66.47-.84.92-1.7,1.36-2.58.27-.54.53-1.07.79-1.62l-.83,2.9,15.09-.66,8.87-3.45,6.35-8.65,8.44-15.74-11.9-1.42-3.92,6.99Z"/>
      </g>
      <path class="cls-4" d="M24.47,100.08s-.07.03-.12.04c-.04-.1-.07-.2-.1-.3l.22.25Z"/>
      <path class="cls-4" d="M24.47,100.08s-.07.03-.12.04c-.04-.1-.07-.2-.1-.3l.22.25Z"/>
      <g>
        <path class="cls-2" d="M67.09,122.82c.43,2.14-.18,4.93-1.87,6.35-.31.26-.18.07-2.21,1.31-2.33,1.42-2.38,1.4-2.5,1.43-2.17.53-5.36-2.05-6.34-5.03-.41-1.26-.38-2.33-.24-4.06.05-.62.23-2.45,1-4.81.54-1.65.81-2.48,1.43-3.08,1.51-1.45,3.73-1.24,4.15-1.2,2.08.2,3.96,1.51,4.75,3.15.32.66.13.68.67,2.57.65,2.3.95,2.31,1.16,3.37Z"/>
        <path class="cls-2" d="M91.83,34.92c1.27-2.41,1.68-2.47,2.17-3.62.38-.89.6-1.42.69-2.19.08-.72.33-2.81-1.18-4.2-1.22-1.12-2.98-1.21-4.18-.8-.41.14-.74.33-2.35,1.79-1.18,1.07-1.96,1.71-2.9,2.75-.95,1.05-1.44,1.6-1.88,2.5-.12.25-.54,1.13-.73,2.42-.18,1.21-.61,3.98.93,5.09.78.57,1.78.5,2.28.47,1.07-.07,1.25-.46,3.22-1.15,1.56-.54,1.76-.41,2.37-.85.75-.54,1.02-1.17,1.57-2.22Z"/>
        <path class="cls-2" d="M149.45,112.39c-.17.96-.45,2.62-1.74,4.15-.85,1.02-1.79,1.55-2.29,1.83-.9.5-1.34.75-1.83.68-1.38-.2-2.06-2.48-2.54-4.08-.4-1.36-.37-2.11-.32-2.53.04-.35.1-.57.64-1.98,1.01-2.67,1.31-3.27,1.93-3.9.24-.24.42-.38.77-.65,1.37-1.06,2.48-1.92,3.54-1.65,1.19.31,1.7,1.9,1.8,2.19.2.62.17,1.06.13,2.03-.13,3.62.03,3.16-.1,3.9Z"/>
        <path class="cls-2" d="M114.12,140.06c.04,1.5-1.02,2.93-2.17,3.51-.67.33-1,.2-3.28.87-1.04.31-.89.31-1.18.37-1.92.35-3.56-.68-4.66-1.37-1.4-.88-1.7-1.52-1.78-1.72-.3-.71-.22-1.35-.18-1.66.2-1.59,1.4-2.62,2.37-3.46.64-.55,1.15-.98,1.96-1.22.37-.11.98-.24,2.31-.07,1.47.19,2.68.35,3.95,1.15.79.51,2.63,1.68,2.69,3.59Z"/>
        <path class="cls-2" d="M53.33,70.56c.43,1.86.58,2.01.56,2.67,0,.23-.04.84-.33,1.55-.23.57-.72,1.75-1.91,2.18-1.43.51-2.77-.44-2.96-.58-.18-.13-.08-.09-1.11-1.22-1.09-1.2-1.26-1.31-1.51-1.77-.11-.21-.42-.81-.53-1.66-.02-.19-.08-.72.02-1.41.05-.36.17-1.08.63-1.83.27-.44.74-1.2,1.57-1.51.95-.35,1.87.12,3.71,1.06.78.4,1.2.71,1.49,1.2.16.27.16.39.37,1.31Z"/>
        <path class="cls-2" d="M121.1,107.07l-1.99.26c-4.12.55-8.26.55-12.29,0-9.92-1.34-16.82-5.63-19.77-7.46-3.33-2.06-6.44-4.49-9.27-7.22l-2.32-2.23-.68,3.13c-1.06,4.8-1.15,9.6-.28,14.28.63,3.37,2.29,12.35,10.22,18.63,1.55,1.23,4.45,3.52,8.9,4.52,1.49.34,3.02.5,4.54.5,8.55,0,17.18-5.08,20.93-12.83,1.41-2.92,2.1-6.15,2.04-9.59l-.04-2.01ZM94.42,127.49c-3.65-.83-6.04-2.71-7.47-3.84-6.16-4.87-8-11.81-8.71-15.37,3.55,2.57,8.49,5.5,14.77,7.67,8.73,3.02,16.52,3.33,21.77,3.05-4.25,6.44-12.92,10.17-20.37,8.49Z"/>
        <path class="cls-2" d="M66.34,92.07c3.83-4.58,9.58-7.74,15.82-8.44l.23,4.48c-5.15-.16-10.49,1.74-14.56,5.39l-1.49-1.44h0Z"/>
        <path class="cls-2" d="M105.29,89.56c2.07-5.97,9.97-7.11,14.24-2.64,2.95,2.95,3.08,8.04.57,11.28-3.6,5.22-11.8,4.45-14.76-.69,0,0,1.27-.99,1.27-.99,2.15,2.1,5.25,2.84,7.69,1.96,2.39-.81,4.07-3.37,3.97-5.84-.08-3.3-3.36-5.68-6.55-5.54-2.19.05-4.01,1.27-5.46,3.01l-.98-.54h0Z"/>
        <path class="cls-2" d="M134.97,77.67c-1.06,4.57-3.49,8.11-6.85,9.98-1.78.99-3.88,1.48-6.17,1.48-.95,0-1.94-.08-2.94-.26l-1.64-3.6c2.73.47,7.34.66,9.21-.38,2.56-1.43,4.44-4.24,5.3-7.94,1.09-4.66.26-9.69-2.14-13.13-.88-1.27-4.12-5.41-8.62-5.12-2.92.17-5.51,2.11-7.71,5.75.77-.37,1.61-.57,2.48-.57,2.86,0,5.35,2.22,6.52,5.44l-4.42,4.92,5.14-.17c-.21,5.09-3.37,9.14-7.23,9.14-1.5,0-2.89-.61-4.05-1.64-.35-.32-.69-.68-.99-1.09-.6-.86-1.09-1.77-1.48-2.72h0c-.04-.09-.06-.16-.09-.24-2.83-7.21,1-13.97,1.17-14.26,3.5-6.06,7.63-7.54,10.47-7.71,6.16-.37,10.29,4.86,11.41,6.47,2.9,4.15,3.9,10.15,2.63,15.67Z"/>
        <path class="cls-2" d="M70.55,60.82c7.8-2.44,16.7,1.13,20.79,8.17,0,0,.01.02.03.06.87,1.45-.59,3.19-2.16,2.57h0c-5.83-2.32-12.48-2.47-18.44-.41-.52.18-1.09-.06-1.3-.56h0c-.22-.52,0-1.14.53-1.36,6.36-2.76,13.74-3.13,20.4-1.05,0,0-2.13,2.63-2.13,2.61-3.1-5.33-9.61-8.21-15.61-6.87-.62.14-1.24-.23-1.42-.84-.3-1-.68-2.32-.68-2.32h0Z"/>
      </g>
      <path class="cls-4" d="M24.44,75.1c-.42,3.08-.75,6.07-1.03,8.98.09-2.26.44-5.08,1.03-8.98Z"/>
      <path class="cls-4" d="M108.47,10.42l-.51,2.35-.76,3.51c-3.48-.85-7.72-1.54-12.5-1.63-.83-.02-1.66-.03-2.51-.04l5.52-3.43,6.27-3.89c1.24-.76,2.95-.48,3.88.65.57.69.79,1.6.62,2.48Z"/>
      <path class="cls-4" d="M62.56,25.03c-.74.42-1.55.85-2.44,1.3-2.75,1.37-4.18,1.83-5.46,2.24-1.07.33-1.91.6-3.41,1.4-2.08,1.1-3.24,2.07-6.93,6.02l1.64-6.72.55-2.25c.65-2.67,2.7-4.73,5.36-5.39,1.71-.43,3.53-.22,5.1.57l1.67.84,3.92,1.97Z"/>
      <path class="cls-3" d="M28.8,109.7c-.18.07-.36.15-.55.23-.92.41-1.8.86-2.67,1.36-.79-2.07-1.53-4.34-2.35-6.9l-.07-.22c-.26-.82-.6-1.87-.97-3.13.73-.33,1.45-.64,2.16-.92.04-.02.08-.04.12-.04.37-.14.72-.27,1.08-.39.25.9.49,1.69.7,2.37.13.37.23.71.33,1.01l.07.22c.78,2.41,1.46,4.52,2.15,6.41Z"/>
      <path class="cls-1" d="M149.08,45.14c.13.43.15.87.13,1.34-.07-.44-.12-.88-.13-1.34Z"/>
      <path class="cls-1" d="M165.46,66.13s-.04.02-.05.03c-.02-.09-.04-.17-.06-.26l.12.23Z"/>
      <path class="cls-2" d="M221.8,31.61c-.2-.15-.41-.29-.64-.42-1.57-.95-3.17-1.27-4.45-1.33-.06-1.85-.64-3.65-1.69-5.17-1.36-1.97-3.41-3.3-5.62-3.64-2.45-.39-4.92.4-6.83,2.01-1.28-2.74-3.87-4.78-7-5.17-4.33-.54-8.53,2.26-9.78,6.6-1.35,5.74-2.33,11.62-2.9,17.46-.08.77-.14,1.54-.21,2.31-1.35-.74-3-1.38-4.96-1.7-.15-.02-.3-.05-.45-.06-2.49-.32-5.01.6-6.71,2.46-1.68,1.84-2.34,4.27-1.81,6.69l.02.09c1,4.35,4.03,6.79,5.29,7.63l.2.12c.94.47,1.76,1.07,2.42,1.79,1.08,1.17,1.47,2.36,2.18,4.52.22.67.46,1.41.76,2.25v.02c.91,2.53,1.55,5.39,1.98,8.73.07.52.17,1.04.31,1.54.46,1.65,1.31,3.21,2.46,4.49l.2.19c.98.8,2.02,1.51,3.1,2.13l-4.92,8.14-.09.16c-.66,1.4-3.23,6.09-8.73,7.72-2.46.73-4.72.62-6.46.29h0c-.02-.89,0-2.04.25-4.49.04-.43.09-.83.14-1.2,0-.04,0-.09.02-.13.04-.34.08-.66.13-.97.02-.11.04-.22.04-.32.29-1.81.57-2.94.83-3.98.33-1.28.61-2.4.74-4.27.17-2.43-.12-3.54-1.32-8.19-.57-2.22-1.36-5.27-2.45-9.74-.18-.74-.34-1.42-.48-2.03-.02-.09-.04-.17-.06-.26h0c-.13-.54-.24-1-.34-1.43-.77-3.27-.95-4.04-1.65-5.63-.18-.4-.38-.85-.71-1.49-.28-.54-.65-1.25-1.14-2.1-.2-.34-.59-.53-.98-.45-.52.11-1.1.2-1.74.22-1,.04-1.77-.08-2.06-.13-.24-.04-.48-.09-.74-.16,0,0-.15-.04-.39-.12-.17-.05-.35-.12-.53-.19-.1-.04-.2-.08-.31-.13-4.69-2.06-5.45-5.28-5.45-5.28-.23-.95-.13-1.78-.1-2.54-.07-.44-.12-.88-.13-1.34-.09-.3-.24-.59-.48-.89-.26-.32-.54-.55-.72-.67-.66-.33-1.4-.5-2.15-.5h-.48s-.06,0-.1.02c-.23.04-.48.07-.71.09-.89.08-1.78,0-2.63-.23-.22-.05-.43-.13-.64-.2h0c-.42-.15-.83-.34-1.22-.57-.39-.22-.76-.49-1.12-.79-.44-.37-.83-.78-1.17-1.23-.34-.45-.63-.92-.86-1.44-.08-.17-.15-.34-.21-.51-.07-.17-.13-.35-.18-.52-.03-.09-.05-.18-.07-.28-.21-.72-.29-1.48-.25-2.24v-.16c0-.78-.24-1.53-.74-2.14-.54-.66-1.32-1.07-2.16-1.17-.09,0-.19-.03-.3-.04-.27-.04-.57-.08-.88-.15-.31-.06-.66-.14-1.01-.25-.12-.03-.23-.06-.36-.11-1.03-.32-2.17-.83-3.27-1.6-.17-.12-.34-.24-.5-.38,0,0-.02,0-.02,0-.16-.13-.32-.26-.48-.4-.21-.18-.4-.38-.6-.58-.15-.15-.31-.32-.45-.49-.2-.22-.39-.47-.57-.73-.34-.48-.63-.97-.87-1.45-.05-.1-.48-.95-.76-2-.35-1.27-.43-2.51-.42-3.46,0-.79-.39-1.52-1.04-1.95-.16-.11-.33-.22-.49-.32-1.16-.74-2.35-1.41-3.69-1.94-1.35-.53-3.39-1.32-6.02-2.12-.02,0-.03,0-.04-.02,0,0,0,0,0,0l.56-2.58c.39-1.94-.11-3.93-1.36-5.46-1.26-1.53-3.11-2.41-5.08-2.41-1.22,0-2.41.34-3.46.98l-10.92,6.77s0,0,0,0h-.07c-6.9-.02-14.81.57-21.92,5.21-.88.57-1.71,1.18-2.59,1.84-1.2.88-2.5,1.84-4.17,2.86,0,0,0,0,0,0l-3.81-1.93c-2.34-1.18-5.04-1.49-7.59-.85-3.95.98-7.01,4.06-7.98,8.02l-1.96,8.07h0c-1.06,1.14-2.27,2.47-3.72,4.05l-4,4.34c-5.48,5.93-6.32,6.85-7.51,9.2-1.08,2.12-1.73,4.05-2.7,9.33h0s0,0,0,0c-4.2,1.01-7.54,4.17-8.76,8.34-1.44,4.91.38,10.21,4.53,13.2l.96.69c-.05.95-.07,1.83-.04,2.65.14,4.47.77,8.34,1.48,11.46,0,0,0,0,0,0,0,0,0,0,0,0-.77.34-1.53.7-2.29,1.09-2.13,1.09-4.18,2.38-6.1,3.82-4.25,3.19-6.96,7.99-7.41,13.18-.13,1.49-.13,3-.02,4.49.22,2.55.8,5.05,1.74,7.46,0,0,0,0,0,0-2.24,3.33-2.26,7.35-.6,10.54-1.56,2.07-3.31,5.28-3.34,9.36-.05,5.88,3.38,9.85,5.02,11.76,1.71,1.99,3.76,3.64,6.08,4.93,1.04,2.75,3.45,4.79,6.35,5.29.46.08.92.12,1.38.12,2.44,0,4.79-1.1,6.38-2.99,1.8.51,4.93.94,8.13-.76,3.75-1.98,5.06-5.53,5.51-7.55,1.75-.31,4.03-1.09,5.76-3.01,2.81-3.12,3.16-8.05,1.21-12.58,0,0,.01,0,.02.01.31.22.63.46.96.7,1.62,1.18,3.64,2.65,6.26,4.78,1.62,1.31,2.77,2.32,3.7,3.12,2,1.74,3.11,2.69,5.46,3.78,1.19.55,2.32.96,3.37,1.26-1.01,3.2-2.45,6.2-4.29,8.98-5.74-1.51-11.55.76-14.34,5.32-1.42.23-2.74.59-4.05,1.07-9.3,3.19-14.83,13.6-9.31,22.48,3.79,5.89,8.38,11.46,13.55,16.19,8.9,7.26,22.29,7.05,32.36,2.43,6.4-2.84,9.62-10.68,6.98-17.17-2.85-7.21-9.84-10.04-16.45-9.09.8-1.47,1.31-3.16,1.42-5.01,1.31-.92,2.53-1.95,3.64-3.08,6.48-6.61,7.6-14.79,7.72-18.94,0,0,0,0,0,0,.57.15,1.07.29,1.53.41,2.19.58,3.64.97,7.11,1,.17,0,.35,0,.54,0,4.09,0,11.88-.42,19.01-3.15,0,0,0,0,0,0,3.64,3.56,6.85,7.52,9.55,11.8,1.76,2.79,3.3,5.75,4.62,8.78-.21.23-.41.47-.61.72-1.58,1.96-2.74,4.19-3.42,6.64-.5,3.2.28,6.63,2.16,9.28-4.26,9.24,2.53,18.16,12.57,18.81,5.88.5,11.49-1.7,16.53-4.25,6.97-3.31,13.15-8.25,17.91-14.31,4.32-5.25,8.14-10.97,5.74-18.18-4.08-12.52-21.18-13.97-29.58-5.04-.68.67-1.26,1.38-1.81,2.11-1.19-.47-2.33-.77-3.52-.99-.22-.04-.44-.07-.67-.11-.75-3.06-1.83-6.03-3.24-8.81-2.94-5.83-7.34-10.98-12.8-15.03,0,0,0,0,0,0,.04-.02.08-.04.12-.07,2.37-1.46,3.72-1.97,5.14-2.5,1.23-.47,2.49-.94,4.33-1.98,1.48-.83,2.12-1.36,3.23-2.43.02-.03.04-.04.07-.07h0c.16-.16.33-.33.52-.51.13-.13.29-.27.44-.42,0,0,0,0,0,0,1.49.72,2.7,1.31,4.42,1.6.34.06,1.25.22,2.17.22,2.79,0,5.52-1.08,7.5-3.13,2.47-2.56,3.28-6.17,2.07-9.42l-1.01-2.7c-.12-.31-.26-.6-.44-.88h0s0,0,0,0h0c.97-1.45,1.72-2.89,2.77-4.88l.27-.51c.81-1.52,1.53-2.88,2.16-4.07h10.93c8.59,0,16.59-4.63,20.88-12.08l10.54-18.33c1.29-.68,2.51-1.49,3.62-2.45,1.97-1.7,3.55-3.74,4.71-6.08,1.59-1.69,2.93-3.59,3.99-5.64,1.63-3.14,2.58-6.55,2.81-10.18.11-2.55.41-5.12.89-7.61.87-4.49,2.34-8.87,4.38-13.03,1.81-3.69.79-8.05-2.41-10.38ZM208.84,24.59c1.24.2,2.42.98,3.23,2.14.92,1.32,1.25,2.94.96,4.55l-5.71,14.29c-2.33-1.21-4.87-2.03-7.47-2.45l3.48-15.28c1.08-2.22,3.38-3.59,5.53-3.25ZM45.21,152.85c-1.05,1.16-2.51,1.66-3.68,1.87-1.88-2.34-4.64-3.93-7.6-4.24l-.35,1.76c1.44.44,2.75,1.22,3.76,2.23.57.57,1.04,1.22,1.43,1.9v.17s-.3,4.22-3.84,6.09c-2.09,1.11-4.19.83-5.39.5-1.6-1.28-2.66-3.29-2.75-5.47l-2.68-.06c-.17,2.24.46,4.57,1.73,6.51-1.07,1.37-2.8,2.07-4.51,1.78-1.79-.31-3.26-1.67-3.74-3.47l-.21-.77-.71-.36c-2.19-1.12-4.09-2.61-5.66-4.43-1.47-1.7-4.19-4.86-4.15-9.38.02-2.64,1.02-4.84,2.06-6.44,1.34,1.18,3.04,2.05,5.02,2.41l.59-3.16c-1.12-.26-2.38-.85-3.29-1.64-2.28-1.82-2.87-5.02-1.86-7.64,2.15,2.33,5.08,3.69,8.05,3.68.74,0,1.47-.08,2.21-.25,1.28-.31,2.49-.87,3.57-1.69,2.39-1.8,3.13-5.09,1.8-7.79h0c5.95,1.73,7.77,9.22,1.3,12.98,0,0,.99,1.87.99,1.87,3.79-1.95,5.57-4.95,5.78-7.99,1.65.28,3.66.93,5.66,2.33,3.03,2.13,4.43,4.96,5,6.45l.1.26.17.22c3.46,4.35,3.33,9.39,1.21,11.74ZM23.81,121.17c-.02-.25-.02-.49,0-.74.12-2.69,1.59-4.51,2.33-5.26.27-.18.55-.35.83-.51,0,0,0,0,0,0,1.26,2.7,2.75,5.08,4.88,7.39.54.58,1.13,1.18,1.75,1.8,1.63,1.63,3.47,3.47,5.47,6.33,0,0,0,.01.01.02-2.4-1.3-4.72-1.85-6.52-2.04-1.2-3.4-4.34-6.26-8.74-6.96,0,0,0,0,0-.01ZM68.2,188.07c-1,.48-1.96,1.05-2.85,1.72-3.05,1.18-6.72.82-9.57-1.73,0,0-1.31,1.38-1.31,1.38,2.28,2.27,5.03,3.33,7.76,3.42-.68.89-1.29,1.87-1.78,2.93,0,0,1.72,1.08,1.72,1.08,5.88-7.67,19.57-10.23,23.89.13,1.74,4.38-.16,9.48-4.23,11.72-2.24,1.16-4.68,1.97-7.14,2.5-4.98,1.06-10.34.85-15.2-.54-3.59-1.04-6.78-3.38-9.23-6.19-2.71-2.78-5.51-6.03-7.74-9.18-1.41-2.05-3.04-3.98-3.6-6.43-1.74-6.65,3.72-12.31,9.79-14.21-.2,1.13-.24,2.34-.1,3.61,0,0,2.26-.17,2.26-.17-.36-6.79,5.4-10.91,11.42-9.74-1.47,1.76-3.11,3.39-4.9,4.84l-.58.47-.08.74c-.13,1.26-.18,4.48,2.21,7.33,2.59,3.08,6.15,3.45,7.68,3.45.27,0,.48-.01.61-.02l.22-.02.21-.07c1.11-.37,2.18-.81,3.22-1.31-.46,1.73-1.41,3.2-2.68,4.31ZM75.78,175.93c-2.46,2.51-5.58,4.47-9.03,5.66-.76.03-3.32-.09-5.07-2.17-1.18-1.4-1.4-2.99-1.41-3.95,2.45-2.07,4.62-4.42,6.48-7.01,2.48-3.46,4.36-7.27,5.62-11.36,0,0,0,0,0,0,.58.1,1.1.17,1.58.23l.13.02c3.69.49,6.36.94,8.4,1.35,0,3.34-.69,11.1-6.7,17.23ZM145.77,177.18c-.33.48-.67.96-1.03,1.44-1.59,2.22-3.09,4.61-4.11,7.18,0,0,1.27.6,1.27.6,1.89-3.6,4.69-6.42,7.17-9.64,6.22-9.24,22.77-10.19,26.75,1.39.04.13.07.25.11.38-2.85-.72-7.01-1.12-11.53.56-5.02,1.85-7.98,5.35-9.34,7.35l-20.29,22.16c-4.76-2.25-7.22-7.35-4.14-12.83,0,0,.76-1.27.76-1.27-2.19-2.11-3.52-4.89-3.13-8.01.5-1.79,1.39-3.54,2.56-5.01,3.41-4.49,9.69-5.94,14.95-4.31ZM137.29,165.83c1.12,2.23,2.01,4.58,2.68,7.02-3.11.2-6.17,1.24-8.73,3.01-1.28-2.83-2.75-5.59-4.4-8.21-2.6-4.12-5.65-7.97-9.08-11.46,0,0,0,0,0,0,1.58-.83,3.08-1.8,4.44-2.93l.41-.35c.48-.4,1.11-.94,1.92-1.55,5.47,3.82,9.87,8.79,12.74,14.47ZM156.13,119.79l-.27.51c-.9,1.71-1.53,2.91-2.22,4.01,0,.02-.02.03-.04.04-.11.17-.22.34-.33.51,0,0,0,.02,0,.02-.19.28-.39.57-.61.85,0,0,0,0-.01.01-.21.28-.44.57-.69.88,0,0,0,0,0,0,0,0,0,0,0,0,0,0,0,0,0,0,.58,1.01,1.18,2.04,1.76,3.05l.1.28.57,1.53c.78,2.14.25,4.49-1.36,6.16-.15.16-.32.32-.5.47-.14.13-.31.25-.47.36-.13.08-.24.16-.37.24-.25.14-.5.28-.77.39-.15.06-.3.12-.45.18-.26.09-.52.16-.79.22-.16.04-.34.07-.52.1h-.02c-.17.03-.36.04-.55.05-.14,0-.3.02-.45.02-.16,0-.31,0-.45-.02-.15,0-.3-.03-.42-.04-.28-.04-.54-.09-.82-.15-.09-.03-.19-.04-.26-.07-.3-.08-.57-.18-.86-.31-.5-.16-1.04-.37-1.61-.62h-.02c-1.02-.48-2.06-.95-3.08-1.43-.28.27-.55.53-.83.81-.02.01-.03.03-.05.05-.44.42-.82.79-1.13,1.09-.13.13-.24.23-.35.34-.22.22-.41.4-.59.57-.75.69-1.18,1.01-2.17,1.58-1.58.9-2.67,1.3-3.81,1.73-1.53.57-3.11,1.17-5.78,2.82-2.74,1.7-4.52,3.21-5.6,4.11l-.39.33c-7.83,6.47-21.23,6.88-25.18,6.82-3.02-.03-4.16-.32-6.21-.88-2.31-.62-5.8-1.55-13.98-2.65l-.13-.02c-1.86-.24-4.42-.58-7.44-1.97-1.88-.87-2.68-1.55-4.6-3.22-.95-.83-2.13-1.85-3.8-3.2-2.7-2.19-4.77-3.69-6.42-4.89-3.04-2.22-4.58-3.33-6.41-6.05-.61-.9-.81-1.32-1.07-1.87-.31-.66-.67-1.41-1.69-2.98-2.57-3.99-4.95-6.36-6.87-8.28-.58-.58-1.14-1.14-1.65-1.7-1.88-2.03-3.19-4.14-4.32-6.58.65-.28,1.31-.53,1.98-.75,2.65-.88,5.41-1.33,8.23-1.35.94,0,1.72-.74,1.77-1.69.06-1.04-.77-1.91-1.81-1.9-2.81.02-5.58.42-8.25,1.2-.36.1-.71.22-1.07.33-.75.25-1.49.53-2.21.83,0,0,0,0,0,0-.18.07-.36.15-.55.23-.92.41-1.8.86-2.67,1.36,0,0,0,0,0,0,0,0,0,0,0,0-.53.31-1.05.63-1.56.96l-.27.21c-1,.97-3.35,3.67-3.54,7.79-.04,1.01.04,2.01.27,2.98.23,1.09.65,2.15,1.22,3.17.69,1.22.41,2.69-.66,3.49-.69.52-1.44.88-2.24,1.07-2.97.7-6.23-.92-7.95-3.96-.03-.07-.06-.14-.09-.22-.94-2.24-1.53-4.6-1.72-6.99-.11-1.28-.1-2.58,0-3.87.38-4.19,2.56-8.06,5.99-10.64,1.77-1.32,3.65-2.5,5.6-3.5.52-.27,1.03-.52,1.55-.75.73-.33,1.45-.64,2.16-.92.04-.02.08-.04.12-.04.37-.14.72-.27,1.08-.39,5.03-1.78,9.74-2.29,13.41-2.31.97,0,1.77-.76,1.8-1.73.04-1.03-.8-1.87-1.83-1.86-4.89.03-9.71.84-14.25,2.41,0,0,0,0,0,0-.63-2.85-1.15-6.31-1.28-10.26-.02-.55-.02-1.12,0-1.74h0s.19-2.61.19-2.61l-.94-.59-1.66-1.2c-2.92-2.1-4.19-5.83-3.18-9.28.88-3.01,3.34-5.28,6.41-5.92l.7-.15c.13-.02.26-.04.4-.06.28-.03.54-.03.77-.02.24-1.12.47-2.24.71-3.37h0s0,0,0,0c.85-4.5,1.42-5.98,2.21-7.54.97-1.9,1.65-2.65,6.96-8.39l4-4.35c1.76-1.91,3.17-3.44,4.32-4.68h0s.03,0,.03,0v-.04s0,0,0,0h0s.14-.56.14-.56l.84-3.46h0l.66-2.7s0,0,0,0l.55-2.25c.65-2.67,2.7-4.73,5.36-5.39,1.71-.43,3.53-.22,5.1.57l1.67.84.56.28.16.08h0l3.2,1.61c1.38-.78,2.55-1.53,3.57-2.22h0s0,0,0,0c.97-.67,1.81-1.29,2.58-1.86.83-.61,1.62-1.19,2.42-1.71,6.19-4.05,13.11-4.63,19.59-4.63.34,0,.68,0,1.02,0h0c.14,0,.29,0,.42,0l5.52-3.43,6.27-3.89c1.24-.76,2.95-.48,3.88.65.57.69.79,1.6.62,2.48l-.51,2.35-.76,3.51c1.09.26,2.1.54,3.03.82h.04c.97.3,1.85.58,2.66.87h0c-.6,2.25-.93,5.22-.14,8.47,1.94,7.91,8.93,11.5,12.09,12.74-.48,4.34,1.13,8.68,4.4,11.61,3.24,2.91,7.74,4.04,11.96,3.13.39,2.74,1.59,6.91,5.22,10.13,2.99,2.66,6.82,4.02,10.82,4.02,1.57,0,3.17-.22,4.74-.66.11.48.24,1.02.38,1.61,1.1,4.51,1.88,7.57,2.47,9.8.96,3.68,1.25,4.81,1.25,6.11,0,.29,0,.58-.04.92-.11,1.55-.33,2.43-.64,3.64-.39,1.5-.86,3.36-1.27,7.1-.31,2.89-.29,4.21-.27,5.16,0,.83.02,1.32-.19,2.51-.37,2.12-.82,2.93-3.29,7.49-1.02,1.89-2.43,4.49-4.3,8.04ZM190.17,103.52c-3.65,6.34-10.45,10.28-17.77,10.28h-8.99s0,0,0,0c.06-.11.12-.22.18-.33,2.52-4.64,3.16-5.83,3.62-8.39,2.13.36,4.83.43,7.77-.45,6.81-2.03,10.03-7.71,10.91-9.55l4.41-7.3h4.69c1.28.22,2.58.33,3.89.33.05,0,.1,0,.14,0l-8.86,15.41ZM220.99,40.42c-2.18,4.44-3.75,9.13-4.68,13.93-.52,2.67-.83,5.41-.95,8.11-.2,3.08-1.01,6.01-2.41,8.71-.95,1.83-2.16,3.52-3.6,5.01l-.13.19c-2.21.47-4.59.38-6.85-.33l-.78,1.91c1.72.87,3.64,1.43,5.62,1.64-.63.81-1.33,1.56-2.12,2.23-1.13.97-2.39,1.76-3.74,2.38h-6.04c-1.27-.24-2.52-.59-3.7-1.09-1.66-.69-3.22-1.61-4.64-2.76-.53-.62-1.21-1.61-1.58-2.95-.09-.34-.16-.69-.21-1.04-.05-.4-.12-.78-.18-1.17,3.49,1.54,7.37,2.08,11.04,1.5l-.21-2.05c-4.3.2-8.51-1.27-11.68-3.9-.33-1.35-.69-2.64-1.12-3.85l-1.69.6,1.68-.64c-.28-.8-.52-1.51-.73-2.16-.78-2.37-1.34-4.08-2.95-5.82-.94-1.02-2.06-1.87-3.35-2.52-.95-.66-3.02-2.4-3.71-5.4l-.02-.08c-.28-1.25.07-2.52.95-3.48.92-1,2.26-1.5,3.61-1.32.11.01.23.03.35.05,2.76.44,4.74,1.75,5.92,2.77h0c4.22,3.77,7.69,8.51,10.05,13.83l1.22-.45c-1.64-5.53-4.46-10.78-8.25-15.32.09-1.55.21-3.11.36-4.65.56-5.68,1.5-11.4,2.8-16.9.74-2.58,3.26-4.27,5.86-3.95,2.72.34,4.76,2.77,4.7,5.56l-3.59,15.79c-1.35-.02-2.7.06-4.03.25,0,0,.02,1.92.02,1.92,5.25.77,10.29,2.15,15.07,4.42,1.59.72,3.15,1.53,4.78,2.33,0,0,1.25-1.6,1.25-1.6-.88-.97-1.86-1.83-2.91-2.62l5.63-14.07c.87-.03,2.08.09,3.27.82.14.08.26.17.39.26,1.76,1.28,2.32,3.82,1.3,5.9Z"/>
      <g>
        <path class="cls-5" d="M304.93,151.92c-31.97,0-56.07-23.56-56.07-54.81s24.1-54.81,56.07-54.81c25.31,0,46.31,14.83,53.5,37.79.21.68.09,1.39-.32,1.96-.4.55-1.03.87-1.72.87h-19.23c-.81,0-1.55-.46-1.9-1.18-5.63-11.49-17.26-18.63-30.34-18.63-19.21,0-33.69,14.62-33.69,34s14.48,34,33.69,34c12.8,0,23.95-6.59,29.83-17.63.71-1.34,2.05-2.17,3.49-2.17h15.58c1.32,0,2.51.62,3.27,1.71.76,1.08.93,2.42.47,3.65-7.9,21.42-28.56,35.25-52.64,35.25Z"/>
        <path class="cls-5" d="M563.05,151.92c-23.99,0-42.08-17.48-42.08-40.67s18.02-40.67,41.92-40.67,41.92,17.62,41.92,40.98c0,1.33-.06,2.82-.18,4.09-.09.95-.9,1.68-1.89,1.68h-60.29l.47,1.66c2.74,9.75,10.44,15.57,20.59,15.57,6.91,0,13.25-2.53,16.96-6.76.34-.39.87-.63,1.39-.63h18.07c.68,0,1.29.35,1.64.93.34.57.37,1.23.06,1.81-7.08,13.57-21.87,22-38.6,22ZM562.89,87.78c-9.36,0-16.94,5.84-19.8,15.23l-.51,1.69h40.57l-.44-1.64c-2.49-9.28-10.27-15.28-19.81-15.28Z"/>
        <path class="cls-5" d="M399.4,151.92c-21.3,0-37.36-17.48-37.36-40.67s16.06-40.67,37.36-40.67c9.12,0,17.16,3.55,23.24,10.26l2.27,2.51v-8.7c0-1.2.98-2.18,2.19-2.18h15.95c1.21,0,2.19.98,2.19,2.19v44.21c-.22,1.33-.58,5.32,2.18,8.44,1.77,2,4.35,3.05,7.45,3.05,1.47,0,2.64-.24,3.08-.33,2.29-.47,4.37-1.56,6.18-3.23,1.4-1.3,2.19-2.57,2.45-2.99l.4-.64-.35-.67c-4.06-7.64-6.76-15.73-8.04-24.02-2.45-16.07-1.49-46.22,17.58-57.32,4.08-2.37,8.61-3.63,13.09-3.63.4,0,.81.01,1.22.03,8.75.46,15.1,5.61,18.11,8.65,10.64,10.71,10.14,27.47,8.9,36.5-1.19,8.66-4.02,17.45-7.98,24.78l-.24.25v.2c-2.95,5.38-6.7,10.33-11.16,14.72l-1.07,1.06,1.2.91c3.42,2.6,7.37,4.2,11.43,4.64.77.08,1.54.12,2.3.12.1,0,.2,0,.31,0,2.84,7.95,7.17,14.74,12.86,20.17.22.21.44.42.66.62-2.29-.04-4.57-.06-6.8-.06-1.71,0-3.21.01-4.47.03l-1.32.02c-1.56.02-3.05.04-4.5.04-6.25,0-11.13-.38-16.19-2.26-1.05-.38-1.92-.81-2.88-1.3-3.48-1.8-6.6-4.51-9.26-8.05l-.89-1.19-1.06,1.03c-3.8,3.7-8.1,6.6-12.76,8.63-3.84,1.68-7.03,2.36-8.6,2.63-1.15.19-3.09.52-5.46.52-.89,0-1.79-.05-2.68-.14-6.18-.63-10.75-3.28-12.93-4.81-2.44-1.7-4.59-3.78-6.39-6.19l-.92-1.23-1.07,1.1c-4.51,4.66-9.77,8.14-15.65,10.35-2.46.93-6.83,2.58-12.61,2.58ZM403.96,90.14c-11.86,0-20.8,9.08-20.8,21.11s8.94,21.11,20.78,21.11c5.57,0,10.81-2.18,14.77-6.14,4.01-4.01,6.21-9.34,6.2-15.01-.03-12.01-9.04-21.07-20.95-21.07ZM487.56,57.1c-6.15.07-9.59,13.87-10.21,20.15-.73,7.16.77,13.25,2.09,18.62,1.05,4.31,2.45,8.51,4.16,12.51l.74,1.74,1.36-1.31c1.74-1.67,3.33-3.51,4.73-5.49,1.23-1.77,3.56-5.52,5.36-10.88.57-1.72,2.4-8.11,1.91-18-.3-6.09-4.66-17.34-10.08-17.34h-.05Z"/>
        <path class="cls-5" d="M646.35,212.18c-22.05,0-35.21-7.95-35.21-21.26,0-6.46,3.62-11.91,10.77-16.21l1.65-.99-1.53-1.17c-4.41-3.36-6.65-7.9-6.65-13.49,0-5.26,3.25-11.02,8.47-15.04l1.35-1.04-1.35-1.03c-.65-.5-1.1-1.26-1.71-1.84h0l-.95-.89c-15.33-14.41-16.33-36.03-2.44-52.57,8.57-10.2,20.99-16.05,34.08-16.05,6.38,0,12.58,1.36,18.41,4.03l.95.44.63-.83c1.16-1.52,2.36-2.87,3.64-4.13,4.11-4.02,9.22-7.13,14.77-9,.18-.06.36-.09.54-.09.59,0,1.14.3,1.47.81l6.86,10.5c.31.47.37,1.04.18,1.56-.19.53-.61.92-1.16,1.09-3.01.91-7.39,2.84-11.09,6.88-.62.68-1.21,1.42-1.86,2.33l-.59.84.67.77c12.56,14.41,12.4,34.34-.42,49.6-8.58,10.21-20.99,16.07-34.04,16.07,0,0,0,0,0,0-4.68,0-9.32-.75-13.79-2.22l-.85-.28-.57.69c-1.08,1.31-1.54,2.77-1.54,4.87,0,4.35,3.77,6.2,12.59,6.2h13.65c21.62,0,32.13,6.98,32.13,21.33,0,18.02-18.93,30.13-47.1,30.13ZM635.69,179.13c-2.75,2.47-4.02,4.95-4.02,7.82,0,6.15,6.8,9.68,18.66,9.68,11.16,0,19.25-4.34,19.25-10.33,0-5.48-4.7-6.56-12.83-6.56h-8.74c-5.13,0-8.46-.27-11.14-.91l-.67-.16-.51.46ZM652.29,89.04c-10.73,0-19.45,10.02-19.45,22.34s8.73,22.34,19.45,22.34,19.45-10.02,19.45-22.34-8.73-22.34-19.45-22.34Z"/>
      </g>
    </g>
  </g>
</svg>