<?xml version="1.0" encoding="UTF-8"?>
<svg id="Camada_2" data-name="Camada 2" xmlns="http://www.w3.org/2000/svg" viewBox="0 0 676.28 208.51">
  <defs>
    <style>
      .cls-1 {
        fill: #d68326;
      }

      .cls-2 {
        fill: #824d37;
      }

      .cls-3 {
        fill: #834d38;
      }
    </style>
  </defs>
  <g id="Camada_1-2" data-name="Camada 1">
    <g>
      <path class="cls-3" d="M672.74,65.99c-2.69-8.87-10.32-33.96-31.28-41.31l-.19-.08c-14.79-6.45-30.05-5.71-41.86,2.02-1.92,1.25-3.68,2.67-5.28,4.19-2.77,1.54-5.34,3.5-7.65,6.15-4.83,5.51-7.43,12.16-7.29,18.51l14.78,8.98-3.88,8.27c-1.58-.27-3.21-.44-4.9-.49h-.01c-.25,0-.51-.01-.76-.01-5.37,0-10.98,1.36-16.4,3.83-.22.06-.45.11-.67.17-1.22-3.01-3.31-6.17-6.28-9.49-1.35-1.56-2.73-3.03-4.11-4.42,0,0,0,0,0,0l.04-.18c.78-4.25-.16-8.5-2.6-11.67-1.17-1.49-2.62-2.69-4.25-3.56-1.65-.86-3.5-1.37-5.47-1.52-4.59-.31-9.07,1.31-12.48,4.13-5.27,1.15-10.04,5.28-11.11,10.08l-.04.18c-.63,2.43-.56,4.85.2,6.81l2.79,7.2c-2.7.25-4.43.95-5.46,2.19l-.08.11-3.06.59c-1.34.26-2.29.56-3.86,2.39-2.31,3.62-5.39,8.7-8.53,14.3-.26-.29-.52-.58-.79-.86.37-3.9-.36-7.69-2.2-10.83-2.88-4.88-8.08-7.58-14.68-7.58-5.78.09-11.1,1.79-15.77,4.17-1.02.27-2.05.6-3.09.98l-.84-.7c-4.53-3.75-16.71-5.33-22.78-4.72-2.66.27-4.36.95-5.35,2.17l-.2.25-.16.3c-.06.13-.14.27-.21.43-2.53.15-4.21.65-5.07,1.18-1.41,2.89-2.86,5.76-4.3,8.6-.18-.18-.35-.36-.52-.54.26-3.19-.12-5.85-1.16-7.88-1.29-2.53-3.58-4.09-6.45-4.38-3.31-.34-6.66.67-9.86,2.94-3.36.6-6.47,2.23-8.81,4.7l-3.78,3.99c.34-.68.66-1.34.97-1.98l1.05-2.14-1.83-1.5c-4.89-4.06-23.62-7.17-27.59-2.65l-.28.31-.18.39s-.01.02-.02.03c-3.5.15-5.24.9-5.72,1.37l-3.19,3.08c.22-.49.42-.96.61-1.41l.88-2.06-1.74-1.43c-3.77-3.13-15.75-5.69-22.86-4.63-.88.13-1.68.31-2.39.55-1,.35-1.8.82-2.33,1.44l-.31.42c-.14.24-.3.5-.45.76-2.48.3-3.89.9-4.58,1.31-.43.7-.9,1.48-1.39,2.31-5.78,4.14-10.07,6.05-14.38,7.4l-.17.05c-2.55-10.61-10.65-16.9-21.38-16.26h-.17c-2.73.34-5.21,1.2-7.42,2.58-4.8-1.83-9.41-2.23-14.37-1.26-2.53.54-5.13,1.63-7.7,3.18-9.02,2.83-16.95,11.39-22.1,21.22-.3-.2-.59-.37-.87-.54.75-3.41.61-6.53-.47-9.32-1.53-3.97-4.86-7.1-9.9-9.33-3.41-1.49-7.55-2.54-12.11-3.07.76-4.04.27-7.7-1.47-10.25-1.51-2.23-3.89-3.5-6.7-3.58h-.08c-.55,0-1.08.04-1.62.11-3.29-4.66-7.38-9.11-11.84-13.63-.9-2.6-2.08-5.12-3.52-7.55,0-.02,0-.04,0-.06.13-1.92.25-3.73-.63-5.27-1.46-2.33-7.36-11.03-17.34-17.21,0-.23,0-.46-.04-.69-.52-3.45-5.09-5.73-7.75-6.33-4-1.04-8.05-.68-12.09,1.03-1.22.1-2.42.3-3.6.62-10.83-2.77-33.1-4.6-54.45,1.05-11.34,2.32-21.66,6.26-29.85,11.58-15.57,10.45-27.76,31.19-19.7,49.06l2.27,5.03-5.68.27c-14.75.7-27.35,7.9-34.58,19.77-7.61,12.49-7.97,28.16-.98,41.94,7.63,13.18,33.32,41.86,60.49,41.86,14.02,0,28.18-6.4,42.09-19.03l2.75-2.5,2.69,2.56c10.51,10.02,21.87,15.1,33.76,15.1,1.31,0,2.65-.06,4-.19,13.23-1.18,25.15-8.87,31.9-20.56.53-.91,1-1.84,1.45-2.77,1.31-1.04,2.63-2.16,3.98-3.36l4.98-4.43c.21.27.4.55.62.8,1.45,1.64,3.22,2.89,5.25,3.78l.52.62c9.18,10.82,17.7,16.64,24.62,16.83h.43c7.45,0,17.38-6.06,26.58-15.69,9.37,8.49,20.22,15.53,27.41,17,1.75.23,3.93.35,6.32.35,14.74,0,25.16-8.42,31.73-19.1,9.29,9.15,22.47,17.74,28.8,17.74,5.71,0,11.77-2.27,17.51-6.56l5.46-4.08,4.88,4.72c4.78,4.62,9.22,6.68,14.42,6.68,8.49,0,17.53-5.76,27.65-17.6l2.84-3.32c8.2,7.32,21.96,17.3,35.28,18.66.67-2.39,1.44-4.84,2.3-7.33l4.22-12.24c.76.7,1.64,1.39,2.66,2.02l6.63,7.81c4.18,4.93,11.06,10.82,20.1,10.95h.37c6.02,0,12.7-3.54,19.78-10.37,6.9,5.63,14.12,10.08,18.74,10.38.28.02.55.02.82.02,6.1,0,13.01-4.02,20.41-11.78,11.7,9.42,27.92,14.91,44.76,14.91,18.94,0,39.26-9.23,55.74-25.33,5.12-5,25.31-25.45,26.28-56.06.07-2.18.29-12.35-3.5-24.84ZM543.54,51.38c.23,0,.46,0,.7.02,2.24.16,4.11,1.11,5.38,2.75.61.79,1.05,1.71,1.31,2.7-2.83-2.29-5.61-4.13-8.19-5.43.27-.02.53-.04.8-.04ZM494.84,84.75c.25.42.46.86.64,1.32-2.76-2.32-5.59-4.33-8.28-5.83,3.49.39,6.12,1.93,7.64,4.51ZM459.58,82.3l-2.18-.98c.84.23,1.62.48,2.31.75-.04.07-.08.16-.13.23ZM304.69,86.65l-5.69-5.5-.45-.66c-.7-1.04-1.51-1.95-2.39-2.75,4,1.35,6.96,4.42,8.53,8.91ZM231.03,89.01c.17.43.28.9.37,1.37l-8.82-8.03c.6.22,1.19.44,1.74.68,3.52,1.54,5.77,3.57,6.7,5.98Z"/>
      <path class="cls-1" d="M164.73,118.89c-8.91,5.81-17.96,9.71-25.67,11.22-.07,3.86.59,8.11,2.69,10.41,1.16,1.28,2.72,1.89,4.81,1.89,3.27,0,6.85-1.19,10.57-3.24-1.59,2.01-3.37,3.84-5.34,5.47-1.74,1.43-3.62,2.7-5.59,3.78-3.62-.07-6.69-1.41-8.92-3.86-4.69-5.17-4.41-13.85-4.07-17.33l.19-2.01c.24-.14.48-.3.72-.47l1.69-.22c8.23-1.07,18.51-5.52,28.42-12.46.2,1.11.35,2.22.43,3.34.1,1.16.12,2.31.07,3.47Z"/>
      <path class="cls-1" d="M242.44,111.39h0c-.66,2.97-1.04,5.92-1.1,8.77-.95,1.42-1.92,2.8-2.9,4.13-.86,1.17-1.74,2.31-2.62,3.41-.53-3.47-.64-7.12-.31-10.85,1.17-1.43,2.4-3.05,3.71-4.83h.01c.74-1.01,1.49-2.06,2.29-3.16.11-.16.22-.3.33-.46.23.89.43,1.9.59,2.98Z"/>
      <path class="cls-1" d="M334.75,82.8h0c-2.42,4.27-5.33,9.68-8.06,15.1-1.39.87-2.89,1.64-4.5,2.31-1.28.57-2.63,1.05-4.04,1.46,1.94-4.11,4.13-8.47,6.29-12.57,1.64-.78,3.27-1.66,4.82-2.62,1.94-1.19,3.78-2.49,5.42-3.92.02.07.05.16.06.23Z"/>
      <path class="cls-1" d="M430.68,108.88c-2.3,8.54-7.47,14.11-10.44,16.83h-.01c-1.28.76-2.59,1.35-3.94,1.74-.58.18-1.17.33-1.75.42-.53.08-1.06.16-1.58.18.14-.54.31-1.11.51-1.66l.04-.11c.92-2.34,2.77-6.83,4.77-11.35,1.42-.68,2.98-1.57,4.56-2.74,4.94-3.66,7.61-8.19,8.99-11.12-.06,2.27-.36,4.93-1.14,7.82Z"/>
      <path class="cls-1" d="M510.02,109.32c-2.51,2.31-6.39,6.58-8.39,12.99-.6,1.94-.94,3.76-1.11,5.38-1.07,1.45-2.13,2.8-3.19,4.07-.93,1.13-1.84,2.21-2.76,3.22-.6-4.75-.08-9.69,1.08-13.74,0-.01.01-.01.01-.01,1.66-1.45,3.39-3.37,5.23-5.66,2.12-2.63,3.7-4.66,5.06-6.54,1.72-2.38,3.13-4.48,4.19-6.12-.04,2.14-.09,4.29-.13,6.43Z"/>
      <g>
        <path class="cls-1" d="M538.63,72.89c6.91.47,13.67-4.4,15.39-11.31,1.25-6.76-2.83-12.73-9.58-13.2-6.75-.47-13.81,4.4-15.07,11.15-1.74,7.06,2.82,12.72,9.26,13.35Z"/>
        <path class="cls-1" d="M662.21,62.21c-1.42-14.92-8.95-27.95-22.14-34.85-29.52-12.89-52.75,6.9-52.75,24.49,10.04.15,17.74,3.61,23.23,9.1,26.69,27.32,3.29,81.66-31.09,78.51-10.2-.94-14.76-9.74-13.03-20.09,6.28,7.69,29.36,9.26,39.1-12.57,7.22-16.17-2.36-31.09-20.42-31.56-13.35-.32-28.46,8.67-37.39,22.57-1.54,2.41-2.9,4.96-4.04,7.64h0c-1.83,2.52-3.71,5.06-5.54,7.4h0c-4.61,5.93-8.87,10.55-11.27,9.97-2.35-.63-1.57-4.4,2.36-12.72,7.06-15.39,12.25-22.92,15.85-29.05-4.54-3.77-21.97-5.81-24.18-3.14-3.16,5.05-7.69,12.74-11.94,20.79-.79,1.47-1.55,2.95-2.29,4.42-.02.03-.03.05-.03.06-2.97,3.85-5.78,7.69-8.34,10.81-3.42,4.19-6.41,7.1-8.8,7.1-4.4-.31,4.39-15.7,7.22-20.88,5.66-10.2,2.2-23.09-11.3-23.09-10.21.16-19.31,5.81-26.23,12.25,3.34-6.16,3.93-7.24,4.01-7.39h0l.02-.02c.02-.09.15-.34.53-1.06-4.56-3.78-21.83-5.5-23.87-2.99-1.33,2.65-5.87,12.01-9.59,19.52-.91,1.82-1.76,3.53-2.51,5.02h-.01c-3.21,3.95-5.52,6.36-7.34,7.81h-.02c-2.9,2.32-4.5,2.15-6.43,1.88,12.09-20.88,12.87-34.39,5.18-35.17-12.26-1.26-22.92,21.98-21.67,33.44-3.77,6.6-10.99,16.49-14.77,16.02-4.23-.47-2.97-7.22-.47-15.23,3.31-9.9,9.27-21.19,13.03-28.89-4.54-3.76-21.19-5.5-23.39-2.98-3.76,8-9.73,18.99-13.66,28.58-5.02,10.04-11.93,17.58-16.49,15.53-5.96-2.66,11.15-31.24,16.34-43.48-3.44-2.85-13.76-4.54-19.57-4.1-1.88.13-3.29.49-3.83,1.11-.59.97-1.24,2.08-1.94,3.31h-.01c-1.7,1.52-3.65,2.87-5.73,4.08-6.43,3.78-13.93,6.13-18.23,6.75-1.26-10.84-8.16-17.75-18.84-17.12-2.67.31-5.18,1.25-7.38,2.98-3.93-1.73-8.48-2.82-14.14-1.73-9.36,1.99-19.78,12.71-25.37,25.07-.13.28-.25.56-.37.84-.36.8-.69,1.62-1,2.44-1.86,2.51-3.59,4.94-5.23,7.15-4.58,6.18-8.31,10.57-11.2,9.88-3.15-1.25,3.29-12.09,7.38-20.41,5.02-11.31-.32-16.96-7.07-19.94-3.93-1.72-8.95-2.83-14.76-3.15,2.52-6.9,1.11-13.34-4.39-13.5-8.96,0-17.27,12.72-10.52,17.75-6.08,11.63-15.42,21.99-25.63,29.96-.91.71-1.83,1.41-2.76,2.1-.13-1.09-.32-2.18-.58-3.28-1.38-6.21-4.54-12.4-9.82-18.1,16.18,0,34.55-12.88,35.02-33.3-.79-19.62-15.87-31.55-28.9-38.31,1.26-.94,2.82-1.73,4.56-2.51,2.19-1.25-1.42-4.24-4.87-5.03-4.24-1.09-8.64-.31-13.04,2.37l-1.72-.49c-15.23-4.23-52.13-5.64-76.78,10.84-28.11,19.48-29.52,58.58,6.28,59.21,9.58.15,19.78-4.56,25.59-15.4-9.42-1.56-10.51-10.52-8.79-16.96,3.45-15.23,20.72-29.04,42.7-26.22-24.33,28.11-48.51,89.19-74.11,87.94-9.73-.47-11.14-17.75,5.97-20.26-12.41-19.31-50.24-13.03-59.04,17.27-7.53,28.73,14.61,51.66,42.72,48.37,16.8-2.37,30.61-12.89,42.7-27.8,2.83,14.28,17.27,25.9,37.38,23.87,7.75-.68,14.79-3.73,20.5-8.32,2.18-1.75,4.17-3.74,5.92-5.89,2.18-1.26,4.4-2.76,6.61-4.46,18.94-14.56,37.97-43.44,40.77-50.42,2.5,1.25,6.59,1.1,3.6,8.63-4.56,9.27-16.17,26.85-17.43,36.28-1.25,10.04,2.52,18.68,14.45,18.68,9.31.36,20.13-7.62,29.41-18.62h0c.83-.98,1.63-1.97,2.41-2.98.24,1.26.55,2.48.92,3.69,2.88,9.41,9.81,16.91,21.74,19.16,27.48,4.56,43.82-20.24,47.26-44.91,2.7-.24,5.23-.65,7.59-1.21,1.33-.33,2.6-.69,3.82-1.1-.58,1.24-1.14,2.46-1.64,3.63-.52,1.18-1,2.32-1.44,3.4-7.06,16.8-8.33,33.29,5.19,38.31,11.46,3.14,21.98-2.04,31.55-13.18,1.41,6.75,5.03,11.77,11.78,14.12,13.19,3.15,24.02-4.08,37.69-22.45,2.49,2.08,5.6,3.11,8.9,3.09,1.02-.02,2.05-.13,3.09-.32-.18,1.07-.27,2.11-.24,3.1.12,12.37,14.52,18.16,22.63,16.27,6.75-28.89,26.85-55.74,32.03-54.96,1.26.16,1.73,2.2-1.57,7.86-4.87,8.16-8.47,16.17-9.89,21.19-3.45,11.94-.63,25.91,15.7,25.91,7.14.28,14.33-4.35,21.17-11.5.83-.87,1.65-1.76,2.47-2.7.2,1.2.5,2.38.9,3.51,1.95,5.57,6.3,10.09,14.56,10.69,8.75.56,17.59-6.82,25.64-16.98.73-.92,1.46-1.87,2.18-2.83.33,1.16.72,2.3,1.19,3.38,4.76,11.19,16.67,17.91,30.81,19.41,43.97,5.02,93.58-43.49,89.19-90.91ZM587.16,93.93c2.04,4.08-10.05,16.95-19.32,16.95,7.23-13.81,17.27-20.56,19.32-16.95ZM144.52,79.8c-4.24-3.77-12.41-5.03-15.7.47-3.31,4.87-1.41,12.87,9.89,12.4,10.36,14.13-1.89,30.77-13.51,32.51-8,1.25-16.33-.47-20.88-5.5,20.1-29.36,34.55-67.36,48.68-87.78,10.05,6.45,13.49,16.96,11.61,26.38-3.77,16.96-17.27,21.52-20.09,21.52ZM268.4,132.87c-10.19-2.99-5.65-28.27,9.12-41.76.78,6.12,5.18,12.08,13.49,14.28-.94,10.68-11.14,30.14-22.61,27.48Z"/>
      </g>
      <path class="cls-1" d="M546.15,107.36c-1.65,4.07-2.74,8.45-3.1,13.03-.05.64-.07,1.27-.07,1.88-.93,1.4-1.84,2.75-2.76,4.03-.82,1.15-1.63,2.25-2.42,3.3-.72-3.04-.98-6.27-.76-9.64.04-.39.06-.76.11-1.14,1.16-1.36,2.41-2.92,3.77-4.68,1.58-2.04,3.31-4.36,5.22-6.95,0,.06.01.12.01.18Z"/>
      <path class="cls-3" d="M355.78,39.14c-3.89,4.5-9.43,9.13-14.36,8.88-3.1-.18-5.48-1.83-4.75-6.21,2.5,4.62,13.14,3.59,15.76-6.69,1.16-4.75-.67-9.13-6.75-9.92-6.94-.9-13.87,4.21-17.01,11.15-2.58,3.52-5.05,7.09-6.48,6.74-1.58-.49,2.01-5.6,2.98-8.52,1.28-3.83.73-7.36-2.68-8.52-3.83-1.28-8.82.73-12.41,4.5,1.46-2.74,3.23-6.21,4.5-8.82l1.83.24c11.01,1.64,15.52-4.08,16-8.64.49-4.14-2.19-9.01-9.68-8.82-5.78.18-10.16,4.44-13.08,8.64l-4.56-2.19c.43-.79.97-1.58,1.52-2.31.49-.85-3.65-1.52-4.81-.85-.43.24-.85.55-1.28.91C291.64,4.51,281.48.19,273.75,0c-7.3-.18-13.45,2.43-15.4,8.7-3.65,12.41,10.16,16,14.12,13.08-2.92-6.33,5.35-10.47,20.99-5.6.3.18.55.24.97.3-6.15,9.55-12.9,23.25-20.26,23.06-3.47,0-4.81-4.56.67-6.82-5.11-6.82-18.86-3.71-21.54,7.79-2.13,10.89,6.69,18.68,16.98,16.92,17.71-3.41,24.4-24.16,30.91-38.88l4.5,1.22c-3.16,6.27-10.22,19.84-11.26,22.94-3.47,9.37,2.43,12.35,9.25,11.38,1.22-8.88,7.06-20.93,9.68-20.69,1.16,0,.55,1.16-2.01,7.3-2.8,6.39-3.16,11.74,2.31,13.39,4.35,1.19,9.47-2.49,13.58-7.73,1.31,5.57,6.85,8.77,13.13,8.46,8.7-.43,17.22-9.61,15.4-15.7ZM344.7,32.56c.79,1.58-3.89,6.57-7.48,6.57,2.8-5.35,6.69-7.97,7.48-6.57ZM325.9,11.08c1.52,1.03,1.22,7.42-8.34,5.17,3.41-5.29,7.06-5.96,8.34-5.17Z"/>
      <g>
        <path class="cls-2" d="M390.23,198.6c-1.08,1.01-2.7,1.51-4.86,1.51h-3.87v8.17h-1.92v-19.17h5.79c2.14,0,3.75.5,4.84,1.51s1.63,2.34,1.63,4-.54,2.97-1.62,3.98ZM389.87,194.63c0-1.28-.36-2.25-1.07-2.91-.71-.66-1.86-.99-3.43-.99h-3.87v7.74h3.87c3,0,4.5-1.28,4.5-3.84Z"/>
        <path class="cls-2" d="M397.81,207.56c-1.12-.63-2.01-1.53-2.66-2.69-.65-1.16-.97-2.52-.97-4.07s.33-2.91.99-4.07c.66-1.16,1.55-2.06,2.69-2.69,1.13-.63,2.4-.95,3.81-.95s2.68.32,3.83.95c1.14.63,2.04,1.53,2.69,2.69.65,1.16.97,2.52.97,4.07s-.33,2.89-.99,4.06c-.66,1.17-1.56,2.07-2.72,2.7-1.15.63-2.43.95-3.84.95s-2.67-.32-3.8-.95ZM404.36,206.16c.84-.45,1.52-1.12,2.04-2.03s.78-2.02.78-3.33-.26-2.43-.77-3.33c-.51-.91-1.19-1.58-2.03-2.03-.84-.45-1.76-.67-2.74-.67s-1.9.22-2.74.67c-.84.45-1.51,1.12-2.02,2.03s-.75,2.02-.75,3.33.25,2.43.75,3.33,1.17,1.58,2,2.03,1.74.67,2.73.67,1.9-.22,2.74-.67Z"/>
        <path class="cls-2" d="M416.52,193.8c.87-.51,1.93-.77,3.2-.77v2h-.52c-1.39,0-2.51.38-3.35,1.12-.84.75-1.26,2-1.26,3.76v8.37h-1.92v-14.98h1.92v2.66c.42-.93,1.06-1.65,1.93-2.17Z"/>
        <path class="cls-2" d="M445.31,189.11l-7.27,19.17h-2.2l-7.27-19.17h2.08l6.28,17.09,6.34-17.09h2.03Z"/>
        <path class="cls-2" d="M448.16,190.07c-.27-.27-.41-.61-.41-1.02s.14-.74.41-1c.27-.26.6-.4.99-.4s.71.13.99.4c.27.27.41.6.41,1s-.14.74-.41,1.02-.6.41-.99.41-.71-.14-.99-.41ZM450.11,193.31v14.98h-1.92v-14.98h1.92Z"/>
        <path class="cls-2" d="M456.97,194.93v9.3c0,.91.17,1.54.52,1.89s.96.52,1.84.52h1.76v1.65h-2.06c-1.35,0-2.36-.32-3.02-.95-.66-.63-.99-1.67-.99-3.11v-9.3h-2.08v-1.62h2.08v-3.76h1.95v3.76h4.11v1.62h-4.11Z"/>
        <path class="cls-2" d="M467,207.56c-1.12-.63-2.01-1.53-2.66-2.69-.65-1.16-.97-2.52-.97-4.07s.33-2.91.99-4.07c.66-1.16,1.55-2.06,2.69-2.69,1.13-.63,2.4-.95,3.81-.95s2.68.32,3.83.95c1.14.63,2.04,1.53,2.69,2.69.65,1.16.97,2.52.97,4.07s-.33,2.89-.99,4.06c-.66,1.17-1.56,2.07-2.72,2.7-1.15.63-2.43.95-3.84.95s-2.67-.32-3.8-.95ZM473.54,206.16c.84-.45,1.52-1.12,2.04-2.03s.78-2.02.78-3.33-.26-2.43-.77-3.33c-.51-.91-1.19-1.58-2.03-2.03-.84-.45-1.76-.67-2.74-.67s-1.9.22-2.74.67c-.84.45-1.51,1.12-2.02,2.03s-.75,2.02-.75,3.33.25,2.43.75,3.33,1.17,1.58,2,2.03,1.74.67,2.73.67,1.9-.22,2.74-.67ZM473.43,188.75l-5.62,3.26v-1.48l5.62-3.51v1.73Z"/>
        <path class="cls-2" d="M485.7,193.8c.87-.51,1.93-.77,3.2-.77v2h-.52c-1.39,0-2.51.38-3.35,1.12-.84.75-1.26,2-1.26,3.76v8.37h-1.92v-14.98h1.92v2.66c.42-.93,1.06-1.65,1.93-2.17Z"/>
        <path class="cls-2" d="M491.75,190.07c-.27-.27-.41-.61-.41-1.02s.14-.74.41-1c.27-.26.6-.4.99-.4s.71.13.99.4c.27.27.41.6.41,1s-.14.74-.41,1.02-.6.41-.99.41-.71-.14-.99-.41ZM493.7,193.31v14.98h-1.92v-14.98h1.92Z"/>
        <path class="cls-2" d="M498.1,196.72c.61-1.16,1.46-2.06,2.55-2.69,1.09-.63,2.32-.95,3.69-.95s2.66.33,3.69.99,1.78,1.5,2.24,2.52v-3.29h1.92v14.98h-1.92v-3.32c-.48,1.02-1.23,1.87-2.26,2.54-1.03.67-2.26,1-3.69,1-1.35,0-2.57-.32-3.66-.96-1.09-.64-1.94-1.55-2.55-2.72-.61-1.17-.92-2.52-.92-4.06s.31-2.88.92-4.05ZM509.53,197.62c-.49-.92-1.17-1.62-2.02-2.11-.85-.49-1.79-.74-2.81-.74s-2.01.24-2.85.71c-.84.48-1.5,1.17-1.99,2.07s-.73,1.98-.73,3.22.24,2.3.73,3.22,1.15,1.63,1.99,2.11c.84.48,1.79.73,2.85.73s1.96-.25,2.81-.74c.85-.49,1.52-1.2,2.02-2.11.49-.91.74-1.98.74-3.18s-.25-2.27-.74-3.18Z"/>
        <path class="cls-2" d="M534.47,189.11v1.59h-8.45v7.16h7.13v1.59h-7.13v8.83h-1.92v-19.17h10.37Z"/>
        <path class="cls-2" d="M540.38,207.56c-1.12-.63-2.01-1.53-2.66-2.69-.65-1.16-.97-2.52-.97-4.07s.33-2.91.99-4.07c.66-1.16,1.55-2.06,2.69-2.69,1.13-.63,2.4-.95,3.81-.95s2.68.32,3.83.95c1.14.63,2.04,1.53,2.69,2.69.65,1.16.97,2.52.97,4.07s-.33,2.89-.99,4.06c-.66,1.17-1.56,2.07-2.72,2.7-1.15.63-2.43.95-3.84.95s-2.67-.32-3.8-.95ZM546.92,206.16c.84-.45,1.52-1.12,2.04-2.03s.78-2.02.78-3.33-.26-2.43-.77-3.33c-.51-.91-1.19-1.58-2.03-2.03-.84-.45-1.76-.67-2.74-.67s-1.9.22-2.74.67c-.84.45-1.51,1.12-2.02,2.03s-.75,2.02-.75,3.33.25,2.43.75,3.33,1.17,1.58,2,2.03,1.74.67,2.73.67,1.9-.22,2.74-.67Z"/>
        <path class="cls-2" d="M566.64,194.69c1.13,1.11,1.7,2.71,1.7,4.81v8.78h-1.89v-8.56c0-1.63-.41-2.87-1.22-3.73-.81-.86-1.92-1.29-3.33-1.29s-2.6.46-3.46,1.37c-.86.91-1.29,2.26-1.29,4.03v8.17h-1.92v-14.98h1.92v2.55c.47-.91,1.16-1.61,2.06-2.1.9-.48,1.91-.73,3.05-.73,1.79,0,3.25.55,4.39,1.66Z"/>
        <path class="cls-2" d="M573.54,207.31c-1.09-.8-1.7-1.88-1.82-3.25h1.98c.09.84.49,1.52,1.19,2.04s1.65.78,2.84.78c1.04,0,1.86-.25,2.46-.74.59-.49.89-1.11.89-1.84,0-.51-.16-.93-.49-1.26s-.75-.59-1.25-.78c-.5-.19-1.18-.4-2.04-.62-1.12-.29-2.02-.58-2.72-.88-.7-.29-1.29-.73-1.77-1.3s-.73-1.35-.73-2.32c0-.73.22-1.41.66-2.03.44-.62,1.06-1.12,1.87-1.48.8-.37,1.72-.55,2.74-.55,1.61,0,2.91.41,3.9,1.22s1.52,1.93,1.59,3.36h-1.92c-.05-.88-.4-1.59-1.03-2.13s-1.5-.81-2.59-.81c-.97,0-1.76.23-2.36.69-.6.46-.91,1.02-.91,1.7,0,.59.18,1.07.54,1.44s.8.67,1.33.88,1.24.44,2.14.7c1.08.29,1.94.58,2.58.85.64.27,1.19.68,1.65,1.21s.7,1.23.71,2.11c0,.8-.22,1.52-.66,2.15-.44.63-1.05,1.13-1.84,1.5s-1.69.55-2.72.55c-1.72,0-3.12-.4-4.21-1.19Z"/>
        <path class="cls-2" d="M600.08,201.54h-12.43c.05,1.13.33,2.1.82,2.91.49.81,1.14,1.41,1.95,1.82.8.41,1.68.62,2.63.62,1.24,0,2.29-.3,3.14-.91s1.41-1.42,1.69-2.44h2.03c-.37,1.46-1.15,2.66-2.34,3.58-1.2.92-2.7,1.39-4.51,1.39-1.41,0-2.67-.32-3.79-.95s-1.99-1.53-2.62-2.69c-.63-1.16-.95-2.52-.95-4.07s.31-2.92.93-4.09c.62-1.17,1.49-2.07,2.61-2.69s2.39-.93,3.81-.93,2.67.31,3.74.93c1.07.62,1.89,1.46,2.47,2.51s.86,2.22.86,3.5c0,.66-.02,1.16-.05,1.51ZM597.52,197.12c-.47-.79-1.1-1.38-1.91-1.78s-1.68-.6-2.63-.6c-1.43,0-2.64.46-3.65,1.37-1.01.91-1.56,2.2-1.67,3.87h10.53c.02-1.12-.21-2.07-.67-2.85Z"/>
        <path class="cls-2" d="M603.7,196.72c.62-1.16,1.48-2.06,2.58-2.69s2.35-.95,3.76-.95c1.85,0,3.37.46,4.57,1.37,1.2.92,1.97,2.16,2.32,3.73h-2.06c-.26-1.08-.81-1.92-1.66-2.54-.85-.61-1.91-.92-3.17-.92-1.01,0-1.91.23-2.72.69-.8.46-1.44,1.14-1.91,2.04-.47.91-.7,2.02-.7,3.33s.23,2.43.7,3.35c.47.92,1.1,1.6,1.91,2.06s1.71.69,2.72.69c1.26,0,2.32-.31,3.17-.92.85-.61,1.4-1.47,1.66-2.56h2.06c-.35,1.54-1.12,2.77-2.33,3.7-1.21.93-2.73,1.4-4.55,1.4-1.41,0-2.66-.32-3.76-.95s-1.96-1.53-2.58-2.69c-.62-1.16-.93-2.52-.93-4.07s.31-2.91.93-4.07Z"/>
        <path class="cls-2" d="M620.51,196.72c.61-1.16,1.46-2.06,2.55-2.69,1.09-.63,2.32-.95,3.69-.95s2.66.33,3.69.99,1.78,1.5,2.24,2.52v-3.29h1.92v14.98h-1.92v-3.32c-.48,1.02-1.23,1.87-2.26,2.54-1.03.67-2.26,1-3.69,1-1.35,0-2.57-.32-3.66-.96-1.09-.64-1.94-1.55-2.55-2.72-.61-1.17-.92-2.52-.92-4.06s.31-2.88.92-4.05ZM631.93,197.62c-.49-.92-1.17-1.62-2.02-2.11-.85-.49-1.79-.74-2.81-.74s-2.01.24-2.85.71c-.84.48-1.5,1.17-1.99,2.07s-.73,1.98-.73,3.22.24,2.3.73,3.22,1.15,1.63,1.99,2.11c.84.48,1.79.73,2.85.73s1.96-.25,2.81-.74c.85-.49,1.52-1.2,2.02-2.11.49-.91.74-1.98.74-3.18s-.25-2.27-.74-3.18Z"/>
      </g>
    </g>
  </g>
</svg>