<?xml version="1.0" encoding="UTF-8"?>
<svg id="Camada_2" data-name="Camada 2" xmlns="http://www.w3.org/2000/svg" viewBox="0 0 542.04 153.18">
  <defs>
    <style>
      .cls-1 {
        fill: #c16c8b;
      }

      .cls-2 {
        fill: #141314;
      }
    </style>
  </defs>
  <g id="Camada_1-2" data-name="Camada 1">
    <g>
      <path class="cls-1" d="M263.74,152.24l-20.58-3.4c4.3-26.17,4.76-67.53-7.68-77.58-1.32-1.06-5.34-4.31-16.46.06-5.3,2.09-10.41,5.46-15.09,9.59,8.25,17.69,10.12,41.78,3.12,56.63-4.7,9.97-13.19,15.64-23.37,15.64-.22,0-.43,0-.65,0-13.45-.32-22.8-8.01-25.04-20.59-2.75-15.5,5.61-36.32,19.03-53.33-2.19-1.3-3.69-.84-4.55-.57-18.25,5.59-28.82,49.05-31.19,69.76v.79h-20.86V50.74h20.86v29.28c6.36-10,14.55-18.06,25.07-21.29,8.83-2.71,17.76-.75,25.24,5.38,6.25-5.26,12.96-9.5,19.79-12.19,18.54-7.29,30.47-2.33,37.22,3.12,26.2,21.18,17.21,84.68,15.14,97.2ZM188.4,99.33c-7.1,11.21-11.08,22.82-9.88,29.6.34,1.9.58,3.28,4.99,3.38,1.22.04,2.9.07,4.66-3.66,3.25-6.89,2.97-18.74.23-29.32Z"/>
      <path class="cls-1" d="M102.59,150.26H0V16.65h102.59v16.72H23.83v41.73h69.84v16.72H23.83v41.73h78.76v16.72Z"/>
      <path class="cls-1" d="M503.39,92.55v57.52h-22.56v-54.42c0-21.68-12.51-26.24-23.01-26.24-15.02,0-30.22,10.33-30.22,30.06v50.6h-22.56V54.51h22.56v16.11c7.9-11.74,20.74-17.93,37.23-17.93,17.59,0,38.56,6.91,38.56,39.86Z"/>
      <path class="cls-1" d="M519.44,150.25V54.69h22.56v95.55h-22.56Z"/>
      <g>
        <path class="cls-2" d="M383.75,7.02l10.84,24.6h-4.68l-.02-.04-2.41-5.8h-12.17l-2.47,5.84h-4.68l.04-.09,10.86-24.54h4.66l.02.04ZM381.43,11.2l-4.91,11.49h9.79l-4.87-11.49Z"/>
        <path class="cls-2" d="M400.08,28.4c-2.37-2.3-3.62-5.44-3.62-9.1s1.25-6.8,3.62-9.1c2.4-2.33,5.73-3.56,9.64-3.56,4.82,0,8.69,1.91,10.9,5.37l.04.06-3.28,1.67-.03-.05c-1.71-2.56-4.41-3.97-7.62-3.97-5.42,0-8.78,3.67-8.78,9.57s3.41,9.57,8.9,9.57c2.67,0,5.05-.96,6.39-2.58v-4.92h-8.02v-3.08h12.42v8.29c-2.23,3.46-6.1,5.37-10.91,5.37-3.9,0-7.23-1.23-9.64-3.56Z"/>
        <path class="cls-2" d="M430.69,10.06v7.69h12.88v3.08h-12.88v7.69h14.52v3.08h-18.92V6.98h18.92v3.08h-14.52ZM433.17,5.73h-4.46l.11-.11,5.5-5.62h1.5l.02.02,5.59,5.71h-4.46l-.02-.03-1.86-3.58-1.92,3.62Z"/>
        <path class="cls-2" d="M454.91,31.62h-4.39V6.98h4.99l.02.03,12.41,18.39V6.98h4.39v24.63h-4.6l-.02-.03-12.8-18.96v18.99Z"/>
        <path class="cls-2" d="M481.26,28.4c-2.37-2.3-3.62-5.44-3.62-9.1s1.25-6.8,3.62-9.1c2.4-2.33,5.73-3.56,9.64-3.56,4.82,0,8.69,1.91,10.9,5.37l.04.06-3.28,1.67-.03-.05c-1.71-2.56-4.41-3.97-7.62-3.97-5.42,0-8.78,3.67-8.78,9.57s3.37,9.57,8.78,9.57c3.2,0,5.91-1.41,7.62-3.97l.03-.05,3.28,1.67-.04.06c-2.22,3.46-6.09,5.37-10.9,5.37-3.9,0-7.23-1.23-9.64-3.56Z"/>
        <path class="cls-2" d="M506.77,31.62V6.98h4.39v24.63h-4.39Z"/>
        <path class="cls-2" d="M531.2,7.02l10.84,24.6h-4.68l-.02-.04-2.41-5.8h-12.17l-2.47,5.84h-4.68l.04-.09,10.86-24.54h4.66l.02.04ZM528.87,11.2l-4.91,11.49h9.79l-4.87-11.49Z"/>
      </g>
      <path class="cls-1" d="M368.09,54.51v12.44c-9.55-8.95-23.18-14.17-39.28-14.17-31.95,0-54.27,20.43-54.27,49.69s22.31,49.69,54.27,49.69c16.09,0,29.72-5.23,39.28-14.18v12.26h22.56V54.51h-22.56ZM328.82,135.44c-18.88,0-31.07-12.94-31.07-32.97s12.2-32.97,31.07-32.97,30.86,12.94,30.86,32.97-12.11,32.97-30.86,32.97Z"/>
    </g>
  </g>
</svg>