<?xml version="1.0" encoding="UTF-8"?>
<svg id="Camada_2" data-name="Camada 2" xmlns="http://www.w3.org/2000/svg" viewBox="0 0 761.47 326.13">
  <defs>
    <style>
      .cls-1 {
        fill: #c4aa83;
      }
    </style>
  </defs>
  <g id="Camada_1-2" data-name="Camada 1">
    <g>
      <g>
        <path class="cls-1" d="M13.87,290.17l-11.37,32.59H0l32.31-92.35h13.59l35.77,92.35h-15.53l-12.62-32.59H13.87ZM32.72,236.37l-18.03,51.35h37.85l-19.83-51.35Z"/>
        <path class="cls-1" d="M103.02,322.77h-2.63v-92.35h15.39l28.7,64.41,30.92-64.41h14.42v92.35h-14.84v-85.37l-37.44,77.87-34.52-77.35v84.85Z"/>
        <path class="cls-1" d="M222.53,290.17l-11.37,32.59h-2.5l32.31-92.35h13.59l35.77,92.35h-15.53l-12.62-32.59h-39.65ZM241.39,236.37l-18.03,51.35h37.85l-19.83-51.35Z"/>
        <path class="cls-1" d="M311.68,322.77h-2.63v-92.35h14.84l57.12,70.1v-70.1h2.63v92.35h-2.63l-69.33-84.46v84.46Z"/>
        <path class="cls-1" d="M437.03,232.87h-34.52v-2.46h83.88v2.46h-34.52v89.89h-14.84v-89.89Z"/>
        <path class="cls-1" d="M519.94,322.77h-14.84v-92.35h65.31v2.46h-50.47v39.45h42.71v2.46h-42.71v45.53h50.47v2.46h-50.47Z"/>
        <path class="cls-1" d="M591.2,291.98v-61.44h14.84v63.9c0,23.15,18.3,28.46,29.39,28.46,14.42,0,27.04-10.74,27.04-25.87v-66.48h3.33v65.06c0,10.48-6.1,29.75-33.97,29.75-16.78,0-40.62-6.85-40.62-33.37Z"/>
        <path class="cls-1" d="M748.3,306.34c0-20.57-56.15-26.26-56.15-54.07,0-17.72,14.14-23.41,34.11-23.41,21.08,0,31.75,15.65,31.75,15.65l-7.49,4.79s-5.96-17.98-24.4-17.98c-13.45,0-22.18,4.27-22.18,14.49,0,20.18,57.54,26.65,57.54,52,0,11.64-11.51,28.33-37.3,28.33s-37.57-20.31-37.57-20.31l7.49-5.3s5.96,23.15,30.23,23.15c15.53,0,23.99-6.6,23.99-17.33Z"/>
      </g>
      <g>
        <path class="cls-1" d="M381.39,185.12c-.82-.31-3.06-.75-4.27-1.35-9.22-4.16-17.99-9.19-26.1-14.96-10.16-7.23-19.76-14.07-27.41-26.62-4.3-7.06-7.34-14.86-9.03-23.18l-.07-.33V31.59l2.95-.36c9.46-1.15,18.68-3.56,27.43-7.17,12.74-5.26,26.59-14.22,36.51-24.06l2.37,6.07c-10.54,10.46-22.76,18.6-36.31,24.2-8.39,3.46-17.2,5.89-26.22,7.24v80.48c1.55,7.44,4.28,14.4,8.12,20.7,6.93,11.37,15.56,17.52,25.56,24.64,1.72,1.22,3.46,2.41,5.24,3.56-3.47-7.2-4.4-15.3-2.69-23.44,2.63-12.58,11.22-20.45,17.13-24.51-5.11-3.21-11.41-8.47-16.11-16.72-6.33-11.09-6.53-21.93-6.06-27.52-.12-6.88,1.24-13.45,4.06-19.55,6.22-13.49,18.67-20.03,24.8-22.73l1.48,6.15c-5.26,2.31-14.88,7.91-20.18,19.39-2.4,5.21-3.56,10.86-3.43,16.77v.18s-.01.18-.01.18c-.42,4.75-.31,14.15,5.19,23.77,5.66,9.92,14.01,14.82,18.48,16.86l4.94,3.19-4.87,2.89c-2.6,1.26-15.74,8.28-18.82,22.99-1.41,6.74-.63,13.41,2.25,19.3,3.66,7.47,9.64,11.54,13.64,13.54.93.42,1.86.83,2.8,1.23l-1.32,6.23Z"/>
        <path class="cls-1" d="M381.39,185.12l-1.32-6.23c.93-.4,1.87-.81,2.79-1.23,4-2,9.99-6.06,13.64-13.54,2.88-5.89,3.66-12.56,2.25-19.3-3.08-14.72-16.22-21.74-18.82-22.99l-5.15-3.07,5.22-3.01c4.47-2.04,12.82-6.94,18.48-16.86,5.49-9.62,5.61-19.03,5.19-23.77l-.02-.18v-.18c.13-5.92-1.03-11.56-3.43-16.77-5.3-11.48-14.92-17.08-20.18-19.39l1.22-6.15c6.13,2.69,18.83,9.23,25.06,22.73,2.81,6.09,4.17,12.67,4.06,19.55.47,5.59.27,16.42-6.06,27.52-4.7,8.24-11,13.51-16.11,16.72,5.91,4.06,14.49,11.93,17.13,24.51,1.71,8.14.77,16.24-2.69,23.44,1.77-1.15,3.52-2.34,5.24-3.56,10-7.12,18.64-13.26,25.56-24.64,3.84-6.3,6.57-13.26,8.12-20.7V37.51c-9.03-1.34-17.83-3.77-26.22-7.24-13.55-5.6-25.77-13.74-36.31-24.2l2.37-6.07c9.91,9.84,23.77,18.8,36.51,24.06,8.74,3.61,17.97,6.02,27.43,7.17l2.95.36v87.08l-.07.33c-1.7,8.32-4.74,16.12-9.03,23.18-7.65,12.55-17.24,19.38-27.41,26.62-8.11,5.78-16.88,10.8-26.11,14.97-1.21.6-3.45,1.04-4.27,1.35Z"/>
      </g>
      <g>
        <path class="cls-1" d="M181.8,77.16h-8.91v5.57h10.08v1.67h-11.92v-16.32h11.92v1.67h-10.08v5.56h8.91v1.84Z"/>
        <path class="cls-1" d="M191.42,83.93c-.93-.34-1.71-.85-2.34-1.52-.63-.67-.99-1.48-1.09-2.43v-.1s1.88,0,1.88,0v.11c.07.58.31,1.07.73,1.47.42.4.95.71,1.6.91.64.21,1.32.31,2.04.31s1.42-.11,2.06-.32c.64-.21,1.16-.53,1.55-.95.4-.42.59-.93.59-1.53h0c0-.75-.25-1.35-.76-1.8-.51-.45-1.31-.77-2.4-.95l-2.36-.39c-3.03-.5-4.54-1.96-4.54-4.38h0c0-.88.24-1.64.72-2.32.48-.67,1.15-1.2,2-1.57.85-.37,1.81-.56,2.88-.56s2.01.17,2.94.51c.93.34,1.72.85,2.34,1.52.62.67.99,1.48,1.09,2.43v.1s-1.88,0-1.88,0v-.11c-.07-.59-.32-1.09-.77-1.51s-1.01-.72-1.69-.92c-.68-.2-1.39-.29-2.13-.27h.02c-.72,0-1.35.11-1.88.33s-.96.53-1.26.93-.45.85-.45,1.37h0c0,.7.26,1.27.77,1.71.51.45,1.29.76,2.33.94l2.36.39c1.61.27,2.78.76,3.51,1.49.73.73,1.1,1.71,1.1,2.94h0c0,1-.28,1.85-.84,2.55-.56.7-1.3,1.23-2.22,1.59s-1.9.53-2.95.53-2.01-.17-2.94-.51Z"/>
        <path class="cls-1" d="M175.92,97.02h-4.88v-1.7h11.63v1.7h-4.88v14.62h-1.87v-14.62Z"/>
        <path class="cls-1" d="M187.69,95.32h5.68c1.66,0,3.14.35,4.46,1.06,1.32.71,2.35,1.68,3.09,2.91s1.11,2.62,1.11,4.15v.09c0,1.53-.37,2.91-1.11,4.15s-1.77,2.2-3.09,2.91c-1.32.71-2.81,1.06-4.46,1.06h-5.68v-16.32ZM193.37,109.94c1.33,0,2.51-.28,3.53-.84,1.02-.56,1.82-1.33,2.38-2.31s.84-2.08.84-3.31-.28-2.33-.84-3.31c-.56-.98-1.35-1.75-2.38-2.31s-2.2-.84-3.53-.84h-3.84v12.93h3.84Z"/>
      </g>
      <g>
        <path class="cls-1" d="M564.4,70.35c.47-.73,1.11-1.3,1.9-1.7.79-.4,1.73-.6,2.8-.6s2.03.21,2.84.64,1.44,1.02,1.88,1.78c.44.76.66,1.64.66,2.63s-.24,2-.73,2.97c-.49.97-1.29,1.98-2.42,3.03-1.12,1.05-2.64,2.22-4.56,3.51v.03c.6-.05,1.2-.08,1.8-.08h6.25v1.83h-10.83v-1.58c1.69-1.25,3.06-2.31,4.12-3.19,1.05-.88,1.89-1.67,2.51-2.37.64-.72,1.1-1.4,1.39-2.06s.42-1.35.42-2.08c0-.64-.14-1.2-.42-1.68-.28-.48-.67-.86-1.19-1.13s-1.12-.4-1.81-.4c-1.02,0-1.86.32-2.52.95-.66.64-1.08,1.5-1.25,2.61l-1.61-.52-.16-.09c.14-.94.44-1.77.91-2.48Z"/>
        <path class="cls-1" d="M582.67,83.69c-.9-.64-1.6-1.57-2.08-2.82-.49-1.24-.73-2.75-.73-4.52s.24-3.28.73-4.52c.49-1.24,1.18-2.18,2.08-2.82.9-.64,1.96-.95,3.18-.95s2.29.32,3.19.95,1.59,1.57,2.08,2.82.73,2.75.73,4.52-.24,3.28-.73,4.52c-.48,1.24-1.18,2.18-2.08,2.82s-1.97.95-3.19.95-2.28-.32-3.18-.95ZM582.32,79.93c.3.98.74,1.71,1.34,2.21.6.5,1.33.75,2.18.75s1.59-.25,2.18-.75c.59-.5,1.04-1.23,1.34-2.21.3-.98.45-2.17.45-3.58s-.15-2.63-.45-3.58c-.3-.98-.74-1.71-1.34-2.21s-1.33-.75-2.18-.75-1.59.25-2.18.74c-.59.5-1.04,1.24-1.34,2.22s-.45,2.17-.45,3.58.15,2.62.44,3.58Z"/>
        <path class="cls-1" d="M564.4,97.59c.47-.73,1.11-1.3,1.9-1.7.79-.4,1.73-.6,2.8-.6s2.03.21,2.84.64,1.44,1.02,1.88,1.78c.44.76.66,1.64.66,2.63s-.24,2-.73,2.97c-.49.97-1.29,1.98-2.42,3.03-1.12,1.05-2.64,2.22-4.56,3.51v.03c.6-.05,1.2-.08,1.8-.08h6.25v1.83h-10.83v-1.59c1.69-1.25,3.06-2.31,4.12-3.19s1.89-1.67,2.51-2.37c.64-.72,1.1-1.4,1.39-2.06.28-.66.42-1.35.42-2.08,0-.64-.14-1.19-.42-1.68s-.67-.86-1.19-1.13-1.12-.4-1.81-.4c-1.02,0-1.86.32-2.52.95s-1.08,1.5-1.25,2.61l-1.61-.52-.16-.09c.14-.94.44-1.77.91-2.48Z"/>
        <path class="cls-1" d="M583.09,109.37c.56.45,1.31.68,2.27.68.74,0,1.38-.14,1.91-.42.54-.28.95-.67,1.24-1.19.29-.52.43-1.13.43-1.83,0-1.13-.29-1.99-.88-2.58s-1.43-.89-2.53-.89c-1.67,0-2.86.52-3.58,1.56l-1.71-.31.95-8.86h9.05v1.83h-7.39l-.63,5.08-.04.21h.04c.41-.42.92-.75,1.53-.99.61-.24,1.33-.36,2.15-.36,1.02,0,1.91.22,2.67.65.77.44,1.36,1.04,1.78,1.82.42.78.63,1.69.63,2.72,0,1.09-.24,2.04-.71,2.85-.48.81-1.14,1.43-2,1.86-.85.43-1.84.65-2.95.65-1.38,0-2.52-.31-3.4-.94s-1.57-1.54-2.05-2.74l.13-.07,1.83-.72c.3.85.72,1.5,1.28,1.96Z"/>
      </g>
    </g>
  </g>
</svg>