<?xml version="1.0" encoding="UTF-8"?>
<svg id="Camada_2" data-name="Camada 2" xmlns="http://www.w3.org/2000/svg" viewBox="0 0 628.56 217.12">
  <defs>
    <style>
      .cls-1 {
        fill: #633426;
      }

      .cls-2 {
        fill: #502c1e;
      }
    </style>
  </defs>
  <g id="Camada_1-2" data-name="Camada 1">
    <g>
      <g>
        <g>
          <g>
            <path class="cls-2" d="M350.34,27.18c-4.54-7.38-10.64-13.13-18.29-17.26-7.66-4.12-16.12-6.19-25.38-6.19h-35.89c1.37.55,2.55,1.42,3.51,2.61.96,1.2,1.53,2.57,1.72,4.12v24.75h12.24V6.07h18.43c10.36,0,19.14,4.36,26.34,13.07,7.2,8.71,10.8,19.62,10.8,32.73,0,5.1-.04,19.95-10.8,32.73-3.55,4.22-11.38,13.52-24.4,14.5-12.29.92-23.5-6-29.06-14.62-1.07-1.66-4.06-6.37-4.43-13.07-.15-2.72-.48-8.55,3.32-13.63,1.21-1.61,4.23-5.65,8.97-5.65,3.17,0,5.51,1.8,6.42,2.59,0,0,2.08,2.57,1.91,6.36-.02.53-.15,2.01-.32,3.48-.07.59-.13,1.1-.2,1.6v.09c-.25,1.82-.31,2.37-.06,2.95.09.21.31.7.76,1,.09.06.23.12.6.27.74.3,1.64.45,2.66.45,2.01,0,3.8-.65,5.31-1.92,1.43-1.2,2.15-3.31,2.15-6.28,0-4.56-1.72-8.07-5.26-10.73-1.82-1.37-3.88-2.41-6.12-3.1-2.27-.69-4.79-1.05-7.51-1.05s-5.05.36-7.28,1.07c-1.84.58-3.59,1.41-5.18,2.47-3.58,2.39-6.34,5.43-8.2,9.02-1.88,3.63-2.83,7.31-2.83,10.93,0,3.32.55,6.47,1.65,9.42.63,1.57,1.63,3.71,3.2,6.03,0,0,3.55,5.23,9.69,9.3,5.55,3.67,16.7,8.22,29.88,7.15,20.33-1.65,38.99-16.07,45.56-34.7,2.89-8.18,2.89-16.66,2.89-16.66,0-9.07-2.27-17.3-6.81-24.68Z"/>
            <path class="cls-2" d="M362.35,100c3.03-1.1,4.77-3.3,5.23-6.6v-53.64c0-1.19-.23-2.27-.69-3.23-.46-.96-1.08-1.7-1.86-2.2-.78-.5-1.58-.76-2.41-.76v-1.1l16.23-2.89v63.82c.18,1.47.76,2.8,1.72,3.99.96,1.19,2.13,2.06,3.51,2.61h-21.73Z"/>
            <path class="cls-2" d="M455.42,93.4c.46,3.3,2.2,5.5,5.23,6.6h-21.73c1.38-.55,2.54-1.42,3.51-2.61.96-1.19,1.49-2.52,1.58-3.99v-39.47c0-3.58-.3-6.76-.89-9.56-.6-2.8-1.4-5.11-2.41-6.95-1.01-1.83-2.22-3.35-3.64-4.54-1.42-1.19-2.96-2.04-4.61-2.54-1.65-.5-3.39-.76-5.23-.76-3.58,0-7.06,1.1-10.45,3.3-3.39,2.2-6.19,5-8.39,8.39-2.2,3.39-3.44,6.88-3.71,10.45v41.67c.18,1.47.76,2.8,1.72,3.99.96,1.19,2.13,2.06,3.51,2.61h-21.73c1.38-.55,2.54-1.42,3.51-2.61.96-1.19,1.53-2.52,1.72-3.99v-53.64c0-1.74-.51-3.21-1.51-4.4-1.01-1.19-2.16-1.79-3.44-1.79v-1.1l16.23-2.89v12.24c2.02-4.4,5.04-7.91,9.08-10.52,4.03-2.61,8.57-3.92,13.62-3.92,8.53,0,15.33,2.32,20.42,6.95,5.09,4.63,7.63,11.16,7.63,19.6v39.47Z"/>
            <path class="cls-2" d="M524.8,100.04c-3.11-1.08-4.86-3.23-5.23-6.45v-22.26c0-2.81-2.14-5.31-5.07-5.64-.46-.05-.92-.05-1.39,0-1.09.13-2.12.54-3.03,1.19-1.46,1.04-2.25,2.72-2.25,4.45v2.75c0,5.76-1.85,11.43-5.51,16.02-3.84,4.81-8.71,7.52-13.26,7.26-2.8-.16-6.39-1.48-8.95-4.12-3.63-3.73-3.65-8.49-3.66-10.74,0-1.54-.03-4.59,1.71-7.85,3.22-6.03,9.72-8.63,14.05-10.36,1.68-.67,3.35-1.24,4.5-1.62,1.06-.35,2.14-.68,3.89-1.17,3.54-1,5.75-1.53,6.48-1.73,3.7-1.01,9.12-4.45,10.96-9.62,2.44-6.89-2.67-13.45-3.39-14.38-6.97-8.95-20.11-8.44-23.04-8.33-9.03.35-15.64,4.39-17.54,5.58-2.13,1.34-3.76,2.68-4.88,3.7l7.92,9.41c.38-2.13,1.42-6.11,4.67-9.82.94-1.07,8.05-8.95,16.64-7.07,8.42,1.84,11.73,11.61,11.78,17.61.02,2.37-.08,5.98-2.52,8.18-1.56,1.41-5.31,1.87-12.81,2.81-1.27.16-4.35.56-8.38,1.61-.34.09-.66.18-1.01.28-1.91.57-5.56,1.68-9.28,3.9-2.58,1.54-8.18,4.9-10.96,11.03-.41.9-4.86,11.19,1.45,19.24,0,0,5.7,7.37,17.57,7.37.99,0,3.2,0,6.08-.62,7.7-1.66,13.6-6.18,17.5-10.08v1.67s0,0-.01.01v2.55s.01,0,.01,0v5.24h16.97Z"/>
          </g>
          <path class="cls-2" d="M378.44,15.34h0s0,0,0,0c0-.18,0-.36,0-.55,0-.45-.19-.85-.55-1.14-.54-.42-1.15-.73-1.75-1.04,0,0,0,.01,0,.02l-2.54-1.49c-.25-.15-.49-.3-.75-.44-.68-.37-1.35-.35-2.01.09-.33.22-.68.41-1.02.6-1.19.67-2.37,1.36-3.56,2.05-.47.27-.79.68-.83,1.23-.03.48-.04.96-.03,1.44v1.55c-.01,1-.01,1.99.02,2.99,0,.01,0,.03,0,.04h0s0,.01,0,.01c.04.55.35.97.83,1.25,1.58.92,3.17,1.83,4.75,2.74.61.35,1.22.36,1.82,0,.67-.39,1.33-.76,1.99-1.16.46-.28.94-.52,1.39-.81h0s.05-.04.05-.04c0,0,0,0,0,0l1.72-1.1s0,0,0,0c.01,0,.02-.02.03-.03h0s0,0,0,0c.05-.05.1-.11.14-.17h0s0,0,0,0c.04-.06.07-.12.1-.18h0s0,0,0,0c.09-.2.14-.42.14-.63v-.45s0-.03,0-.03c.02-1.59.01-3.17,0-4.76Z"/>
          <g>
            <path class="cls-2" d="M382.41,142.16c9.26,0,16.23,3.76,20.9,11.28l-7.7,9.63c-1.29-12.47-5.73-18.7-13.34-18.7-4.4,0-8.66,2.36-12.79,7.08-4.13,4.72-6.37,9.74-6.74,15.06v41.67c.46,3.3,2.25,5.5,5.36,6.6h-21.87c3.12-1.1,4.86-3.3,5.23-6.6v-53.64c0-1.74-.48-3.21-1.44-4.4-.96-1.19-2.13-1.79-3.51-1.79v-1.1l16.23-2.89v11.55c1.93-4.22,4.65-7.56,8.18-10.04,3.53-2.48,7.36-3.71,11.48-3.71Z"/>
            <path class="cls-2" d="M413.08,153.09c7.33-7.29,16.16-10.93,26.47-10.93s19.14,3.64,26.47,10.93c7.33,7.29,11,16.11,11,26.48s-3.67,19.21-11,26.54c-7.34,7.34-16.14,11-26.41,11-5.14,0-10.02-.99-14.65-2.96-4.63-1.97-8.62-4.63-11.97-7.98-3.35-3.35-6.01-7.33-7.98-11.97-1.97-4.63-2.96-9.51-2.96-14.65,0-10.36,3.67-19.19,11-26.48ZM422.02,204.46c4.86,6.88,10.7,10.32,17.54,10.32s12.67-3.44,17.54-10.32c4.86-6.88,7.29-15.17,7.29-24.89s-2.43-18.02-7.29-24.89c-4.86-6.88-10.71-10.32-17.54-10.32s-12.68,3.44-17.54,10.32c-4.86,6.88-7.29,15.18-7.29,24.89s2.43,18.02,7.29,24.89Z"/>
            <path class="cls-2" d="M557.76,144.36c3.04,1.16,4.77,3.28,5.19,6.35.02.08.03.16.04.25l-5.43,15.88s-.02.04-.02.06l-10.36,30.26-16.5-48.68c.92-1.93,2.43-3.3,4.53-4.12h-21.87c2.84,1.1,4.86,3.21,6.05,6.33l.14.27,1.79,5.5-13.89,40.71-16.5-48.68c.92-1.93,2.43-3.3,4.54-4.12h-21.87c2.93,1.1,4.95,3.21,6.05,6.33l.13.27,21.73,63.81h2.34l18.71-54.88,18.7,54.88h2.34l15.69-46.07,4.85-14.23s0-.02.01-.03l1.18-3.48c1.19-3.39,3.21-5.59,6.05-6.6h-13.62Z"/>
            <path class="cls-2" d="M617.59,182.04c2.02,2.94,3.16,6.1,3.44,9.49.28,3.39-.21,6.58-1.44,9.56-1.24,2.98-3,5.69-5.3,8.11-2.29,2.43-5.09,4.36-8.39,5.78-3.3,1.42-6.74,2.13-10.31,2.13-12.56,0-21-3.8-25.31-11.42l7.15-6.74c1.38,5.23,3.41,9.17,6.12,11.83,2.7,2.66,6.62,3.99,11.76,3.99,2.93,0,5.39-.66,7.36-1.99,1.97-1.33,3.37-3.03,4.19-5.09.83-2.06,1.26-4.31,1.31-6.74.05-2.43-.34-4.81-1.17-7.15-.83-2.34-1.93-4.33-3.3-5.98-1.38-1.56-3.39-3.07-6.05-4.54-2.66-1.47-5.34-2.8-8.05-3.99-2.71-1.19-5.34-2.52-7.91-3.99-2.57-1.47-4.74-3.37-6.53-5.71-1.79-2.34-2.82-5.07-3.09-8.18-.55-5.59,1.33-10.2,5.64-13.82,4.31-3.62,9.67-5.43,16.09-5.43,2.84,0,5.36.21,7.56.62,2.2.41,4.42,1.24,6.67,2.48,2.25,1.24,4.42,2.96,6.53,5.16l-5.91,6.46c-1.38-3.03-2.8-5.45-4.26-7.29-1.47-1.83-3.07-3.16-4.81-3.99-1.74-.83-3.76-1.24-6.05-1.24-3.39,0-6.19,1.17-8.39,3.51-2.2,2.34-3.26,5.04-3.16,8.11.09,3.07,1.33,5.57,3.71,7.5,1.65,1.28,3.73,2.54,6.26,3.78,2.52,1.24,4.97,2.34,7.36,3.3,2.38.96,4.74,1.97,7.08,3.03,2.34,1.05,4.51,2.29,6.53,3.71,2.02,1.42,3.58,3,4.68,4.74Z"/>
            <path class="cls-2" d="M444.66,177.6h0s0,0,0,0c0-.15,0-.3,0-.46,0-.38-.15-.71-.43-.95-.42-.35-.9-.61-1.37-.87,0,0,0,0,0,.01l-1.99-1.25c-.19-.13-.39-.25-.58-.37-.54-.31-1.06-.29-1.58.07-.26.18-.53.34-.8.51-.93.56-1.86,1.14-2.79,1.71-.37.23-.62.57-.65,1.03-.03.4-.03.8-.02,1.21v1.3c0,.84,0,1.67.02,2.5,0,.01,0,.02,0,.03h0s0,.01,0,.01c.03.46.27.81.65,1.05,1.24.77,2.48,1.53,3.72,2.3.48.29.95.3,1.43,0,.52-.32,1.05-.64,1.56-.97.36-.23.74-.43,1.09-.68h0s.04-.03.04-.03c0,0,0,0,0,0l1.35-.92s0,0,0,0c0,0,.02-.02.02-.02h0s0,0,0,0c.04-.04.08-.09.11-.14h0s0,0,0,0c.03-.05.06-.1.08-.15h0s0,0,0,0c.07-.17.11-.35.11-.53v-.38s0-.02,0-.02c.01-1.33.01-2.66,0-3.99Z"/>
            <path class="cls-2" d="M333.08,177.02c-1.76-3.8-4.54-7.13-8.37-9.97-3.37-2.5-7.27-4.15-11.71-4.95.85-.5,16.59-9.98,16.26-23.84-.04-1.63-.14-6.26-3.23-10.73-3.14-4.56-7.53-6.38-9.63-7.2-3.18-1.26-6.03-1.45-11.61-1.77-4.65-.27-8.67-.21-11.87-.06h-28.65c3.61,1.19,5.63,3.44,6.06,6.74v82.94c-.43,3.21-2.45,5.41-6.06,6.6h43.85c5.85-.27,10.92-1.67,15.23-4.19,4.3-2.52,7.41-5.62,9.33-9.28,1.91-3.66,2.9-7.68,2.95-12.04.05-4.35-.8-8.43-2.55-12.24ZM284.53,157.44v-36.6h18.68c.87,0,1.74.05,2.6.2,8.33,1.41,12.1,9.27,12.1,17.07,0,3.75-.64,7.02-1.77,9.92-2.62,6.76-7.74,10.98-10.56,13.34-1.96,1.64-4.68,3.59-5.52,4.19-2.16,1.55-2.24,1.5-6.02,4.13-4.07,2.82-5.6,3.99-7.29,5.6-.97.93-1.73,1.75-2.24,2.32,0-3.88.02-7.77.03-11.65h-.01v-8.52ZM322.56,195.87c-.69,4.63-2.34,8.55-4.94,11.76-2.61,3.21-5.77,4.81-9.49,4.81h-23.6v-31.19c1.84-2.09,4.32-4.16,7.49-6.3l.04-.03c.23-.16.59-.4,1.03-.69,2.75-1.81,4.77-2.99,9.43-5.73.75-.44,3.17-1.86,3.98-2.34l.16-.09c1.1-.65,2.19-1.32,3.27-1.99,3.15.79,5.84,2.62,8.08,5.51,2.66,3.44,4.25,7.52,4.79,12.24.53,4.72.45,9.4-.24,14.03Z"/>
            <path class="cls-2" d="M299.43,165.84l-.17.12h0c.06-.04.12-.08.18-.12Z"/>
          </g>
        </g>
        <g>
          <path class="cls-2" d="M540.12,49.84c-.87-.32-1.59-.79-2.17-1.41s-.92-1.38-1.01-2.26v-.09s1.75,0,1.75,0v.1c.06.54.29.99.68,1.36.39.37.89.66,1.48.85.6.19,1.23.29,1.89.29s1.32-.1,1.91-.3c.59-.2,1.07-.49,1.44-.89.37-.39.55-.87.55-1.42h0c0-.7-.24-1.25-.71-1.67s-1.21-.72-2.23-.88l-2.19-.36c-2.81-.47-4.22-1.82-4.22-4.07h0c0-.81.22-1.53.67-2.15.45-.63,1.06-1.11,1.85-1.46.79-.35,1.68-.52,2.68-.52s1.87.16,2.73.47,1.59.79,2.17,1.41c.58.63.92,1.38,1.01,2.26v.09s-1.75,0-1.75,0v-.1c-.07-.55-.3-1.02-.72-1.4-.42-.38-.94-.67-1.57-.85-.63-.18-1.29-.27-1.98-.25h.02c-.67,0-1.25.1-1.75.31-.5.21-.89.49-1.17.86-.28.37-.42.79-.42,1.27h0c0,.65.24,1.18.71,1.59.47.42,1.2.7,2.16.87l2.19.36c1.5.25,2.58.71,3.26,1.38.68.68,1.02,1.59,1.02,2.73h0c0,.93-.26,1.72-.78,2.37s-1.21,1.14-2.06,1.47c-.85.33-1.76.49-2.74.49s-1.87-.16-2.73-.47Z"/>
          <path class="cls-2" d="M555.34,36.69h-4.53v-1.57h10.8v1.57h-4.53v13.58h-1.74v-13.58Z"/>
          <path class="cls-2" d="M571.22,50.27h-.01c-1.32,0-2.44-.27-3.37-.8-.93-.54-1.64-1.3-2.12-2.29-.48-.99-.72-2.16-.72-3.52v-8.55h1.69v8.68c0,1.02.17,1.89.51,2.63.34.74.85,1.3,1.52,1.7.67.39,1.49.59,2.46.59h.07c.97,0,1.79-.2,2.46-.59.67-.39,1.18-.96,1.52-1.7.34-.74.51-1.62.51-2.63v-8.68h1.69v8.55c0,1.35-.24,2.52-.72,3.52-.48.99-1.19,1.76-2.12,2.29-.93.54-2.06.8-3.38.8h-.01.02Z"/>
          <path class="cls-2" d="M580.83,35.11h5.27c1.54,0,2.92.33,4.14.98,1.23.66,2.18,1.56,2.87,2.7.69,1.15,1.04,2.43,1.04,3.85v.08c0,1.42-.35,2.71-1.04,3.85-.69,1.15-1.65,2.05-2.87,2.7-1.22.65-2.61.98-4.14.98h-5.27v-15.16ZM586.1,48.69c1.24,0,2.33-.26,3.28-.78.95-.52,1.69-1.24,2.21-2.15.52-.91.78-1.93.78-3.07s-.26-2.16-.78-3.07c-.52-.91-1.26-1.62-2.21-2.15-.95-.52-2.04-.78-3.28-.78h-3.56v12.01h3.56Z"/>
          <path class="cls-2" d="M597.55,50.27v-15.16h1.71v15.16h-1.71Z"/>
          <path class="cls-2" d="M606.28,49.26c-1.13-.67-2.02-1.59-2.66-2.74-.64-1.15-.96-2.42-.96-3.79v-.04c0-1.37.32-2.64.97-3.8.65-1.16,1.54-2.08,2.68-2.76,1.14-.68,2.43-1.02,3.86-1.02s2.69.34,3.82,1.01c1.13.67,2.02,1.59,2.66,2.74.64,1.15.96,2.42.96,3.79v.04c0,1.37-.32,2.64-.97,3.8-.65,1.16-1.54,2.08-2.68,2.76-1.14.68-2.43,1.02-3.86,1.02s-2.69-.34-3.82-1.01ZM605.13,45.75c.5.92,1.2,1.65,2.08,2.18.88.54,1.87.8,2.95.8s2.06-.26,2.93-.79c.87-.53,1.55-1.25,2.04-2.16.49-.91.74-1.93.74-3.05v-.04c0-1.12-.25-2.14-.75-3.06-.5-.92-1.19-1.65-2.07-2.18-.88-.54-1.87-.8-2.95-.8s-2.06.27-2.93.79c-.87.53-1.56,1.25-2.05,2.16-.49.91-.74,1.93-.74,3.05v.04c0,1.12.25,2.14.76,3.06Z"/>
          <path class="cls-2" d="M540.53,74.57c-1.12-.67-2-1.57-2.65-2.72-.64-1.15-.96-2.42-.96-3.81v-.04c0-1.39.32-2.67.97-3.82.65-1.16,1.53-2.07,2.66-2.74,1.13-.67,2.39-1.01,3.77-1.01,1.21,0,2.25.19,3.13.56.87.37,1.74.96,2.6,1.77l-1.13,1.22c-1.4-1.34-2.93-2.01-4.6-2.01-1.06,0-2.02.27-2.89.79-.87.53-1.55,1.25-2.04,2.17-.49.92-.74,1.93-.74,3.04v.04c0,1.12.25,2.14.75,3.06.5.92,1.18,1.65,2.04,2.18.86.53,1.83.8,2.88.8.92,0,1.74-.17,2.47-.5.72-.33,1.48-.87,2.27-1.6l1.07,1.06c-.85.87-1.74,1.52-2.65,1.94-.92.42-1.98.63-3.2.63-1.37,0-2.62-.33-3.74-1Z"/>
          <path class="cls-2" d="M559.35,60.42h1.6l6.86,15.16h-1.84l-1.78-4.02h-8.16l-1.8,4.02h-1.72l6.86-15.16ZM563.5,70.02l-3.37-7.64-3.44,7.64h6.81Z"/>
          <path class="cls-2" d="M570.69,60.42h5.88c1.08,0,2.06.18,2.91.55s1.53.91,2.03,1.63c.49.72.74,1.6.74,2.63v.2c0,1.14-.3,2.09-.9,2.85-.6.76-1.42,1.3-2.46,1.63l3.01,5.67h-1.98l-2.71-5.34h-4.82v5.34h-1.71v-15.16ZM578.5,68.26c.62-.26,1.11-.64,1.47-1.15.36-.5.54-1.1.54-1.79,0-1.1-.37-1.93-1.1-2.49-.74-.56-1.72-.84-2.95-.84h-4.06v6.66h4.04c.76,0,1.45-.13,2.07-.39Z"/>
          <path class="cls-2" d="M595.64,68.85h-8.28v5.17h9.36v1.55h-11.07v-15.16h11.07v1.55h-9.36v5.17h8.28v1.71Z"/>
          <path class="cls-2" d="M609.11,75.27c-.71-.34-1.25-.82-1.63-1.43-.38-.61-.57-1.3-.57-2.09,0-.5.06-.97.2-1.4.13-.43.34-.84.62-1.22.53-.73,1.41-1.37,2.64-1.94-.27-.36-.49-.68-.66-.95-.32-.49-.54-.94-.68-1.33s-.21-.8-.21-1.23c0-.55.13-1.08.4-1.6.27-.54.69-.97,1.25-1.28.56-.31,1.25-.46,2.08-.46.66,0,1.23.12,1.72.38.49.25.87.6,1.14,1.05.27.45.4.98.4,1.59,0,.54-.09,1.04-.26,1.5-.18.48-.49.94-.95,1.38s-1.09.89-1.93,1.34c.34.44.86,1.11,1.59,2.01.86,1.06,1.48,1.8,1.85,2.23.6-1.12.91-2.32.91-3.61,0-.23-.01-.45-.03-.68l1.54.13c.01.25.02.43.02.56,0,.84-.13,1.67-.38,2.47-.25.8-.61,1.54-1.09,2.22.31.3.56.53.74.69.37.32.72.53,1.06.64.34.11.72.17,1.16.17l-.46,1.36c-.48,0-.91-.06-1.29-.17-.38-.12-.78-.34-1.21-.67-.29-.22-.61-.5-.97-.84-1.18,1.13-2.66,1.69-4.45,1.69-1,0-1.85-.17-2.56-.52ZM609.04,73.02c.27.42.66.74,1.14.96s1.05.34,1.68.34c.69,0,1.29-.11,1.81-.32.52-.21,1-.54,1.45-.97-.55-.6-1.24-1.41-2.08-2.44l-.29-.36c-.77-.95-1.29-1.61-1.58-1.97-.58.29-1.02.57-1.34.81-.43.34-.74.7-.93,1.1-.18.39-.28.87-.28,1.42s.14,1.01.41,1.43ZM610.64,64.54c.08.27.24.59.48.96.19.29.42.63.7,1.01.51-.28.94-.55,1.29-.81.38-.29.67-.6.85-.93.19-.33.28-.72.28-1.17,0-.53-.16-.94-.48-1.24-.32-.3-.76-.44-1.33-.44-.62,0-1.1.17-1.43.5s-.49.76-.49,1.27c0,.3.04.59.12.85Z"/>
          <path class="cls-2" d="M546.56,86.24c.83.33,1.47.8,1.93,1.43.45.62.68,1.36.68,2.21v.05c0,1.56-.83,2.7-2.5,3.4,1.67.68,2.5,1.8,2.5,3.37v.06c0,.85-.23,1.59-.68,2.21-.45.62-1.1,1.1-1.93,1.43-.83.33-1.8.49-2.91.49h-6.72v-15.14h6.72c1.11,0,2.08.16,2.91.49ZM543.4,92.62c1.3,0,2.29-.22,2.98-.67.69-.45,1.03-1.09,1.03-1.93v-.04c0-.56-.15-1.04-.45-1.45s-.73-.72-1.29-.94-1.22-.32-1.97-.32h-5.1v5.34h4.79ZM543.71,99.34c.75,0,1.41-.11,1.97-.32.56-.22.99-.53,1.29-.94s.45-.89.45-1.45v-.04c0-.84-.35-1.48-1.03-1.93-.69-.45-1.68-.67-2.98-.67h-4.79v5.34h5.1Z"/>
          <path class="cls-2" d="M562.55,94.15h-8.28v5.17h9.36v1.55h-11.07v-15.16h11.07v1.55h-9.36v5.17h8.28v1.71Z"/>
          <path class="cls-2" d="M573.89,85.72h1.6l6.86,15.16h-1.84l-1.78-4.02h-8.16l-1.8,4.02h-1.72l6.86-15.16ZM578.04,95.33l-3.37-7.64-3.44,7.64h6.81Z"/>
          <path class="cls-2" d="M590.42,100.88h-.01c-1.32,0-2.44-.27-3.37-.8-.93-.54-1.64-1.3-2.12-2.29-.48-.99-.72-2.16-.72-3.52v-8.55h1.69v8.68c0,1.02.17,1.89.51,2.63.34.74.85,1.3,1.52,1.7.67.39,1.49.59,2.46.59h.07c.97,0,1.79-.2,2.46-.59.67-.39,1.18-.96,1.52-1.7.34-.74.51-1.62.51-2.63v-8.68h1.69v8.55c0,1.35-.24,2.52-.72,3.52-.48.99-1.19,1.76-2.12,2.29-.93.54-2.06.8-3.38.8h-.01.02Z"/>
          <path class="cls-2" d="M604.55,87.3h-4.53v-1.57h10.8v1.57h-4.53v13.58h-1.74v-13.58Z"/>
          <path class="cls-2" d="M620.53,94.87l-6.31-9.15h2.08l5.1,7.58,5.16-7.58h2.01l-6.31,9.13v6.02h-1.72v-6Z"/>
        </g>
      </g>
      <g>
        <g>
          <path class="cls-1" d="M123.72,162.17c-.16.22-.34.45-.52.68l-5.9.59-25.86-2.03c-.49-.61-1.17-1.52-1.88-2.67-3.28-5.33-3.8-10.45-4.12-14.03-.76-8.52,1-15.89,2.42-20.35,13.63.12,27.26.23,40.88.35h0s.01.05.02.07c0,0,.02.09.04.19,2.11,11.86.86,20.1.86,20.1-.82,5.42-2.7,10.58-3.77,13.24-.56,1.38-1.27,2.68-2.16,3.87Z"/>
          <g>
            <path class="cls-2" d="M103.73,161.75c-4.48-.12-8.71-.42-12.67-.83-.02,0-.03,0-.04,0,2,2.48,5.03,5.68,9.34,8.55,2.87,1.91,5.59,3.21,7.89,4.11.98-.49,6.53-3.31,10.63-6.55,2.4-1.9,3.69-3.38,4.32-4.17.62-.78,1.08-1.47,1.38-1.94-3.21.36-5.95.56-8.02.68-1.24.07-6.25.33-12.82.16Z"/>
            <path class="cls-2" d="M103.91,148.84c-6.7-.17-12.81-.8-18.22-1.65.11.99.29,2.09.55,3.26.27,1.2.59,2.28.92,3.25,5.29.76,9.94,1.15,13.76,1.37,2.84.16,7.63.42,13.94.17,4.85-.19,9.08-.62,12.55-1.08.37-1.1.73-2.27,1.06-3.51.32-1.19.59-2.33.81-3.42-7.18,1.1-15.74,1.85-25.36,1.61Z"/>
            <path class="cls-2" d="M129.76,132.42c-3.77.62-14.47,2.25-24.97,1.93-4.91-.15-10.12-.72-10.12-.72-3.4-.37-6.35-.83-8.75-1.26-.15.91-.28,1.88-.39,2.89-.13,1.24-.21,2.41-.25,3.52,4.77.81,10,1.46,15.64,1.8,11.05.67,20.9-.01,29.14-1.17,0-1.13-.03-2.29-.08-3.49-.05-1.21-.12-2.38-.21-3.51Z"/>
            <path class="cls-2" d="M184.02,82.7c-1.63-3.95-10.14-5.44-20.71-2.85-6.57,1.02-15.11,3.03-24.46,7.14-6.17,2.71-11.36,5.75-15.6,8.61-.76-.59-1.67-1.23-2.76-1.84-1.07-.61-2.08-1.06-2.97-1.4l.18-1.87c1.27-.46,3.06-1.49,4.79-4.18,0,0,.03-.05.06-.1,2.28-3.6,2.3-8.18.32-11.95-.94-1.8-2.25-3.84-4.03-5.87.32-1.17.73-2.43,1.25-3.75.62-1.58,1.3-2.99,1.97-4.23.51-.94,1.1-1.84,1.84-2.61.42-.44.94-.89,1.55-1.32,1.29-.9,2.52-1.34,3.35-1.57,1.23-.45,3.11-1.33,4.89-3.05,3.24-3.14,3.94-6.97,4.12-8.32-1.49,1.14-2.97,2.29-4.46,3.43-1.94,1.5-4.02,2.82-6.27,3.8-1.2.52-2.56,1.27-3.94,2.32-.02.02-.05.04-.07.05-2.75,2.13-4.58,5.23-5.32,8.63-.32,1.49-.65,2.98-.97,4.48-.02-.02-.04-.04-.06-.06-2.3-2.13-4.63-3.6-6.6-4.63-1.45-.75-3.19-.67-4.6.17-1.61.94-3.49,2.27-5.36,4.1-.29-1.35-.59-2.7-.88-4.05-.74-3.4-2.57-6.5-5.32-8.63-.02-.02-.05-.04-.07-.05-1.38-1.06-2.74-1.8-3.94-2.32-2.25-.98-4.33-2.31-6.27-3.8-1.49-1.14-2.97-2.29-4.46-3.43.18,1.35.88,5.18,4.12,8.32,1.78,1.72,3.66,2.6,4.89,3.05.83.22,2.06.66,3.35,1.57.61.43,1.12.88,1.55,1.32.74.77,1.33,1.67,1.84,2.61.67,1.24,1.35,2.65,1.97,4.23.48,1.21.85,2.36,1.16,3.44-.03.03-.06.07-.09.1-2.56,3.15-3.94,6.24-4.69,8.41-.15.4-2.09,6.04,1.4,10.46,1.85,2.35,4.31,3.19,5.36,3.47.05.61.11,1.23.17,1.84-.94.15-2.17.44-3.53,1.04-1.4.61-2.47,1.34-3.23,1.95-4.17-2.79-9.23-5.73-15.22-8.36-9.35-4.11-17.88-6.12-24.46-7.14-10.57-2.59-19.08-1.1-20.71,2.85-1.76,4.28,4.76,10.9,8.92,13.93,4.27,3.1,8.85,4.47,12.82,5.01-3.94.37-8.45,1.29-13.18,3.2-.03,0-.07.03-.11.04-4.6,1.88-4.51,8.48.09,10.36.84.34,1.62.61,2.35.84,9.15,2.84,17.55.43,31.41-3.75,5.31-1.6,9.8-3.24,13.31-4.65.08.62.18,1.27.32,1.94.04.19.1.37.16.54.1.27.18.56.26.84-4.65,3.35-7.94,6.73-10.14,9.33-5.59,6.61-8.36,13.02-12.11,21.92-2.44,5.8-4.12,10.73-5.19,14.18-.23.59-.1,1.26.32,1.65.56.5,1.51.47,2.12-.17,2.29-2.85,4.62-5.98,6.94-9.4,2.1-3.08,3.98-6.09,5.67-8.99,1.29-2.19,2.07-4.63,2.57-7.12v-.04c.63-3.2,2.06-5.6,3.14-7.09,2.44-3.7,4.88-7.4,7.31-11.1.24,2.35-.03,4.71-.98,6.92-.44,1.02-.87,2.12-1.25,3.28,4.29.79,9.02,1.42,14.17,1.75,10.26.66,19.31-.02,26.78-1.15-.23-.92-.51-1.79-.8-2.62-1.09-3.07-1.44-6.32-.94-9.49,2.73,4.14,5.45,8.28,8.17,12.41,1.09,1.49,2.5,3.89,3.14,7.09,0,0,0,.02,0,.04.49,2.49,1.28,4.93,2.56,7.12,1.69,2.9,3.57,5.91,5.67,8.99,2.33,3.42,4.67,6.55,6.94,9.4.61.63,1.57.66,2.12.17.42-.39.56-1.05.33-1.65-1.08-3.45-2.76-8.39-5.19-14.18-3.76-8.89-6.53-15.3-12.12-21.92-2.35-2.77-5.91-6.42-11.06-9.99.03-.09.05-.18.08-.26.23-.7.41-1.46.53-2.29,0,0,0-.06.02-.16,3.53,1.41,8.06,3.09,13.45,4.7,13.86,4.18,22.27,6.59,31.41,3.75.73-.22,1.51-.5,2.35-.84,4.61-1.88,4.69-8.48.09-10.36-.04,0-.08-.03-.11-.04-4.72-1.92-9.22-2.83-13.18-3.2,3.96-.54,8.55-1.91,12.82-5.01,4.16-3.03,10.69-9.65,8.92-13.93Z"/>
          </g>
        </g>
        <path class="cls-2" d="M108.56,217.12C48.7,217.12,0,168.42,0,108.56S48.7,0,108.56,0s108.56,48.7,108.56,108.56-48.7,108.56-108.56,108.56ZM108.56,4.87C51.38,4.87,4.87,51.38,4.87,108.56s46.51,103.69,103.69,103.69,103.69-46.51,103.69-103.69S165.73,4.87,108.56,4.87Z"/>
        <path class="cls-2" d="M108.56,207.9c-54.78,0-99.34-44.56-99.34-99.34S53.78,9.22,108.56,9.22s99.34,44.56,99.34,99.34-44.56,99.34-99.34,99.34ZM108.56,11.17C54.85,11.17,11.16,54.86,11.16,108.56s43.69,97.39,97.39,97.39,97.39-43.69,97.39-97.39S162.26,11.17,108.56,11.17Z"/>
      </g>
    </g>
  </g>
</svg>