<?xml version="1.0" encoding="UTF-8"?>
<svg id="Camada_2" data-name="Camada 2" xmlns="http://www.w3.org/2000/svg" viewBox="0 0 610.75 318.09">
  <defs>
    <style>
      .cls-1 {
        fill: #0e9b6f;
      }

      .cls-2 {
        fill: #004237;
      }
    </style>
  </defs>
  <g id="Camada_1-2" data-name="Camada 1">
    <g>
      <path class="cls-2" d="M220.77,318.09c-3.03,0-5.22-.73-6.48-2.17-.88-1-1.32-2.36-1.31-4.03l2.69-.05c.11,2.64,1.61,3.73,5.1,3.73,4.11,0,4.98-1.73,4.98-3.18,0-1.93-.89-2.6-4.16-3.09l-2.43-.37c-4.33-.64-6.18-2.28-6.18-5.51,0-3.43,2.62-5.36,7.37-5.45,2.87.03,4.94.75,6.15,2.13.83.94,1.25,2.21,1.25,3.75h-2.61c-.16-3.03-2.79-3.39-4.79-3.39-4.01,0-4.85,1.58-4.85,2.9,0,1.8.88,2.46,3.92,2.95l2.56.4c4.54.72,6.39,2.37,6.39,5.71,0,3.55-2.83,5.68-7.58,5.68h-.03Z"/>
      <polygon class="cls-2" points="240.94 317.75 240.94 298.43 253.95 298.43 253.95 300.98 243.46 300.98 243.46 306.4 253.54 306.4 253.54 308.95 243.46 308.95 243.46 315.2 253.95 315.2 253.95 317.75 240.94 317.75"/>
      <path class="cls-2" d="M275.58,318.09c-5.75,0-9.33-3.84-9.33-10.03s3.66-10.09,9.33-10.09c4.24,0,7.39,2.11,8.69,5.8l-2.72.02c-1.04-2.16-3.1-3.3-5.97-3.3-4.42,0-6.75,2.62-6.75,7.57s2.34,7.51,6.75,7.51c2.78,0,4.69-1.03,5.83-3.14l.04-.07v-3.35h-6.92v-2.55l9.68.05v11.21h-2.76v-1.84l-.46.43c-1.22,1.15-3.14,1.78-5.41,1.78Z"/>
      <path class="cls-2" d="M304.71,318.09c-5.09,0-7.61-2.68-7.71-8.19v-11.48h2.52v11.57c0,3.91,1.56,5.57,5.21,5.57s5.19-1.61,5.19-5.57v-11.57h2.49v11.54c0,5.39-2.59,8.12-7.71,8.12Z"/>
      <path class="cls-2" d="M337.5,317.75l-4.04-8.09-.2.04c-.42.08-.84.08-1.28.08h-4.51v7.97l-2.5-.05v-19.27h7.06c3.29,0,7.21.97,7.21,5.59,0,2.33-1.05,4.03-3.04,4.93l-.29.13,4.46,8.67h-2.88ZM327.48,307.25h4.69c3.35,0,4.53-.85,4.53-3.24s-1.23-3.1-4.72-3.1h-4.51v6.33Z"/>
      <path class="cls-2" d="M360.65,318.09c-5.75,0-9.33-3.84-9.33-10.03s3.66-10.09,9.33-10.09,9.38,3.84,9.38,10.03-3.59,10.09-9.38,10.09ZM360.65,300.49c-4.42,0-6.75,2.62-6.75,7.57s2.34,7.51,6.75,7.51,6.81-2.67,6.81-7.51-2.42-7.57-6.81-7.57Z"/>
      <path class="cls-2" d="M390.17,318.09c-3.03,0-5.22-.73-6.48-2.17-.88-1-1.32-2.36-1.31-4.03l2.69-.05c.11,2.64,1.61,3.73,5.1,3.73,4.12,0,4.98-1.73,4.98-3.18,0-1.93-.89-2.6-4.16-3.09l-2.43-.37c-4.33-.64-6.18-2.28-6.18-5.51,0-3.43,2.62-5.36,7.37-5.45,2.87.03,4.94.75,6.15,2.13.83.94,1.25,2.21,1.25,3.76h-2.61c-.16-3.03-2.79-3.39-4.79-3.39-4.01,0-4.85,1.58-4.85,2.9,0,1.8.88,2.46,3.92,2.95l2.56.4c4.54.72,6.39,2.37,6.39,5.71,0,3.55-2.83,5.68-7.58,5.68h-.03Z"/>
      <path class="cls-1" d="M272.12,119.19l-22.48-25.68v-54.85h34.27v48.57l1.93.04,10.83-.05h38.99c-5.18,6.31-9.48,13.21-12.83,20.56l-.12.28c-1.63,3.59-3.15,7.33-4.52,11.12h-46.08Z"/>
      <path class="cls-2" d="M338.63,0h-46.08c-1.37,3.79-2.89,7.53-4.52,11.12l-.12.28c-3.34,7.35-7.65,14.25-12.83,20.57h38.99l10.83-.05,1.93.04h0s0,44.73,0,44.73h34.27V25.68L338.63,0Z"/>
      <path class="cls-2" d="M596.76,251.18c0-4.09,3.01-7.34,6.99-7.34s6.99,3.25,6.99,7.34-2.99,7.38-6.99,7.38-6.99-3.29-6.99-7.38ZM603.76,256.94c3.05,0,5.39-2.45,5.39-5.76s-2.34-5.69-5.39-5.69-5.41,2.51-5.41,5.69,2.21,5.76,5.41,5.76ZM601.09,247.61h2.84c1.45,0,2.9.45,2.9,2.12,0,.82-.39,1.45-1.13,1.82l1.69,3.05h-1.6l-1.45-2.71c-.15.02-.28.02-.43.02h-1.43v2.68l-1.39-.04v-6.95ZM603.97,250.62c1.21,0,1.45-.24,1.45-.89,0-.58-.26-.82-1.52-.82h-1.43v1.71h1.49Z"/>
      <g>
        <path class="cls-1" d="M252.99,187.86c-3.16,3.52-5.71,7.43-7.62,11.63l-.06.13c-.9,1.98-1.72,4.04-2.46,6.13h-24.12l-8.81-10.07c-1.89-2.17-2.94-4.95-2.94-7.82h19.04v.02l5.17-.02h21.8Z"/>
        <path class="cls-2" d="M236.94,241.77c.67,0,1.35-.02,2.05-.04l-.22,18.11c-1.51.16-3.01.24-4.51.24-1.13,0-2.26-.04-3.37-.14l-.65-.05c-4.45-.36-11.18-.9-15.95-5.23-4.56-4.15-6.95-10.72-7.31-20.11v-28.8h19.04v29.86c-.06,1.77.41,3.3,1.38,4.36.68.73,1.74,1.46,6.58,1.72.97.05,1.97.08,2.96.08Z"/>
        <path class="cls-2" d="M0,258.74v-99.82h82.52l-7.26,20.19H26.56c-3.37,0-6.1,2.73-6.1,6.1v11.64h46.05c-1.92,3.51-3.42,7.24-4.45,11.11-.79,2.96-1.31,6.01-1.54,9.08H24.15c-2.04,0-3.69,1.65-3.69,3.69v38.01H0Z"/>
        <path class="cls-2" d="M197.31,187.45v17.5c-1.69-.22-3.38-.33-5.06-.33-2.45,0-4.88.23-7.22.71-3.42.69-7.29,1.47-10.3,4.79-1.72,1.89-2.88,4.26-3.44,7.03l-.04.15v41.44h-18.88v-70.76h13.96c2.72,0,4.92,2.2,4.92,4.92h0s2.3-1.15,2.3-1.15c4.9-2.45,10.11-3.92,15.48-4.4,1.23-.11,2.49-.16,3.73-.16,1.51,0,3.04.08,4.56.25Z"/>
        <path class="cls-2" d="M285.85,260.08c-23.7,0-38.43-14.39-38.43-37.56s14.84-37.74,36.93-37.74c.63,0,1.26.01,1.89.04,17.35.65,27.35,8.31,32.4,24.83,1.86,6.07,2.74,12.63,2.63,19.49h-53.39l.49,2.01c1.66,6.85,8.03,10.79,17.48,10.79,6.13,0,9.04-1.07,11.05-3.4s5.27-3.72,8.5-3.72h14.4c-5.17,17.24-15.99,25.28-33.95,25.28ZM284.45,202.91c-6.25,0-12.06,3.86-14.79,9.83l-1.05,2.3h31.45l-1.02-2.29c-2.43-5.47-7.45-9.21-13.09-9.78-.49-.05-1-.07-1.49-.07Z"/>
        <path class="cls-2" d="M106.96,258.74c-20.4,0-37-16.85-37-37.56s16.44-37.36,36.64-37.55c1.2,0,2.4.05,3.57.14,9.18.8,17.71,5.04,23.99,11.95,6.32,6.95,9.8,15.99,9.8,25.46,0,20.71-16.6,37.56-37,37.56ZM106.96,201.34c-10.7,0-19.4,8.84-19.4,19.7s8.7,19.7,19.4,19.7,19.4-8.84,19.4-19.7-8.7-19.7-19.4-19.7Z"/>
        <path class="cls-1" d="M401.56,167.48c-6.68-4.18-16.03-6.29-27.77-6.29h-34.13c-2.83,0-5.12,2.29-5.12,5.12v92.29h18.09v-30.04c0-2.83,2.29-5.12,5.12-5.12h15.75c15.03,0,40.25-4.1,40.25-31.56,0-11.13-4.1-19.34-12.19-24.4ZM373.51,205.95h-20.87v-22.15h0c0-2.83,2.29-5.12,5.12-5.12h15.61c16.79,0,22.02,1.84,22.02,13.34s-4.5,13.92-21.88,13.92Z"/>
        <path class="cls-1" d="M481.03,186.84c-.29,0-.57,0-.86,0-10.57.15-18.23,2.09-23.41,5.96-4.95,3.68-7.67,9.17-8.3,16.76h10.96c3.09,0,6.13-1.27,8.03-3.7,2.26-2.9,6.5-3.56,12.69-3.56,11.19,0,14.43,2.34,14.43,10.44h0c0,1.34-1.07,2.43-2.41,2.45l-7.45.14c-24.41,0-39.53,3.5-39.53,20.95,0,14.1,10.73,22.69,28.71,22.98.43.01.85.02,1.26.02,9.11,0,12.92-2.69,16.04-5.45l3.51-3.1v7.52h16.51v-44.35c0-17.96-10.16-27.06-30.19-27.06ZM494.57,232.06c0,10.86-9.97,12.33-19.73,12.33-7.8,0-13-1.26-13-7.39,0-7.94,6.53-8.89,23.83-9.42l8.9-.19v4.67Z"/>
        <path class="cls-1" d="M557.86,187.2c-6.31,0-15.2,2.67-17.88,6.5l-3.85,5.51v-2.24c0-4.03-3.27-7.3-7.3-7.3h-9.21v68.93h16.51v-41.29c0-10.32,12.05-14.07,20.16-14.07,11.86,0,12.86,8.01,12.86,15.52v39.84h16.66v-44.93c0-17.07-9.92-26.47-27.94-26.47Z"/>
        <polygon class="cls-1" points="421.66 158.92 421.66 162.75 421.66 165.69 421.66 258.6 438.17 258.6 438.17 165.69 438.17 162.75 438.17 158.92 421.66 158.92"/>
        <path class="cls-2" d="M230.38,187.86s-.04,0-.06,0c-2.42-.03-4.31-2.12-4.31-4.54v-24.4h-19.04v28.94h18.23v.02l5.17-.02Z"/>
      </g>
    </g>
  </g>
</svg>