<?xml version="1.0" encoding="UTF-8"?>
<svg id="Camada_2" data-name="Camada 2" xmlns="http://www.w3.org/2000/svg" viewBox="0 0 599.88 265.91">
  <defs>
    <style>
      .cls-1 {
        fill: #c05624;
      }
    </style>
  </defs>
  <g id="Camada_1-2" data-name="Camada 1">
    <g>
      <path class="cls-1" d="M78.54,111.25c0-3.79.81-6.89,2.44-9.28,1.63-2.39,3.73-4.38,6.3-5.96,2.57-1.58,5.4-2.93,8.47-4.06,3.07-1.13,6.05-2.3,8.94-3.52,2.89-1.22,5.51-2.6,7.86-4.13,2.35-1.53,4.07-3.57,5.15-6.1,0-5.51-.72-9.82-2.17-12.94-1.45-3.12-3.66-4.68-6.64-4.68-1.63,0-2.94.63-3.93,1.9-1,1.27-1.65,2.87-1.96,4.81-.32,1.94-.25,4.04.2,6.3.45,2.26,1.26,4.34,2.44,6.23-.63,2.17-2.21,4-4.74,5.49-2.53,1.49-5.15,2.24-7.86,2.24-3.61,0-6.48-1.06-8.61-3.18-2.12-2.12-3.18-4.99-3.18-8.6,0-2.71.79-5.19,2.37-7.45,1.58-2.26,3.7-4.2,6.37-5.83,2.66-1.63,5.74-2.91,9.21-3.86,3.48-.95,7.11-1.42,10.91-1.42,10.3,0,17.91,2.55,22.83,7.66,4.92,5.1,7.39,12.72,7.39,22.83v26.02c0,3.79.45,6.5,1.36,8.13.9,1.63,2.48,2.67,4.74,3.12v1.36h-17.48c-4.61,0-7.86-1.85-9.76-5.56-1.08,2.44-2.85,4.2-5.28,5.29-2.44,1.08-5.69,1.63-9.76,1.63-8.4,0-14.77-1.31-19.11-3.93-4.34-2.62-6.5-6.78-6.5-12.47ZM102.93,111.25c0,4.07.77,7.25,2.3,9.55,1.54,2.3,3.25,3.46,5.15,3.46s3.7-1.17,5.15-3.52c1.44-2.35,2.17-5.1,2.17-8.27v-29.27c-.72,1.9-1.6,3.46-2.64,4.68-1.04,1.22-2.1,2.35-3.18,3.39-1.08,1.04-2.17,2.06-3.25,3.05-1.08.99-2.06,2.21-2.91,3.66-.86,1.45-1.54,3.23-2.03,5.35-.5,2.12-.75,4.77-.75,7.93Z"/>
      <path class="cls-1" d="M295.49,79.41c0,7.32-3.19,13.19-9.55,17.62-6.37,4.43-15.88,7.14-28.52,8.13,1.53,4.88,3.84,8.6,6.91,11.18,3.07,2.57,6.78,3.86,11.11,3.86,1.9,0,3.86-.36,5.89-1.08,2.03-.72,3.95-1.76,5.76-3.12,1.81-1.35,3.48-2.96,5.01-4.81,1.54-1.85,2.85-3.86,3.93-6.03l2.17,1.63c-3.98,7.23-8.4,12.51-13.28,15.85-4.88,3.34-10.57,5.01-17.07,5.01-5.6,0-10.68-.84-15.24-2.51-4.56-1.67-8.45-4.02-11.65-7.05-3.21-3.03-5.67-6.71-7.39-11.04-1.72-4.34-2.57-9.21-2.57-14.64s.93-9.89,2.78-14.23c1.85-4.34,4.4-8.06,7.66-11.18,3.25-3.12,7.16-5.53,11.72-7.25,4.56-1.72,9.55-2.57,14.97-2.57,8.85,0,15.63,1.99,20.33,5.96,4.7,3.98,7.05,9.4,7.05,16.26ZM256.46,101.77c6.41-.81,11.31-3.39,14.7-7.72,3.39-4.34,5.08-9.8,5.08-16.4,0-5.42-.57-9.62-1.69-12.6-1.13-2.98-3.23-4.47-6.3-4.47-1.9,0-3.64.75-5.22,2.24-1.58,1.49-2.94,3.55-4.07,6.17-1.13,2.62-2.01,5.78-2.64,9.49-.63,3.71-.95,7.72-.95,12.06,0,3.89.36,7.64,1.08,11.25Z"/>
      <path class="cls-1" d="M306.33,30.22c0-7.05-1.02-12.42-3.05-16.13-2.03-3.7-4.99-5.56-8.88-5.56-3.16,0-6.37.93-9.62,2.78-3.25,1.85-6.59,4.18-10.03,6.98-3.43,2.8-7,5.85-10.7,9.15-3.7,3.3-7.66,6.35-11.86,9.15-4.2,2.8-8.69,5.13-13.48,6.98-4.79,1.85-9.94,2.78-15.45,2.78-6.5,0-11.9-1.15-16.19-3.46-4.29-2.3-7.59-5.17-9.89-8.6-2.3-3.43-3.61-7.14-3.93-11.11-.32-3.97.25-7.68,1.69-11.11,1.45-3.43,3.75-6.3,6.91-8.6,3.16-2.3,7.05-3.46,11.65-3.46,2.62,0,5.01.41,7.18,1.22,2.17.81,4,1.94,5.49,3.39,1.49,1.45,2.53,3.12,3.12,5.01.59,1.9.66,3.89.2,5.96-1.54,0-2.78.68-3.73,2.03-.95,1.36-1.29,2.87-1.02,4.54.27,1.67,1.29,3.18,3.05,4.54,1.76,1.36,4.63,2.03,8.61,2.03,4.52,0,8.52-.61,11.99-1.83,3.48-1.22,6.73-2.71,9.76-4.47,3.03-1.76,5.92-3.7,8.67-5.83,2.76-2.12,5.65-4.07,8.67-5.83,3.03-1.76,6.33-3.25,9.89-4.47,3.57-1.22,7.61-1.83,12.13-1.83,9.85,0,17.55,3.16,23.1,9.49,5.56,6.32,8.33,15.09,8.33,26.29v73.99c0,3.71.43,6.3,1.29,7.79.86,1.49,2.46,2.46,4.81,2.91,0,.5,0,.99,0,1.49-4.59-1.04-10.57-1.96-17.57-1.94-6.86.02-12.72.94-17.25,1.98,0-.51,0-1.02,0-1.53,2.35-.45,3.95-1.44,4.81-2.98.86-1.53,1.29-4.11,1.29-7.72V30.22Z"/>
      <path class="cls-1" d="M70.67,38.48c-7.54-4.7-18.23-7.05-32.05-7.05H0v1.36c2.35.45,3.95,1.45,4.81,2.98.86,1.54,1.29,4.11,1.29,7.72v70.74c0,3.61-.43,6.19-1.29,7.72-.86,1.54-2.46,2.53-4.81,2.98v1.36h35.91v-1.36c-2.35-.45-3.95-1.42-4.81-2.91-.86-1.49-1.29-4.09-1.29-7.79v-28.59h8.81c6.78,0,12.85-.61,18.23-1.83,5.37-1.22,9.94-2.98,13.69-5.28,3.75-2.3,6.59-5.15,8.54-8.54,1.94-3.39,2.91-7.2,2.91-11.45,0-8.67-3.77-15.36-11.31-20.06ZM51.36,75.95c-3.71,4.2-8.81,6.3-15.31,6.3h-6.23v-47.43h6.23c6.59,0,11.72,2.08,15.38,6.23,3.66,4.16,5.49,9.98,5.49,17.48s-1.85,13.21-5.56,17.41Z"/>
      <path class="cls-1" d="M222.25,79.41c-1.31-4.7-3.19-8.69-5.62-11.99-2.44-3.3-5.42-5.83-8.94-7.59-3.52-1.76-7.5-2.64-11.92-2.64-8.85,0-15.27,3.25-19.24,9.76v-9.76h-1.36c-.81,1-2.28,2.12-4.4,3.39-2.12,1.27-4.52,2.44-7.18,3.52-2.67,1.08-5.4,2.01-8.2,2.78-2.8.77-5.33,1.15-7.59,1.15v1.35c2.35.45,3.95,1.45,4.81,2.98.86,1.54,1.29,4.11,1.29,7.72v68.03c0,3.61-.43,6.19-1.29,7.72-.86,1.53-2.46,2.53-4.81,2.98v1.36h34.83v-1.36c-2.35-.45-3.95-1.42-4.81-2.91-.86-1.49-1.29-4.09-1.29-7.79v-30.35c4.24,6.6,11.29,9.89,21.14,9.89,8.22,0,14.7-2.89,19.44-8.67,4.74-5.78,7.11-13.69,7.11-23.71,0-5.87-.66-11.16-1.96-15.85ZM189.11,121.55c-1.9,0-3.61-.7-5.15-2.1-1.54-1.4-2.87-3.36-4-5.89-1.13-2.53-1.99-5.58-2.57-9.15-.59-3.57-.88-7.52-.88-11.86,0-9.21,1.1-16.4,3.32-21.55,2.21-5.15,5.31-7.72,9.28-7.72,3.16,0,5.74,2.57,7.72,7.72,1.99,5.15,2.98,12.33,2.98,21.55,0,19.33-3.57,29-10.7,29Z"/>
      <g>
        <path class="cls-1" d="M196.61,195.71c0-3.79.81-6.89,2.44-9.28,1.63-2.39,3.73-4.38,6.3-5.96,2.57-1.58,5.4-2.93,8.47-4.06,3.07-1.13,6.05-2.3,8.94-3.52,2.89-1.22,5.51-2.6,7.86-4.13,2.35-1.53,4.07-3.57,5.15-6.1,0-5.51-.72-9.82-2.17-12.94-1.45-3.12-3.66-4.68-6.64-4.68-1.63,0-2.94.63-3.93,1.9-1,1.27-1.65,2.87-1.96,4.81-.32,1.94-.25,4.04.2,6.3.45,2.26,1.26,4.34,2.44,6.23-.63,2.17-2.21,4-4.74,5.49-2.53,1.49-5.15,2.24-7.86,2.24-3.61,0-6.48-1.06-8.61-3.18-2.12-2.12-3.18-4.99-3.18-8.6,0-2.71.79-5.19,2.37-7.45,1.58-2.26,3.7-4.2,6.37-5.83,2.66-1.63,5.74-2.91,9.21-3.86,3.48-.95,7.11-1.42,10.91-1.42,10.3,0,17.91,2.55,22.83,7.66,4.92,5.1,7.39,12.72,7.39,22.83v26.02c0,3.79.45,6.5,1.36,8.13.9,1.63,2.48,2.66,4.74,3.12v1.36h-17.48c-4.61,0-7.86-1.85-9.76-5.56-1.08,2.44-2.85,4.2-5.28,5.29-2.44,1.08-5.69,1.63-9.76,1.63-8.4,0-14.77-1.31-19.11-3.93-4.34-2.62-6.5-6.78-6.5-12.47ZM221,195.71c0,4.07.77,7.25,2.3,9.55,1.54,2.3,3.25,3.45,5.15,3.45s3.7-1.17,5.15-3.52c1.44-2.35,2.17-5.1,2.17-8.27v-29.27c-.72,1.9-1.6,3.46-2.64,4.68-1.04,1.22-2.1,2.35-3.18,3.39-1.08,1.04-2.17,2.06-3.25,3.05-1.08.99-2.06,2.21-2.91,3.66-.86,1.45-1.54,3.23-2.03,5.35-.5,2.12-.75,4.77-.75,7.93Z"/>
        <path class="cls-1" d="M394.45,177.01c0-5.33.81-10.16,2.44-14.5s3.93-8.04,6.91-11.11c2.98-3.07,6.57-5.47,10.77-7.18,4.2-1.72,8.88-2.57,14.03-2.57s9.82.86,14.02,2.57c4.2,1.72,7.79,4.11,10.77,7.18,2.98,3.07,5.28,6.78,6.91,11.11,1.63,4.34,2.44,9.17,2.44,14.5s-.81,10.03-2.44,14.36c-1.63,4.34-3.93,8.04-6.91,11.11-2.98,3.07-6.57,5.44-10.77,7.11-4.2,1.67-8.88,2.51-14.02,2.51s-9.82-.84-14.03-2.51c-4.2-1.67-7.79-4.04-10.77-7.11-2.98-3.07-5.28-6.78-6.91-11.11-1.63-4.34-2.44-9.12-2.44-14.36ZM438.35,177.01c0-10.57-.81-18.54-2.44-23.92-1.63-5.37-4.02-8.06-7.18-8.06-6.6,0-9.89,10.66-9.89,31.98s3.3,31.71,9.89,31.71,9.62-10.57,9.62-31.71Z"/>
        <path class="cls-1" d="M597.17,163.87c0,7.32-3.19,13.19-9.55,17.62-6.37,4.43-15.88,7.14-28.52,8.13,1.53,4.88,3.84,8.6,6.91,11.18,3.07,2.57,6.78,3.86,11.11,3.86,1.9,0,3.86-.36,5.89-1.08,2.03-.72,3.95-1.76,5.76-3.12,1.81-1.35,3.48-2.96,5.01-4.81,1.54-1.85,2.85-3.86,3.93-6.03l2.17,1.63c-3.98,7.23-8.4,12.51-13.28,15.85-4.88,3.34-10.57,5.02-17.07,5.02-5.6,0-10.68-.84-15.24-2.51-4.56-1.67-8.45-4.02-11.65-7.05-3.21-3.03-5.67-6.71-7.39-11.04-1.72-4.34-2.57-9.21-2.57-14.64s.93-9.89,2.78-14.23c1.85-4.34,4.4-8.06,7.66-11.18s7.16-5.53,11.72-7.25c4.56-1.72,9.55-2.57,14.97-2.57,8.85,0,15.63,1.99,20.33,5.96,4.7,3.98,7.05,9.4,7.05,16.26ZM558.14,186.23c6.41-.81,11.31-3.39,14.7-7.72,3.39-4.34,5.08-9.8,5.08-16.4,0-5.42-.57-9.62-1.69-12.6-1.13-2.98-3.23-4.47-6.3-4.47-1.9,0-3.64.75-5.22,2.24-1.58,1.49-2.94,3.55-4.07,6.17-1.13,2.62-2.01,5.78-2.64,9.49-.63,3.71-.95,7.72-.95,12.06,0,3.89.36,7.64,1.08,11.25Z"/>
        <path class="cls-1" d="M442.69,232.77c-.81-3.3-2.33-6.05-4.54-8.27-2.21-2.21-4.99-3.32-8.33-3.32-2.17,0-4.13.41-5.89,1.22-1.76.81-3.23,1.87-4.4,3.19-1.18,1.31-1.94,2.82-2.3,4.54-.36,1.71-.27,3.48.27,5.28,1.44.18,2.62.95,3.52,2.3.9,1.35,1.51,3.03,1.83,5.01.32,1.99.32,4.09,0,6.3-.32,2.21-.97,4.27-1.96,6.17-.99,1.9-2.37,3.48-4.13,4.74-1.76,1.26-3.95,1.9-6.57,1.9-14.28,0-21.41-15.77-21.41-47.29v-44.72c0-8.85-2.21-15.85-6.64-21-4.43-5.15-10.43-7.72-18.02-7.72-2.26,0-4.59.41-6.98,1.22-2.39.81-4.68,1.9-6.84,3.25-2.17,1.36-4.13,2.94-5.89,4.74-1.76,1.81-3.14,3.71-4.13,5.69-1.72-4.88-4.43-8.58-8.13-11.11-3.7-2.53-8.36-3.79-13.96-3.79-4.52,0-8.81,1.13-12.87,3.39-4.07,2.26-7.14,5.15-9.22,8.67v-11.52h-1.35c-.72.9-2.1,1.85-4.13,2.85-2.03,1-4.36,1.88-6.98,2.64-2.62.77-5.38,1.4-8.27,1.9-2.89.5-5.56.75-8,.75v1.35c2.35.45,3.95,1.45,4.81,2.98.86,1.54,1.29,4.11,1.29,7.72v36.86c0,3.61-.43,6.19-1.29,7.72-.86,1.54-2.46,2.53-4.81,2.98v1.36h34.83v-1.36c-2.35-.45-3.95-1.42-4.81-2.91-.86-1.49-1.29-4.09-1.29-7.79v-38.89c1.72-3.79,3.86-6.62,6.44-8.47,2.57-1.85,5.17-2.78,7.79-2.78,6.32,0,9.49,7.09,9.49,21.27v28.86c0,3.61-.43,6.19-1.29,7.72-.86,1.54-2.46,2.53-4.81,2.98v1.36h34.83v-1.36c-2.35-.45-3.95-1.42-4.81-2.91-.86-1.49-1.29-4.09-1.29-7.79v-28.86c0-1.53-.05-3.05-.14-4.54-.09-1.49-.27-2.87-.54-4.13,1.81-3.79,4.02-6.84,6.64-9.15,2.62-2.3,5.24-3.46,7.86-3.46,6.59,0,9.89,7.09,9.89,21.27v31.85c0,21.32,3.68,37.35,11.04,48.1,7.36,10.75,18.36,16.13,33,16.13,6.78,0,12.42-1.11,16.94-3.32,4.52-2.22,8.06-4.97,10.64-8.27,2.57-3.3,4.24-6.89,5.01-10.77.77-3.88.74-7.48-.07-10.77Z"/>
        <path class="cls-1" d="M525.82,145.17c-2.76-2.71-6.53-4.06-11.31-4.06-1.9,0-3.84.32-5.83.95-1.99.63-3.88,1.49-5.69,2.57-1.81,1.08-3.48,2.35-5.01,3.79-1.54,1.45-2.8,3.03-3.79,4.74v-11.52h-1.36c-.72.9-2.1,1.85-4.13,2.85-2.03,1-4.36,1.88-6.98,2.64-2.62.77-5.38,1.4-8.27,1.9-2.89.5-5.56.75-8,.75v1.35c2.35.45,3.95,1.45,4.81,2.98.86,1.54,1.29,4.11,1.29,7.72v36.86c0,3.61-.43,6.19-1.29,7.72-.86,1.54-2.46,2.53-4.81,2.98v1.36h34.83v-1.36c-2.35-.45-3.95-1.42-4.81-2.91-.86-1.49-1.29-4.09-1.29-7.79v-38.89c.81-1.81,1.81-3.5,2.98-5.08,1.17-1.58,2.44-2.98,3.79-4.2,1.35-1.22,2.73-2.19,4.13-2.91,1.4-.72,2.78-1.08,4.13-1.08,1.17,0,2.01.47,2.51,1.42.49.95.61,2.12.34,3.52-.27,1.4-.93,2.89-1.96,4.47-1.04,1.58-2.55,3-4.54,4.27.63,2.17,2.21,4,4.74,5.49,2.53,1.49,5.15,2.24,7.86,2.24,3.25,0,6.03-1.11,8.33-3.32,2.3-2.21,3.46-5.04,3.46-8.47,0-4.61-1.38-8.27-4.13-10.98Z"/>
      </g>
      <g>
        <path class="cls-1" d="M366.01,83.07v-16.52h6.18c1.4,0,2.6.22,3.61.67,1.01.45,1.78,1.09,2.32,1.94.54.84.81,1.86.81,3.06s-.27,2.17-.81,3.01c-.54.84-1.32,1.49-2.32,1.95-1.01.46-2.21.68-3.61.68h-5.22l.78-.83v6.04h-1.75ZM367.76,77.16l-.78-.85h5.17c1.65,0,2.91-.36,3.76-1.07.86-.72,1.29-1.73,1.29-3.03s-.43-2.34-1.29-3.07c-.86-.72-2.11-1.09-3.76-1.09h-5.17l.78-.83v9.94Z"/>
        <path class="cls-1" d="M379.73,83.07l7.55-16.52h1.72l7.55,16.52h-1.84l-6.94-15.51h.71l-6.94,15.51h-1.82ZM382.7,78.65l.52-1.42h9.61l.52,1.42h-10.64Z"/>
        <path class="cls-1" d="M399.76,83.07v-16.52h6.18c1.4,0,2.6.22,3.61.67,1.01.45,1.78,1.09,2.32,1.94.54.84.81,1.86.81,3.06s-.27,2.17-.81,3.01c-.54.84-1.32,1.49-2.32,1.95-1.01.46-2.21.68-3.61.68h-5.22l.78-.83v6.04h-1.75ZM401.51,77.16l-.78-.85h5.17c1.65,0,2.91-.36,3.76-1.07.86-.72,1.29-1.73,1.29-3.03s-.43-2.34-1.29-3.07c-.86-.72-2.11-1.09-3.76-1.09h-5.17l.78-.83v9.94Z"/>
        <path class="cls-1" d="M418.69,81.55h9.94v1.51h-11.68v-16.52h11.33v1.51h-9.58v13.5ZM418.5,73.93h8.73v1.49h-8.73v-1.49Z"/>
        <path class="cls-1" d="M433.21,83.07v-16.52h1.75v15.01h9.25v1.51h-11Z"/>
        <path class="cls-1" d="M444.94,83.07l7.55-16.52h1.72l7.55,16.52h-1.84l-6.94-15.51h.71l-6.94,15.51h-1.82ZM447.91,78.65l.52-1.42h9.61l.52,1.42h-10.64Z"/>
        <path class="cls-1" d="M464.98,83.07v-16.52h6.18c1.4,0,2.6.22,3.61.67,1.01.45,1.78,1.09,2.32,1.94.54.84.81,1.86.81,3.06s-.27,2.17-.81,3.01c-.54.84-1.32,1.49-2.32,1.94-1.01.45-2.21.67-3.61.67h-5.22l.78-.8v6.04h-1.75ZM466.72,77.16l-.78-.83h5.17c1.65,0,2.91-.36,3.76-1.09.86-.72,1.29-1.74,1.29-3.04s-.43-2.34-1.29-3.07c-.86-.72-2.11-1.09-3.76-1.09h-5.17l.78-.83v9.94ZM476.26,83.07l-4.25-6h1.89l4.27,6h-1.91Z"/>
        <path class="cls-1" d="M482.51,83.07v-16.52h1.75v16.52h-1.75Z"/>
        <path class="cls-1" d="M487.47,83.07l7.55-16.52h1.72l7.55,16.52h-1.84l-6.94-15.51h.71l-6.94,15.51h-1.82ZM490.44,78.65l.52-1.42h9.61l.52,1.42h-10.64Z"/>
        <path class="cls-1" d="M515.91,81.55h9.94v1.51h-11.68v-16.52h11.33v1.51h-9.58v13.5ZM515.72,73.93h8.73v1.49h-8.73v-1.49Z"/>
        <path class="cls-1" d="M366.01,113.68v-16.52h6.18c1.4,0,2.6.22,3.61.67,1.01.45,1.78,1.09,2.32,1.94.54.84.81,1.86.81,3.06s-.27,2.17-.81,3.01c-.54.84-1.32,1.49-2.32,1.95-1.01.46-2.21.68-3.61.68h-5.22l.78-.83v6.04h-1.75ZM367.76,107.78l-.78-.85h5.17c1.65,0,2.91-.36,3.76-1.07.86-.72,1.29-1.73,1.29-3.03s-.43-2.34-1.29-3.07c-.86-.72-2.11-1.09-3.76-1.09h-5.17l.78-.83v9.94Z"/>
        <path class="cls-1" d="M383.2,113.68v-16.52h6.18c1.4,0,2.6.22,3.61.67,1.01.45,1.78,1.09,2.32,1.94.54.84.81,1.86.81,3.06s-.27,2.17-.81,3.01c-.54.84-1.32,1.49-2.32,1.94-1.01.45-2.21.67-3.61.67h-5.22l.78-.8v6.04h-1.75ZM384.94,107.78l-.78-.83h5.17c1.65,0,2.91-.36,3.76-1.09.86-.72,1.29-1.74,1.29-3.04s-.43-2.34-1.29-3.07c-.86-.72-2.11-1.09-3.76-1.09h-5.17l.78-.83v9.94ZM394.48,113.68l-4.25-6h1.89l4.27,6h-1.91Z"/>
        <path class="cls-1" d="M402.48,112.17h9.94v1.51h-11.68v-16.52h11.33v1.51h-9.58v13.5ZM402.29,104.55h8.73v1.49h-8.73v-1.49Z"/>
        <path class="cls-1" d="M421.55,113.83c-1.23,0-2.4-.2-3.53-.6-1.13-.4-2-.92-2.61-1.55l.68-1.35c.58.57,1.36,1.04,2.35,1.43s2.02.58,3.1.58,1.88-.13,2.54-.39c.65-.26,1.13-.61,1.44-1.05.31-.44.46-.93.46-1.46,0-.64-.19-1.16-.55-1.56-.37-.39-.85-.7-1.45-.93-.6-.23-1.26-.43-1.98-.6-.72-.17-1.45-.36-2.17-.55-.72-.2-1.39-.46-2-.79s-1.09-.77-1.46-1.31c-.37-.54-.55-1.25-.55-2.14,0-.82.22-1.57.65-2.25.43-.68,1.1-1.23,1.99-1.65.9-.42,2.05-.63,3.45-.63.93,0,1.85.13,2.76.39.91.26,1.7.62,2.36,1.07l-.59,1.39c-.71-.47-1.46-.82-2.25-1.04-.79-.22-1.56-.33-2.3-.33-.99,0-1.81.13-2.45.4-.65.27-1.12.63-1.43,1.07-.31.45-.46.96-.46,1.52,0,.65.19,1.16.56,1.56.37.39.86.7,1.46.92s1.27.42,2,.59c.72.17,1.44.36,2.16.57.72.2,1.38.47,1.98.79s1.09.75,1.46,1.29c.37.54.55,1.24.55,2.1,0,.8-.22,1.55-.66,2.23-.44.68-1.11,1.24-2.02,1.65-.91.42-2.07.63-3.48.63Z"/>
        <path class="cls-1" d="M433.73,112.17h9.94v1.51h-11.68v-16.52h11.33v1.51h-9.58v13.5ZM433.54,104.55h8.73v1.49h-8.73v-1.49Z"/>
        <path class="cls-1" d="M448.24,113.68v-16.52h1.44l11.4,14.35h-.76v-14.35h1.72v16.52h-1.44l-11.38-14.35h.75v14.35h-1.75Z"/>
        <path class="cls-1" d="M471.11,113.68v-15.01h-5.81v-1.51h13.36v1.51h-5.81v15.01h-1.75Z"/>
        <path class="cls-1" d="M483.67,112.17h9.94v1.51h-11.68v-16.52h11.33v1.51h-9.58v13.5ZM483.48,104.55h8.73v1.49h-8.73v-1.49Z"/>
        <path class="cls-1" d="M502.74,113.83c-1.23,0-2.4-.2-3.53-.6-1.13-.4-2-.92-2.61-1.55l.68-1.35c.58.57,1.36,1.04,2.35,1.43s2.02.58,3.1.58,1.88-.13,2.54-.39,1.13-.61,1.44-1.05c.31-.44.46-.93.46-1.46,0-.64-.19-1.16-.55-1.56-.37-.39-.85-.7-1.45-.93-.6-.23-1.26-.43-1.98-.6-.72-.17-1.45-.36-2.17-.55-.72-.2-1.39-.46-2-.79s-1.09-.77-1.46-1.31c-.37-.54-.55-1.25-.55-2.14,0-.82.22-1.57.65-2.25.43-.68,1.1-1.23,1.99-1.65.9-.42,2.05-.63,3.45-.63.93,0,1.85.13,2.76.39.91.26,1.7.62,2.36,1.07l-.59,1.39c-.71-.47-1.46-.82-2.25-1.04-.79-.22-1.56-.33-2.3-.33-.99,0-1.81.13-2.45.4-.65.27-1.12.63-1.43,1.07-.31.45-.46.96-.46,1.52,0,.65.19,1.16.56,1.56.37.39.86.7,1.46.92.61.22,1.27.42,2,.59.72.17,1.44.36,2.16.57.72.2,1.38.47,1.98.79s1.09.75,1.46,1.29c.37.54.55,1.24.55,2.1,0,.8-.22,1.55-.66,2.23-.44.68-1.11,1.24-2.02,1.65-.91.42-2.07.63-3.48.63Z"/>
      </g>
    </g>
  </g>
</svg>