<?xml version="1.0" encoding="UTF-8"?>
<svg id="Camada_2" data-name="Camada 2" xmlns="http://www.w3.org/2000/svg" viewBox="0 0 807.93 351.34">
  <defs>
    <style>
      .cls-1 {
        fill: #fff9df;
      }
    </style>
  </defs>
  <g id="Camada_1-2" data-name="Camada 1">
    <g>
      <g>
        <path class="cls-1" d="M129.25,344.26h-10.9l-2.47,6.74h-2.13l9.08-24h1.93l9.08,24h-2.11l-2.49-6.74ZM118.99,342.55h9.63l-4.81-13.07-4.81,13.07Z"/>
        <path class="cls-1" d="M157.04,345.1c0-1.33-.47-2.38-1.4-3.16-.93-.77-2.64-1.51-5.13-2.21-2.48-.7-4.3-1.46-5.44-2.28-1.63-1.16-2.44-2.69-2.44-4.58s.76-3.33,2.27-4.48c1.51-1.15,3.44-1.72,5.79-1.72,1.59,0,3.02.31,4.28.92,1.26.62,2.23,1.47,2.93,2.57.69,1.1,1.04,2.32,1.04,3.68h-2.04c0-1.64-.56-2.96-1.68-3.96-1.12-1-2.63-1.5-4.52-1.5s-3.3.41-4.38,1.23c-1.09.82-1.63,1.89-1.63,3.21,0,1.22.49,2.22,1.47,2.99.98.77,2.54,1.45,4.7,2.04,2.15.59,3.79,1.2,4.9,1.83,1.11.63,1.95,1.39,2.51,2.27s.84,1.92.84,3.12c0,1.89-.76,3.41-2.27,4.55-1.51,1.14-3.5,1.71-5.98,1.71-1.69,0-3.24-.3-4.66-.91-1.41-.6-2.48-1.45-3.21-2.54-.73-1.09-1.1-2.33-1.1-3.74h2.03c0,1.69.63,3.03,1.9,4.01s2.95,1.47,5.04,1.47c1.87,0,3.37-.41,4.5-1.24s1.7-1.92,1.7-3.28Z"/>
        <path class="cls-1" d="M183.11,345.1c0-1.33-.47-2.38-1.4-3.16-.93-.77-2.64-1.51-5.13-2.21-2.48-.7-4.3-1.46-5.44-2.28-1.63-1.16-2.44-2.69-2.44-4.58s.76-3.33,2.27-4.48c1.51-1.15,3.44-1.72,5.79-1.72,1.59,0,3.02.31,4.28.92,1.26.62,2.23,1.47,2.93,2.57.69,1.1,1.04,2.32,1.04,3.68h-2.04c0-1.64-.56-2.96-1.68-3.96-1.12-1-2.63-1.5-4.52-1.5s-3.3.41-4.38,1.23c-1.09.82-1.63,1.89-1.63,3.21,0,1.22.49,2.22,1.47,2.99.98.77,2.54,1.45,4.7,2.04,2.15.59,3.79,1.2,4.9,1.83,1.11.63,1.95,1.39,2.51,2.27.56.88.84,1.92.84,3.12,0,1.89-.76,3.41-2.27,4.55-1.51,1.14-3.5,1.71-5.98,1.71-1.69,0-3.24-.3-4.66-.91-1.41-.6-2.48-1.45-3.21-2.54-.73-1.09-1.1-2.33-1.1-3.74h2.03c0,1.69.63,3.03,1.9,4.01s2.95,1.47,5.04,1.47c1.87,0,3.37-.41,4.5-1.24s1.7-1.92,1.7-3.28Z"/>
        <path class="cls-1" d="M208.85,339.5h-11.23v9.79h12.91v1.71h-14.93v-24h14.85v1.71h-12.82v9.07h11.23v1.71Z"/>
        <path class="cls-1" d="M234.46,345.1c0-1.33-.47-2.38-1.4-3.16-.93-.77-2.64-1.51-5.13-2.21-2.48-.7-4.3-1.46-5.44-2.28-1.63-1.16-2.44-2.69-2.44-4.58s.76-3.33,2.27-4.48c1.51-1.15,3.44-1.72,5.79-1.72,1.59,0,3.02.31,4.28.92,1.26.62,2.23,1.47,2.93,2.57.69,1.1,1.04,2.32,1.04,3.68h-2.04c0-1.64-.56-2.96-1.68-3.96-1.12-1-2.63-1.5-4.52-1.5s-3.3.41-4.38,1.23c-1.09.82-1.63,1.89-1.63,3.21,0,1.22.49,2.22,1.47,2.99.98.77,2.54,1.45,4.7,2.04,2.15.59,3.79,1.2,4.9,1.83,1.11.63,1.95,1.39,2.51,2.27s.84,1.92.84,3.12c0,1.89-.76,3.41-2.27,4.55-1.51,1.14-3.5,1.71-5.98,1.71-1.69,0-3.24-.3-4.66-.91-1.41-.6-2.48-1.45-3.21-2.54-.73-1.09-1.1-2.33-1.1-3.74h2.03c0,1.69.63,3.03,1.9,4.01s2.95,1.47,5.04,1.47c1.87,0,3.37-.41,4.5-1.24,1.13-.82,1.7-1.92,1.7-3.28Z"/>
        <path class="cls-1" d="M260.53,345.1c0-1.33-.47-2.38-1.4-3.16-.93-.77-2.64-1.51-5.13-2.21-2.48-.7-4.3-1.46-5.44-2.28-1.63-1.16-2.44-2.69-2.44-4.58s.76-3.33,2.27-4.48c1.51-1.15,3.44-1.72,5.79-1.72,1.59,0,3.02.31,4.28.92,1.26.62,2.23,1.47,2.93,2.57.69,1.1,1.04,2.32,1.04,3.68h-2.04c0-1.64-.56-2.96-1.68-3.96-1.12-1-2.63-1.5-4.52-1.5s-3.3.41-4.38,1.23c-1.09.82-1.63,1.89-1.63,3.21,0,1.22.49,2.22,1.47,2.99.98.77,2.54,1.45,4.7,2.04,2.15.59,3.79,1.2,4.9,1.83,1.11.63,1.95,1.39,2.51,2.27s.84,1.92.84,3.12c0,1.89-.76,3.41-2.27,4.55-1.51,1.14-3.5,1.71-5.98,1.71-1.69,0-3.24-.3-4.66-.91-1.41-.6-2.48-1.45-3.21-2.54-.73-1.09-1.1-2.33-1.1-3.74h2.03c0,1.69.63,3.03,1.9,4.01s2.95,1.47,5.04,1.47c1.87,0,3.37-.41,4.5-1.24s1.7-1.92,1.7-3.28Z"/>
        <path class="cls-1" d="M290.75,340.31c0,2.21-.38,4.15-1.15,5.82-.76,1.67-1.85,2.96-3.27,3.86-1.42.9-3.05,1.35-4.91,1.35-2.8,0-5.07-1-6.79-3.01-1.73-2-2.59-4.71-2.59-8.12v-2.47c0-2.19.39-4.12,1.16-5.81.78-1.69,1.87-2.98,3.29-3.89,1.42-.91,3.05-1.36,4.9-1.36s3.47.44,4.89,1.33c1.41.89,2.5,2.15,3.27,3.77.77,1.63,1.17,3.51,1.2,5.65v2.87ZM288.72,337.7c0-2.89-.65-5.15-1.96-6.79-1.31-1.64-3.1-2.46-5.37-2.46s-4.01.82-5.33,2.46c-1.32,1.64-1.99,3.94-1.99,6.88v2.51c0,2.85.66,5.1,1.98,6.77s3.11,2.5,5.37,2.5,4.09-.82,5.37-2.46c1.29-1.64,1.93-3.93,1.93-6.87v-2.54Z"/>
        <path class="cls-1" d="M310.9,341h-6.97v10.01h-2.04v-24h7.8c2.56,0,4.56.62,6,1.86,1.44,1.24,2.16,2.97,2.16,5.2,0,1.54-.45,2.89-1.35,4.07-.9,1.17-2.11,1.99-3.63,2.44l6,10.22v.21h-2.16l-5.8-10.01ZM303.93,339.29h6.21c1.7,0,3.07-.48,4.1-1.45,1.03-.97,1.55-2.22,1.55-3.76,0-1.69-.54-3.01-1.62-3.95s-2.59-1.4-4.53-1.4h-5.72v10.57Z"/>
        <path class="cls-1" d="M331.91,351.01h-2.03v-24h2.03v24Z"/>
        <path class="cls-1" d="M357.75,344.26h-10.9l-2.47,6.74h-2.13l9.08-24h1.93l9.08,24h-2.11l-2.49-6.74ZM347.48,342.55h9.63l-4.81-13.07-4.81,13.07Z"/>
        <path class="cls-1" d="M386.24,351.01v-24h6.71c1.97,0,3.73.45,5.29,1.34,1.56.9,2.78,2.18,3.65,3.85.87,1.67,1.31,3.57,1.31,5.7v2.21c0,2.14-.43,4.04-1.3,5.7-.87,1.66-2.09,2.94-3.67,3.84-1.58.9-3.39,1.35-5.43,1.35h-6.56ZM388.27,328.72v20.57h4.55c2.53,0,4.56-.84,6.08-2.52,1.53-1.68,2.29-3.95,2.29-6.8v-2.11c0-2.76-.75-4.97-2.26-6.63-1.51-1.66-3.49-2.5-5.95-2.51h-4.71Z"/>
        <path class="cls-1" d="M427.67,339.5h-11.23v9.79h12.91v1.71h-14.93v-24h14.85v1.71h-12.82v9.07h11.23v1.71Z"/>
        <path class="cls-1" d="M456.67,327.01l8.85,21.18,8.88-21.18h2.7v24h-2.03v-10.45l.16-10.71-8.93,21.16h-1.57l-8.9-21.08.16,10.57v10.52h-2.03v-24h2.69Z"/>
        <path class="cls-1" d="M502.52,344.26h-10.9l-2.47,6.74h-2.13l9.08-24h1.93l9.08,24h-2.11l-2.49-6.74ZM492.25,342.55h9.63l-4.81-13.07-4.81,13.07Z"/>
        <path class="cls-1" d="M525.69,341h-6.97v10.01h-2.04v-24h7.8c2.56,0,4.56.62,6,1.86,1.44,1.24,2.16,2.97,2.16,5.2,0,1.54-.45,2.89-1.35,4.07-.9,1.17-2.11,1.99-3.63,2.44l6,10.22v.21h-2.16l-5.8-10.01ZM518.72,339.29h6.21c1.7,0,3.07-.48,4.1-1.45,1.03-.97,1.55-2.22,1.55-3.76,0-1.69-.54-3.01-1.62-3.95s-2.59-1.4-4.53-1.4h-5.72v10.57Z"/>
        <path class="cls-1" d="M549.63,339.09l-3.38,3.33v8.59h-2.03v-24h2.03v12.94l12.3-12.94h2.55l-10.05,10.68,10.83,13.32h-2.47l-9.77-11.92Z"/>
        <path class="cls-1" d="M584.85,339.5h-11.23v9.79h12.91v1.71h-14.93v-24h14.85v1.71h-12.82v9.07h11.23v1.71Z"/>
        <path class="cls-1" d="M613.49,328.72h-8.23v22.29h-2.03v-22.29h-8.21v-1.71h18.46v1.71Z"/>
        <path class="cls-1" d="M625.92,351.01h-2.03v-24h2.03v24Z"/>
        <path class="cls-1" d="M656.37,351.01h-2.03l-13.8-20.54v20.54h-2.04v-24h2.04l13.81,20.55v-20.55h2.01v24Z"/>
        <path class="cls-1" d="M685.87,348.15c-.7,1-1.8,1.78-3.3,2.34s-3.18.84-5.04.84-3.55-.45-5.01-1.35c-1.46-.9-2.59-2.18-3.4-3.82-.8-1.65-1.21-3.54-1.22-5.67v-3.03c0-3.33.84-5.96,2.52-7.89,1.68-1.93,3.94-2.89,6.77-2.89,2.47,0,4.46.63,5.97,1.89s2.4,2.99,2.69,5.2h-2.03c-.3-1.76-1.01-3.1-2.15-4.01s-2.62-1.36-4.46-1.36c-2.24,0-4.02.8-5.32,2.39-1.31,1.6-1.96,3.84-1.96,6.75v2.84c0,1.83.31,3.44.93,4.84.62,1.4,1.51,2.49,2.67,3.26,1.16.77,2.49,1.15,4,1.15,1.75,0,3.25-.27,4.5-.82.81-.36,1.42-.79,1.81-1.27v-6.2h-6.44v-1.71h8.47v8.54Z"/>
      </g>
      <g>
        <polygon class="cls-1" points="160.63 184.7 160.63 289.53 152.64 289.53 152.64 196.38 115.28 285.12 111.73 285.12 74.07 195.64 74.07 289.53 70.07 289.53 70.07 184.7 78.19 184.7 115.86 273.66 153.24 184.7 160.63 184.7"/>
        <rect class="cls-1" x="175.02" y="184.55" width="7.98" height="104.99"/>
        <polygon class="cls-1" points="205.22 285.53 205.22 184.7 197.39 184.7 197.39 289.54 257.33 289.54 257.33 285.53 205.22 285.53"/>
        <polygon class="cls-1" points="273.76 285.53 273.76 184.7 265.92 184.7 265.92 289.54 325.87 289.54 325.87 285.53 273.76 285.53"/>
        <path class="cls-1" d="M506.9,242.64c-1.61-3.61-3.67-6.7-6.15-9.18-2.47-2.47-5.21-4.39-8.14-5.71-1.72-.77-3.39-1.35-5.02-1.74,1.29-.56,2.55-1.19,3.77-1.88,2.23-1.27,4.21-2.81,5.88-4.58,1.68-1.78,3.03-3.85,4-6.16.98-2.31,1.47-4.88,1.47-7.64,0-3.79-.92-7.08-2.73-9.78-1.78-2.65-4.14-4.85-6.99-6.53-2.82-1.66-6.08-2.89-9.69-3.64-3.58-.75-7.3-1.12-11.08-1.12h-35.79v104.84h34.46c4.98,0,9.83-.76,14.41-2.25,4.59-1.5,8.7-3.71,12.21-6.56,3.52-2.86,6.39-6.48,8.55-10.74,2.16-4.28,3.26-9.19,3.26-14.61,0-4.81-.82-9.09-2.43-12.73ZM471.48,285.53h-26.92v-57.38h29.42c4.27,0,8.11.74,11.41,2.2,3.3,1.47,6.12,3.49,8.38,6.03,2.27,2.55,4.04,5.55,5.27,8.91,1.23,3.37,1.86,7.01,1.86,10.81,0,4.37-.79,8.41-2.35,12.01-1.56,3.6-3.7,6.72-6.35,9.28-2.65,2.56-5.8,4.57-9.35,5.99-3.56,1.42-7.38,2.14-11.37,2.14ZM473.69,224.15h-29.13v-35.44h27.66c6.54,0,11.87,1.45,15.81,4.32,3.91,2.84,5.81,6.86,5.81,12.3s-1.86,10.19-5.53,13.62c-3.69,3.45-8.61,5.2-14.62,5.2Z"/>
        <path class="cls-1" d="M603.63,289.54c-1.43-.17-3.56-.57-5.94-1.62-1.77-.79-2.98-1.63-4.82-2.93-1.41-.99-3.3-2.43-5.42-4.36-10.17-9.64-20.34-19.28-30.51-28.92h2.86c4.45,0,8.56-1.03,12.21-3.06,3.62-2.01,6.76-4.72,9.33-8.04,2.56-3.31,4.54-7.17,5.89-11.47,1.35-4.29,2.03-8.79,2.03-13.37,0-5.4-.89-10.13-2.65-14.06-1.77-3.93-4.15-7.18-7.08-9.67-2.92-2.47-6.3-4.33-10.02-5.54-3.7-1.2-7.56-1.81-11.46-1.81h-36.52v104.84h8.13v-37.83h16.68l32.32,30.35c.71.71,1.62,1.46,2.69,2.23,1.05.75,2.19,1.48,3.38,2.18,1.21.71,2.46,1.34,3.7,1.89,1.28.56,2.46.96,3.5,1.16l.09.02c1.52.18,3.19.3,4.98.33,2.45.04,4.68-.1,6.65-.33ZM559.65,247.7h-30.01v-59h28.54c6.57,0,11.97,2.3,16.04,6.84,4.1,4.57,6.17,11.43,6.17,20.38,0,4.41-.51,8.62-1.52,12.51-1,3.86-2.45,7.26-4.3,10.11-1.84,2.83-4.05,5.09-6.58,6.73-2.49,1.61-5.3,2.43-8.34,2.43Z"/>
        <rect class="cls-1" x="610.01" y="184.55" width="7.98" height="104.99"/>
        <polygon class="cls-1" points="626.17 184.7 626.17 188.7 662.68 188.7 662.68 289.54 670.51 289.54 670.51 188.7 707.02 188.7 707.02 184.7 626.17 184.7"/>
        <path class="cls-1" d="M804.19,216.56c-2.49-6.61-6.12-12.41-10.79-17.24-4.68-4.82-10.38-8.66-16.93-11.39-6.56-2.73-14.05-4.12-22.28-4.12s-15.57,1.38-22.13,4.12c-6.57,2.74-12.22,6.55-16.79,11.32-4.58,4.78-8.16,10.53-10.64,17.08-2.48,6.55-3.74,13.74-3.74,21.37s1.28,15.03,3.82,21.38c2.54,6.37,6.2,11.93,10.88,16.5,4.68,4.58,10.38,8.17,16.94,10.65,6.55,2.48,13.98,3.74,22.1,3.74s15.41-1.26,21.96-3.74c6.56-2.48,12.24-6.04,16.87-10.58,4.63-4.53,8.24-10.06,10.73-16.43,2.48-6.36,3.74-13.5,3.74-21.23s-1.26-14.84-3.74-21.44ZM754.63,285.82c-6.82,0-13.09-1.17-18.65-3.46-5.55-2.29-10.32-5.56-14.19-9.72-3.87-4.16-6.91-9.26-9.01-15.15-2.11-5.91-3.19-12.57-3.19-19.79s1.05-13.82,3.12-19.88c2.06-6.04,5.05-11.34,8.88-15.75,3.82-4.39,8.55-7.88,14.04-10.37,5.5-2.49,11.74-3.75,18.55-3.75s13.22,1.26,18.77,3.75c5.55,2.49,10.32,6,14.19,10.44,3.88,4.45,6.89,9.77,8.95,15.82,2.07,6.06,3.12,12.75,3.12,19.88s-1.05,13.86-3.11,19.72c-2.06,5.84-5.07,10.91-8.94,15.07-3.87,4.15-8.59,7.43-14.04,9.72-5.46,2.3-11.68,3.46-18.49,3.46Z"/>
        <polygon class="cls-1" points="59.94 188.7 59.94 184.7 0 184.7 0 289.53 59.94 289.53 59.94 285.53 7.83 285.53 7.83 246.64 48.02 246.64 48.02 242.63 7.83 242.63 7.83 188.7 59.94 188.7"/>
        <polygon class="cls-1" points="385.83 184.25 381.3 184.25 350.99 237.49 320.67 184.25 312.54 184.25 345.13 241.55 345.13 289.53 353.25 289.53 353.25 241.56 385.83 184.25"/>
      </g>
      <path class="cls-1" d="M477.55,29.21V12.66c0-6.11-4.11-11.29-9.57-12.04-3.02-.41-6.03-.62-8.94-.62-11.87,0-23.02,3.19-33.14,9.47-.42.26-.85.53-1.29.83-7.74,5.08-14.4,12.9-18.74,22.02l-2.1,4.42-2.11-4.41c-4.36-9.12-11.01-16.94-18.74-22.01l-.62-.41c-.23-.15-.46-.3-.71-.45-10.1-6.27-21.24-9.46-33.11-9.46-2.91,0-5.92.21-8.94.62-5.46.75-9.57,5.93-9.57,12.04v16.55h-23.41v40.25c0,34,24.55,61.66,54.72,61.66h25.23V62.79c0-18.51-13.4-33.58-29.88-33.58h-18.82V12.66c0-1.83,1.18-3.39,2.72-3.63,2.61-.36,5.29-.55,7.95-.55,10.49,0,20.31,2.79,29.18,8.31.24.14,1.2.76,1.2.76,12.95,8.5,20.99,24.55,20.99,41.87v93.65h7.83V59.43c0-17.33,8.05-33.37,21.01-41.87.37-.24.75-.48,1.17-.75,8.88-5.52,18.7-8.32,29.2-8.32,2.67,0,5.36.18,7.98.55,1.54.23,2.7,1.79,2.7,3.62v16.55h-18.39c-16.48,0-29.88,15.06-29.88,33.58v68.33h25.24c17.28,0,33.19-8.95,43.67-24.55,2.23-3.33,4.16-6.9,5.72-10.59,3.53-8.33,5.32-17.26,5.32-26.52V29.21h-23.85ZM356.61,37.7c12.16,0,22.05,11.25,22.05,25.09v59.84h-17.4c-9.93,0-19.43-3.49-27.46-10.11-2.34-1.91-4.57-4.13-6.64-6.61-.4-.48-.92-1.13-1.37-1.74-.17-.21-.33-.42-.54-.71-.23-.31-.45-.62-.65-.91-.22-.29-.42-.59-.59-.85-.99-1.45-1.94-3.04-2.79-4.62-.2-.33-.37-.67-.48-.91-.79-1.51-1.5-3.06-2.12-4.61-2.82-6.94-4.24-14.38-4.24-22.09v-31.76h15.58v55.58l.14.22c.64,1.05,1.33,2.06,2.03,3.02,1.02,1.4,2.17,2.77,3.39,4.06l.29.31h1.98v-63.19h18.82ZM493.56,69.46c0,5.96-.87,11.82-2.59,17.43-.52,1.73-1.16,3.48-1.88,5.21l-.26.61c-.11.28-.23.55-.39.88-.1.25-.21.49-.33.72-.18.41-.37.8-.61,1.28-.65,1.3-1.35,2.57-2.09,3.79-.3.52-.62,1.03-.98,1.58-.07.13-.15.25-.25.38l-.9,1.32-.45.62c-.36.49-.71.96-1.07,1.41-.21.28-.43.55-.66.82l-.32.4c-.54.65-1.1,1.29-1.64,1.87-.51.57-1.04,1.12-1.57,1.64l-.64.63c-.44.42-.9.84-1.38,1.26-.45.4-.9.79-1.34,1.15-.29.24-.6.49-.87.7-1.23.97-2.52,1.88-3.84,2.72-6.93,4.41-14.82,6.74-22.82,6.74h-17.4v-59.84c0-13.83,9.88-25.09,22.03-25.09h18.39v63.19h2.43l.29-.31c.68-.71,1.31-1.43,1.89-2.12,1.09-1.3,2.12-2.72,3.08-4.22l.15-.23v-56.31h16.01v31.76Z"/>
    </g>
  </g>
</svg>