<?xml version="1.0" encoding="UTF-8"?>
<svg id="Camada_2" data-name="Camada 2" xmlns="http://www.w3.org/2000/svg" viewBox="0 0 820.94 156.25">
  <defs>
    <style>
      .cls-1 {
        fill: #ea6088;
      }
    </style>
  </defs>
  <g id="Camada_1-2" data-name="Camada 1">
    <g>
      <path class="cls-1" d="M624.09,0c-3.37,0-6.19,1.17-8.48,3.51-2.28,2.34-3.42,5.08-3.42,8.23,0,3.37,1.14,6.19,3.42,8.48,2.28,2.28,5.05,3.42,8.31,3.42s6.06-1.14,8.4-3.42c2.34-2.28,3.5-5.05,3.5-8.31s-1.17-6.06-3.5-8.4c-2.34-2.34-5.08-3.51-8.23-3.51Z"/>
      <path class="cls-1" d="M67.39,79.33c-.67-1.02-1.54-2.12-2.94-3.45-5.67-5.4-13.8-8.63-18.2-10.13-1.1-.34-2.77-.8-4.84-1.12-.01,0-.03,0-.06-.01-1.29-.09-2.64-.14-4.05-.14-5.84,0-10.79.92-14.5,1.93.1-.29.22-.65.34-1.08.03-.14.08-.29.11-.44.02-.06.03-.11.04-.17.08-.31.15-.65.22-1,.1-.47.19-.98.24-1.52.03-.24.06-.48.08-.74.01-.03.01-.06.01-.09.01-.13.02-.28.03-.41.12-1.79.01-3.87-.55-6.12-.24-.97-.54-1.87-.88-2.7-1.23-3.05-2.95-5.12-3.95-6.2,1.52.69,5.04,2.08,9.57,1.51,6.18-.79,9.91-4.7,10.9-5.8.13,1.23.52,3.93,1.89,6.9.94,2.06,2.36,4.26,4.47,6.2,1.99,1.83,4.06,2.93,5.68,3.6l1.79.32c5.55.11,11.11.21,16.65.32-.96-3.16-4.09-13.27-6.67-16.37-.12-.15-.24-.3-.24-.3-.74-.86-2.55-2.86-5.35-4.84-5.98-4.24-13.25-6.35-21.84-6.35-6.31,0-11.9,1.06-16.8,3.17-4.89,2.12-8.72,5.05-11.49,8.81-2.76,3.75-4.15,8.12-4.15,13.12,0,5.77,1.98,10.68,5.94,14.76,3.97,4.07,9.75,6.98,17.36,8.72l15.49,3.42c3.48.76,6.07,1.87,7.75,3.35,1.68,1.46,2.53,3.39,2.53,5.78,0,2.83-1.45,5.14-4.33,6.93-2.88,1.79-6.38,2.69-10.51,2.69s-7.97-1-11.17-3.02c-3.2-2-5.29-4.76-6.27-8.23l-1.79-.32c-5.97.09-11.93.18-17.91.26.42,3.02,1.62,8.67,5.72,14.21.58.79,3.09,4.16,7.62,7.2,6.31,4.24,13.91,6.36,22.83,6.36,6.63,0,12.53-1.11,17.69-3.35,5.16-2.22,9.24-5.37,12.23-9.46,2.98-4.07,4.48-8.88,4.48-14.42,0-4.62-1.06-8.55-3.18-11.8Z"/>
      <path class="cls-1" d="M172.41,31.14c-9.35,0-17.15,2.28-23.39,6.85-6.25,4.56-10.35,10.54-12.31,17.93l15.98,3.91h1.79c.87-3.48,2.85-6.38,5.95-8.72,3.1-2.34,7.04-3.5,11.82-3.5,5.65,0,10.21,1.71,13.69,5.13,3.09,3.05,4.8,6.81,5.14,11.27l-24.71,2.02c-10,.76-17.66,3.45-22.99,8.07-5.33,4.62-7.99,10.79-7.99,18.5,0,5,1.25,9.46,3.75,13.37,2.5,3.91,5.95,6.96,10.35,9.13,4.4,2.17,9.43,3.26,15.08,3.26s11-1.14,15.73-3.42c4.73-2.28,8.78-5.35,12.15-9.21.11-.13.22-.26.33-.39v10.58h16.63v-46.46c0-12.17-3.26-21.6-9.78-28.28-6.52-6.68-15.6-10.02-27.22-10.02ZM188.06,90.15c-2.07,3.37-4.81,6.11-8.23,8.23-3.42,2.12-7.25,3.18-11.49,3.18s-7.34-.92-9.94-2.77c-2.61-1.85-3.91-4.24-3.91-7.17s1.14-5.27,3.42-7.01c2.28-1.74,6.03-2.82,11.25-3.26l22-1.84c-.05,3.81-1.07,7.36-3.09,10.65Z"/>
      <path class="cls-1" d="M250.17,41.57c-2.59,1.8-4.81,3.92-6.68,6.36v-11.91h-17.61v82.33h18.75v-42.22c0-4.78.87-8.91,2.61-12.39,1.74-3.48,4.18-6.17,7.34-8.07,3.15-1.9,6.85-2.85,11.09-2.85h10.76v-16.79h-7.99c-6.85,0-12.93,1.85-18.26,5.54Z"/>
      <path class="cls-1" d="M366.73,85.26c-1.09,3.37-2.72,6.25-4.89,8.64-2.18,2.39-4.7,4.24-7.58,5.54-2.88,1.3-6.06,1.96-9.54,1.96-4.89,0-9.13-1.11-12.72-3.34-3.59-2.23-6.36-5.35-8.31-9.37-1.96-4.02-2.93-8.69-2.93-14.02s.98-10.13,2.93-14.1c1.96-3.97,4.73-7.04,8.31-9.21,3.59-2.17,7.82-3.26,12.72-3.26s9.13,1.44,13.04,4.32c3.91,2.88,6.63,6.76,8.15,11.66h1.96l15.65-4.4c-1.85-6.19-4.56-11.41-8.15-15.65-3.59-4.24-7.96-7.44-13.12-9.62-5.16-2.17-11-3.26-17.52-3.26-8.48,0-15.92,1.82-22.33,5.46-6.41,3.64-11.41,8.75-15,15.32-3.59,6.58-5.38,14.16-5.38,22.74s1.79,16.3,5.38,22.82,8.58,11.63,15,15.32c6.41,3.69,13.86,5.54,22.33,5.54,6.74,0,12.69-1.06,17.85-3.18,5.16-2.12,9.59-5.32,13.29-9.62,3.69-4.29,6.52-9.59,8.48-15.89l-15.65-4.4h-1.96Z"/>
      <path class="cls-1" d="M427.45,31.14c-9.35,0-17.15,2.28-23.39,6.85-6.25,4.56-10.35,10.54-12.31,17.93l15.98,3.91h1.79c.87-3.48,2.85-6.38,5.95-8.72,3.1-2.34,7.04-3.5,11.82-3.5,5.65,0,10.21,1.71,13.69,5.13,3.09,3.05,4.8,6.81,5.14,11.27l-24.71,2.02c-10,.76-17.66,3.45-22.99,8.07-5.33,4.62-7.99,10.79-7.99,18.5,0,5,1.25,9.46,3.75,13.37,2.5,3.91,5.95,6.96,10.35,9.13,4.4,2.17,9.43,3.26,15.08,3.26s11-1.14,15.73-3.42c4.73-2.28,8.78-5.35,12.15-9.21.11-.13.22-.26.33-.39v10.58h16.63v-46.46c0-12.17-3.26-21.6-9.78-28.28-6.52-6.68-15.6-10.02-27.22-10.02ZM443.1,90.15c-2.07,3.37-4.81,6.11-8.23,8.23-3.42,2.12-7.25,3.18-11.49,3.18s-7.34-.92-9.94-2.77c-2.61-1.85-3.91-4.24-3.91-7.17s1.14-5.27,3.42-7.01c2.28-1.74,6.03-2.82,11.25-3.26l22-1.84c-.05,3.81-1.07,7.36-3.09,10.65Z"/>
      <path class="cls-1" d="M517.23,67.49l-15.49-3.59c-3.26-.65-5.65-1.71-7.17-3.18-1.52-1.47-2.28-3.12-2.28-4.97,0-2.5,1.28-4.48,3.83-5.95,2.55-1.47,5.68-2.2,9.37-2.2,3.91,0,7.42.98,10.51,2.93,3.1,1.96,5.08,4.56,5.95,7.82l1.79.33c5.55-.16,11.11-.31,16.66-.47-.43-3.28-1.75-9.69-6.67-15.59-.53-.64-2.45-2.91-5.59-5.13-5.98-4.24-13.26-6.36-21.84-6.36-6.3,0-11.9,1.06-16.79,3.18-4.89,2.12-8.72,5.05-11.49,8.8-2.77,3.75-4.16,8.13-4.16,13.12,0,5.76,1.98,10.68,5.95,14.75,3.97,4.08,9.75,6.98,17.36,8.72l15.49,3.42c3.48.76,6.06,1.87,7.74,3.34,1.68,1.47,2.53,3.4,2.53,5.79,0,2.83-1.44,5.13-4.32,6.93-2.88,1.79-6.39,2.69-10.51,2.69s-7.96-1-11.17-3.02c-3.21-2.01-5.3-4.75-6.28-8.23l-1.79-.33c-5.97.07-11.94.13-17.9.2.4,3.02,1.59,8.71,5.72,14.29.58.78,3.08,4.15,7.62,7.2,6.3,4.24,13.91,6.36,22.82,6.36,6.63,0,12.53-1.12,17.69-3.34,5.16-2.23,9.24-5.38,12.23-9.46,2.99-4.08,4.48-8.88,4.48-14.43,0-6.41-2.04-11.49-6.11-15.24-4.08-3.75-10.14-6.55-18.18-8.4Z"/>
      <rect class="cls-1" x="614.47" y="36.03" width="18.75" height="82.33"/>
      <path class="cls-1" d="M707.96,37.41c-4.73-2.55-10.03-3.83-15.89-3.83-5.11,0-9.84.95-14.18,2.85-4.35,1.9-8.15,4.57-11.41,7.99-1,1.05-1.92,2.17-2.77,3.34v-11.74h-17.61v82.33h18.75v-41.57c0-6.52,1.19-11.68,3.59-15.49,2.39-3.8,5.3-6.52,8.72-8.15,3.42-1.63,6.77-2.45,10.03-2.45,3.48,0,6.55.76,9.21,2.28,2.66,1.52,4.7,3.91,6.11,7.17,1.41,3.26,2.12,7.5,2.12,12.72v45.48h18.75v-51.19c0-7.39-1.39-13.56-4.16-18.5-2.77-4.94-6.52-8.69-11.25-11.25Z"/>
      <path class="cls-1" d="M106.39,14.67h-18.75v10.27c-.23,2.13-.87,4.71-2.46,7.24-1.08,1.71-2.31,2.96-3.37,3.85h-8.19v16.79h14.02v37.49c0,8.59,2.39,15.41,7.17,20.46,4.78,5.05,11.19,7.58,19.24,7.58h14.67v-15.16l-.82-1.79h-8.48c-4.24,0-7.47-1.09-9.7-3.26-2.23-2.17-3.34-5.43-3.34-9.78v-35.54h22.33v-16.79h-22.33V14.67Z"/>
      <g>
        <path class="cls-1" d="M775.92,118.5c24.83,0,45.02-20.2,45.02-45.02,0-12.73-5.32-24.24-13.85-32.44.12-1.37.57-3.08,1.82-4.55,2.81-3.32,7.54-2.78,7.65-2.77l2.79-18.5c-1.54-.23-15.29-1.94-24.72,9.18-1.75,2.06-3.06,4.28-4.03,6.54-4.61-1.59-9.55-2.47-14.69-2.47-24.83,0-45.02,20.2-45.02,45.02s20.2,45.02,45.02,45.02ZM775.92,47.17c14.51,0,26.31,11.8,26.31,26.31s-11.8,26.31-26.31,26.31-26.31-11.8-26.31-26.31,11.8-26.31,26.31-26.31Z"/>
        <path class="cls-1" d="M796.94,128.78c-.19.37-1.07,2-3.16,4.1-1.42,1.43-3.06,2.64-4.91,3.65-3.42,1.85-7.36,2.77-11.82,2.77-6.19,0-11.03-1.39-14.51-4.16-3.48-2.77-5.65-5.95-6.52-9.54-6.36,1.3-12.72,2.61-19.07,3.91,1.3,4.78,3.67,9.21,7.09,13.29,3.42,4.08,7.88,7.34,13.37,9.78,5.49,2.45,12.04,3.67,19.64,3.67,8.58,0,16-1.74,22.25-5.22,2.11-1.17,5.16-2.91,8.22-6.23,5.01-5.45,6.67-11.52,7.29-14.69-5.68-1.13-11.37-2.25-17.05-3.38-.16.51-.41,1.23-.82,2.04Z"/>
      </g>
      <path class="cls-1" d="M577.12,14.67h-18.75v10.27c-.23,2.13-.87,4.71-2.46,7.24-1.08,1.71-2.31,2.96-3.37,3.85h-8.19v16.79h14.02v37.49c0,8.59,2.39,15.41,7.17,20.46,4.78,5.05,11.19,7.58,19.24,7.58h14.67v-15.16l-.82-1.79h-8.48c-4.24,0-7.47-1.09-9.7-3.26-2.23-2.17-3.34-5.43-3.34-9.78v-35.54h22.33v-16.79h-22.33V14.67Z"/>
    </g>
  </g>
</svg>