<?xml version="1.0" encoding="UTF-8"?>
<svg id="Camada_2" data-name="Camada 2" xmlns="http://www.w3.org/2000/svg" viewBox="0 0 670.77 357.94">
  <defs>
    <style>
      .cls-1 {
        fill: #5e6b84;
      }
    </style>
  </defs>
  <g id="Camada_1-2" data-name="Camada 1">
    <g>
      <g>
        <path class="cls-1" d="M230.19,357.71h-1.42l-9.63-14.34v14.34h-1.43v-16.76h1.43l9.65,14.35v-14.35h1.4v16.76Z"/>
        <path class="cls-1" d="M251.65,340.96v11.44c0,1.13-.26,2.11-.75,2.95-.49.84-1.18,1.48-2.08,1.93s-1.92.67-3.08.67c-1.76,0-3.18-.48-4.24-1.44-1.06-.96-1.61-2.3-1.65-4v-11.54h1.4v11.34c0,1.41.4,2.51,1.21,3.29.81.78,1.9,1.17,3.28,1.17s2.47-.39,3.27-1.17c.8-.78,1.2-1.87,1.2-3.27v-11.35h1.43Z"/>
        <path class="cls-1" d="M272.62,342.15h-5.74v15.56h-1.42v-15.56h-5.73v-1.2h12.89v1.2Z"/>
        <path class="cls-1" d="M287.24,350.73h-4.87v6.99h-1.43v-16.76h5.44c1.79,0,3.18.43,4.19,1.3,1.01.87,1.51,2.08,1.51,3.63,0,1.07-.31,2.02-.94,2.84-.63.82-1.47,1.39-2.53,1.7l4.19,7.14v.15h-1.51l-4.05-6.99ZM282.38,349.53h4.34c1.19,0,2.14-.34,2.87-1.01.72-.68,1.08-1.55,1.08-2.63,0-1.18-.38-2.1-1.13-2.75-.75-.65-1.81-.98-3.17-.98h-3.99v7.38Z"/>
        <path class="cls-1" d="M303.33,357.71h-1.42v-16.76h1.42v16.76Z"/>
        <path class="cls-1" d="M325.4,352.49c-.19,1.76-.82,3.12-1.89,4.05-1.07.94-2.5,1.4-4.28,1.4-1.24,0-2.34-.31-3.3-.93-.96-.62-1.69-1.5-2.22-2.64-.52-1.14-.79-2.44-.79-3.91v-2.18c0-1.49.26-2.81.78-3.96s1.27-2.04,2.25-2.66,2.1-.94,3.38-.94c1.8,0,3.21.48,4.25,1.45,1.04.97,1.64,2.31,1.81,4.02h-1.43c-.35-2.85-1.9-4.27-4.64-4.27-1.52,0-2.73.57-3.63,1.71-.9,1.14-1.35,2.71-1.35,4.71v2.05c0,1.93.44,3.48,1.32,4.63.88,1.15,2.07,1.73,3.56,1.73s2.6-.35,3.35-1.06c.75-.71,1.22-1.77,1.39-3.19h1.43Z"/>
        <path class="cls-1" d="M336.22,357.71h-1.42v-16.76h1.42v16.76Z"/>
        <path class="cls-1" d="M358.81,350.24c0,1.54-.27,2.9-.8,4.06-.53,1.17-1.29,2.06-2.28,2.69-.99.63-2.13.94-3.43.94-1.96,0-3.54-.7-4.74-2.1-1.2-1.4-1.81-3.29-1.81-5.67v-1.73c0-1.53.27-2.88.81-4.06.54-1.18,1.31-2.08,2.3-2.72s2.13-.95,3.42-.95,2.43.31,3.41.93,1.75,1.5,2.29,2.64c.54,1.14.82,2.45.84,3.95v2ZM357.4,348.43c0-2.02-.46-3.6-1.37-4.74-.91-1.14-2.16-1.71-3.75-1.71s-2.8.57-3.72,1.72c-.92,1.15-1.39,2.75-1.39,4.81v1.75c0,1.99.46,3.56,1.38,4.73.92,1.16,2.17,1.74,3.75,1.74s2.85-.57,3.75-1.72c.9-1.15,1.35-2.74,1.35-4.79v-1.77Z"/>
        <path class="cls-1" d="M380.51,357.71h-1.42l-9.63-14.34v14.34h-1.43v-16.76h1.43l9.65,14.35v-14.35h1.4v16.76Z"/>
        <path class="cls-1" d="M392.16,357.71h-1.42v-16.76h1.42v16.76Z"/>
        <path class="cls-1" d="M411.84,353.59c0-.93-.33-1.66-.98-2.2-.65-.54-1.84-1.05-3.58-1.54-1.73-.49-3-1.02-3.8-1.59-1.14-.81-1.7-1.88-1.7-3.2s.53-2.32,1.58-3.13c1.05-.8,2.4-1.2,4.05-1.2,1.11,0,2.11.22,2.99.64s1.56,1.03,2.04,1.8c.48.77.73,1.62.73,2.57h-1.43c0-1.15-.39-2.07-1.17-2.77-.78-.7-1.83-1.04-3.15-1.04s-2.3.29-3.06.86c-.76.57-1.14,1.32-1.14,2.24,0,.85.34,1.55,1.02,2.09.68.54,1.78,1.01,3.28,1.42s2.64.84,3.42,1.28c.77.44,1.36.97,1.75,1.58.39.61.59,1.34.59,2.17,0,1.32-.53,2.38-1.58,3.18-1.06.8-2.45,1.2-4.17,1.2-1.18,0-2.27-.21-3.25-.63s-1.73-1.01-2.24-1.77c-.51-.76-.77-1.63-.77-2.61h1.42c0,1.18.44,2.11,1.32,2.8s2.06,1.02,3.52,1.02c1.3,0,2.35-.29,3.14-.86s1.19-1.34,1.19-2.29Z"/>
        <path class="cls-1" d="M433.35,342.15h-5.74v15.56h-1.42v-15.56h-5.73v-1.2h12.89v1.2Z"/>
        <path class="cls-1" d="M449.85,353.01h-7.61l-1.73,4.71h-1.48l6.34-16.76h1.35l6.34,16.76h-1.47l-1.74-4.71ZM442.68,351.81h6.72l-3.36-9.13-3.36,9.13Z"/>
      </g>
      <g>
        <g>
          <path class="cls-1" d="M344.9,113.75c.17.12.29-.05.4-.16,1.86-1.76,3.73-3.51,5.85-5.03.16-.12.34-.25.33-.46,0-.1-.11-.12-.23-.13-.1.07-.22.14-.32.22-2,1.51-3.86,3.15-5.64,4.85-.1.09-.2.19-.28.29-.09.13-.32.27-.1.42Z"/>
          <path class="cls-1" d="M337.86,120.11c.22.2.35-.1.49-.2,2-1.42,3.71-3.1,5.39-4.81.12-.13.25-.26.35-.4.07-.12.08-.25-.19-.25-.08.07-.2.15-.29.24-1.68,1.65-3.42,3.24-5.28,4.73-.09.07-.17.15-.25.22-.14.14-.38.32-.21.47Z"/>
          <polygon class="cls-1" points="328.21 67.95 328.21 67.95 328.22 67.96 328.21 67.95"/>
          <path class="cls-1" d="M371.85,73.03c-2.87-2.17-6.13-3.75-9.61-5.04-2.06-.76-4.08-1.57-6.31-1.89-1.03-.15-2.04-.03-3.09,0,.74-.55,1.54-1,2.39-1.4.21-.1.43-.19.65-.27.18-.07.4-.16.27-.36-.1-.16-.3-.03-.44.02-1.09.4-2.11.93-3.03,1.57-1.42.99-3.01,1.58-4.76,1.79-3.75.45-6.9,2.14-10.07,3.81-.24.13-.45.66-.76.28-.21-.26.35-.38.56-.56.34-.3.79-.51,1.07-.84,1.09-1.3,2.65-2.06,4.16-2.87,3.07-1.65,6.16-3.26,9.4-4.63,1.36-.58,2.77-1.03,4.23-1.38.2-.05.6,0,.54-.28-.07-.34-.39-.09-.58-.05-3.48.71-6.6,2.21-9.71,3.7-1.56.75-3.05,1.59-4.49,2.5-.09.06-.17.15-.36.1-.08,0-.16-.01-.24,0-.27.02-.54.12-.74.3-2.14,1.89-4.38,3.61-4.93,3.6l-1.06-.34c-.16-.04-.34-.08-.54-.09.71-.52,1.25-1,1.87-1.36,2.79-1.61,5.25-3.53,7.3-5.86l1.81-2.39h0c.51-.75,1.19-1.38,1.78-2.08.1.21.15.39.14.54,0,0,0,.01,0,.02,0,.06-.01.12-.03.17l-.12.57s0,0,0,0c-.03.14-.06.28-.09.4v.04s0,0,0,0c-.08.36-.15.64-.2.92-.06.28-.06.56.28.71.33.14.61,0,.84-.19.54-.45.84-1.03,1.03-1.64.1-.33.3-.49.63-.61,4.34-1.61,8.84-2.43,13.53-2.34,1.32.02,2.61.18,3.83.62,1.03.37,2.07.73,3.1,1.11,1.01.37,1.46,1.15,1.77,2.01.09.25.09.54-.31.71-.18-.59-.34-1.16-.91-1.53-.51-.32-1.04-.61-1.7-.54-1.81.18-3.62.13-5.42.02-.14,0-.29-.02-.43,0-.23.04-.64-.1-.64.21,0,.36.4.17.62.18,2.02.09,4.04.18,6.07.02,1.02-.08,1.96.83,1.95,1.73,0,.39-.96.77-1.48.54-.29-.13-.5-.18-.64.1-.14.28.16.35.37.44.66.3,2.12.1,2.7-.41.62-.55.66-1.24.39-1.94-.37-.95-1.07-1.58-2.12-2.06-3.7-1.7-7.65-2.04-11.72-1.62-2.92.3-5.73,1.09-8.45,2.12-.26.1-.52.19-.85.31.1-.8.2-1.53.28-2.25.08-.82-.07-1.59-.57-2.29-.14-.2-.31-.36-.55-.47-.66-.28-.93-.16-.99.49-.06.76-.07,1.51-.11,2.27-.04.65-.32,1.21-.82,1.71-1.3,1.31-2.36,2.77-3.49,4.19-1.64,2.06-3.68,3.73-6.04,5.1-.11.06-.22.17-.5.09.23-.28.45-.53.66-.79,1.92-2.35,3.84-4.7,5.75-7.06.47-.59.86-1.23,1.12-1.91.8-2.05,2.01-3.92,3.19-5.81.03-.05.06-.1.09-.14.05-.07.09-.12.14-.17h0s.41-.48.41-.48l.03-.03c.32-.28.7-.52,1.11-.69.5-.3.75-.74.72-1.16-.02-.28-.16-.55-.42-.79-.57-.53-1.29-.76-2.13-.69-.47.04-.74.27-.86.65-.11.35-.38.73.13,1.01.34.18.09.38-.03.52-2.64,3.16-4.88,6.58-7.75,9.61-.31.32-.62.63-.95.94h0s-1.2,1.7-1.2,1.7c-.05.16-.12.31-.21.44-1.33,1.88-2.52,3.84-3.6,5.84-.23.43-.46.63-.78.63-.07,0-.14,0-.21-.02l-.87-.1c-.12,0-.23,0-.34-.03-.06-.14.07-.2.13-.29.09-.12.17-.24.26-.36.48-.65.8-1.38.97-2.14,0-.04.02-.08.03-.13.11-.41.3-.69.35-.78.85-1.34,3.47-8.12,3.56-8.93,0-.04.03-.25.16-.31.06-.03.16-.01.32.07.32.17.55-.03.75-.29.56-.7.96-1.49,1.46-2.27.03-.05.06-.09.09-.14,0,0,0,0,0,.01l1.18-1.52h0c.04-.07.09-.13.14-.19.43-.58.63-1.23.76-1.9.11-.55-.23-.8-.84-.62-1.51.44-2.39,1.51-3.21,2.61-.08.11-.13.3-.03.36.55.31.11.6-.03.87-.63,1.24-.87,2.59-1.39,3.86-1.36,3.33-2.65,6.69-4.34,9.92-.1.19-.16.4-.46.59-.31.26-.77.73-.95,1.41-.03.13-.06.26-.07.38-.1.26-.34.41-.52.38-.12-.02-.3-.1-.26-.19.11-.22.17-.42.1-.59-.33-.82.04-1.37.66-1.96.46-.44.72-1.04,1.11-1.63l.64-1.18c.02-.22.11-.41.14-.61.04-.31.16-.62.22-.93.61-2.78.43-5.52-.25-8.26-.62-2.52-1.68-4.89-2.79-7.24-.32-.68-.37-1.26-.06-1.92.42-.92.79-1.86,1.26-2.76.27-.53.51-1.07.72-1.61.16-.43.03-.89-.33-1.19h0c-.14-.01-.1,0-.24-.02-.06-.9.31-1.69.9-2.42,0,0,0,0,0,0,.08-.11.17-.21.27-.31,0,.02-.02.04-.02.07l.53-.54c.8.31,1.28.92,1.89,1.39.21.16.37.38.64.49.44.17.78.02,1.09-.27.21-.2.24-.63.68-.56.65.1,1.33.16,1.74.72.52.72,1.06,1.44,1.58,2.16,1.85,2.57,3.55,5.19,4.43,8.17.31,1.04.42,2.11.48,3.18,0,.19-.12.5.19.53.32.03.27-.3.32-.48.4-1.55-.14-3-.62-4.45-.87-2.63-2.51-4.9-4.21-7.15-.54-.71-1.05-1.44-1.57-2.17-.59-.82-1.52-1.01-2.52-1.06-.42-.02-.66.23-.79.54-.22.54-.45.45-.83.1-.53-.5-1.1-.98-1.71-1.42-.76-.55-1.36-.45-1.92.28-.72.95-1.13,2-1.29,3.13-.06.38-.02.76.35,1.04.2.16.25.34.12.56-.78,1.3-1.29,2.68-1.78,4.07-.02.06-.06.11-.07.14-.22-.03-.23-.16-.27-.24-.94-2.13-2.8-3.41-5.05-4.35-2.2-.93-4.44-1.8-6.71-2.59-2.1-.73-4.28-.64-6.47-.42-.24.03-.47.11-.7.11-1.94.01-3.37.93-4.67,2.08-.43.38-.73.82-.87,1.36-.2.83-.28,1.67-.34,2.51-.03.39.11.75.44,1.03.25.21.52.36.9.22.37-.14.69-.33.79-.68.13-.51-.24-.48-.63-.39.44-1.46,1.14-2.22,2.54-2.78-.51-.34-1.12-.23-1.64.36-.66.75-1.2,1.57-1.63,2.46.05-1.54-.2-3.12,1.54-4.27.99-.65,1.93-1.16,3.19-1.28,1.71-.16,3.4-.48,5.12-.31.28.03.58.04.84.12,2.98.93,5.89,1.99,8.7,3.26,1.8.81,3.14,2.04,4.03,3.67,1.42,2.59,2.66,5.24,3.47,8.03.52,1.8,1.13,3.6,1.09,5.51-.06,2.97-.64,5.82-2.52,8.38-.27.36-.29.36-.56.06-.52-.03-.45-.4-.49-.69-.15-1.14.01-2.27.11-3.41.43-5.04-.43-9.82-3.39-14.18-1.42-2.09-3.13-3.99-5.19-5.62-.12-.1-.24-.2-.39-.27-.06-.03-.19,0-.26.04-.1.06-.03.16.03.21.11.11.24.2.36.3,3.98,3.23,6.68,7.16,7.92,11.82.66,2.46.72,5,.47,7.54-.1.98-.15,1.96-.22,3-.6-.42-.85-.86-.87-1.46-.04-.95-.17-1.89-.28-2.83-.05-.42-.08-.86-.38-1.2-.35-.38-.58-.8-.73-1.23-.23-.63-.59-1.21-1.09-1.7-.07-.07-.14-.13-.21-.2,0,0-.02-.01-.02-.02-.97-.87-2.22-1.45-3.58-1.69-.51-.09-1.08-.18-1.7-.3-3.22-.58-6.04,0-8.29,2.29-.71.72-1.58,1.28-2.53,1.75-1.55.76-2.32,3.23-1.48,4.6.24.39.56.66,1.13.62.61-.05.74-.41.85-.85.54-2.19,1.92-2.93,4.52-2.65,1.51.17,2.86.75,4.18,1.37,1.71.81,3.56,1.39,5.15,2.39,2.08,1.31,3.28,3.14,3.87,5.32.2.74.39,1.48.82,2.14.93,1.42.77,2.85.17,4.32-.23.56-.45,1.11-.67,1.67-.05.12-.09.26.1.31.14.04.21-.08.26-.18.95-1.74,1.66-3.51,1.16-5.47-.14-.21-.27-.43-.38-.66-.37-.71-.64-1.45-.85-2.21-.6-2.08-1.71-3.89-3.58-5.3-1.05-.78-2.36-1.15-3.52-1.75-1.33-.69-2.68-1.33-4.09-1.88-1.41-.55-2.85-.85-4.43-.62-1.64.24-3.13,1.79-3.22,3.07-.01.21-.08.39-.32.44-.23.05-.4-.08-.53-.25-.76-1.01-.14-3.33,1.13-3.91,1.3-.6,2.32-1.47,3.33-2.38,1.18-1.06,2.56-1.73,4.26-1.89,1.93-.19,3.73.26,5.54.66.94.21,1.66.71,2.26,1.35,1.94,2.06,2.51,4.57,2.85,7.2-.29-.16-.34-.42-.45-.63-.98-1.95-2.53-3.46-4.54-4.62-3.26-1.88-6.72-1.74-10.27-.67-.66.2-1.28.48-1.62,1.07-.14.23-.36.31-.63.36-1.15.22-1.21.28-1.42,1.29-.06.31-.14.62-.15.94,0,.31-.21.84.24.86.4.01.1-.48.14-.74.31-1.98.03-1.78,2.02-2.2.37-.08.73-.19,1.09-.31.16-.05.43-.07.35-.31-.09-.27-.3-.08-.46-.04-.22.05-.41.22-.69.02,2.4-1.03,4.92-1.7,7.58-1.2,3.59.67,6.13,2.61,7.76,5.49-.01,0-.03-.01-.04-.02l.45.95c.83.71,1.56,1.51,2.21,2.4.51.71.79,1.47.46,2.27,0,0,0,0,0,0-.15.37.29.7.68.53l.63-.28.04-.02c.67-.31,1.43-.39,2.24-.22,2.8.61,5.5,1.41,7.93,2.83,1.4.82,2.87,1.55,4.3,2.32,1.74.94,3.55.99,5.38.22.94-.4,1.81-.39,2.74,0,.87.36,1.67.9,2.72.8.23-.02.36.18.49.33.55.66.96,1.38,1.1,2.22.48,2.87.69,5.72-.43,8.55-.67,1.69-1.62,3.24-2.84,4.67-.63.74-1.49,1.18-2.49,1.4-.45.1-.88.08-1.33-.37,2.03.14,2.59-1.2,3.34-2.33.08-.13.19-.31.01-.39-.23-.11-.33.11-.41.25-.31.55-.71,1.05-1.17,1.51-.22.22-.43.44-.88.5.99-1.19,1.42-2.49,1.62-3.85.05-.34.02-.67-.13-.99-.06-.14-.14-.3-.35-.22-.16.06-.09.21-.06.33.35,1.88-.46,3.43-1.8,4.85-.24-.2-.02-.69-.49-.5-.36.15-.61.49-.44.9.2.48,1.06.96,1.73.92,1.35-.09,2.47-.61,3.31-1.56,2.38-2.73,3.7-5.79,3.77-9.24.04-1.6.11-3.2-.34-4.77-.27-.94-.81-1.74-1.53-2.44-.62-.6-1.62-.55-2.36-.96-.29-.16-.66-.23-.98-.36-1.03-.42-2-.36-2.99.17-1.36.73-2.78.83-4.24.25-.13-.05-.26-.1-.38-.17-.01,0-.02-.01-.03-.02h0s-.88-.6-.88-.6c-.78-.24-1.47-.67-2.18-1.11,1.5-.13,2.91-.6,4.35-.93,6.3-1.42,12.5-1.22,18.65.52,3.11.88,5.89,2.18,8.13,4.31.47.45.89.92,1.24,1.45.19.29.41.56.76.73,1.01.49,1.39,1.47.95,2.57-.17-.4-.24-.77-.45-1.11-.44-.69-.95-1.22-1.91-1.3-.4-.03-.76-.24-1.02-.53-1.14-1.28-2.78-1.86-4.48-2.12-3.48-.54-7.02-.47-10.54-.06-.2.02-.54-.04-.5.3.04.31.32.31.6.29.5-.04,1-.06,1.5-.12,2.86-.33,5.72-.2,8.55.1,1.82.19,3.49.77,4.75,2.05.37.38.92.49,1.46.6.64.13,1.58,1.22,1.52,1.79-.06.56-.53.74-1.14.9.29-.42.53-.8.58-1.23.01-.12.04-.27-.15-.3-.17-.03-.27.07-.3.21-.15.65-.64,1.06-1.23,1.43-.36.23-.26.49.1.63,1.26.48,2.56.4,3.83.02.45-.13.54-.56.55-.96.08-4.04-1.8-7.25-5.21-9.82ZM347.84,57.51c-.06-.71.05-1.43.08-2.14,0-.17.02-.37.32-.28.09.03.21.08.26.15h0s0,.02.01.03l.45.83h0s.03.06.04.08c.13.25.14.52.11.78-.05.51.16,1.1-.3,1.51-.53.47.21.92-.11,1.44-.39.63-.55,1.37-1.29,2.07.01-.3,0-.43.03-.55.34-1.3.5-2.61.4-3.94ZM336.26,56.06c.09-.28.2-.57.34-.83.41-.76.51-1.7,1.51-2.15.1-.04.14-.21.18-.33.04-.13.02-.28-.12-.34-.17-.08-.25.08-.31.18-.15.26-.35.46-.86.55.81-1.27,1.76-2.16,3.2-2.65-.12,1.4-.98,2.38-1.73,3.4-.1.14-.19.3-.4.06-.1-.12-.28-.14-.41-.04-.28.21.14.22.18.35.03.12,0,.2-.06.29-.33.56-.64,1.13-.98,1.69-.09.15-.24.31-.45.25-.25-.08-.13-.29-.08-.43ZM333.92,70.5c-.42-.03-.82-.21-1.22-.32-.02,0-.04-.03-.05-.04.25-.4.53-.79.76-1.19,2.03-3.58,4.38-6.99,7.26-10.1,2.22-2.4,3.92-5.11,5.96-7.62.24-.3.35-.69.51-1.04.09-.2.12-.39-.11-.57-.3-.24-.04-.36.2-.42.62-.16,1.71.31,1.91.83.15.4.13.78-.5.82-.38.02-.59.2-.81.45-.99,1.15-1.83,2.38-2.52,3.68-1.55,2.9-2.9,5.89-5.31,8.37-.17.17-.29.39-.43.59-1.47,2.03-3.09,3.98-4.88,5.81-.25.26-.26.78-.78.75ZM376.42,82.7c0,.31-.05.64-.45.71-.62.11-1.25.16-2.06.03.48-.22.78-.33,1.06-.48.84-.44,1.16-1.01.96-1.86-.17-.72-.42-1.44-1.32-1.74-.25-.09-.41-.28-.54-.48-1.69-2.39-4.11-4.05-6.99-5.14-8.32-3.14-16.81-3.08-25.4-.61-.28.08-.52.18-.45.49,0,0,0,.01,0,.02,0,0,0,0,0,0-.36-.09-.68-.25-.98-.43l-1.93-1.04h0c-.18-.08-.34-.21-.53-.36.15-.03.25-.04.33-.08.4-.19.8-.38,1.18-.59,2.54-1.39,5.18-2.55,8.13-3.06,1.5-.26,3-.47,4.44-.98,1.59-.57,3.22-.63,4.91-.27,2.53.55,4.89,1.47,7.21,2.47,3.34,1.44,6.48,3.13,9.02,5.58,2.29,2.21,3.49,4.79,3.43,7.82Z"/>
          <path class="cls-1" d="M345,113.33c-.09.13-.32.27-.1.42.17.12.29-.05.4-.16,1.86-1.76,3.73-3.51,5.85-5.03.16-.12.34-.25.33-.46,0-.1-.11-.12-.23-.13-.1.07-.22.14-.32.22-2,1.51-3.86,3.15-5.64,4.85-.1.09-.2.19-.28.29Z"/>
          <path class="cls-1" d="M337.86,120.11c.22.2.35-.1.49-.2,2-1.42,3.71-3.1,5.39-4.81.12-.13.25-.26.35-.4.07-.12.08-.25-.19-.25-.08.07-.2.15-.29.24-1.68,1.65-3.42,3.24-5.28,4.73-.09.07-.17.15-.25.22-.14.14-.38.32-.21.47Z"/>
          <path class="cls-1" d="M357.73,101.7c-.1-.1-.24-.13-.26-.13-.2-.04-.4.04-.59.14-1.16.61-2.13,1.43-3.18,2.17-3.05,2.12-5.79,4.56-8.78,6.74-1.8,1.32-3.35,2.9-5.11,4.28-2.65,2.09-5.41,4.05-8.13,6.06-1.27.94-2.42,1.98-3.46,3.13-.7.77-1.52,1.47-2.3,2.18-.7.65-1.27,1.37-1.74,2.16-.6,1.01-1.23,2.01-1.98,2.95-.94,1.18-1.75,2.42-2.3,3.79-.08.19-.12.41-.44.6.03-.99.07-1.92.08-2.84.02-2.8-.01-6.35-.02-9.15,0-3.07.15-6.14.26-9.22.09-2.61.12-5.22.35-7.82.39-4.41,1.39-7.95,3.05-12.15.69-1.74,2.03-2.85,3.58-3.9,1.12-.76,2.12-1.65,3.11-2.55.72-.65,1.47-1.27,2.31-1.81.38-.25.77-.53,1.04-.87,1.69-2.1,4.22-3.12,6.71-4.22.17-.07.39-.06.5-.28-.23-.25-.5-.4-.89-.21-.99.47-2.05.81-3,1.36-1.15.66-2.23,1.38-3.04,2.39-.39.49-.87.9-1.43,1.24-1.67,1.01-2.99,2.37-4.54,3.56l-2.51,1.83h0c-.45.38-.96.74-1.54,1.16.55-1.01,1.09-1.81,1.81-2.54,2.06-2.09,3.69-4.47,5.79-6.54,1.59-1.58,3.53-2.49,5.85-2.82.47-.07.95-.09,1.42-.15.18-.02.51.07.48-.21-.02-.19-.3-.17-.48-.16-1.41.1-2.79.26-4.1.81-1.54.65-2.78,1.56-3.92,2.7-1.79,1.8-3.19,3.86-4.94,5.68-.18.19-.36.39-.54.6-.17-.2-.02-.35.04-.5,1.07-2.54,2.31-4.99,4.15-7.21.94-1.13,1.85-2.33,2.11-3.78.02-.11,0-.37.28-.25,1.17.53,2.48.3,3.71.48,1.86.27,3.42,1.09,4.92,2.01,2.81,1.72,4.99,3.95,6.82,6.48.46.64.87,1.29,1.11,2.03.26.82.89,1.47,1.36,2.19.06.09.15.19.28.12.12-.05.1-.18.08-.28-.01-.06-.03-.13-.06-.18-1.35-2.29-2.28-4.78-4.2-6.8-2.18-2.29-4.65-4.22-7.76-5.46-1.18-.47-2.45-.65-3.74-.69-.79-.03-1.56-.12-2.33-.28-.47-.1-.72-.33-.8-.77-.35-1.75.12-2.17,2.04-1.79.79.15,1.57.38,2.25.76,1.63.91,3.44,1.15,5.33,1.1.77-.02,1.52.06,2.26.23,1.24.3,2.47.59,3.76.66.84.05,1.4.58,1.91,1.11,1.66,1.71,2.38,3.73,2.44,5.97,0,.22-.14.63.21.62.31,0,.2-.42.19-.65-.04-2.33-.81-4.42-2.54-6.2-.81-.84-1.77-1.37-3.07-1.35-.55,0-1.09-.12-1.61-.27-1.41-.4-2.85-.63-4.34-.61-1.58.03-3.05-.3-4.42-1.01-1.08-.55-2.28-.8-3.51-.97-.71-.1-1.07.16-1.26.74-.18.57-.2,1.14-.03,1.69.36,1.18-.05,2.2-.73,3.18-1.9,2.72-3.69,5.49-4.96,8.49-.44,1.03-.65,2.12-1.28,3.09-.18.27-.32.57-.61.78-.13.09-.28.19-.45.07-.16-.11-.03-.24.03-.34,1.2-2.32,1.99-4.8,3.47-7.02.62-.92.81-1.98,1.2-2.97.05-.12.14-.32-.11-.36-.22-.03-.25.17-.29.3-1.11,3.29-3.2,6.23-4.49,9.45-.07.17-.11.37-.43.53.53-1.92.63-3.81,1.33-5.59.23-.59.5-1.18.77-1.76l-.03-.45-.43.5h0c-.93,1.99-1.66,4.03-1.87,6.23-.01-1.59.06-3.17.48-4.71.39-1.41.51-2.81.39-4.26-.13-1.61-.54-3.23-.14-4.84.73-2.98.65-5.94.07-8.91-.16-.83-.45-1.63-.83-2.4-.06-.13-.07-.4-.35-.29-.25.1-.09.3-.04.44.56,1.63.91,3.3.99,5.01.08,1.83.03,3.66-.37,5.47-.17.77-.31,1.54-.21,2.32.39,3.07.35,6.12-.5,9.16-.26.92-.3,1.89-.18,2.83.16,1.25-.14,2.42-.53,3.61-1.43,4.29-2.33,7.91-2.44,12.37-.07,2.93-.31,5.85-.48,8.77-.18,3.07-.23,6.14-.34,9.22-.16,4.8-.3,10.35-.41,15.15-.06,2.8-.06,5.6-.32,8.39-.12,1.28-.3,2.56-.45,3.83-.06.46-.16.92-.48,1.31-.11.14-.22.28-.12.46.34.63.3,1.31.23,1.98-.39,3.82-.67.2-.75,4.03-.06,2.86-.1,5.73-.04,8.59.02.74.15,1.47.25,2.19.07.51.39.63.9.39.5-.24.94-.58,1.48-.77.32-.11.26-.49.3-.66.36-1.75-.33-6.42.13-8.76.01-.07.18-.91.38-2.02.12-.65.21-.95.22-1.33.02-.52-.09-1.13.16-1.56.47-.81.39-1.58.22-2.4-.09-.43.25-.76.56-1.05.36-.34.73-.7,1.17-.93,1.92-1.03,3.23-2.56,4.51-4.12,1.6-1.94,2.96-3.99,4.13-6.16.94-1.73,2-3.4,3.28-4.98,1.76-2.16,3.31-4.46,4.51-6.91,1.75-3.57,4.41-6.58,7.43-9.35,3.36-3.08,6.06-6.54,8.14-10.39.63-1.16,1.48-2.21,2.38-3.24,0,0,2.44-2.55,2.89-4.01.04-.13.16-.53-.06-.74ZM318.23,154.91c-.34.56-.37,1.17-.4,1.78-.05,1.05-.19.59-.26,1.64-.29,4.73-.49,3.52-.5,8.26,0,.93,0,1.85,0,2.78,0,.66-.7.69-1.11.78-.42.09-.23-.4-.25-.62-.22-2.64-.23-5.3-.28-7.95-.07-4.33.28-1.21.65-5.53.07-.8-.2-1.62.04-2.39.49-1.59.46-3.21.67-4.82.78-6.08.41-12.2.65-18.29.13-3.24.11-7.24.32-10.47.24-3.68.55-7.36.66-11.03.12-4.33.57-7.86,1.71-12.09.27-1,.58-1.98,1.08-3.06l2.18-.89-.26.52-.03.05c-.64,1.35-1.07,2.75-1.6,4.12-1.38,3.52-1.69,6.42-2.01,10.07-.24,2.69-.28,5.38-.35,8.07-.13,4.52-.16,9.8-.13,14.33.03,3.25.09,6.5-.66,9.73-.92,3.92-1.1,7.88-.92,11.85h0s.71,2.23.71,2.23c.14.35.26.64.09.93ZM354.84,105.85c-1.84,1.85-3.14,4-4.4,6.15-1.25,2.15-2.81,4.08-4.69,5.82-3.24,3.02-6.2,6.22-8.48,9.89-1.35,2.17-2.55,4.4-3.99,6.53-1.18,1.74-2.59,3.36-3.67,5.16-1.99,3.3-3.99,6.61-6.63,9.56-1.09,1.21-2.54,2.05-3.84,3.07-.18-.26-.02-.36.11-.44.5-.29.8-.72,1.11-1.15,1.85-2.57,3.65-5.17,5.27-7.86.27-.45.52-.9.76-1.36.07-.13.15-.32-.02-.4-.21-.11-.27.11-.33.23-1,1.86-2.2,3.61-3.37,5.38-.96,1.46-1.95,2.89-3.1,4.25.19-.49.43-.96.68-1.43,1.35-2.56,2.54-5.2,4.46-7.51.11-.14.38-.34.14-.48-.28-.16-.39.15-.52.3-1.03,1.21-1.78,2.56-2.58,3.88-.55.91-.89,1.92-1.69,2.93.87-2.74,2.16-5.15,3.25-7.62.8-1.81,1.93-3.43,3.36-4.9.61-.62,1.15-1.3,1.66-1.99.21-.28.82-.65.44-.88-.32-.2-.59.42-.82.72-.93,1.2-2,2.32-3.06,3.43.11-.6.44-1.12.74-1.64,1.77-3.13,3.91-6.05,6.19-8.91,1.58-1.98,3.15-3.95,5.21-5.56.15-.12.41-.27.2-.44-.2-.16-.39.06-.53.19-1.13.98-2.26,1.96-3.19,3.1-2.49,3.03-4.93,6.1-7,9.37-.87,1.38-1.82,2.75-2.28,4.29-.63,2.12-1.87,4.02-2.84,6.01-.15.32-.3.64-.44.96l-2.11,6.47c-.02-.25-.05-.5-.05-.74,0-.15.02-.29.04-.44.67-4.56,1.43-9.1,3.2-13.46.07-.18.3-.47,0-.55-.31-.09-.27.27-.38.44-.01.02-.02.04-.02.06-1.4,3.5-2.19,7.12-2.82,10.77-.25,1.46-.36,2.93-.51,4.4-.02.15-.01.34-.23.33-.24,0-.15-.21-.16-.35-.02-3.58.11-7.15.75-10.7.23-1.27.26-2.59.84-3.77.69-1.39,1.46-2.75,2.33-4.07.7-1.06,1.63-2,2.2-3.12.59-1.18,1.45-2.19,2.39-3.15,2.77-2.83,5.89-5.32,9.16-7.68,2.47-1.78,4.95-3.55,7.06-5.69,1.07-1.08,2.19-2.13,3.58-2.93,1.01-.58,1.88-1.3,2.72-2.07.6-.55,1.27-1.03,1.96-1.49.72-.46,1.4-.96,2.01-1.53.67-.62,1.39-1.18,2.34-1.69-.75,1.04-1.56,1.86-2.43,2.65-.3.28-.56.58-.76.92-.07.11-.1.27.04.34.17.09.23-.07.32-.16,1.12-1.18,2.25-2.37,3.38-3.55.23-.24.48-.46.72-.7-.63.93-.91,2.01-1.7,2.81Z"/>
          <path class="cls-1" d="M305.96,41.15c-.82.04-1.31.28-1.7.68-.12.12-.27.27-.04.43.18.12.32.04.43-.08.66-.79,1.51-.66,2.38-.4,1.21.36,2.41.74,3.62,1.12.74.23,1.3.64,1.75,1.21.73.93,1.23,1.97,1.82,2.97,1.1,1.85,1.74,3.83,2.13,5.88.17.89.7,1.64,1.18,2.4.09.15.24.3.46.19.18-.08.05-.22-.02-.32-1.09-1.66-1.25-3.58-1.88-5.37-.84-2.38-1.85-4.75-3.7-6.71-.35-.37-.84-.56-1.32-.7-1.45-.44-2.92-.85-4.4-1.24-.29-.08-.61-.05-.71-.06Z"/>
          <path class="cls-1" d="M358.81,66.44c.53.29.87.27,1.28,0,2.02-1.32,4.1-2.55,6.17-3.81,1.04-.63,2.22-.86,3.37-1.17.24-.06.34.06.46.2.13.16.15.41.45.43.18-.9-.39-1.34-1.37-1.09-2.9.73-5.28,2.32-7.74,3.77-.87.51-1.63,1.16-2.63,1.67Z"/>
          <path class="cls-1" d="M341.25,73.63s-.01,0-.02,0c0,0,0,.01,0,.02h.01Z"/>
          <polygon class="cls-1" points="331.34 69.91 331.34 69.91 331.35 69.9 331.34 69.9 331.34 69.91"/>
          <path class="cls-1" d="M331.34,69.91s.01,0,.02,0c0,0,0,0-.01,0,0,0,0,0,0,0Z"/>
          <path class="cls-1" d="M321.4,143.52l-.44.96c.14-.32.29-.64.44-.96Z"/>
        </g>
        <g>
          <path class="cls-1" d="M335.38,196.32c-39.24,0-71.17-43.11-71.17-96.1S296.14,4.12,335.38,4.12s71.17,43.11,71.17,96.1-31.93,96.1-71.17,96.1ZM335.38,5.58c-38.44,0-69.7,42.45-69.7,94.64s31.27,94.64,69.7,94.64,69.7-42.45,69.7-94.64S373.82,5.58,335.38,5.58Z"/>
          <path class="cls-1" d="M335.38,200.44c-40.92,0-74.21-44.96-74.21-100.22S294.46,0,335.38,0s74.21,44.96,74.21,100.22-33.29,100.22-74.21,100.22ZM335.38,1.46c-40.11,0-72.75,44.3-72.75,98.76s32.63,98.76,72.75,98.76,72.75-44.3,72.75-98.76S375.5,1.46,335.38,1.46Z"/>
        </g>
      </g>
      <g>
        <g>
          <path class="cls-1" d="M59.36,239.5v62.01h-6.07v-52.77l-22.32,52.68v.09h-6.24L2.22,248.31v53.2H0v-62.01h4.88l24.97,59.18,25.06-59.18h4.45Z"/>
          <path class="cls-1" d="M113.41,301.51h-6.16l-4.28-13.68h-28.48l-4.28,13.68h-2.48l20.1-62.01h5.99l19.59,62.01ZM102.29,286.03l-13.43-42.59-13.6,42.59h27.03Z"/>
          <path class="cls-1" d="M170.03,301.51h-6.84c-14.88-8.3-11.97-30.02-23.86-30.02h-11.38v30.02h-6.07v-62.01h18.39c11.63,0,28.48,1.63,28.48,15.91,0,9.75-8.04,15.05-23.86,15.99,10.43,5.05,11.12,19.33,25.14,30.11ZM162.24,254.81c0-12.14-11.55-13.51-21.98-13.51h-12.32v28.31h12.32c9.58,0,21.98-2.05,21.98-14.8Z"/>
          <path class="cls-1" d="M187.9,231.8l-11.46,4.36-.86-1.63,10.09-7.01c1.2-.77,2.91-.43,3.59.94.6,1.28,0,2.82-1.37,3.34ZM179.52,301.51v-62.01h6.07v62.01h-6.07Z"/>
          <path class="cls-1" d="M238.87,298.52c0,2.39-2.48,2.99-4.36,2.99h-35.58v-62.01h6.07v60.21h23.78c7.18,0,2.82-3.85,7.27-3.85,1.54,0,2.82,1.03,2.82,2.65Z"/>
          <path class="cls-1" d="M246.49,301.51v-62.01h6.07v62.01h-6.07Z"/>
          <path class="cls-1" d="M306.52,301.51h-6.16l-4.28-13.68h-28.48l-4.28,13.68h-2.48l20.1-62.01h5.99l19.59,62.01ZM295.41,286.03l-13.43-42.59-13.6,42.59h27.03Z"/>
          <path class="cls-1" d="M374,242.49c0,1.54-1.11,2.65-2.82,2.65-1.54,0-2.48-.86-2.82-2.22-.26-1.11-.94-1.63-4.45-1.63h-23.78v28.31h23.01v1.88h-23.01v30.02h-6.07v-62.01h35.58c2.74,0,4.36,1.03,4.36,2.99Z"/>
          <path class="cls-1" d="M429.85,301.51h-6.84c-14.88-8.3-11.97-30.02-23.86-30.02h-11.38v30.02h-6.07v-62.01h18.39c11.63,0,28.48,1.63,28.48,15.91,0,9.75-8.04,15.05-23.86,15.99,10.43,5.05,11.12,19.33,25.14,30.11ZM422.07,254.81c0-12.14-11.55-13.51-21.98-13.51h-12.32v28.31h12.32c9.58,0,21.98-2.05,21.98-14.8Z"/>
          <path class="cls-1" d="M479.97,301.51h-6.16l-4.28-13.68h-28.48l-4.28,13.68h-2.48l20.1-62.01h5.99l19.59,62.01ZM468.85,286.03l-13.43-42.59-13.6,42.59h27.03Z"/>
          <path class="cls-1" d="M533.6,239.5v62.01h-2.14l-40.71-52.94v52.94h-2.31v-62.01h2.31l40.71,52.77v-52.77h2.14Z"/>
          <path class="cls-1" d="M601.08,284.57c-3.68,12.14-13.51,17.88-25.83,17.88-18.05,0-30.88-12.83-30.88-31.9s12.83-31.99,30.36-31.99c11.55,0,20.36,5.64,24.03,12.91,2.4,4.79,1.37,8.13-.51,9.32-.6.34-1.28.6-2.05.6-2.31,0-4.79-2.05-4.36-7.01.6-9.49-8.55-14.03-16.85-14.03-13.86,0-24.12,12.06-24.12,30.19s10.26,30.11,26.09,30.11c8.89,0,19.16-3.85,22.92-17.53l1.2,1.45Z"/>
        </g>
        <g>
          <path class="cls-1" d="M639.88,259.48c-20.56,0-30.77,15.82-30.77,31.76,0,3.17.42,7.21,1.26,10.27h6.7c-.71-3.04-1.07-7.09-1.07-10.27,0-15.15,7.99-30.29,23.88-30.29s23.88,15.14,23.88,30.29c0,3.19-.34,7.23-1.06,10.27h6.79c.85-3.06,1.27-7.1,1.27-10.27,0-15.94-10.34-31.76-30.88-31.76Z"/>
          <path class="cls-1" d="M660.72,238.85c-3.68,8.39-10.59,13.68-20.72,13.68s-17.1-5.29-20.76-13.68h-6.45c4.63,9.19,13.72,15.16,27.22,15.16s22.53-5.97,27.14-15.16h-6.42Z"/>
        </g>
      </g>
    </g>
  </g>
</svg>