<?xml version="1.0" encoding="UTF-8"?>
<svg id="Camada_2" data-name="Camada 2" xmlns="http://www.w3.org/2000/svg" viewBox="0 0 512.12 607">
  <defs>
    <style>
      .cls-1 {
        fill: #1a375f;
      }

      .cls-2 {
        fill: #fafcfd;
      }
    </style>
  </defs>
  <g id="Camada_1-2" data-name="Camada 1">
    <g>
      <path class="cls-2" d="M377.3,403.57c-2.33,0-4.89-.38-7.41-1.1l-.12-.03-.12-.04c-9.07-2.89-15.38-10.91-15.69-19.96-.09-2.56.37-5.32,1.34-7.98l.08-.22.63-1.48.44-.62c.17-.26.45-.74.84-1.39.26-.44.56-.94.9-1.49,1.14-1.93,2.68-4.49,4.35-7.27l.03-.05c.7-1.15,1.42-2.34,2.14-3.53l1.19-1.96c.74-1.23,1.65-2.76,2.69-4.41,8.52-13.46,11.55-15.35,13.01-16.27l.23-.15.68-.36.21-.1c3.58-1.68,7.51-2.57,11.37-2.57,2.68,0,5.3.42,7.78,1.24,4.15,1.37,7.71,3.81,10.31,7.06l19.91,23.06c3.21,3.51,4.99,8.04,5.17,13.12.25,7.46-3.48,14.48-9.76,18.44-3.45,2.44-7.76,3.82-12.5,3.98-.29,0-.57.01-.86.01-6.36,0-12.47-2.41-16.95-6.63-3.96,6.39-11.04,10.4-19.19,10.69-.25,0-.48.01-.72.01Z"/>
      <path class="cls-2" d="M477.06,511.7c1.87-3.72,3.2-8.16,3.03-13.32-.3-8.5-4.51-16.37-11.88-22.18l-.37-.29-.39-.27c-5.19-3.5-11.28-5.43-17.66-5.59,3.85-3.66,7.87-8.4,11-14.77,5.2-10.58,6.8-20.92,4.74-30.72-2.87-13.72-12.82-25.34-28.12-32.94,2.81-4.29,4.31-9.41,4.13-14.69,1.43.07,2.84.11,4.24.11.92,0,1.85-.02,2.75-.05,5.56-.19,10.42-.95,15.32-1.78l.21-.03.21-.04c12.73-2.58,23.84-7.66,32.15-14.7l.07-.06c13.44-11.56,15.91-24.09,15.62-32.58-.24-6.94-2.11-13.41-5.86-20.34-3.78-7.05-9.34-14-17.24-21.51,4.9-1.6,9.36-4.36,12.97-8.07,5.58-5.74,8.51-13.08,8.24-20.67l-.07-2.09-.06-.51c-2.61-22.54-15.37-39.17-35.37-46.49,8.45-5.55,13.83-14.72,13.64-24.84l-1.81-111.65-.34-2.73c-1.52-11.26-9.56-20.14-20.43-23.6.83-2.71,1.19-5.57,1-8.5l-.64-9.06-.15-1.1c-1.69-12.57-12.72-21.7-26.22-21.7-.99,0-1.99.05-2.99.15h-.14s-1.24.18-1.24.18c-14.16,1.91-24.59,13.8-23.76,27.09l.63,9.05.15,1.1c1.14,8.48,6.53,15.4,14.09,19.07-.46.98-.86,1.98-1.21,3.02-.65-.52-1.32-1.02-2.02-1.49-17.53-12.04-34.44-18.14-50.25-18.14-17.1,0-32.62,7.27-44.89,21.03l-.08.09c-6.42,7.36-11.49,16.65-14.98,27.17-4.57-8.61-10.2-16.18-16.79-22.55l-6.38-6.16-2.96,3.2c-1.35,1.46-3.22,2.33-5.01,2.33-1.52,0-2.94-.51-4.1-1.48l-3.37-2.82-2.72,3.45c-1.34,1.7-3.39,2.75-5.36,2.75-3.17,0-5.85-2.32-6.52-5.65l-1.09-5.4-4.95,2.41c-.91.44-1.87.68-2.79.68-3.63,0-6.49-2.95-6.67-6.86-.03-.58.05-1.17.24-1.75l2.08-6.62-12.04,1.99c-14.63,2.41-27.08,8.26-36.99,17.38-2.13,1.96-4.11,4.05-5.95,6.26-.68-4.61-1.61-9.48-2.97-14.44-4.32-15.74-11.93-28.63-22.62-38.29C150.97,7.94,131.67.66,108.77.03c-.77-.02-1.59-.03-2.45-.03-3.68,0-7.47.2-8.95.32-11.94.86-23.67,3.42-34.87,7.61l-.1.04c-4.17,1.68-11.88,5.83-16.58,14.71-2.17,4.1-3.38,8.58-3.59,13.32v.33s1.3,90.85,1.3,90.85l2.81,80.99c.13,3.68.94,7.18,2.31,10.36-.98-.18-1.97-.32-2.97-.41l-.43-.05c-1.03-.12-2.43-.28-4.11-.28-.79,0-1.57.03-2.37.11-14.55,1.32-26.67,12.24-28.81,25.97-1.52,9.77-7.88,92.82-9.48,116.03l-.43,6.54v.15c-.07,1.13-.06,2.22.04,3.3,1.35,14.93,14.09,26.32,30.31,27.08l.99.04.2-.02c.46.03.99.06,1.6.06s1.23-.03,1.83-.08c14.71-1.33,26.79-12.3,28.77-26.09.09-.5.19-1.09.34-2.01,4.88-30.51,11.75-54.84,19.28-68.78.68,19.31-.85,42.11-1.57,52.79l-.03.4,1.16,17.53.23.59c1.16,3.8,2.99,7.16,5.45,10,.35.41,8.83,9.99,24.45,10.02h.06c1.48,0,2.9-.13,2.95-.14,2.93-.26,5.37-.99,7.15-1.52l.41-.13c4.84-1.59,9.12-4.18,12.58-7.52,5.29,8.19,14.51,13.83,25.26,14.55h.1s.58.03.58.03h2.07c10.37,0,19.56-4.42,25.45-11.44l7.3,156.08.02.29c.55,7.85,4.22,15.04,10.35,20.25,5.79,4.92,13.3,7.63,21.16,7.63.4,0,.8,0,1.19-.02,8.17-.28,15.81-3.51,21.52-9.08,6.02-5.88,9.18-13.63,8.9-21.83,0,0-.25-6.24-.37-9.37,3.58,3.61,7.2,7.17,10.84,10.63,28.13,26.8,44.16,40.62,64.79,51.64,18.96,10.14,40.27,15.5,61.63,15.51h0c38.35,0,73.34-16.93,96.01-46.46,10.26-13.41,9.36-30.5-2.2-41.58-3.73-3.54-8.53-6.05-13.78-7.27ZM346.27,284.46c-.35,0-.7,0-1.05.02h-.12c-2.57.14-5.07.7-7.43,1.66-1.1-.36-2.23-.64-3.37-.83,2.95-1.57,5.63-3.44,8.01-5.58,1.88,1.32,3.54,2.93,4.92,4.76-.32-.01-.64-.02-.96-.02Z"/>
      <path class="cls-1" d="M48.22,121.76l.16,4.54c-.09-.65-.14-1.32-.14-1.99l-.04-2.55h.02Z"/>
      <path class="cls-1" d="M461.58,511.77c3.03-3.52,5.91-7.7,5.72-12.95-.16-4.69-2.62-9.11-7.01-12.57-3.51-2.37-7.73-3.56-12.16-3.4-6.08.21-10.39,3.02-13.62,5.19-7.24,4.85-6.36,7.72-13.68,13.53-3.86,3.06-8.8,6.98-16.07,7.86-2.02.24-10.41,1.25-17.17-4.24-7.05-5.73-7.86-14.89-8.14-18.15-.15-1.75-.13-3.2-.07-4.18,2.26.11,4.47.2,6.84.11,17.59-.61,35.12-6.69,48.11-16.67,5.69-4.38,11.09-8.75,14.99-16.67,1.39-2.83,5.89-12,3.7-22.45-3.35-16.01-19.99-23.56-23.24-25.04-21.62-9.82-47.05-.65-62.11,11.52-16.14,13.04-21.35,30.09-23.36,37-1.16,3.98-14.44,52.3,16.98,78.36,22.23,18.44,51.05,12.63,56.05,11.62,0,0,23.48-4.74,44.26-28.87ZM395.41,436.37c3.06-3.02,6.72-4.67,10.58-4.8,2.37-.08,4.9.42,7.4,1.46,1.07.48,1.74.86,2.15,1.1-.11.19-.22.43-.38.65l-.16.26c-.59,1.12-2.02,3.33-5,5.55-3.82,2.76-11.72,7.28-23.19,8.2,2.56-5.32,5.38-9.39,8.58-12.41Z"/>
      <path class="cls-1" d="M303.92,103.51c-4.35-9.37-9.96-17.3-16.5-23.61-.94.55-2.01,1-3.24,1.29-4.7,1.14-8.42-.54-10.76-3.41-1.26,2.48-3.54,4.5-7.06,5.35-7.12,1.73-11.98-3.01-13.24-8.55-.8.41-1.66.77-2.65,1-8.67,2.1-14-5.38-13.53-12.23l-.18.03c-24.37,4.02-41.05,19.36-46.99,43.22-2.26,9.18-2.86,19.48-1.71,29.89l.51,3.59c1.34,9.46,3.65,18,6.88,25.42,11.61,26.87,33.24,41.62,57.68,39.46,2.44-.09,4.81-.49,6.71-.8,25.19-4.15,42.28-18.49,49.41-41.52,2.92-9.33,3.85-19.73,2.73-30.18l-.43-3.05c-1.25-8.88-3.83-17.59-7.62-25.91ZM268.27,137.12c1.17,8.33,1,15.91-.49,20.43-1.18,4.26-4.61,11.67-14.28,13.26l-1.03.17c-8.2.71-18.44-18.17-21.46-39.58-2.24-15.89.13-32.71,10.33-34.39,13.74-1.58,23.95,18.99,26.93,40.1Z"/>
      <path class="cls-1" d="M426.93,166.98c0,4.38-1.73,8.49-4.87,11.61-16.45,16.4-32.67,24.72-48.19,24.69-10.18-.02-19.96-3.67-28.33-10.55-14.11-10.95-23.65-32.95-24.84-57.38-.27-2.18-.27-4.76-.27-7.03.03-21.69,6.33-41.3,17.27-53.83,19.47-21.84,46.8-22.52,78.37-.83,4.54,3.05,7.36,8.13,7.35,13.28,0,3.62-1.38,7.19-4.12,10.57-3.79,4.12-9.17,6.41-14.83,6.4-4.38,0-8.09-1.15-11.31-3.52-7.6-5.39-14.04-8.16-19.12-8.17-3.02,0-5.22.97-7.13,3.1-5.6,6.79-8.87,18.98-8.89,33.34v4.99c.8,15.26,5.65,28.63,12.35,33.91.97.79,2.13,1.16,3.55,1.17,3.48,0,9.86-2.21,20.52-12.84,3.48-3.47,8.4-5.39,13.83-5.38,4.62,0,8.93,1.43,12.47,4.1,3.98,3.07,6.18,7.46,6.17,12.37Z"/>
      <path class="cls-1" d="M473.51,70.6l.23,1.91,1.8,110.97c.16,8.47-6.95,15.84-16.51,17.13l-1.63.22c-9.99.38-17.91-5.64-19.08-14.31l-.2-1.64-1.49-110.73c-.22-8.77,6.7-16.09,16.45-17.4l1.66-.22c9.67-.34,17.64,5.72,18.77,14.07Z"/>
      <path class="cls-1" d="M78.77,222.93c-1.62,0-3.29-.06-4.94-.15-8.1-.45-14.42-6.93-14.7-15.06l-2.82-81.28c-.09-.7-.14-1.41-.14-2.13l-.06-3.6-.52-14.92h.32s-.9-69.38-.9-69.38c.18-6.75,4.44-12.8,10.94-15.73v-.39s1.02-.38,1.02-.38c10.06-3.77,20.6-6.07,31.32-6.83.34-.04,4.13-.28,8.02-.28.7,0,1.41,0,2.11.03,19.76.55,36.29,6.71,49.14,18.33,20.41,18.45,22.15,46.36,23.19,63.04,2.49,40.39-7.98,72.86-31.13,96.54-20.59,21.06-44.99,32.19-70.57,32.19h-.29ZM98.48,188.52c6.66-3.38,13.88-8.88,22-16.76.06-.06,6.41-6.25,11.13-13.09,13.72-19.88,15.15-56.41,8.61-80.24-3.69-13.46-9.76-22.72-17.09-26.1-8.22-3.78-15.81-4.2-16.35-4.23-4.61.05-9.53.74-14.63,2.05l6.33,138.36Z"/>
      <path class="cls-1" d="M488.13,350.67c-6.65,5.64-15.77,9.76-26.42,11.92-4.5.76-8.86,1.44-13.64,1.61-5.75.2-11.11-.4-14.58-.93-1.94-.26-3.82-.58-5.63-.98l-17.31-20.05c-3.16-3.97-7.83-6.53-13.13-7.29-.03-.28-.06-.55-.09-.84l-.03-.95c-.32-9.06,7.22-16.66,17.15-17.33l.62-.02c9.39-.33,17.6,5.61,19.23,13.54,1.24.21,2.99.5,4.95.9,2.47.17,5.07.33,7.37.26,2.67-.09,5.11-.46,7.47-.79,2.9-.68,5.19-1.46,6.74-2.28-5.16-8.34-19.86-19.27-29.7-26.61-4.57-3.25-7.74-5.74-8.89-6.67-13.22-10.52-20.15-22.05-20.57-34.28-.14-3.99.53-8.12,1.94-12.28,3.85-10.79,12.75-19.82,25.06-25.45,6.79-3.11,14.2-4.83,22.06-5.1,5.28-.18,10.2.35,14.58,1.56,18.38,4.65,29.77,17.98,32.03,37.48l.06,1.58c.29,8.41-7.13,16.05-16.54,17l-1.25.04c-9.85.35-18.22-5.96-19.45-14.69-.43-3.63-1.7-8.13-5.4-9.21-1.15-.24-2.22-.36-3.15-.33-2.18.08-4.29.64-6.12,1.63-3.27,1.39-5.43,3.32-6.17,5.37-.11.26-.1.61-.09.82.04,1.07.71,4.99,7.81,10.4l1.45,1.07c2.29,1.68,4.43,3.28,6.61,5.08l1.33,1c13.73,10.38,30.82,23.3,38.51,37.68,2.78,5.12,4.17,9.81,4.34,14.73.29,8.27-3.47,15.81-11.17,22.43Z"/>
      <path class="cls-2" d="M304.56,303.67c-5.77,0-10.51-4.51-10.81-10.27-.15-2.88.84-5.66,2.77-7.8,1.94-2.15,4.6-3.41,7.48-3.56.18,0,.37-.01.55-.01,5.77,0,10.51,4.51,10.81,10.27.15,2.88-.84,5.66-2.77,7.8-1.94,2.15-4.6,3.41-7.48,3.56-.18,0-.37.01-.55.01h0Z"/>
      <path class="cls-2" d="M321.59,297.68c-5.77,0-10.51-4.51-10.81-10.27-.15-2.88.84-5.66,2.77-7.8,1.94-2.15,4.6-3.41,7.48-3.56.18,0,.37-.01.55-.01,5.77,0,10.51,4.51,10.81,10.27.15,2.88-.84,5.66-2.77,7.8-1.94,2.15-4.6,3.41-7.48,3.56-.18,0-.37.01-.55.01h0Z"/>
      <path class="cls-2" d="M331.36,303.02c-5.77,0-10.51-4.51-10.81-10.27-.15-2.88.84-5.66,2.78-7.8,1.94-2.15,4.59-3.41,7.48-3.56.19,0,.37-.01.56-.01,5.77,0,10.51,4.51,10.81,10.27.3,5.96-4.3,11.06-10.26,11.36-.18,0-.37.01-.55.01h0Z"/>
      <path class="cls-2" d="M312.39,286.72c-5.77,0-10.51-4.51-10.81-10.27-.15-2.88.84-5.66,2.77-7.8,1.94-2.15,4.59-3.41,7.48-3.56.19,0,.37-.01.56-.01,5.77,0,10.51,4.51,10.81,10.27.3,5.96-4.3,11.06-10.26,11.36-.19,0-.37.01-.56.01h0Z"/>
      <path class="cls-2" d="M354.93,301.1c-6.08,0-11.09-4.76-11.4-10.83-.16-3.04.88-5.97,2.93-8.23,2.04-2.26,4.84-3.59,7.89-3.75.2,0,.39-.01.59-.01,6.08,0,11.08,4.76,11.4,10.83.32,6.29-4.53,11.66-10.82,11.98-.19,0-.39.01-.58.01h0Z"/>
      <path class="cls-2" d="M335.24,291.98c-6.08,0-11.09-4.76-11.4-10.83-.16-3.04.88-5.96,2.93-8.23,2.04-2.26,4.85-3.6,7.89-3.75.19,0,.39-.01.58-.01,6.08,0,11.08,4.76,11.4,10.83.32,6.29-4.53,11.66-10.81,11.98-.2,0-.39.01-.59.01Z"/>
      <path class="cls-2" d="M310.91,296.48c-5.44,0-9.92-4.26-10.2-9.69-.28-5.63,4.06-10.44,9.68-10.73.18,0,.35-.01.53-.01,5.44,0,9.92,4.26,10.2,9.69.28,5.63-4.06,10.44-9.68,10.73-.18,0-.35.01-.53.01Z"/>
      <path class="cls-2" d="M342.25,282.46c-5.44,0-9.92-4.26-10.2-9.69-.29-5.63,4.06-10.44,9.69-10.73.17,0,.35-.01.52-.01,5.44,0,9.92,4.26,10.2,9.69.28,5.63-4.06,10.44-9.69,10.73-.17,0-.35.01-.52.01h0Z"/>
      <path class="cls-2" d="M343.36,304.1c-5.45,0-9.93-4.26-10.2-9.7-.14-2.72.79-5.34,2.62-7.36,1.83-2.03,4.34-3.22,7.07-3.36.17,0,.35-.01.52-.01,5.44,0,9.92,4.26,10.2,9.69.29,5.63-4.05,10.44-9.68,10.73-.18,0-.35.01-.53.01Z"/>
      <path class="cls-2" d="M352.32,288.26c-5.45,0-9.93-4.26-10.2-9.7-.14-2.72.79-5.34,2.62-7.36,1.83-2.03,4.34-3.22,7.06-3.36.18,0,.35-.01.53-.01,5.44,0,9.92,4.26,10.2,9.69.14,2.73-.79,5.34-2.62,7.37-1.83,2.03-4.34,3.22-7.06,3.36-.17,0-.35.01-.52.01Z"/>
      <path class="cls-2" d="M346.47,294.93c-5.44,0-9.92-4.26-10.2-9.69-.14-2.73.79-5.35,2.62-7.37,1.83-2.02,4.34-3.22,7.06-3.36.18,0,.35-.01.53-.01,5.45,0,9.93,4.26,10.2,9.7.14,2.72-.79,5.34-2.62,7.36-1.83,2.03-4.34,3.22-7.07,3.36-.17,0-.35.01-.52.01Z"/>
      <path class="cls-2" d="M322.08,286.42c-5.44,0-9.92-4.26-10.2-9.69-.28-5.63,4.06-10.44,9.69-10.73.17,0,.35-.01.52-.01,5.44,0,9.92,4.26,10.2,9.69.28,5.63-4.06,10.44-9.68,10.73-.18,0-.35.01-.53.01Z"/>
      <path class="cls-2" d="M318.24,277.4c-5.44,0-9.92-4.26-10.2-9.69-.29-5.63,4.06-10.44,9.69-10.73.17,0,.35-.01.52-.01,5.44,0,9.92,4.26,10.2,9.69.29,5.63-4.06,10.44-9.68,10.73-.18,0-.35.01-.53.01Z"/>
      <path class="cls-1" d="M390.32,281.26c-5.42-31.52-26.09-52.81-54.02-55.48l-.34-.02c-24.53-2.16-44.64,8.6-56.61,30.25-4.59,8.33-7.89,18.17-9.52,28.52l-.45,3.63c-1.16,9.48-1.19,18.33,0,26.33,4.14,28.89,21.18,48.56,45.37,52.54,2.33.5,4.72.71,6.67.87,21.24,1.85,38.87-4.61,51.63-18.8,2.46-2.74,4.74-5.76,6.83-9.07.03-.04.05-.08.08-.12,5.22-8.32,8.89-18.15,10.52-28.57l.39-3.06c1.1-8.91.93-18.01-.55-27.01ZM319.22,257.99c.35-1.34,1.62-3,3.8-3.35,2.85-.46,4.7,1.71,4.78,1.8.37.44.57.89.68,1.19.26-.82.71-1.39,1.02-1.71,1.33-1.38,3.79-2.12,5.64-1.4.69.26,1.13.63,1.31.81,1.14,1.02,1.31,2.32,1.4,2.91.24,1.86-.68,3.96-1.69,5.64-1.02,1.68-2.11,2.91-2.29,3.11-1.24,1.39-3.48,3.49-7.05,5.31-.11-1.13-.44-2.84-1.53-4.59-.99-1.6-2.11-2.4-3.19-3.4-.79-.74-1.55-1.56-2.19-2.9-.51-1.04-1.03-2.12-.67-3.43ZM296.29,295.23c-.1,0-.18.05-.27.07.22-3.94,1.12-7.72,2.58-11.21.5.96,1.54,1.6,2.7,1.54,1.59-.08,2.81-1.44,2.73-3.03-.08-1.59-1.44-2.81-3.03-2.73-.12,0-.23.03-.34.05,4.17-7.06,10.81-12.53,18.8-15.15.37.45.76.84,1.11,1.17.24.23.48.43.74.66.79.7,1.48,1.29,2.08,2.27.67,1.09,1.08,2.29,1.22,3.65l.32,3.2,2.87-1.46c3.02-1.53,5.61-3.48,7.7-5.8.15-.16,1.38-1.56,2.52-3.45.2-.29.36-.6.52-.89,12.35,3.14,22.13,13.02,24.92,25.68-.41.44-.66,1.04-.62,1.69.04.82.52,1.52,1.2,1.89.08.7.15,1.39.19,2.09.03.42.05.81.05,1.21-1-.26-2.05-.37-3.07-.32-1.68.09-3.34.59-4.79,1.45l-3.25,1.98-.5-.4c-1.95-1.5-4.4-2.26-6.87-2.15-1.82.1-3.61.68-5.14,1.69l-2.56,1.71-2.23-1.35c-1.79-1.1-3.83-1.62-5.92-1.51-1.77.1-3.5.64-4.99,1.58l-2.11,1.35-2.48-1.27c-1-.5-2.06-.82-3.16-.99.55-.44.88-1.13.84-1.89-.07-1.27-1.15-2.24-2.41-2.18-1.27.06-2.24,1.14-2.18,2.41.03.65.34,1.22.79,1.62-1.33.18-2.63.61-3.79,1.27l-2.77,1.61-2.21-1.06c-1.56-.76-3.3-1.11-5.02-1.03-1.54.08-3.05.5-4.4,1.24-.05-.48-.08-.98-.1-1.47,0-.15,0-.31,0-.46.16.04.32.08.49.07.93-.05,1.65-.84,1.6-1.77-.05-.93-.84-1.65-1.77-1.6ZM308.29,333.72l-15.99-27.78,4.26-3.01.73-.52c1.76-1.24,4.03-1.42,5.95-.48l2.2,1.06c.39.19.79.32,1.21.37l11.76,29.83-10.11.53ZM321.09,333.05l-11.84-30.04c.12-.06.23-.11.34-.17l2.8-1.61c1.72-1,3.83-1.04,5.6-.15l2.48,1.28c.42.23.87.37,1.34.44l3.96,30.02-4.69.24ZM334.37,332.38l-6.04.31-3.99-30.23c.17-.08.35-.17.53-.29l2.14-1.35c1.9-1.19,4.3-1.21,6.2-.03l2.22,1.35c.44.27.9.45,1.4.55l-2.47,29.7ZM336.97,332.24l2.47-29.78c.26-.09.52-.24.76-.4l2.59-1.71c2.11-1.39,4.84-1.28,6.83.26l.5.39c.63.5,1.37.79,2.12.88l-9.32,30.07-5.95.29ZM354.67,331.33l-9.03.47,9.45-30.49s.01-.02.01-.02l3.29-1.96c1.66-.99,3.64-1.08,5.33-.35.48.21.93.48,1.35.8l2.85,2.27-13.25,29.28Z"/>
      <path class="cls-1" d="M302.27,292.97c.06,1.27,1.14,2.24,2.41,2.17,1.27-.06,2.24-1.14,2.17-2.41-.06-1.27-1.14-2.24-2.41-2.17-1.27.06-2.24,1.14-2.17,2.41Z"/>
      <path class="cls-1" d="M319.3,286.98c.06,1.27,1.14,2.24,2.41,2.17,1.27-.06,2.24-1.14,2.17-2.41-.06-1.27-1.14-2.24-2.41-2.17-1.27.06-2.24,1.14-2.17,2.41Z"/>
      <path class="cls-1" d="M331.48,294.49c1.27-.06,2.24-1.14,2.17-2.41s-1.14-2.24-2.41-2.17c-1.27.06-2.24,1.14-2.17,2.41.06,1.27,1.14,2.24,2.41,2.17Z"/>
      <path class="cls-1" d="M312.51,278.19c1.27-.06,2.24-1.14,2.17-2.41-.06-1.27-1.14-2.24-2.41-2.17-1.27.06-2.24,1.14-2.17,2.41.06,1.27,1.14,2.24,2.41,2.17Z"/>
      <path class="cls-1" d="M352.05,289.83c.08,1.59,1.44,2.81,3.03,2.73,1.59-.08,2.81-1.44,2.73-3.03-.08-1.59-1.44-2.81-3.03-2.73-1.59.08-2.81,1.44-2.73,3.03Z"/>
      <path class="cls-1" d="M335.39,283.45c1.59-.08,2.81-1.44,2.73-3.03-.08-1.59-1.44-2.81-3.03-2.73-1.59.08-2.81,1.44-2.73,3.03.08,1.59,1.44,2.81,3.03,2.73Z"/>
      <path class="cls-1" d="M310.99,287.95c.93-.05,1.65-.84,1.6-1.77-.05-.93-.84-1.65-1.77-1.6s-1.65.84-1.6,1.77c.05.93.84,1.65,1.77,1.6Z"/>
      <path class="cls-1" d="M342.34,273.93c.93-.05,1.65-.84,1.6-1.77-.05-.93-.84-1.65-1.77-1.6-.93.05-1.65.84-1.6,1.77.05.93.84,1.65,1.77,1.6Z"/>
      <path class="cls-1" d="M341.68,293.97c.05.93.84,1.65,1.77,1.6.93-.05,1.65-.84,1.6-1.77s-.84-1.65-1.77-1.6-1.65.84-1.6,1.77Z"/>
      <path class="cls-1" d="M352.41,279.73c.93-.05,1.65-.84,1.6-1.77s-.84-1.65-1.77-1.6c-.93.05-1.65.84-1.6,1.77.05.93.84,1.65,1.77,1.6Z"/>
      <path class="cls-1" d="M346.55,286.39c.93-.05,1.65-.84,1.6-1.77-.05-.93-.84-1.65-1.77-1.6-.93.05-1.65.84-1.6,1.77s.84,1.65,1.77,1.6Z"/>
      <path class="cls-1" d="M322.17,277.89c.93-.05,1.65-.84,1.6-1.77-.05-.93-.84-1.65-1.77-1.6s-1.65.84-1.6,1.77c.05.93.84,1.65,1.77,1.6Z"/>
      <path class="cls-1" d="M318.32,268.86c.93-.05,1.65-.84,1.6-1.77-.05-.93-.84-1.65-1.77-1.6-.93.05-1.65.84-1.6,1.77.05.93.84,1.65,1.77,1.6Z"/>
      <path class="cls-1" d="M33.17,384.26c-.39,0-.75-.03-1.07-.05-.22-.02-.45-.03-.63-.03-.04,0-.09,0-.13,0l-.21.02h-.19c-9.73-.46-17.35-6.96-18.12-15.46-.06-.71,0-1.28.04-1.7.03-.27.04-.42.03-.53l-.02-.23.37-5.54c1.66-24.12,7.94-105.84,9.35-114.9,1.25-8.01,8.53-14.4,17.32-15.2.41-.04.81-.05,1.22-.05.95,0,1.83.1,2.67.19l.58.06c9,.79,15.82,7.19,16.58,15.56.06.69.15,1.63.09,2.69,10.45-9.68,20.67-15.03,30.44-15.92,1-.09,2.01-.14,2.99-.14,5.92,0,11.45,1.62,16.44,4.81,12.09,7.31,19.32,25.77,22.1,56.42,2.44,26.89.45,55.25-.2,64.56l-.22,3.1h-.03c-.45,6.9-5.51,13.11-12.92,15.54l-.06.02c-1.48.44-3.01.89-4.67,1.04-.61.06-1.23.08-1.85.08-7.97,0-15.15-4.64-17.86-11.54l-.03-.09-.04-.12c-.1-.35-.2-.64-.28-.91l2.02-.69-2.03.65c-.28-.87-.57-1.77-.67-2.91-.12-1.28-.04-2.49.05-3.89.02-.4.05-.82.07-1.26.06-1.07.16-2.46.27-4.14.87-12.96,2.9-43.23.94-64.94-.85-9.39-2.56-16.6-4.71-20.13-2.34,2.91-6.72,8.52-13.22,16.84-10.62,13.59-19.89,42.48-26.11,81.33-.17,1.09-.26,1.6-.33,1.95-1.01,8.01-8.42,14.63-17.29,15.44-.22.02-.44.03-.67.03Z"/>
      <path class="cls-1" d="M260.85,311.16c0,20.05-2.04,38.05-2.84,44.36-4.97-.56-10.11-.84-15.39-.84-.29,0-.58,0-.85,0-1.48,0-3,.03-4.52.08-6.8.24-13.11.8-19.24,1.72v-1.18l.1-.1c.32-6.66,1.03-44.34,1.03-67.02,0-5.52-.08-9.28-.16-11.55-24.76,16.95-30.33,43.49-33.58,67.12-.3,9.01-.87,17.14-1.71,24.16-.7,9.11-9.05,16.01-19.42,16.01h-1.9c-9.98-.67-17.76-8.12-18.1-17.34v-2.09c0-2.3.12-10.64,1.71-21.81.31-11.08.56-21.14.56-32.08,0-44.28-2.35-93.36-3.07-107.35-.03-.64-.05-.98-.05-1v-.57c0-2.12.42-4.15,1.19-6.05,1.71-4.23,5.16-7.76,9.61-9.87,2.46-1.17,5.22-1.91,8.17-2.09h.12s.63,0,.63,0c10.36,0,19.33,7.6,20,16.95v.11s0,.03,0,.03c0,.12.02.49.05,1.1.84,17.98,1.55,37.05,2.04,55.27,6.13-5.98,13.15-11.36,20.91-16.01l.14-.09.15-.07c6.96-3.19,13.4-4.81,19.11-4.81,13.41,0,23.17,8.61,28.99,25.6,4.2,12.26,6.33,28.89,6.33,49.44Z"/>
      <path class="cls-1" d="M422.77,388.41c-2.1,1.56-4.88,2.44-8.06,2.55-4.57.16-9.11-1.63-12.14-4.78l-6.7-7.89c-2.26,3.65-4.4,7.12-4.87,8.06l-.11.21c-2.12,5.02-7.16,8.26-13.17,8.47-1.67.06-3.6-.23-5.48-.76-5.66-1.8-9.56-6.65-9.75-12.12-.05-1.44.24-3.14.83-4.76l.19-.45c.2-.29.93-1.51,2-3.29,1.14-1.92,2.67-4.48,4.34-7.25,1.1-1.8,2.24-3.7,3.36-5.55.72-1.21,1.6-2.68,2.59-4.24,3.45-5.46,8.07-12.18,10.32-13.59l.23-.12c4.33-2.03,8.96-2.24,12.85-.96,2.57.85,4.81,2.35,6.41,4.4l10.43,12.08,9.69,11.22c1.88,2.02,2.9,4.66,3.01,7.74.15,4.52-2.14,8.73-5.98,11.05Z"/>
      <path class="cls-1" d="M422.77,388.41c-2.1,1.56-4.88,2.44-8.06,2.55-4.57.16-9.11-1.63-12.14-4.78l-6.7-7.89c-2.26,3.65-4.4,7.12-4.87,8.06l-.11.21c-2.12,5.02-7.16,8.26-13.17,8.47-1.67.06-3.6-.23-5.48-.76-5.66-1.8-9.56-6.65-9.75-12.12-.05-1.44.24-3.14.83-4.76l.19-.45c.2-.29.93-1.51,2-3.29,1.14-1.92,2.67-4.48,4.34-7.25,1.1-1.8,2.24-3.7,3.36-5.55.72-1.21,1.6-2.68,2.59-4.24,3.45-5.46,8.07-12.18,10.32-13.59l.23-.12c4.33-2.03,8.96-2.24,12.85-.96,2.57.85,4.81,2.35,6.41,4.4l10.43,12.08,9.69,11.22c1.88,2.02,2.9,4.66,3.01,7.74.15,4.52-2.14,8.73-5.98,11.05Z"/>
      <path class="cls-1" d="M482.03,528.24c-6.29-5.97-18.82-6.54-24.5.85-16.65,21.69-41.04,33.87-68.76,30.31-20.63-2.65-36.36-11.2-53.47-24.81-17.28-13.77-33.07-29.46-47.74-45.94-.94-1.06-1.91-2.09-2.87-3.1,8.7-3.32,21.56-9.89,31.49-22.14,8.77-10.82,13.28-23.74,13.14-37.43-.46-13.24-5.49-25.83-14.52-36.42-13.22-15.5-33.36-25.07-57.84-27.72-4.89-.53-9.96-.78-15.18-.75-1.42,0-2.85.03-4.32.08-6.49.22-12.52.76-18.38,1.63-.4.06-.79.12-1.19.18-3.23.46-6.18,1.68-8.63,3.43-4.41,3.17-7.19,8.05-7.01,13.26l7.54,161.08c.65,9.31,9.2,16.32,19.49,15.96,10.29-.35,18.39-8.27,18.07-17.66-.58-14.67-1.16-29.34-1.76-44.01,7.62,8.83,19.01,21.43,33.84,35.54,28.13,26.8,43.24,39.6,62,49.62,47.55,25.43,107.99,16.14,141.45-27.44,5.73-7.48,6.38-17.6-.85-24.53ZM246.4,458.93l-2.97.1-3.03-64.48c20.07-.26,35.83,5.23,44.59,15.56,4.14,4.82,6.53,10.82,6.74,16.89.21,6.12-1.79,11.88-5.78,16.68-7.48,9.22-21.52,14.63-39.55,15.25Z"/>
      <path class="cls-2" d="M75.41,524.28c-11.19,0-21.86-3.62-30.03-10.19-9.31-7.48-14.46-17.98-14.89-30.36-.46-13.28,3.16-24.9,10.46-33.61,6.94-8.28,16.88-13.23,27.29-13.59.42-.01.83-.02,1.24-.02,1.32,0,2.63.08,3.92.23-.42-6.34-.79-12.23-.91-15.74-.46-13.32,11.88-20.94,23.73-21.36.36-.01.73-.02,1.1-.02,6.64,0,12.38,2.52,16.61,7.29l.14.16.14.16c3.01,3.62,3.53,7.4,3.94,12.35.44,5.26.86,14.86,1.32,30.2l.07,2.36-.77,2.23c-2.07,5.97-2.99,12.89-2.72,20.57.22,6.41,1.24,12.06,3.04,16.81l1,2.64-.21,2.81c-.37,5.1-1.01,8.66-3.16,11.8l-.03.05c-6.04,8.75-14.75,14.34-39.49,15.2-.6.02-1.2.03-1.79.03h0Z"/>
      <path class="cls-2" d="M130,522.65c-10.93,0-20.49-5.32-26.9-14.97-5.34-8.04-8.4-19.1-8.85-31.98-.53-15.31,2.67-28.66,9.26-38.63,7.39-11.18,18.68-17.58,31.8-18.04.48-.02.95-.02,1.42-.02,5.21,0,10.05.99,14.42,2.96,3.24-2.01,6.92-3.12,10.78-3.26.26,0,.52-.01.77-.01,8.29,0,15.24,4.77,18.57,12.76,2.09,5,2.52,10.46,2.67,14.66.19,5.58-.16,11.29-.56,17.91l-.03.45c-.46,7.41-1.04,16.63-.69,26.71.03.71.22,2.68.57,4.07l.22.69c.34,1.03,1.06,3.19,1.16,5.87.23,6.69-3.31,12.62-9.72,16.28-3.77,2.15-8.47,3.42-13.26,3.59-.35.01-.69.02-1.03.02-5.94,0-10.28-1.86-13.29-3.99-5.01,3.1-10.32,4.71-16.15,4.91-.4.01-.78.02-1.17.02Z"/>
      <path class="cls-1" d="M104.37,415.41c-2.45-2.76-5.27-3.06-7.7-2.98-4.52.16-11.58,2.51-11.39,8.13.15,4.44.74,13.21,1.32,21.67.48,7.17.98,14.54,1.22,19.3-3.69-6.77-9.47-12.55-19.13-12.21-13.18.46-26.16,12.28-25.41,33.97.67,19.25,17.36,28.74,33.48,28.18,23.24-.81,26.9-6.06,29.4-9.67.45-.66.75-2.72.96-5.52-2.24-5.94-3.58-12.96-3.86-20.89-.33-9.45.9-17.96,3.42-25.21-1-33.21-1.65-33.96-2.32-34.76ZM86.22,494.32c-1.01.88-3.24,2.32-6.08,2.42-1.34.05-2.68-.08-3.86-.38-5.17-1.27-10.37-7.62-11.44-14.93-.37-2.49-1.19-8.29,2.22-11.14,4.05-3.38,11.8-.71,16.02,3.21,6.37,5.93,7.33,17.11,3.14,20.82Z"/>
      <path class="cls-1" d="M171.16,446.55c-.25-7.14-1.47-15.32-8.78-15.06-4.27.15-7.73,3.21-9.25,7.79-4.16-5.15-10.07-7.72-17.38-7.47-18.34.64-29.61,17.7-28.72,43.44.76,21.83,9.83,35.07,23.69,34.59,8.89-.31,14.75-6.3,19.42-11.97,1.09,6.96,3.84,11.27,11.05,11.02,5.33-.18,10.77-2.71,10.63-6.63-.03-.75-.24-1.46-.51-2.28-.11-.32-.21-.67-.34-1.04-.95-3.34-1.1-7.24-1.1-7.28-.37-10.56.2-19.82.71-27.97.4-6.48.75-12.06.57-17.14ZM140.64,488c-1.56,1.28-3.63,2.99-6.05,2.66-6.14-.82-10.18-14-8.96-24.63.3-2.71,1.57-13.86,8-15.59,5.36-1.45,10.77,4.57,11.05,4.88,7.62,8.67,4.65,25.46-4.03,32.68Z"/>
      <path class="cls-1" d="M457.52,27.78l.11.83.61,8.74c.58,8.98-6.85,17.07-16.9,18.42l-.55.07c-10.2.74-18.71-5.49-19.92-14.47l-.11-.83-.61-8.72c-.56-8.84,6.63-16.78,16.38-18.1l1.1-.15c9.97-1.01,18.68,5.21,19.88,14.2Z"/>
    </g>
  </g>
</svg>