<?xml version="1.0" encoding="UTF-8"?>
<svg id="Camada_2" data-name="Camada 2" xmlns="http://www.w3.org/2000/svg" viewBox="0 0 535.26 244.04">
  <defs>
    <style>
      .cls-1 {
        opacity: .2;
      }

      .cls-2 {
        fill: #92603d;
      }
    </style>
  </defs>
  <g id="Camada_1-2" data-name="Camada 1">
    <g>
      <g class="cls-1">
        <g>
          <path class="cls-2" d="M267.75,181.31c1.74,0,3.14-1.41,3.14-3.14s-1.41-3.14-3.14-3.14-3.14,1.41-3.14,3.14,1.41,3.14,3.14,3.14Z"/>
          <path class="cls-2" d="M267.75,169.79c1.4,0,2.53-1.13,2.53-2.53s-1.13-2.53-2.53-2.53-2.53,1.13-2.53,2.53,1.13,2.53,2.53,2.53Z"/>
          <path class="cls-2" d="M267.75,158.79c1.34,0,2.44-1.09,2.44-2.44s-1.09-2.44-2.44-2.44-2.43,1.09-2.43,2.44,1.09,2.44,2.43,2.44Z"/>
          <path class="cls-2" d="M267.98,188.28c-4.61,3.87-9.72,7.8-15.36,11.66-14.33,9.81-28.22,16.52-40.25,21.18v7.73c18.73,1.58,39.14,2.49,61.01,2.29,17.42-.16,33.87-1,49.23-2.29v-7.67c-12.01-4.39-26.33-11.15-40.91-21.74-5.08-3.7-9.65-7.46-13.73-11.16Z"/>
          <path class="cls-2" d="M308.18,61.28c2.98-1.23,5.68-2.89,7.35-5.51-31.7,2.96-62.28,3.06-94.07-.01,3.59,6.52,18.1,9.78,25.64,10.76,18.67,2.42,43.81,1.93,61.08-5.24Z"/>
          <path class="cls-2" d="M235.7,68.93c17.09,10.95,47.77,11.03,65.74-.22-20.39,5.33-44.42,6.14-65.74.22Z"/>
        </g>
        <path class="cls-2" d="M324.54,76.45c-1.54,3.71-8.97,20.55-27.17,31.74-3.59,2.21-5.18,2.88-7.33,3.79.59.45,1.32.94,2.18,1.4.88.48,1.71.82,2.43,1.08,1.62-.73,1.66-.66,3.27-1.38,0,0,.68-.34,1.34-.7,21.25-11.45,34.98-34.93,34.98-59.83V3.34c-21.34-2.22-43.12-3.34-64.73-3.34h-.71c-21.32.03-42.89,1.16-64.1,3.37-.44.04-1.01.09-1.59.13-.64.05-1.3.11-1.84.16v46.28c0,9.06,1.6,17.8,4.75,25.97.1.28.21.54.32.81,9.89,24.79,29.17,35.22,29.99,35.65,2.69,1.42,5.72,2.76,5.76,2.77l4.73,2.01c3.07,1.3,5.91,3.1,8.31,5.41l.05.05c8.13,7.89,10.13,17.97,10.72,22.87h3.27c.23-4.09,1.11-7.32,1.86-9.52,2.17-6.26,6.36-12.45,11.56-15.96,2.7,1.38,24.03,12.4,33.18,24.4,2.28,2.99,4.06,6.07,4.06,6.07,2.86,4.96,4.94,10.43,6.53,17.01,1.95,8.11,2.94,16.74,2.94,25.67v41.63l-.28.03c-20.45,2.31-41.26,3.48-61.88,3.48h-1.77c-19.81-.07-39.85-1.23-59.55-3.42l-.28-.03v-51.47c.3-8.35,2.05-16.39,5.17-23.9,7.53-18.1,21.54-27.87,27.17-31.74,2.81-1.94,5.27-3.36,6.98-4.3-.49-.37-1.11-.77-1.86-1.12-1.3-.61-2.5-.84-3.36-.94-1.68.89-4.13,2.27-6.92,4.18-3.97,2.72-22.37,15.94-29.21,40.75-1.11,4.02-2.33,9.83-2.51,17.08v57.29c21.34,2.22,43.12,3.35,64.74,3.35h.7c21.32-.03,42.89-1.17,64.1-3.37.44-.04,1.01-.09,1.59-.14.64-.05,1.3-.1,1.84-.16v-54.37c-.11-6.24-.97-15.5-4.75-25.97-1.02-2.84-2.44-6.7-5.14-11.34-.29-.49-.84-1.42-1.65-2.64-5.22-7.9-12.23-14.45-20.39-19.26l-18.21-10.72c-.58-.32-1.22-.72-1.88-1.2-.71-.52-1.32-1.04-1.84-1.52-.01,0-.02-.02-.03-.03-7.75-7.3-9.99-17.01-10.72-22.87h-3.27c-.06,1.24-.33,5.01-1.86,9.51-2.3,6.78-5.72,10.61-7.9,12.67l-.33.31c-.88.84-1.82,1.61-2.86,2.36l-.13.09-.15-.05c-2.39-.82-4.77-1.79-7.08-2.88-2.67-1.26-16.48-8.18-26.28-20.93-5.07-6.59-8.33-13.71-10.6-23.09-1.95-8.1-2.94-16.74-2.94-25.66V9.24l.28-.03c20.45-2.31,41.27-3.48,61.89-3.48h1.76c19.81.07,39.85,1.22,59.55,3.42l.28.03v43.37c-.3,8.35-2.05,16.39-5.17,23.9ZM260.08,114.98c3.37-3.56,5.68-7.22,7.27-10.32l.27-.49.28.49c3.42,5.94,6.53,9.97,9.76,12.67.28.23.56.46.84.69h-.01c-.31.25-.61.49-.92.74-4.67,3.82-7.82,8.6-9.94,13.49-.7-2.11-2.02-5.23-4.53-8.42-2.18-2.77-4.5-4.63-6.22-5.8,1.05-.9,2.13-1.91,3.2-3.05Z"/>
      </g>
      <g>
        <path class="cls-2" d="M481.85,101.32c-.78,0-1.09-.17-1.45-.51-.12-.11-.23-.22-.52-.36-.47-.24-.96-.55-.96-1.32,0-1,1.22-1.33,2.76-1.75.89-.24,2-.55,2.36-.91.21-.22.41-.42.6-.59-.27.1-.54.14-.81.14-.68,0-1.16-.48-1.16-1.16,0-2.6,7.27-12.49,11.39-12.49,2.65,0,3.59,1.77,3.59,3.29-.08,1.99-.26,2.75-1.36,4.41-.18.26-.38.57-.6.93-.91,1.45-2.29,3.63-4.55,5.34-.08.05-.2.17-.38.32-1.33,1.15-5.36,4.67-8.91,4.67ZM491.89,88.58c-.94.64-4.57,4.74-5.02,5.39-.16.21-.32.4-.47.58.19-.1.36-.17.51-.24.5-.22.82-.36,1.84-1.87.19-.24.57-.69,1.03-1.23.63-.74,1.73-2.03,2.14-2.6-.01-.01-.02-.02-.03-.04Z"/>
        <path class="cls-2" d="M481.85,100.94c-.69,0-.9-.13-1.18-.4-.13-.13-.28-.27-.62-.43-.49-.24-.74-.46-.74-.97,0-.67.94-.96,2.47-1.38,1.19-.33,2.13-.61,2.53-1.01.21-.22.41-.41.59-.58l-.39-.64c-.23.08-.45.12-.68.12-.47,0-.77-.3-.77-.77,0-2.45,7.17-12.11,11.01-12.11,2.36,0,3.2,1.5,3.2,2.91-.08,1.91-.24,2.61-1.3,4.19-.18.26-.38.58-.61.94-.9,1.42-2.25,3.57-4.46,5.24-.06.04-.17.13-.31.26l-.09.08c-1.3,1.13-5.25,4.57-8.66,4.57ZM491.67,88.26c-.98.67-4.66,4.82-5.12,5.49-.14.19-.29.37-.44.55l.47.59c.18-.1.34-.16.48-.23.59-.26.98-.48,2.01-2.01.17-.22.55-.66,1-1.19.68-.8,1.75-2.06,2.16-2.62l.18-.25-.43-.49-.31.16Z"/>
        <path class="cls-2" d="M47.18,204.45c-2.06,0-3.99-.67-5.44-1.89-.14-.12-.29-.25-.43-.39-4.44-4.26,5.57-29.75,12.2-44.14,6.09-13.26,12.47-27.38,18.96-41.98l.42-.94-.93.43c-13.55,6.3-27.57,11.83-41.66,16.45-.1.04-4.98,2.37-17.05,5.15-3.43.79-6.04,1.17-7.98,1.17-2.23,0-3.65-.48-4.47-1.52-.78-.98-1.02-2.45-.6-3.57.87-2.32,4.56-2.98,6.13-3.27l.1-.02c5.72-1.03,14.58-3.3,27.88-7.15,10.66-3.18,21.23-7,31.41-11.36,4.26-1.82,8.57-3.78,12.81-5.84l.12-.06,4.83-10.05c2.54-5.28,5.07-10.56,7.61-15.85.7-1.53,17.38-37.32,33.86-39.63,1.16-.16,2.88-.4,4.79-.4,3.82,0,6.66.99,8.43,2.94,1.49,1.63,1.91,3.62,2.16,4.81l.03.15c.88,4.06-.17,8.65-2.95,12.92-11.84,18.17-35.22,37.78-52.2,47.76l-.1.06-2.55,5.04.54.07c10.34,1.37,12.85,9.72,14.02,18.54l.07.52.48-.22c5.43-2.54,9.62-4.45,13.68-6.3,4.01-1.83,8.15-3.72,13.5-6.21l.14-.07.06-.14c3.43-8.91,14.53-27.31,26.99-27.31.84,0,1.68.09,2.5.26,3.27.69,5.17,3.48,4.71,6.94-1.69,12.81-18.6,22.44-28.86,25.5l-.16.05-.08.14c-.05.1-5.26,10.16-1.84,13.27.83.76,2.02,1.14,3.53,1.14,4.5,0,11.2-3.42,14.44-5.44,11.59-7.22,28.41-25.05,34.61-36.69.26-.75.32-1.55.37-2.32.09-1.44.18-2.8,1.34-3.64,1.04-.76,2.62-1.77,4.32-1.77.35,0,.7.05,1.04.13.57.15,1.01.38,1.34.72.84.84,1,1.78,1.15,2.69.15.85.3,1.74.99,2.45.64.66,1.58.98,2.86.98,1.06,0,2.15-.22,3.04-.39,1.71-.34,2.6-.86,3.55-1.41.84-.49,1.71-.99,3.27-1.46,1.21-.36,2.7-.8,4.04-.8.96,0,1.73.22,2.34.67,1.88,1.38,1.7,4.49,1.7,4.52-.15,2.77-2.05,4.43-4.94,6.95-1.22,1.07-2.61,2.28-4.1,3.78-4.46,4.51-6.97,8.79-8.46,11.35-3,5.09-7.82,15.3-4.81,17.84l.04.03.04.02s.22.17.42.27c.28.13.6.2.96.2,5.01,0,18.46-13.78,30.32-25.94,7.7-7.89,14.97-15.34,18.26-17.25l.11-.07c.74-.43,2.27-1.32,4.16-1.32.26,0,.52.02.77.05,2.08.28,3.75,1.63,4.36,2.47,1.9,2.59-2.21,7.86-8.04,20.58-.65,1.41-1.17,2.59-1.53,3.43.98-.97,2.42-2.41,4.12-4.19,6.48-6.76,7.26-8.46,11.43-12.82,8.13-8.5,12.13-10.96,16.28-12.34,1.63-.54,4.65-1.55,7.81-1.55,2.51,0,4.66.64,6.38,1.9,2.97,2.18,3.8,5.56,3.89,5.94.93,4.03-1.09,7.06-4.44,12.08-1.78,2.66-3.99,5.97-6.24,10.24-3.83,7.23-8.03,18.49-5.9,19.71.13.08.29.12.46.12.86,0,2.04-1.07,3.2-2.22,2.48-2.5,11.87-12.01,28.61-29.47,1.57-1.65,3.17-3.43,4.76-5.3,1.99-2.34,7.02-7.79,10.83-7.79.43,0,.84.07,1.22.21.15.05,1.4.52,1.93,1.68,1.15,2.52-2.08,6.38-3.62,8.24-.16.19-.3.36-.42.51-8.37,10.34-12.58,28.17-7.76,32.91,1.04,1.02,2.59,1.54,4.61,1.54,3.43,0,8.2-1.47,14.16-4.38,5.46-2.66,10.3-6.73,14.01-11.79l.45-.61h-.75c-6.31-.07-12.01-3.31-14.89-8.48-3.66-6.59-1.97-15.47,3.92-20.66,3.16-2.79,7.49-4.38,11.88-4.38,4.62,0,8.68,1.73,11.45,4.86,4.22,4.77,4.89,12.26,1.67,18.64l-.47.93,23.26-9.72.06-.07c2.44-3,4.43-6.54,6.36-9.97.41-.72.81-1.45,1.22-2.16l.96-1.68c7.17-12.62,14.58-25.66,25.23-35.68,3.12-2.93,11.08-9.75,17.7-9.75,1.7,0,3.21.46,4.49,1.37,1.91,1.35,3.34,4.28,3.41,6.96.38,14.52-13.6,28.45-24.15,37.67-8.75,7.64-18.64,14.18-29.4,19.43l-.1.05-.06.09c-8.52,13.33-15.25,24.68-11.37,28.53.73.72,1.75,1.07,3.14,1.07.98,0,2.14-.17,3.65-.53,18.75-4.49,35.87-22.06,39.11-25.54l.05-.05.03-.06c5.2-12.09,11.6-23.47,19.02-33.85,8.39-11.73,22.38-31.29,34.4-31.29.81,0,1.61.09,2.38.27,1.46.36,4.15,1.3,5.64,3.67.79,1.25,1.19,2.77,1.19,4.53,0,8.86-9.71,21.28-13.89,26.21-1.19,1.41-2.38,2.74-3.55,3.98-1.93,2.05-3.92,3.95-6.26,5.98-5.72,5.46-11.77,10.66-17.99,15.47-4.09,3.15-8.35,6.2-12.66,9.07-1.02.88-10.49,14.59-7.38,18.97.57.81,1.58,1.22,2.99,1.22,1.16,0,2.33-.28,3.1-.51,17.57-5.32,31.48-13.95,42.54-26.38,1.63-1.85,5.76-6.15,8.77-6.15.71,0,1.3.24,1.8.74.99.99,1.12,3.08.26,4.16-.49.59-12.03,14.54-12.7,21.46-.09.98-.29,3.2,1.04,4.95.96,1.26,2.45,2.08,4.21,2.3,1.65.21,3.39.31,5.18.31,7.26,0,14.57-1.7,21.64-3.34,6.66-1.55,12.95-3.01,18.83-3.01.81,0,1.61.03,2.37.09,4.26.33,9.32,2.36,11.85,6.1,1.32,1.95-.1,4.66-2.46,4.68-.02,0-.04,0-.06,0-1.34,0-2.99-.36-4.41-.97-3.17-1.36-6.68-2.02-10.74-2.02-2.44,0-5.02.24-7.89.74l-13.25,2.85c-3.05.53-9.07,1.43-15.08,1.43-9.03,0-14.77-1.93-17.04-5.74-1.83-3.07-1.27-6.43-.67-9.98.11-.68.23-1.37.33-2.07l.15-1.02-.78.67c-4.36,3.76-23.34,17.92-36.47,18.51-.56.02-1.23.05-1.98.05-4.14,0-6.92-.98-8.52-2.98-1.34-1.68-1.51-3.56-1.63-5.35-.23-3.39.96-6.17,1.91-8.4.58-1.35,1.16-2.41,1.58-3.12-3.55,2.91-6.53,5.13-8.48,6.55,0,0-19.12,13.9-30.3,14.25-2.96.09-5.43-.84-5.43-.84-2.85-.96-4.29-2.47-4.78-3.07-4.5-5.61-1.69-15.92,8.13-29.83l.79-1.11-23.12,9.9-.06.1c-7.64,11.82-23.51,24.37-37.86,24.37-.21,0-.43,0-.64,0-.99-.03-6.12-.36-9.79-4.31-4.62-4.97-3.67-12.48-3.01-17.03.57-3.93,1.78-6.98,2.66-8.87-2.96,3.55-5.52,6.52-7.51,8.78-5.87,6.69-8.93,9.77-10.85,11.64-.93.91-1.81,1.74-2.71,2.58-5.65,5.22-9.67,7.76-12.29,7.76-.36,0-.71-.04-1.08-.13-1.32-.33-2.54-1.12-3.61-2.36-.06-.07-6.09-7.37,2.8-24.72.08-.15.17-.32.17-.32.13-.24.28-.52.67-1.2.74-1.32,2.34-4.14,6.27-11.23,2.97-5.35,4.46-8.03,3.39-9.33-.39-.48-1.05-.72-1.96-.72-2.64,0-6.84,2.01-7.65,2.41-2.15,1.06-4.52,2.55-11.82,10.04-1.91,1.95-7.09,7.36-13.95,15.35l-.63.73c-.43.5-.69.8-1.3,1.52l-.98,1.16c-4.89,5.76-8.42,9.92-11.61,9.92-.47,0-.85-.1-.85-.1-1.28-.5-1.56-2.59-1.66-3.33-.77-5.76,11.18-29.64,10.91-29.81-.01,0-.09,0-.15.02-.11.03-.22.09-.3.18-7.24,8.11-25.4,27.84-37.73,36.04-4.21,2.81-7.53,4.12-10.42,4.12-.95,0-1.88-.15-2.75-.44-1.99-1-3.48-2.29-4.51-3.92-4.94-7.78,1.39-22.95,15.75-37.73l.97-1-1.35.36c-2.29.61-4.65.93-6.99.96h-.39c-2.13,0-4.28-.24-6.39-.73l-.24-.05-.15.19c-2.25,2.86-4.34,5.64-6.37,8.33-7.57,10.07-14.1,18.77-25.03,26.3-3.05,2.1-13.75,8.95-23.08,8.95-2.05,0-3.91-.34-5.53-1.01-6.74-2.77-5.13-9.68-3.71-15.78.11-.47.22-.94.32-1.4l.17-.77-.71.34c-4.85,2.3-8.42,3.96-11.98,5.62-3.58,1.67-7.16,3.33-12.03,5.64l-.16.08-.05.17c-2.68,10.02-6.46,19.65-11.26,28.64-1.46,2.74-6.94,12.5-16.26,23.19-7.18,8.24-12.19,11.81-18.51,13.17-.82.18-1.67.32-2.51.41-.35.04-.71.06-1.07.06ZM55.03,175.97l-3.58,8.54c-1.58,3.71-3.26,8.6-2.33,10.82.22.53.58.89,1.06,1.08.26.1.56.15.88.15,3.92,0,11.89-7.76,13.81-9.84,5.32-5.77,8.94-10.82,10.11-12.69,6.04-9.64,11.17-20.69,15.26-32.85l.25-.75-.75.27c-1.83.66-3.83,1.01-5.77,1.01-1.45,0-2.89-.19-4.28-.57-2.45-.67-4.77-1.93-6.69-3.65l-.39-.35-17.59,38.82ZM84.87,119.6c-3.32,0-7,4.61-8.76,10.97l-.02.07v.07c.09.75.3,1.41.63,2.02,1.71,3.08,6.18,3.41,8.03,3.41h.36c2.13-.04,4.21-.6,6.17-1.67l.19-.1v-.22c.08-1.28.05-2.58-.06-3.85-.2-2.3-.37-4.3-1.45-6.3-.79-1.48-2.43-4-4.58-4.35-.17-.03-.34-.04-.51-.04ZM150.7,98.5c-1.24,0-2.75.67-3.55,1.03-2.11.94-7.5,3.99-12.01,11.99-1.19,2.12-2.2,4.38-2.99,6.71l-.26.76.76-.28c2.38-.87,4.7-1.91,6.9-3.11,4.21-2.27,11.27-6.08,12.99-12.45.23-.85.84-3.11-.34-4.16-.37-.33-.87-.5-1.5-.5ZM346.5,94.31c-4.55,0-10.05,2.74-11.75,7.97-1.71,5.26,1,11.54,5.92,13.72,1.29.57,2.69.86,4.16.86,2.43,0,4.86-.83,6.68-2.28,2.82-2.26,4.47-6.28,4.3-10.49-.15-3.64-1.63-6.67-4.07-8.31-1.43-.96-3.25-1.47-5.24-1.47ZM476.88,56.38c-4.3-.16-10.22,5.32-16.72,12.58-4.09,4.57-6.57,7.75-7.29,8.73-2.07,2.81-4.11,5.71-6.07,8.64l-.05.07c-2.32,3.45-4.5,7.06-6.48,10.72-1.65,3.04-3.3,6.08-4.95,9.12,2.35-1.66,4.71-3.31,7.06-4.97,13.75-9.68,21.23-18.46,24.22-21.88,2.09-2.4,4.6-5.46,7.09-9.7.84-1.43,6.45-11.01,4.24-12.95-.32-.28-.71-.33-1.06-.34ZM432.96,51.77c-3.12,0-8.97,4.92-10.37,6.24-11.29,10.67-18.85,25.03-26.17,38.92l-1.4,2.66,1.16-.67c14.93-8.67,25.34-20.45,32.75-29.75,1.5-2.14,8.78-12.93,5.6-16.74-.36-.44-.89-.66-1.57-.66ZM130.17,45.4c-8.29,0-22.69,19.44-23.3,20.27-6.67,9.06-12.08,19.26-16.09,30.3l-.43,1.19,1.02-.75c11.26-8.25,21.57-17.27,30.66-26.81,10.73-11.26,14.3-17.49,12.33-21.51-.53-1.05-1.34-1.87-2.29-2.3-.57-.26-1.21-.39-1.9-.39Z"/>
      </g>
    </g>
  </g>
</svg>