<?xml version="1.0" encoding="UTF-8"?>
<svg id="Camada_2" data-name="Camada 2" xmlns="http://www.w3.org/2000/svg" viewBox="0 0 497.86 321.79">
  <defs>
    <style>
      .cls-1 {
        fill: #f9f7f4;
      }

      .cls-2 {
        fill: #c95127;
      }
    </style>
  </defs>
  <g id="Camada_1-2" data-name="Camada 1">
    <g>
      <path class="cls-2" d="M150.93,321.09v-28.63h4.85v28.63h-4.85ZM154.98,296.54v-4.08h12.87v4.08h-12.87ZM154.98,308.73v-4.08h12.26v4.08h-12.26Z"/>
      <path class="cls-2" d="M184.2,321.09v-28.63h4.85v28.63h-4.85Z"/>
      <path class="cls-2" d="M217.42,321.79c-2.54,0-4.69-.4-6.45-1.2-1.77-.8-3.11-1.9-4.03-3.29-.92-1.4-1.38-2.99-1.38-4.76h4.78c0,.81.23,1.61.69,2.39.46.78,1.2,1.43,2.23,1.94,1.03.51,2.41.77,4.17.77,1.59,0,2.91-.22,3.95-.67,1.04-.44,1.81-1.03,2.31-1.77.5-.73.75-1.54.75-2.43,0-1.1-.49-1.99-1.46-2.69-.97-.69-2.43-1.12-4.37-1.28l-2.95-.27c-2.72-.21-4.9-1.03-6.51-2.45-1.62-1.42-2.43-3.3-2.43-5.63,0-1.78.44-3.32,1.31-4.63s2.11-2.33,3.7-3.08c1.59-.74,3.44-1.12,5.54-1.12s4.03.37,5.63,1.12c1.59.75,2.83,1.79,3.7,3.14.88,1.35,1.31,2.95,1.31,4.8h-4.78c0-.84-.21-1.63-.63-2.37-.42-.75-1.06-1.35-1.92-1.82-.86-.47-1.97-.7-3.32-.7s-2.37.22-3.22.67c-.85.45-1.49,1.02-1.92,1.73-.43.71-.65,1.46-.65,2.27,0,.97.38,1.82,1.13,2.57.75.75,1.91,1.18,3.48,1.31l2.91.23c2.08.16,3.88.58,5.4,1.28,1.52.69,2.71,1.61,3.56,2.76.85,1.15,1.28,2.54,1.28,4.16,0,1.78-.49,3.35-1.48,4.71-.99,1.36-2.36,2.42-4.13,3.18-1.77.76-3.84,1.14-6.21,1.14Z"/>
      <path class="cls-2" d="M258.78,321.79c-2.7,0-5-.45-6.9-1.35-1.9-.9-3.44-2.09-4.61-3.57-1.17-1.48-2.04-3.07-2.59-4.78-.55-1.71-.83-3.37-.83-4.96v-.86c0-1.75.28-3.49.85-5.22.57-1.73,1.44-3.29,2.61-4.71,1.17-1.41,2.7-2.55,4.57-3.41,1.87-.86,4.09-1.29,6.66-1.29s4.98.46,6.92,1.37c1.94.92,3.49,2.19,4.63,3.82,1.15,1.64,1.83,3.56,2.04,5.78h-4.9c-.22-1.46-.72-2.69-1.52-3.67-.8-.98-1.81-1.72-3.03-2.21s-2.61-.75-4.15-.75-3,.27-4.23.82c-1.23.55-2.25,1.31-3.06,2.27-.81.97-1.42,2.1-1.84,3.39-.42,1.29-.63,2.71-.63,4.25s.21,2.84.63,4.14c.42,1.29,1.05,2.44,1.88,3.43s1.88,1.76,3.14,2.31c1.25.55,2.7.82,4.35.82,2.37,0,4.37-.57,5.99-1.71,1.62-1.14,2.6-2.76,2.95-4.88h4.94c-.27,2.01-.97,3.85-2.1,5.51-1.13,1.66-2.68,2.98-4.65,3.96-1.97.98-4.34,1.47-7.12,1.47Z"/>
      <path class="cls-2" d="M285.21,321.09l10.36-28.63h8.05l10.68,28.63h-5.02l-9.35-25.49,1.98.9h-4.9l2.1-.9-9.07,25.49h-4.85ZM291.93,313.01l1.54-4.08h12.38l1.58,4.08h-15.5Z"/>
      <path class="cls-2" d="M329.72,321.09v-28.63h4.86v28.63h-4.86ZM333.77,321.09v-4.2h13.15v4.2h-13.15Z"/>
      <path class="cls-1" d="M145.17,258.24c-2.12,0-4.54-.13-7.18-.39-2.76-.27-5.63-.92-8.51-1.95-2.87-1.02-5.72-2.52-8.47-4.46-2.72-1.92-5.18-4.54-7.31-7.8-2.15-3.28-3.92-7.43-5.26-12.34-1.35-4.92-2.06-10.94-2.11-17.9-.06-7.78.66-15.75,1.84-20.32,1.27-4.92,2.98-9.1,5.07-12.42,2.08-3.29,4.5-5.96,7.19-7.92,2.72-1.98,5.54-3.52,8.4-4.59,2.86-1.06,5.71-1.76,8.48-2.08,2.82-.32,5.36-.49,7.57-.5l16.82-.13c2.12,0,4.54.13,7.2.39,2.77.27,5.63.93,8.51,1.95,2.87,1.02,5.72,2.52,8.47,4.46,2.72,1.92,5.18,4.54,7.31,7.81,2.15,3.29,3.92,7.44,5.26,12.34,1.35,4.92,2.06,10.94,2.11,17.9.06,7.77-.66,15.75-1.84,20.32-1.27,4.93-2.98,9.11-5.07,12.42-2.08,3.29-4.5,5.96-7.19,7.92-2.72,1.98-5.55,3.53-8.4,4.59-2.86,1.07-5.72,1.76-8.48,2.08-2.8.32-5.34.49-7.57.5l-16.84.13ZM143.41,181.53c-4.61.04-8.44.85-11.36,2.41-2.94,1.57-5.28,3.75-6.95,6.46-1.64,2.67-2.76,5.82-3.32,9.36-.55,3.45-.81,7.2-.78,11.13.03,4.19.37,10.18.95,13.51.61,3.53,1.78,6.67,3.46,9.31,1.71,2.68,4.07,4.84,7.03,6.41,2.89,1.53,6.63,2.31,11.11,2.31l19.82-.15c4.62-.04,8.46-.87,11.42-2.48,2.98-1.62,5.33-3.81,6.99-6.52,1.64-2.66,2.76-5.81,3.32-9.36.55-3.44.81-9.53.78-13.52-.03-3.93-.35-7.67-.95-11.11-.62-3.53-1.78-6.67-3.46-9.31-1.71-2.69-4.09-4.83-7.1-6.36-2.92-1.49-6.67-2.24-11.14-2.24l-19.83.15Z"/>
      <path class="cls-1" d="M211.95,165.06l53.66-.4c2.06,0,4.32.09,6.74.27,2.57.19,5.2.66,7.8,1.39,2.58.73,5.13,1.82,7.56,3.26,2.39,1.41,4.53,3.37,6.36,5.81,1.85,2.47,3.37,5.55,4.52,9.16,1.16,3.63,1.76,8.11,1.8,13.32.04,4.73-.4,11.52-1.45,15.25-1,3.55-2.35,6.59-4.02,9.03-1.66,2.44-3.62,4.42-5.81,5.91-2.24,1.51-4.61,2.71-7.04,3.55-.35.12-.61.41-.7.76-.09.36,0,.73.25,1l21.66,23.65-20.27.15-19.79-22.78c-.21-.24-.51-.38-.82-.38,0,0-35.23.27-35.23.27-.29,0-.57.12-.77.33-.2.21-.32.49-.31.77l.17,22.22-13.62.1-.69-92.66ZM226.78,180.9c-.6,0-1.09.5-1.08,1.1l.25,35.41c0,.29.12.57.33.77.2.2.48.31.77.31,0,0,44.35-.34,44.35-.34,2.88-.02,5.29-.62,7.18-1.76,1.52-.93,2.61-3.17,3.57-5.14.31-.64.6-1.24.86-1.67,1.04-1.74,1.76-3.68,2.16-5.74.39-2.01.58-3.98.56-5.85-.01-1.87-.23-3.83-.65-5.84-.43-2.06-1.19-3.96-2.26-5.65-1.09-1.73-2.6-3.17-4.48-4.28-1.87-1.1-4.24-1.65-7.04-1.65l-44.51.34Z"/>
      <path class="cls-1" d="M449.21,255.93c-5,0-9.38-.52-13.02-1.54-3.77-1.05-6.98-2.44-9.54-4.12-2.53-1.66-4.59-3.62-6.11-5.81-1.55-2.23-2.76-4.52-3.59-6.78-.83-2.28-1.39-4.55-1.64-6.73-.2-1.77-.33-3.38-.39-4.81l13.68-.1c.08.66.23,1.49.44,2.49.36,1.69,1.12,3.42,2.26,5.15,1.16,1.77,2.89,3.31,5.13,4.58,2.2,1.26,5.18,1.89,8.84,1.89l27.09-.2c4.43-.03,7.45-.87,9.22-2.57,1.76-1.69,2.65-3.84,2.63-6.38-.02-2.95-1.19-5.26-3.48-6.88-2.09-1.48-4.86-2.65-8.25-3.48-3.3-.8-7.1-1.44-11.3-1.88-4.05-.43-8.35-.94-12.77-1.52-6.44-.84-9.61-1.35-12.61-2.32-3.34-1.08-13.49-4.36-18.45-13.82-2.76-5.26-2.93-10.47-2.94-11.46-.02-2.6.29-5.47.92-8.52.61-2.95,2.07-5.76,4.35-8.34,2.29-2.59,5.77-4.83,10.35-6.65,4.61-1.83,10.99-2.79,18.94-2.85l14.05-.1c5.07,0,9.49.52,13.13,1.54,3.77,1.06,6.97,2.46,9.53,4.18,2.54,1.71,4.61,3.67,6.13,5.83,1.54,2.18,2.75,4.46,3.58,6.77.83,2.32,1.38,4.59,1.64,6.74.21,1.75.34,3.38.39,4.87l-13.78.11c-.07-.67-.21-1.51-.39-2.53-.32-1.73-1.07-3.48-2.22-5.19-1.16-1.72-2.88-3.24-5.12-4.51-2.21-1.26-5.19-1.89-8.86-1.89l-27.19.21c-4.44.03-7.44.88-9.17,2.58-1.72,1.69-2.58,3.83-2.57,6.37.02,2.86,1.19,5.13,3.48,6.75,2.1,1.49,4.88,2.63,8.26,3.42,3.29.76,7.09,1.33,11.31,1.69,4.11.35,8.38.82,12.69,1.39,5.97.79,9.24,1.25,12.56,2.32,3.99,1.29,10.03,3.24,14.93,8.95,3.92,4.58,6.16,10.42,6.46,16.89.17,3.73-.52,6.63-.81,7.87l-.11.48c-.61,2.95-2.07,5.76-4.35,8.34-2.3,2.6-5.76,4.84-10.3,6.65-4.57,1.83-10.93,2.79-18.89,2.85l-14.16.11Z"/>
      <path class="cls-1" d="M0,166.67l13.63-.1.28,36.97.03,4.78c0,.3.13.59.35.8.2.19.46.29.74.29.03,0,64.87-5.28,64.87-5.28.57-.05,1.01-.52,1-1.1l-.28-36.97,13.62-.1.69,92.65-13.63.1-.29-39.23c0-.3-.13-.59-.35-.8-.2-.19-.46-.29-.74-.29-.03,0-64.87,5.28-64.87,5.28-.57.05-1.01.52-1,1.1l.26,34.46-13.62.1-.69-92.67Z"/>
      <path class="cls-2" d="M309.18,35.86c-.16,1.88-.4,3.74-.73,5.58-.79,4.44-2.01,8.8-3.66,12.99,1.88,3.31,3.75,6.6,5.64,9.92l-10.75,18.63c-1.65-6.84-4.65-13.14-8.68-18.63,1.03-1.44,2.08-3.05,3.11-4.84,1.15-2.01,2.28-4.23,3.29-6.67,5.26-12.64,4.84-24.3,4.02-30.93l-3.19-5.51-.55-.94-.39-.68-8.52-14.77h-79.7l-9.46,16.4-27.69,47.95c4.97,8.68,11.24,18.68,16.4,27.54.48-3.78,1.36-7.58,2.64-11.39l1.92-5.67c.04-.15.1-.28.16-.42-.71-1.27-2.17-3.89-2.71-4.85-.97-1.73-1.94-3.47-2.9-5.2l10.75-18.63c1.64,6.84,4.63,13.15,8.67,18.63h.01c-1.25,1.79-2.55,3.83-3.78,6.11-.95,1.74-1.86,3.63-2.71,5.66-4.99,11.97-5.09,22.96-4.56,29.61l3.8,6.58h0s1.18,2.06,1.18,2.06l8.61,14.89h0s.01.01.01.01l1.01,1.77h.58s.06.06.09.09h19.02c-.06-.03-.12-.06-.19-.09h38.01c-.06.03-.12.06-.18.09h19s.07-.06.1-.09h.57l1.03-1.77h.01s9.77-16.95,9.77-16.95h.01s27.68-47.97,27.68-47.97c-5.58-9.5-11.17-18.99-16.75-28.49ZM289.01,101.45l-9.34,16.16h-61.49l-8.01-13.86-1.33-2.29c-.31-2.04-.48-4.11-.48-6.24,0-5.5,1.1-10.75,3.1-15.55.97-2.31,2.14-4.51,3.48-6.57,9.14,7.85,21.03,12.6,33.97,12.6s24.84-4.75,33.97-12.6c4.17,6.36,6.6,13.97,6.6,22.12,0,2.13-.16,4.2-.48,6.24ZM222.64,64.36c7.09-6.06,16.26-9.71,26.28-9.71s19.21,3.65,26.3,9.71c-7.09,6.05-16.28,9.69-26.3,9.69s-19.2-3.65-26.28-9.69ZM287.51,45.97c-.89,2.78-2.1,5.45-3.56,7.94-.33.58-.67,1.15-1.04,1.71-9.14-7.86-21.01-12.61-33.98-12.61s-24.84,4.75-33.97,12.61c-4.17-6.36-6.58-13.97-6.58-22.13,0-2.11.16-4.2.48-6.24l9.34-16.16h61.49l7.43,12.87,1.91,3.29c.06.39.12.79.16,1.18.21,1.67.31,3.35.31,5.06,0,4.35-.7,8.55-1.98,12.48Z"/>
      <circle class="cls-1" cx="248.93" cy="63.25" r="3.72"/>
      <path class="cls-1" d="M347.31,258.89c-2.19,0-.01-.14-2.75-.4-2.84-.28-5.79-.95-8.76-2-2.95-1.05-5.86-2.59-8.65-4.58-2.75-1.96-5.28-4.66-7.51-8.02-2.24-3.38-4.08-7.66-5.47-12.72-1.4-5.09-2.13-11.33-2.19-18.53l-.35-46.57,13.36-.1.35,46.57c.07,9.56,2.01,17.14,5.76,22.53,3.84,5.52,9.8,8.33,17.72,8.33l19.25-.18c8.05-.06,14.06-2.96,17.85-8.6,3.67-5.45,5.49-13.06,5.42-22.62l-.35-46.57,13.36-.1.35,46.57c.06,7.2-.59,13.44-1.91,18.56-1.31,5.08-3.09,9.39-5.28,12.8-2.18,3.39-4.66,6.13-7.39,8.14-2.76,2.04-5.65,3.63-8.58,4.71-2.95,1.1-5.88,1.82-8.72,2.14-2.89.33-5.53.5-7.84.52l-17.67.13Z"/>
      <polygon class="cls-1" points="143.91 155.96 168.42 155.96 168.42 148.16 143.91 152.06 143.91 155.96"/>
    </g>
  </g>
</svg>