<?xml version="1.0" encoding="UTF-8"?>
<svg id="Camada_2" data-name="Camada 2" xmlns="http://www.w3.org/2000/svg" viewBox="0 0 683.39 452.36">
  <defs>
    <style>
      .cls-1 {
        fill: #6584aa;
      }

      .cls-2 {
        fill: #9cacc3;
        opacity: .25;
      }
    </style>
  </defs>
  <g id="Camada_1-2" data-name="Camada 1">
    <g>
      <path class="cls-2" d="M526.42,36.87c-2.43-6.55-6.8-17.88-17.98-26.33,0,0-15.02-11.9-40.62-9.86-61.95,4.94-109.85,125.52-111.04,128.51l-16.12-29.34h0C313.1,48.14,274.07,4.63,240.87.64c-22.79-2.74-40.89,4.2-40.89,4.2-5.23,2-19.82,7.81-31.57,22.54-13.17,16.51-14.8,34.2-15.87,45.85-.57,6.19-.57,12.05-.17,17.52,1.01,13.84,4.86,27.32,10.97,39.77l14.18,28.9c1.72,3.15,3.45,6.31,5.16,9.47,50.94,93.83,96.29,188.43,136.55,283.45h38.61l127.71-266.32c3.92-8.12,7.61-15.3,11.29-21.96l16.7-34.21c5.33-9.99,27.46-53.72,12.87-93ZM479.16,134.24l-4.04,9.2c-38.02,86.33-79.48,172.65-117.5,258.98-73.3-154.44-123.44-270.06-130.92-299.85-1.54-6.14-5.54-22.2,2.08-37.24.96-1.89,8.16-15.61,22.43-19.84,18.35-5.44,42.49,6.57,60.37,32.07l-.02-.05.19.29c1.32,1.89,2.6,3.85,3.84,5.88l41.49,63.53c8.93-15.13,17.86-30.25,26.79-45.38,28.1-50.09,69.21-69.29,90.78-56.35,18.98,11.21,20.92,48.21,4.5,88.74Z"/>
      <g>
        <g>
          <path class="cls-1" d="M128.35,145.28c-8.18,9.66-13.38,21.31-18.83,38.41l-39.15,123.4h-13.38l-39.15-123.4c-5.45-16.35-10.16-28.74-17.84-38.41h46.83c-1.49,3.47-2.48,9.91-2.48,17.1,0,6.44.74,13.63,2.48,20.07l25.52,88.95,26.26-88.95c1.73-6.19,2.73-13.13,2.73-19.57,0-7.43-1.24-13.88-3.47-17.59h30.48Z"/>
          <path class="cls-1" d="M232.42,264.21l.5,42.12h-94.9c5.2-14.37,6.44-27.01,6.44-40.39v-80.28c0-13.38-1.24-26.02-6.44-40.39h95.15l-.99,41.38c-11.65-20.07-24.04-31.47-56.74-32.46h-3.47c-.74,10.41-.99,21.06-.99,31.47v33.2h4.71c20.56,0,31.47-3.96,44.1-18.58v45.59c-12.64-13.38-23.54-18.09-44.1-18.09h-4.71v38.16c0,10.66.25,20.57,1.49,31.47h2.48c33.7-.25,44.6-11.89,57.49-33.2Z"/>
          <path class="cls-1" d="M362.99,145.28c-5.2,14.37-7.19,25.52-7.19,38.9v122.16h-17.59l-69.13-118.93v79.78c0,13.38,1.73,24.78,6.69,39.15h-24.53c4.96-14.37,6.94-25.77,6.94-39.15v-87.22c0-12.39-1.74-25.27-6.94-34.69h34.94c-1.24,2.48-1.98,4.96-1.98,7.19,0,4.96,2.48,9.66,6.44,16.35l54.02,94.16v-78.79c0-13.38-1.49-24.53-6.69-38.9h25.03Z"/>
          <path class="cls-1" d="M444.01,153.7v112.24c0,13.38,1.24,26.02,7.19,40.39h-40.64c5.45-14.37,6.94-27.01,6.94-40.39v-112.24c-23.79.74-32.21,9.66-43.36,37.91l.74-46.33h112l.5,46.33c-10.9-28.99-19.08-37.17-43.36-37.91Z"/>
          <path class="cls-1" d="M505.45,265.95v-80.28c0-13.38-1.24-26.02-6.69-40.39h39.64c-5.45,14.37-6.69,27.01-6.69,40.39v80.28c0,13.38,1.24,26.02,6.44,40.39h-39.4c5.45-14.37,6.69-27.01,6.69-40.39Z"/>
        </g>
        <g>
          <g>
            <path class="cls-1" d="M565.12,182.33c1.08-1.96,2.56-3.49,4.44-4.58,1.88-1.09,3.97-1.64,6.28-1.64,2.82,0,5.23.67,7.24,2,2.01,1.34,3.47,3.22,4.39,5.65h-2.96c-.72-1.71-1.82-3.04-3.3-4.01s-3.27-1.44-5.36-1.44c-1.85,0-3.52.43-5,1.3-1.48.87-2.64,2.11-3.48,3.74-.84,1.62-1.26,3.51-1.26,5.65s.42,4.02,1.26,5.63c.84,1.61,2,2.85,3.48,3.72,1.48.87,3.15,1.3,5,1.3,2.09,0,3.88-.47,5.36-1.43,1.48-.95,2.58-2.27,3.3-3.95h2.96c-.92,2.41-2.38,4.27-4.4,5.59-2.02,1.32-4.43,1.98-7.22,1.98-2.31,0-4.4-.55-6.28-1.64-1.88-1.09-3.36-2.62-4.44-4.57-1.08-1.95-1.62-4.16-1.62-6.64s.54-4.7,1.62-6.66Z"/>
            <path class="cls-1" d="M596.11,200.66c-1.48-.83-2.65-2.01-3.5-3.54-.85-1.53-1.28-3.31-1.28-5.36s.43-3.83,1.3-5.36c.87-1.53,2.05-2.71,3.54-3.54,1.49-.83,3.16-1.25,5.02-1.25s3.53.41,5.04,1.25c1.5.83,2.68,2.01,3.54,3.54.85,1.53,1.28,3.32,1.28,5.36s-.43,3.8-1.3,5.34c-.87,1.54-2.06,2.72-3.57,3.56-1.52.83-3.2,1.25-5.05,1.25s-3.52-.42-5-1.25ZM604.71,198.82c1.11-.59,2-1.48,2.69-2.67s1.03-2.65,1.03-4.39-.34-3.19-1.01-4.38c-.67-1.19-1.56-2.08-2.67-2.67-1.11-.59-2.31-.88-3.61-.88s-2.5.3-3.61.88c-1.11.59-1.99,1.48-2.65,2.67-.66,1.19-.99,2.65-.99,4.38s.33,3.19.99,4.39c.66,1.19,1.54,2.08,2.64,2.67,1.09.59,2.29.88,3.59.88s2.5-.29,3.61-.88Z"/>
            <path class="cls-1" d="M630.67,183.73c1.49,1.46,2.24,3.57,2.24,6.33v11.55h-2.49v-11.26c0-2.14-.54-3.78-1.61-4.91-1.07-1.13-2.53-1.7-4.39-1.7s-3.42.6-4.55,1.81c-1.13,1.2-1.7,2.97-1.7,5.31v10.76h-2.53v-19.71h2.53v3.36c.63-1.2,1.53-2.12,2.71-2.76,1.18-.64,2.51-.96,4.01-.96,2.36,0,4.28.73,5.78,2.18Z"/>
            <path class="cls-1" d="M646.26,184.04h-4.58v17.58h-2.53v-17.58h-2.74v-2.13h2.74v-1.37c0-2.14.55-3.72,1.64-4.73,1.09-1.01,2.87-1.52,5.32-1.52v2.17c-1.64,0-2.79.31-3.45.94-.66.63-.99,1.67-.99,3.14v1.37h4.58v2.13Z"/>
            <path class="cls-1" d="M667.99,192.74h-16.35c.07,1.49.43,2.77,1.08,3.83s1.5,1.86,2.56,2.4c1.06.54,2.21.81,3.46.81,1.64,0,3.01-.4,4.13-1.19,1.12-.8,1.86-1.87,2.22-3.21h2.67c-.48,1.93-1.51,3.5-3.09,4.71-1.58,1.21-3.56,1.82-5.94,1.82-1.85,0-3.51-.42-4.98-1.25-1.47-.83-2.62-2.01-3.45-3.54-.83-1.53-1.25-3.31-1.25-5.36s.41-3.84,1.23-5.38c.82-1.54,1.96-2.72,3.43-3.54,1.47-.82,3.14-1.23,5.02-1.23s3.52.41,4.93,1.23c1.41.82,2.49,1.92,3.25,3.3.76,1.38,1.14,2.92,1.14,4.6,0,.87-.02,1.53-.07,1.98ZM664.61,186.93c-.61-1.03-1.45-1.82-2.51-2.35-1.06-.53-2.21-.79-3.46-.79-1.88,0-3.48.6-4.8,1.8-1.32,1.2-2.06,2.9-2.2,5.09h13.86c.02-1.47-.27-2.72-.88-3.75Z"/>
            <path class="cls-1" d="M672.64,177.65c-.36-.36-.54-.81-.54-1.34s.18-.97.54-1.32c.36-.35.79-.52,1.3-.52s.94.17,1.3.52c.36.35.54.79.54,1.32s-.18.97-.54,1.34c-.36.36-.79.54-1.3.54s-.94-.18-1.3-.54ZM675.21,181.91v19.71h-2.53v-19.71h2.53Z"/>
          </g>
          <g>
            <path class="cls-1" d="M569.8,221.26v12.24c0,1.2.23,2.03.69,2.49.46.46,1.26.69,2.42.69h2.31v2.17h-2.71c-1.78,0-3.1-.41-3.97-1.25-.87-.83-1.3-2.2-1.3-4.1v-12.24h-2.74v-2.13h2.74v-4.94h2.56v4.94h5.41v2.13h-5.41Z"/>
            <path class="cls-1" d="M579.42,223.63c.81-1.53,1.92-2.71,3.36-3.54,1.43-.83,3.05-1.25,4.85-1.25s3.5.43,4.85,1.3c1.36.87,2.34,1.97,2.94,3.32v-4.33h2.53v19.71h-2.53v-4.37c-.63,1.35-1.62,2.46-2.98,3.34-1.36.88-2.98,1.32-4.86,1.32s-3.39-.42-4.82-1.26c-1.43-.84-2.55-2.03-3.36-3.57-.81-1.54-1.21-3.32-1.21-5.34s.4-3.8,1.21-5.32ZM594.46,224.8c-.65-1.2-1.53-2.13-2.65-2.78-1.12-.65-2.35-.97-3.7-.97s-2.65.31-3.75.94c-1.11.63-1.98,1.53-2.62,2.73-.64,1.19-.96,2.6-.96,4.24s.32,3.03.96,4.24c.64,1.21,1.51,2.14,2.62,2.78,1.11.64,2.36.96,3.75.96s2.58-.32,3.7-.97c1.12-.65,2-1.58,2.65-2.78.65-1.2.97-2.6.97-4.19s-.33-2.98-.97-4.19Z"/>
            <path class="cls-1" d="M608.8,219.78c1.14-.67,2.55-1.01,4.2-1.01v2.64h-.68c-1.83,0-3.3.49-4.4,1.48s-1.66,2.63-1.66,4.94v11.01h-2.53v-19.71h2.53v3.5c.55-1.23,1.4-2.18,2.54-2.85Z"/>
            <path class="cls-1" d="M616.76,214.87c-.36-.36-.54-.81-.54-1.34s.18-.97.54-1.32c.36-.35.79-.52,1.3-.52s.94.17,1.3.52c.36.35.54.79.54,1.32s-.18.97-.54,1.34c-.36.36-.79.54-1.3.54s-.94-.18-1.3-.54ZM619.33,219.13v19.71h-2.53v-19.71h2.53Z"/>
            <path class="cls-1" d="M625.12,223.63c.81-1.53,1.92-2.71,3.36-3.54,1.43-.83,3.05-1.25,4.85-1.25s3.5.43,4.85,1.3c1.36.87,2.34,1.97,2.94,3.32v-4.33h2.53v19.71h-2.53v-4.37c-.63,1.35-1.62,2.46-2.98,3.34-1.36.88-2.98,1.32-4.86,1.32s-3.39-.42-4.82-1.26c-1.43-.84-2.55-2.03-3.36-3.57-.81-1.54-1.21-3.32-1.21-5.34s.4-3.8,1.21-5.32ZM640.15,224.8c-.65-1.2-1.53-2.13-2.65-2.78-1.12-.65-2.35-.97-3.7-.97s-2.65.31-3.75.94c-1.11.63-1.98,1.53-2.62,2.73-.64,1.19-.96,2.6-.96,4.24s.32,3.03.96,4.24c.64,1.21,1.51,2.14,2.62,2.78,1.11.64,2.36.96,3.75.96s2.58-.32,3.7-.97c1.12-.65,2-1.58,2.65-2.78.65-1.2.97-2.6.97-4.19s-.33-2.98-.97-4.19Z"/>
          </g>
          <g>
            <path class="cls-1" d="M580.85,270.07h-11.48l-2.2,5.99h-2.67l9.2-24.91h2.85l9.17,24.91h-2.67l-2.2-5.99ZM580.09,267.97l-4.98-13.64-4.98,13.64h9.96Z"/>
            <path class="cls-1" d="M597.53,258.48h-4.58v17.58h-2.53v-17.58h-2.74v-2.13h2.74v-1.37c0-2.14.55-3.72,1.64-4.73,1.09-1.01,2.87-1.52,5.32-1.52v2.17c-1.64,0-2.79.31-3.45.94-.66.63-.99,1.67-.99,3.14v1.37h4.58v2.13Z"/>
            <path class="cls-1" d="M619.26,267.18h-16.35c.07,1.49.43,2.77,1.08,3.83s1.5,1.86,2.56,2.4c1.06.54,2.21.81,3.46.81,1.64,0,3.01-.4,4.13-1.19,1.12-.8,1.86-1.87,2.22-3.21h2.67c-.48,1.93-1.51,3.5-3.09,4.71-1.58,1.21-3.56,1.82-5.94,1.82-1.85,0-3.51-.42-4.98-1.25-1.47-.83-2.62-2.01-3.45-3.54-.83-1.53-1.25-3.31-1.25-5.36s.41-3.84,1.23-5.38c.82-1.54,1.96-2.72,3.43-3.54s3.14-1.23,5.02-1.23,3.52.41,4.93,1.23c1.41.82,2.49,1.92,3.25,3.3.76,1.38,1.14,2.92,1.14,4.6,0,.87-.02,1.53-.07,1.98ZM615.88,261.37c-.61-1.03-1.45-1.82-2.51-2.35-1.06-.53-2.21-.79-3.46-.79-1.88,0-3.48.6-4.8,1.8-1.32,1.2-2.06,2.9-2.2,5.09h13.86c.02-1.47-.27-2.72-.88-3.75Z"/>
            <path class="cls-1" d="M627.23,258.48v12.24c0,1.2.23,2.03.69,2.49.46.46,1.26.69,2.42.69h2.31v2.17h-2.71c-1.78,0-3.1-.41-3.97-1.25-.87-.83-1.3-2.2-1.3-4.1v-12.24h-2.74v-2.13h2.74v-4.94h2.56v4.94h5.41v2.13h-5.41Z"/>
            <path class="cls-1" d="M636.76,252.09c-.36-.36-.54-.81-.54-1.34s.18-.97.54-1.32c.36-.35.79-.52,1.3-.52s.94.17,1.3.52c.36.35.54.79.54,1.32s-.18.97-.54,1.34c-.36.36-.79.54-1.3.54s-.94-.18-1.3-.54ZM639.32,256.35v19.71h-2.53v-19.71h2.53Z"/>
            <path class="cls-1" d="M652.06,273.6l6.64-17.25h2.67l-7.9,19.71h-2.85l-7.9-19.71h2.71l6.64,17.25Z"/>
            <path class="cls-1" d="M664.86,260.85c.81-1.53,1.92-2.71,3.36-3.54,1.43-.83,3.05-1.25,4.85-1.25s3.5.43,4.85,1.3c1.36.87,2.34,1.97,2.94,3.32v-4.33h2.53v19.71h-2.53v-4.37c-.63,1.35-1.62,2.46-2.98,3.34-1.36.88-2.98,1.32-4.86,1.32s-3.39-.42-4.82-1.26c-1.43-.84-2.55-2.03-3.36-3.57-.81-1.54-1.21-3.32-1.21-5.34s.4-3.8,1.21-5.32ZM679.89,262.02c-.65-1.2-1.53-2.13-2.65-2.78-1.12-.65-2.35-.97-3.7-.97s-2.65.31-3.75.94c-1.11.63-1.98,1.53-2.62,2.73-.64,1.19-.96,2.6-.96,4.24s.32,3.03.96,4.24c.64,1.21,1.51,2.14,2.62,2.78,1.11.64,2.36.96,3.75.96s2.58-.32,3.7-.97c1.12-.65,2-1.58,2.65-2.78.65-1.2.97-2.6.97-4.19s-.33-2.98-.97-4.19Z"/>
          </g>
        </g>
      </g>
    </g>
  </g>
</svg>