<?xml version="1.0" encoding="UTF-8"?>
<svg id="Camada_2" data-name="Camada 2" xmlns="http://www.w3.org/2000/svg" viewBox="0 0 655.27 169.74">
  <defs>
    <style>
      .cls-1 {
        fill: #895d3f;
      }
    </style>
  </defs>
  <g id="Camada_1-2" data-name="Camada 1">
    <g>
      <g>
        <path class="cls-1" d="M295.68,106.74c.21.22.32.43.32.65,0,.43-.16.65-.48.65h-17.29c-.43,0-.65-.21-.65-.65,0-.21.11-.43.32-.65,1.94-.75,3.15-1.94,3.64-3.55.48-1.62.73-3.34.73-5.17v-52.51c0-1.29-.32-2.31-.97-3.07-.65-.75-1.24-1.29-1.78-1.62-.22-.11-.32-.27-.32-.48s.11-.38.32-.48c1.48-.4,3.28-1.04,5.22-2.05,2.44-1.27,4.3-2.73,5.61-3.93.23-.16.53-.15.75.01.15.11.22.32.22.63v63.5c0,1.83.24,3.55.73,5.17.49,1.62,1.7,2.8,3.64,3.55ZM285.04,31.96c-1.62,0-3.02-.59-4.2-1.78-1.19-1.18-1.78-2.59-1.78-4.2s.59-2.99,1.78-4.12c1.18-1.13,2.59-1.7,4.2-1.7s2.99.56,4.12,1.7c1.13,1.13,1.7,2.5,1.7,4.12s-.56,3.02-1.7,4.2c-1.13,1.19-2.5,1.78-4.12,1.78Z"/>
        <path class="cls-1" d="M351.14,37.39c4.59,2.14,8.48,4.94,11.69,8.39s5.62,7.38,7.26,11.76c1.64,4.39,2.33,9.08,2.08,14.07-.25,5-1.58,10.08-3.99,15.25-2.37,5.08-5.38,9.32-9.05,12.72-3.67,3.4-7.71,5.89-12.12,7.45-4.42,1.57-8.97,2.23-13.68,2-4.7-.23-9.35-1.42-13.94-3.56s-8.36-4.88-11.61-8.36c-3.25-3.48-5.7-7.41-7.33-11.8-1.64-4.39-2.33-9.08-2.08-14.08.25-4.99,1.56-10.03,3.92-15.11,2.41-5.17,5.45-9.46,9.12-12.86,3.66-3.4,7.7-5.88,12.12-7.45,4.41-1.57,9-2.22,13.75-1.97,4.75.26,9.38,1.43,13.87,3.52ZM320.07,104.02c3.32,1.55,6.77,2.24,10.36,2.07,3.58-.17,7.11-1.17,10.58-3,3.47-1.83,6.77-4.45,9.91-7.86,3.13-3.41,5.86-7.61,8.19-12.58,2.32-4.98,3.78-9.77,4.38-14.36.6-4.59.48-8.81-.35-12.64-.83-3.83-2.32-7.2-4.47-10.11-2.15-2.9-4.89-5.13-8.21-6.68-3.32-1.55-6.78-2.21-10.39-1.99-3.61.22-7.15,1.24-10.61,3.07-3.47,1.83-6.77,4.45-9.91,7.86-3.14,3.41-5.86,7.61-8.19,12.58-2.32,4.98-3.78,9.77-4.38,14.36-.6,4.6-.48,8.81.35,12.64.82,3.83,2.33,7.18,4.5,10.03,2.17,2.86,4.92,5.06,8.24,6.61Z"/>
        <path class="cls-1" d="M461.31,105.93c-.7-.32-1.05-1.02-1.05-2.1v-20.08c0-2.69-2.18-4.87-4.87-4.87-2.3,0-4.27,1.62-4.76,3.87-.17.79-.39,1.63-.67,2.51-.12.38-.71,4.81-1.82,7.11-1.4,2.91-3.13,5.49-5.17,7.76-2.05,2.26-4.36,4.07-6.95,5.41-2.59,1.35-5.44,2.02-8.56,2.02-5.06,0-9.13-1.54-12.2-4.61-3.07-3.07-4.61-6.97-4.61-11.71,0-.96-.03-6.68,3.39-11.96,4.12-6.34,10.95-8.54,18.25-10.9,7.34-2.37,11.82-2.31,19.22-6.41,2.19-1.21,4.33-2.62,5.74-5.21,2.74-5.03.49-10.5.34-10.85-1.57-3.66-4.6-5.69-6.79-7.11-2.75-1.78-5.73-3.04-8.97-3.8-3.23-.75-6.3-1.13-9.21-1.13-3.34,0-6.49.46-9.45,1.37-2.97.92-5.71,2.16-8.24,3.72-2.53,1.56-4.74,3.31-6.62,5.25-1.89,1.94-3.42,3.93-4.61,5.98-.22.43-.3.89-.24,1.37.05.49.3.84.73,1.05l6.14,3.72c1.18.54,2.04.27,2.59-.81.75-1.62,1.48-3.58,2.18-5.9.7-2.31,1.72-4.52,3.07-6.62,1.35-2.1,3.15-3.88,5.41-5.33,2.26-1.45,5.28-2.18,9.05-2.18,2.66,0,6.44-.14,10.34,2.18,1.13.67,5.61,3.44,7.08,9.08.27,1.02,1.53,5.87-1.12,9.99-1.68,2.62-4.2,3.8-8.76,5.36-8.47,2.91-12.56,3.24-17.11,4.54-5.55,1.58-15.13,4.32-19.6,12.41-3.64,6.6-3.57,16.2,1.56,23,7.38,9.79,20.91,8.03,24.46,7.56,11.89-1.55,19.11-9.46,21.07-11.76.11-.21.24-.27.4-.16.16.11.24.27.24.48v8.89c0,.54.43.97.97.97h10.99c.43-.43.43-.81,0-1.13-.54-.32-1.16-.65-1.86-.97Z"/>
        <path class="cls-1" d="M280.53.53h-.11c-.23,0-.34.11-.34.34-.61,1.29-1.55,2.53-2.83,3.73-.61.57-1.21,1-1.81,1.32h-62.5c-.43,0-.65.22-.65.65,0,.22.11.43.32.64,1.94.76,3.15,1.94,3.63,3.56.49,1.61.73,3.34.73,5.17v82.08c0,1.83-.24,3.55-.73,5.16-.48,1.62-1.69,2.8-3.63,3.56-.22.22-.32.43-.32.65,0,.43.22.64.65.64h18.42c.32,0,.49-.21.49-.64,0-.22-.11-.43-.32-.65-1.94-.76-3.15-1.94-3.63-3.56-.49-1.61-.73-3.33-.73-5.16v-36.26c0-.26.05-1.03.14-1.43h32.63c.79.33,1.59.87,2.37,1.6,1.42,1.34,2.47,2.73,3.14,4.15,0,.25.13.38.38.38h.13c.25,0,.38-.17.38-.5v-13.6c0-.33-.13-.5-.38-.5h-.13c-.25,0-.38.13-.38.38-.68,1.43-1.72,2.81-3.14,4.15-.76.71-1.51,1.24-2.26,1.6h-32.78c-.06-.17-.1-.37-.1-.6V15.94c0-1.73.24-3.53.73-5.41.27-1.06.65-1.81,1.14-2.27h46.34c.63.3,1.26.73,1.88,1.32,1.28,1.2,2.22,2.45,2.83,3.73,0,.23.11.34.34.34h.11c.23,0,.34-.15.34-.45V.98c0-.3-.11-.45-.34-.45Z"/>
        <path class="cls-1" d="M578.73,106.21c.21.22.32.43.32.65,0,.43-.16.65-.48.65h-17.29c-.43,0-.65-.21-.65-.65,0-.21.11-.43.32-.65,1.94-.75,3.15-1.94,3.64-3.55.48-1.62.73-3.34.73-5.17v-52.51c0-1.29-.32-2.31-.97-3.07-.65-.75-1.24-1.29-1.78-1.62-.22-.11-.32-.27-.32-.48s.11-.38.32-.48c1.48-.4,3.28-1.04,5.22-2.05,2.44-1.27,4.3-2.73,5.61-3.93.23-.16.53-.15.75.01.15.11.22.32.22.63v63.5c0,1.83.24,3.55.73,5.17.49,1.62,1.7,2.8,3.64,3.55ZM568.09,31.43c-1.62,0-3.02-.59-4.2-1.78-1.19-1.18-1.78-2.59-1.78-4.2s.59-2.99,1.78-4.12c1.18-1.13,2.59-1.7,4.2-1.7s2.99.56,4.12,1.7c1.13,1.13,1.7,2.5,1.7,4.12s-.56,3.02-1.7,4.2c-1.13,1.19-2.5,1.78-4.12,1.78Z"/>
        <path class="cls-1" d="M634.19,36.86c4.59,2.14,8.48,4.94,11.69,8.39s5.62,7.38,7.26,11.76c1.64,4.39,2.33,9.08,2.08,14.07-.25,5-1.58,10.08-3.99,15.25-2.37,5.08-5.38,9.32-9.05,12.72-3.67,3.4-7.71,5.89-12.12,7.45-4.42,1.57-8.97,2.23-13.68,2s-9.35-1.42-13.94-3.56-8.36-4.88-11.61-8.36c-3.25-3.48-5.7-7.41-7.33-11.8-1.64-4.39-2.33-9.08-2.08-14.08.25-4.99,1.56-10.03,3.92-15.11,2.41-5.17,5.45-9.46,9.12-12.86,3.66-3.4,7.7-5.88,12.12-7.45,4.41-1.57,9-2.22,13.75-1.97s9.38,1.43,13.87,3.52ZM603.12,103.49c3.32,1.55,6.77,2.24,10.36,2.07,3.58-.17,7.11-1.17,10.58-3,3.47-1.83,6.77-4.45,9.91-7.86,3.13-3.41,5.86-7.61,8.19-12.58s3.78-9.77,4.38-14.36c.6-4.59.48-8.81-.35-12.64-.83-3.83-2.32-7.2-4.47-10.11-2.15-2.9-4.89-5.13-8.21-6.68-3.32-1.55-6.78-2.21-10.39-1.99-3.61.22-7.15,1.24-10.61,3.07-3.47,1.83-6.77,4.45-9.91,7.86-3.14,3.41-5.86,7.61-8.19,12.58-2.32,4.98-3.78,9.77-4.38,14.36-.6,4.6-.48,8.81.35,12.64.82,3.83,2.33,7.18,4.5,10.03,2.17,2.86,4.92,5.06,8.24,6.61Z"/>
        <path class="cls-1" d="M563.58,0h-.11c-.23,0-.34.11-.34.34-.61,1.29-1.55,2.53-2.83,3.73-.61.57-1.21,1-1.81,1.32h-62.5c-.43,0-.65.22-.65.65,0,.22.11.43.32.64,1.94.76,3.15,1.94,3.63,3.56.49,1.61.73,3.34.73,5.17v82.08c0,1.83-.24,3.55-.73,5.16-.48,1.62-1.69,2.8-3.63,3.56-.22.22-.32.43-.32.65,0,.43.22.64.65.64h18.42c.32,0,.49-.21.49-.64,0-.22-.11-.43-.32-.65-1.94-.76-3.15-1.94-3.63-3.56-.49-1.61-.73-3.33-.73-5.16v-36.26c0-.26.05-1.03.14-1.43h32.63c.79.33,1.59.87,2.37,1.6,1.42,1.34,2.47,2.73,3.14,4.15,0,.25.13.38.38.38h.13c.25,0,.38-.17.38-.5v-13.6c0-.33-.13-.5-.38-.5h-.13c-.25,0-.38.13-.38.38-.68,1.43-1.72,2.81-3.14,4.15-.76.71-1.51,1.24-2.26,1.6h-32.78c-.06-.17-.1-.37-.1-.6V15.41c0-1.73.24-3.53.73-5.41.27-1.06.65-1.81,1.14-2.27h46.34c.63.3,1.26.73,1.88,1.32,1.28,1.2,2.22,2.45,2.83,3.73,0,.23.11.34.34.34h.11c.23,0,.34-.15.34-.45V.45c0-.3-.11-.45-.34-.45Z"/>
      </g>
      <g>
        <path class="cls-1" d="M226.98,164.36h-10.31l-1.98,5.38h-2.4l8.27-22.38h2.56l8.24,22.38h-2.4l-1.98-5.38ZM226.3,162.48l-4.48-12.26-4.48,12.26h8.95Z"/>
        <path class="cls-1" d="M254.09,147.07v1.88h-6.29v20.79h-2.27v-20.79h-6.32v-1.88h14.89Z"/>
        <path class="cls-1" d="M265.8,148.92v8.47h8.6v1.88h-8.6v8.6h9.57v1.88h-11.84v-22.7h11.84v1.88h-9.57Z"/>
        <path class="cls-1" d="M287.96,167.89h8.14v1.85h-10.41v-22.67h2.27v20.82Z"/>
        <path class="cls-1" d="M307.45,147.07v22.67h-2.27v-22.67h2.27Z"/>
        <path class="cls-1" d="M320.72,148.92v8.47h8.6v1.88h-8.6v8.6h9.57v1.88h-11.84v-22.7h11.84v1.88h-9.57ZM323.89,142.76l-4.35,2.72v-1.85l4.35-2.66,4.35,2.66v1.85l-4.35-2.72Z"/>
      </g>
      <path class="cls-1" d="M117.29,7.11C106.87,2.74,95.96.53,84.87.53c-17.35,0-34.18,5.35-48.67,15.48-6.68,4.67-17.59,13.72-25.76,28.43-2.71,4.88-4.47,9.21-5.58,12.34l-.11.02.04.18-.05.14C1.47,66.38-.12,76.15,0,86.16c-.02,33.22,21.57,65.01,52.51,77.31,10.14,4.16,20.78,6.27,31.62,6.27h0c21.6,0,43.1-8.68,59.01-23.8,16.61-15.8,25.82-37.03,25.94-59.79.69-33.77-20.61-66.27-51.8-79.04ZM150.23,41.75l.69,1.02c2.61,3.83,4.87,7.89,6.73,12.06l.07.15-.03.16c-3.17,17.09-10.42,33.64-20.94,47.87l-.22.29-.35-.11c-3.73-1.15-7.41-2.49-10.92-4-2.42-.99-4.87-2.14-7.3-3.43l-.69-.37.61-.49c2.4-1.95,4.19-3.48,5.63-4.83,13.37-12.33,22.77-29.06,26.47-47.11l.25-1.2ZM64.81,106.57l16.41,13.54-1.78,1.55c-1.86,1.61-3.97,3.44-5.47,4.97-2.24,2.23-4.34,4.77-6.23,7.56l-.29.42-.43-.28c-6.01-3.94-11.29-7.8-16.14-11.82-5.46-4.63-10.58-9.91-15.22-15.7l-.49-.61.75-.22c6.44-1.86,12.62-4.34,18.34-7.36l.3-.16.72.57c3.34,2.64,6.81,5.39,9.53,7.54ZM59.73,95.49l.6-.38c9.41-5.94,17.41-13.43,23.79-22.26l.42-.58.42.58c6.38,8.79,14.49,16.29,24.11,22.32l.6.38-.55.46c-2.96,2.48-5.96,5-8.28,6.95l-16.25,14.2-16.42-14.51c-2.21-1.88-5.06-4.3-7.9-6.7l-.54-.46ZM70.54,135.93c3.53-5,8.3-9.07,13.29-13.13l.33-.27.33.28c.61.51,1.32,1.1,2.07,1.71,1.94,1.58,4.13,3.38,5.57,4.77,2.18,2.05,4.23,4.41,6.09,7l.32.45-.47.29c-2.34,1.45-4.79,2.93-7.28,4.38-1.96,1.11-3.93,2.24-5.9,3.4l-.27.16-.26-.16c-2.26-1.35-4.24-2.5-6.09-3.52-2.56-1.5-5.12-3.05-7.61-4.61l-.46-.29.32-.45ZM94.92,126.46c-1.48-1.53-3.55-3.34-5.38-4.94-.55-.48-2.03-1.78-2.03-1.78l4.41-3.68c1.16-.96,2.47-2.06,3.87-3.23,4-3.35,8.53-7.14,11.82-9.73,1.63-1.34,3.49-2.81,5.47-4.37l.87-.69.3.16c6.08,3.28,12.55,5.92,19.25,7.85l.75.22-.49.61c-3.71,4.6-7.72,8.88-11.92,12.72-5.5,4.99-11.98,9.88-19.8,14.93l-.43.28-.28-.43c-1.92-2.9-4.08-5.56-6.41-7.91ZM100.06,8.91c17.17,3.53,33.04,12.72,44.67,25.88l.15.17-.02.23c-1.27,12.76-5.53,25.2-12.32,35.98-4.38,6.94-9.78,13.23-16.08,18.69l-3.55,2.97-.32-.2c-10.08-6.39-18.4-14.77-24.71-24.91l-.17-.27.17-.27c10.2-16.86,14.2-36.81,11.56-57.69l-.09-.72.71.14ZM77.13,7.99l.07-.39.39-.03c2.18-.18,4.39-.28,6.58-.28,2.39,0,4.81.11,7.18.33l.39.04.07.39c2.15,11.65,1.97,23.74-.52,34.96-1.31,6.24-3.41,12.3-6.25,17.99l-.46.94-.47-.94c-7.97-16.06-10.45-34.88-6.99-53.01ZM24.82,34.2c8.22-9.34,18.42-16.61,29.5-21.01,4.81-1.97,9.81-3.47,14.86-4.46l.71-.14-.09.71c-1.53,11.94-.84,23.76,2.03,35.13,1.95,8.06,5.11,15.73,9.4,22.81l.17.27-.17.27c-6.16,9.71-14.45,17.97-24.64,24.55l-.32.21-3.66-3.09c-15.99-13.88-26.16-33.88-27.91-54.87l-.02-.22.15-.17ZM17.95,43.16l.27,1.21c4.4,19.49,15.27,37.09,30.59,49.54l2.21,1.74-.7.37c-5.36,2.88-11.1,5.26-17.07,7.09l-.35.11-.22-.3c-10.39-14.1-17.52-30.42-20.68-47.24l-.21-1.4c1.58-3.46,3.42-6.85,5.49-10.08l.67-1.05ZM7.37,107.76l-.11-.41c-1.79-6.87-2.65-14-2.55-21.19,0-5.91.73-11.89,2.17-17.78l.43-1.77.56,1.74c4.18,12.9,10.44,24.96,18.6,35.84l.48.64-1.54.36c-6.23,1.42-12.16,2.28-17.63,2.56l-.42.02ZM57.31,162.11l-.6-.23c-23.05-8.75-41.15-27.75-48.39-50.85l-.21-.65.68-.02c5.38-.17,11.04-.84,17.3-2.06.94-.18,1.87-.36,2.79-.56l.31-.07.2.25c4.5,5.54,9.43,10.64,14.64,15.15,5.8,4.99,12.61,9.84,20.8,14.83l.43.26-.24.44c-3.74,6.76-6.3,14.46-7.62,22.88l-.1.63ZM59.82,163.09l.27-1.47c1.45-7.87,4.03-15.06,7.67-21.36l.26-.45.45.26c2.53,1.48,5.13,2.96,7.96,4.51,1.31.69,2.6,1.39,3.89,2.08l.79.42-.76.47c-2.47,1.54-4.33,2.77-6.05,3.99-4.47,3.14-8.97,6.69-13.37,10.55l-1.12.98ZM105.34,164.34c-6.7,1.81-13.59,2.73-20.49,2.73s-14.15-.96-21.03-2.87l-.96-.27.77-.63c4.09-3.37,8.26-6.47,12.4-9.23,2.41-1.63,5.06-3.27,8.12-5.02l.26-.15.26.15c3.19,1.8,5.82,3.42,8.29,5.07,4.19,2.77,8.43,5.9,12.58,9.31l.78.64-.97.26ZM107.72,161.75c-5.72-5.06-12.14-9.88-19.09-14.32l-.74-.47.77-.42c1.28-.7,2.56-1.39,3.86-2.08,2.3-1.25,4.79-2.67,7.62-4.34l.45-.27.26.45c3.61,6.11,6.2,13.17,7.72,20.96l.29,1.5-1.15-1.01ZM160.69,111.03c-7.2,22.55-24.1,41.18-45.2,49.82-1.02.43-2.1.85-3.41,1.33l-.6.22-.09-.63c-1.26-8.58-3.81-16.41-7.58-23.3l-.24-.43.42-.26c4.59-2.85,9.02-5.8,13.15-8.78,8.18-6,15.63-13.12,22.15-21.19l.2-.25.31.07c1.06.23,2.13.45,3.21.65,6.24,1.22,11.87,1.89,17.21,2.07l.69.02-.21.65ZM161.78,107.34l-.11.41-.42-.02c-6.2-.34-12.52-1.29-18.79-2.82l-.76-.19.47-.63c8.36-11.2,14.68-23.6,18.81-36.85l.55-1.75.45,1.78c1.56,6.14,2.37,12.49,2.41,18.88.15,7.04-.73,14.17-2.6,21.2Z"/>
    </g>
  </g>
</svg>