<?xml version="1.0" encoding="UTF-8"?>
<svg id="Camada_2" data-name="Camada 2" xmlns="http://www.w3.org/2000/svg" viewBox="0 0 722.86 119.58">
  <defs>
    <style>
      .cls-1 {
        fill: #52131d;
      }
    </style>
  </defs>
  <g id="Camada_1-2" data-name="Camada 1">
    <g>
      <g>
        <path class="cls-1" d="M301.68,1.24c-27.15,5.21-47.52,31.15-47.11,58.55-.43,27.41,19.96,53.34,47.11,58.56,36.63,7.69,71.04-21.45,70.74-58.56.3-37.1-34.12-66.23-70.74-58.55ZM313.33,116.12c-30.96.32-56.81-25.12-56.62-56.33-.26-22.62,13.97-44.13,34.99-52.21,37.01-14.92,78.57,11.92,78.61,52.21.17,31.04-26.15,56.55-56.99,56.33Z"/>
        <path class="cls-1" d="M347.28,28.87l-.02-.7c-3.15-.03-6.32-.14-9.47-.16-1.14,0-2.18,0-3.15,0h-39.97c-1.58,0-3.42,0-5.56,0-3.15.02-6.32.12-9.47.16l-.02.7c-.24,10.32-.28,21.8-.36,32.19.1,7.34,2.35,14.89,7.33,20.46,2.49,2.78,5.39,5.01,8.29,7.12,5.84,4.17,11.77,8.25,18.11,11.64h.02s.34.2.34.2l.1-.05.1.05.35-.19h.02c6.33-3.4,12.27-7.48,18.1-11.65,2.9-2.11,5.81-4.34,8.3-7.12,4.98-5.56,7.24-13.11,7.33-20.46-.08-10.38-.12-21.86-.36-32.19ZM320.03,29.77c-1.8.86-4.16,2.35-6.59,5.01-2.42-2.66-4.79-4.14-6.58-5.01h13.16ZM317.73,53.31c-1.73,1.94-3.15,3.82-4.28,5.52-1.14-1.69-2.55-3.58-4.28-5.52-1.63-1.82-3.23-3.35-4.71-4.62,1.49-1.96,3-3.92,4.5-5.9,1.51-1.99,3.01-3.97,4.48-5.94,1.49,1.97,2.98,3.95,4.49,5.94,1.5,1.98,3.01,3.94,4.5,5.9-1.48,1.27-3.08,2.81-4.71,4.62ZM323.71,50.34c1.02,1.33,2.03,2.63,3.02,3.91l2.31,2.99c2.56,3.34,4.21,7.34,4.87,11.49-5.9,5.22-13.14,8-20.46,8.02-7.32-.02-14.56-2.8-20.46-8.02.65-4.14,2.3-8.15,4.87-11.49l2.31-2.99c.99-1.28,2-2.58,3.02-3.91,2.49,2.11,5.1,4.61,7.69,7.58.91,1.05,1.77,2.09,2.56,3.13.63-1.03,1.36-2.09,2.21-3.17,2.67-3.41,5.58-5.83,8.06-7.53ZM281.07,29.6c5.6.11,11.2.19,16.8.21,5.56-.25,10.5,2.36,14.52,6.06-3.04,3.75-6.1,7.48-9.11,11.26-.09.1-.18.23-.28.35-6.34-5.01-13.83-8.69-21.81-10.08-.03-2.6-.07-5.2-.12-7.79ZM281.34,50.32c-.03-3.78-.07-7.56-.11-11.34,7.47,2.22,14.39,5.59,20.44,10.17-1.86,2.31-4.35,5.44-5.47,6.84-2.5,3.22-4.24,7.03-5.09,11.03-4.55-4.4-7.88-9.86-9.76-15.95,0-.28,0-.53,0-.74ZM288.22,80.09c-5.18-5.89-7.13-13.98-6.83-21.71,0-.56,0-1.47,0-2.47.71,1.83,1.56,3.61,2.57,5.33,1.96,3.14,4.24,5.89,6.73,8.25-.19,1.62-.24,3.27-.14,4.9.24,3.72,1.29,7.37,3.02,10.64-1.93-1.53-3.78-3.13-5.35-4.94ZM329.89,87.63c-5.32,3.95-10.7,7.79-16.36,11.19,0,0-.02,0-.02,0v-.08s-.04.03-.07.04c-.02-.02-.04-.03-.06-.04v.08s0,0-.02,0c-5.67-3.41-11.04-7.24-16.37-11.19-2.47-4.08-4.03-8.68-4.28-13.37-.06-.99-.06-1.99,0-2.98,6.08,4.98,13.29,7.69,20.66,7.72h.13c3.68-.02,7.33-.7,10.81-2.01,3.49-1.3,6.81-3.23,9.85-5.72.05.99.06,1.99,0,2.98-.25,4.69-1.81,9.3-4.28,13.37ZM338.68,80.09c-1.57,1.81-3.42,3.41-5.35,4.94,1.73-3.27,2.78-6.92,3.02-10.64.1-1.63.05-3.28-.15-4.9,2.5-2.36,4.78-5.12,6.74-8.25,1.02-1.71,1.86-3.49,2.57-5.33,0,1-.02,1.9-.02,2.47.3,7.73-1.64,15.82-6.82,21.71ZM345.56,50.32c0,.21,0,.46,0,.74-1.88,6.09-5.21,11.56-9.76,15.95-.86-4-2.59-7.8-5.09-11.03-1.11-1.4-3.61-4.53-5.47-6.84,6.05-4.58,12.96-7.94,20.44-10.17-.04,3.78-.09,7.56-.11,11.34ZM345.7,37.39c-7.98,1.39-15.47,5.07-21.8,10.08-.1-.12-.19-.24-.28-.35-3.01-3.78-6.07-7.51-9.11-11.26,4.02-3.69,8.96-6.31,14.51-6.06,1.69,0,3.36-.02,5.05-.03.19,0,.37,0,.56,0,3.74-.03,7.46-.09,11.19-.17-.05,2.6-.09,5.2-.13,7.79Z"/>
      </g>
      <g>
        <path class="cls-1" d="M147.54,99.57h-3.78l-55.01-62.09v62.09h-4.1V20.02h2.21l56.43,63.38V20.02h4.26v79.55Z"/>
        <path class="cls-1" d="M197.67,20.02h-5.68l-34.52,79.55h4.26l10.17-23.61h0l.36-.86h38.18l.15.37.21.49,10.04,23.61h11.35l-34.52-79.55ZM173.59,71.98l3.56-8.37.15-.34,14.07-33.23,14.88,35.13,1.36,3.21,1.52,3.6h-35.53Z"/>
        <polygon class="cls-1" points="40.19 20.02 34.52 20.02 0 99.57 4.26 99.57 14.43 75.95 14.46 75.87 15.45 73.54 42.43 73.54 41.35 70.41 16.78 70.41 19.82 63.26 19.82 63.26 33.89 30.04 48.77 65.17 50.12 68.38 53.08 75.36 53.33 75.95 63.37 99.57 74.72 99.57 40.19 20.02"/>
      </g>
      <g>
        <path class="cls-1" d="M399.11,19.52h18.67c18.67,0,33.87,8.16,33.87,25.04s-15.04,26.18-33.87,26.18h-9.25v28.33h-9.42V19.52ZM408.52,68.3h8.76c17.18,0,24.29-11.87,24.29-23.75s-7.27-22.61-24.29-22.61h-8.76v46.35Z"/>
        <path class="cls-1" d="M529.13,72.88c0,14.31,5.67,25.04,21.6,25.04s21.6-10.73,21.6-25.04V19.95h8.98v51.08c0,18.6-11.35,29.04-30.58,29.04s-30.42-10.44-30.42-29.04V19.95h8.83v52.94Z"/>
        <path class="cls-1" d="M602.43,19.52v76.54h37.99v3h-47.45V19.52h9.46Z"/>
        <path class="cls-1" d="M506.5,99.06h11.35l-34.52-79.55h-5.68l-34.52,79.55h4.26l9.19-21.35h40.84l9.07,21.35ZM462.96,62.76l14.07-33.23,14.88,35.13,1.36,3.21,2.84,6.72h-38.18l4.89-11.49.15-.34Z"/>
        <polygon class="cls-1" points="688.34 19.52 682.66 19.52 648.14 99.06 652.4 99.06 662.27 76.16 688.49 76.16 687.41 73.04 663.59 73.04 667.82 63.11 667.96 62.76 682.03 29.53 696.91 64.67 698.27 67.88 701.27 74.96 701.47 75.45 711.51 99.06 722.86 99.06 688.34 19.52"/>
      </g>
    </g>
  </g>
</svg>