<?xml version="1.0" encoding="UTF-8"?>
<svg id="Camada_2" data-name="Camada 2" xmlns="http://www.w3.org/2000/svg" viewBox="0 0 532.5 202.26">
  <defs>
    <style>
      .cls-1 {
        fill: #3e3f20;
      }
    </style>
  </defs>
  <g id="Camada_1-2" data-name="Camada 1">
    <g>
      <g>
        <path class="cls-1" d="M269.07,134.87c2.94-1.53,5.05-3.15,6.43-4.36,2.52-2.21,4.31-3.82,4.47-6.2.03-.52.17-1.71-.58-2.82-.19-.28-.66-.95-1.6-1.34-.19-.08-.59-.23-1.11-.28-1.16-.11-2.42.35-3.2,1.12-.62.61-.85,1.37-1.29,2.91-.3,1.03-.59,1.88-.55,1.75.31-1.23-.11-2.47-1.11-3.24-.13-.1-1.32-.95-2.68-.68-1.53.31-2.82,2.01-2.4,3.92.21.81.63,2,1.56,3.23,0,0,.01.01.02.02,1.31,1.73,1.99,3.78,1.87,5.88l.17.09Z"/>
        <path class="cls-1" d="M188.8,181.58c0-26.04-43.84-16.75-43.84-47.77,0-15.05,10.21-25.78,26.7-25.78,12.83,0,21.33,6.54,21.33,13.48,0,3.4-1.96,5.37-4.32,5.37-2.62,0-4.19-2.36-4.19-5.89,0-7.2-6.8-10.86-13.35-10.99-10.21-.13-19.11,8.11-19.11,20.55,0,27.61,43.97,18.19,43.97,47.64,0,15.44-12.04,24.08-27.48,24.08-16.88,0-24.6-10.34-24.6-17.8,0-3.67,1.96-5.63,4.32-5.63,2.62,0,4.06,2.49,4.06,6.81,0,9.95,7.59,14.66,16.36,14.66,10.08,0,20.15-6.28,20.15-18.71Z"/>
        <path class="cls-1" d="M256.46,199.38c-2.23-.91-4.58-1.7-6.94-6.28l-17.47-33.8c4.51-2.93,7.42-6.44,9.03-8.42,2.82-3.48,4.24-6.56,6.07-10.12,1.54-2.98,2.25-5.6,2.6-7.45.61-3.14,1.04-5.38-.32-6.96-1.52-1.77-4.3-1.59-4.67-1.56-.02,0-.04,0-.06,0-2.05.18-3.68,1.82-4.05,3.84-.31,1.7-.61,3.44-.9,5.22-.35,2.19-.66,4.34-.94,6.45-.42,2.36-1.36,5.68-3.55,9.09-.41.64-2.02,2.87-4.64,5.33-1.3,1.22-3.39,2.88-6.3,4.15-3.45,1.5-6.56,1.81-8.57,1.84v-49.67c0-1.31-.92-1.96-2.23-1.44l-12.56,4.97c-.79.27-1.31,1.71-.39,1.71,6.02.26,6.8,2.22,6.8,9.81v69.5c0,3.4-.91,3.14-5.5,3.66-.91.13-.91,1.71,0,1.71h19.38c.91,0,.91-1.58,0-1.71-4.58-.52-5.5-.26-5.5-3.66v-31.33h.14c.08,0,.18,0,.27,0h.06c2.01-.06,4.88-.35,8.16-1.36l20.04,38.06h12.04c.52,0,.52-1.18,0-1.58Z"/>
        <path class="cls-1" d="M281.73,199.25c-4.58-.52-5.5-.26-5.5-3.66,0-13.09,0-26.18,0-39.27,0-4.84-.34-8.5-1-10.86-.67-2.37-2.31-3.56-4.88-3.56-1.41,0-2.79.41-4.12,1.21-1.33.8-2.28,1.68-2.81,2.62-.31.55-.39.97-.26,1.28.11.23.34.39.7.47,2.68.71,4.04,3.86,4.04,9.38.03,12.91.06,25.82.08,38.73,0,3.4-.92,3.14-5.5,3.66-.92.13-.92,1.71,0,1.71h19.24c.92,0,.92-1.58,0-1.71Z"/>
        <path class="cls-1" d="M391.59,153.44c0,3.27-2.09,4.97-4.06,4.97-1.83,0-3.66-1.44-3.93-4.71-.26-5.37-3.93-10.86-11.39-10.86-9.68,0-17.27,10.73-17.27,27.09,0,17.67,7.98,27.61,18.19,27.61,8.37,0,14.4-6.94,17.67-14.27.26-.52,1.44.13,1.31.65-4.32,10.21-12.3,18.32-23.03,18.32-13.74,0-22.64-12.69-22.64-29.97,0-18.45,10.6-31.41,26.57-31.41,11.78,0,18.58,6.54,18.58,12.56Z"/>
        <path class="cls-1" d="M439.75,187.47c0,6.15.79,7.85,4.71,7.33,2.23-.52,2.75.78,1.83,1.18l-12.69,4.97c-1.31.52-2.09-.13-2.09-1.44l-.13-15.18c-4.32,11.12-14.66,17.01-23.95,17.01-7.46,0-12.56-3.93-12.56-11.78,0-18.32,27.74-14.79,36.51-26.31v-6.41c0-8.38-5.5-14.13-13.61-14.13-5.5,0-12.69,3.8-12.69,10.99,0,3.27-1.57,5.63-4.19,5.63-2.09,0-4.06-1.83-4.06-4.84,0-6.28,7.98-13.74,21.07-13.74,14,0,21.86,8.25,21.86,20.68v26.04ZM431.38,167.45c-7.59,7.72-27.87,7.72-27.87,20.55,0,5.37,3.4,7.85,8.11,7.85,8.24,0,19.76-7.59,19.76-22.64v-5.76Z"/>
        <path class="cls-1" d="M531.1,159.07h-35.73c-.65,3.14-1.05,6.67-1.05,10.6,0,17.93,7.98,27.87,18.19,27.87,8.37,0,14.53-6.94,17.8-14.27.26-.52,1.31.13,1.18.65-4.32,10.21-12.3,18.32-23.03,18.32-13.74,0-22.64-12.69-22.64-29.97,0-18.45,10.08-31.41,25.65-31.41,11.52,0,19.63,7.33,19.63,18.19ZM522.72,157.24c0-8.9-4.45-14.53-11.78-14.53s-12.56,5.5-15.05,14.53h26.83Z"/>
        <path class="cls-1" d="M481.24,140.88c-6.68,0-13.75,5.5-15.58,14.14v-.27h0c0-4.67-.35-8.19-1.05-10.46-.72-2.32-2.36-3.5-4.86-3.5-1.43,0-2.82.4-4.14,1.19-1.33.81-2.27,1.69-2.81,2.61-.32.56-.41.99-.27,1.31.16.35.6.45.72.49,1.56.47,3.81,4.98,4.14,10.22.03.5.06,1.21.03,2.07v36.9c0,3.4-.91,3.14-5.5,3.66-.91.13-.91,1.71,0,1.71h19.25c.91,0,.91-1.58,0-1.71-4.58-.39-5.5-.26-5.5-3.53v-31.54c.26-9.81,4.84-17.41,10.6-17.41,3.4,0,3.93,2.62,6.81,2.62,2.48,0,4.06-1.83,4.06-4.19,0-2.74-2.23-4.32-5.89-4.32Z"/>
        <path class="cls-1" d="M342.88,198.74c-4.54-.52-5.45-.26-5.45-3.64v-35.36c0-11.84-6.12-18.99-16.38-18.99-8.91,0-15.46,4.85-17.99,10.32-.22.47-.4.96-.56,1.44-.04-.4-.07-.8-.11-1.2,0,0,0,0,0,0-.13-3.38-.54-5.95-1.25-7.7-.76-1.88-2.31-2.82-4.64-2.82-1.43,0-2.82.4-4.16,1.21-1.34.81-2.29,1.68-2.82,2.62-.54.94-.4,1.5.4,1.68,2.28.59,3.62,2.85,4.03,6.76v.24c.04.65.06,1.36.06,2.15v39.65c0,3.38-.91,3.12-5.47,3.64-.9.13-.9,1.69,0,1.69h19.25c.91,0,.91-1.56,0-1.69-4.55-.52-5.47-.26-5.47-3.64v-35.62c0-7.55,7.16-14.17,15.47-14.17,6.51,0,11.31,5.06,11.31,13.52v36.27c0,3.38-.9,3.12-5.45,3.64-.91.13-.91,1.69,0,1.69h19.23c.91,0,.91-1.56,0-1.69Z"/>
      </g>
      <g>
        <path class="cls-1" d="M228.96,49.86h-35.73c-.65,3.14-1.05,6.67-1.05,10.6,0,17.93,7.98,27.87,18.19,27.87,8.38,0,14.53-6.94,17.8-14.27.26-.52,1.31.13,1.18.65-4.32,10.21-12.3,18.32-23.03,18.32-13.74,0-22.64-12.69-22.64-29.97,0-18.45,10.08-31.41,25.65-31.41,11.52,0,19.63,7.33,19.63,18.19ZM220.58,48.03c0-8.9-4.45-14.53-11.78-14.53s-12.56,5.5-15.05,14.53h26.83Z"/>
        <path class="cls-1" d="M302.5,78.26c0,6.15.78,7.85,4.71,7.33,2.22-.52,2.75.78,1.83,1.18l-12.69,4.97c-1.31.52-2.09-.13-2.09-1.44l-.13-15.18c-4.32,11.12-14.66,17.01-23.95,17.01-7.46,0-12.56-3.93-12.56-11.78,0-18.32,27.74-14.79,36.51-26.31v-6.41c0-8.38-5.5-14.13-13.61-14.13-5.5,0-12.69,3.8-12.69,10.99,0,3.27-1.57,5.63-4.19,5.63-2.09,0-4.06-1.83-4.06-4.84,0-6.28,7.98-13.74,21.07-13.74,14,0,21.86,8.25,21.86,20.68v26.04ZM294.13,58.23c-7.59,7.72-27.88,7.72-27.88,20.55,0,5.37,3.4,7.85,8.11,7.85,8.24,0,19.76-7.59,19.76-22.64v-5.76Z"/>
        <path class="cls-1" d="M122.44,114.38c-1.05.26-1.97.39-2.75.39-3.28,0-3.8-2.22-3.8-7.2V38.84c.45-3.58,1.74-5.67,3.91-6.22.79-.17.94-.73.45-1.66-.48-.92-1.39-1.78-2.71-2.58-1.32-.79-2.73-1.18-4.22-1.18-2.02,0-3.43.77-4.23,2.31-.6,1.17-.99,2.74-1.19,4.74-1.19-.52-2.65-1.05-4.37-1.43-7.77-1.72-14.73.89-18.31,2.88-14.07,7.82-14.22,27.41-14.22,29.87,0,16.75,7.2,27.08,19.25,27.08,9.16,0,15.83-6.02,17.4-13.48v40.44c0,1.31.79,1.96,2.1,1.44l12.56-4.98c1.05-.39.53-1.7.14-1.7ZM93.9,87.15c-9.16,0-14.4-8.63-14.4-23.43,0-17.67,7.46-29.18,20.42-29.18,4.84,0,7.72,1.57,7.72,6.55v31.14c0,8.77-6.02,14.92-13.74,14.92Z"/>
        <path class="cls-1" d="M180.79,85.84c-1.04.14-1.96.27-2.61.27-3.41,0-3.8-1.97-3.8-7.07,0-12.15,0-24.31,0-36.46h0c0-3.44-.09-6.15-.27-8.04-.18-1.96-.69-3.64-1.52-4.97-.84-1.35-2.21-2.01-4.15-2.01-1.57,0-3.05.42-4.44,1.24-1.36.82-2.32,1.73-2.83,2.71-.29.53-.37.95-.23,1.26.11.23.35.38.71.47,1.14.29,2.06,1.01,2.74,2.12v.02s.06.09.09.13c.05.09.11.18.15.28.01.01.01.02.02.03.26.49.52,1.08.75,1.74.47,1.41.58,2.66.58,3.56v1.46c0,10.54,0,21.08,0,31.61,0,7.6-7.2,14.14-15.57,14.14-6.55,0-11.39-5.1-11.39-13.48v-32.28h0c0-3.44-.09-6.15-.27-8.04-.18-1.96-.69-3.64-1.52-4.97-.84-1.35-2.21-2.01-4.15-2.01-1.57,0-3.05.42-4.44,1.24-1.36.82-2.32,1.73-2.83,2.71-.29.53-.37.95-.23,1.26.11.23.35.38.71.47,1.14.29,2.06,1.01,2.74,2.12v.02s.06.09.09.13c.05.09.11.18.15.28.01.01.01.02.02.03.26.49.52,1.08.75,1.74.47,1.41.58,2.66.58,3.56v32.81c0,11.78,6.15,19.11,16.49,19.11s17.02-6.15,18.85-12.56v10.6c0,1.31,1.18,1.96,2.49,1.44l12.3-4.97c.92-.4.53-1.71,0-1.71Z"/>
        <path class="cls-1" d="M129.08,35.35c.03.05.05.1.09.15-.02-.04-.04-.09-.09-.13v-.02Z"/>
        <path class="cls-1" d="M251.86,90.03c-4.58-.52-5.5-.26-5.5-3.66,0-23.92,0-47.85.01-71.77,0-4.99-.32-8.56-.99-10.92-.67-2.37-2.33-3.57-4.93-3.57-1.42,0-2.81.4-4.14,1.2-1.33.8-2.27,1.68-2.81,2.61-.31.56-.4,1-.26,1.31.11.25.35.41.71.49,2.67.69,4.03,3.81,4.03,9.28.04,23.79.08,47.59.12,71.38,0,3.4-.91,3.14-5.49,3.66-.92.13-.92,1.71,0,1.71h19.24c.91,0,.91-1.58,0-1.71Z"/>
        <rect class="cls-1" x="238.1" y="60.6" width=".08" height="1.75"/>
        <path class="cls-1" d="M445.54,62.29c0,17.54-10.34,30.75-26.3,30.75s-26.31-13.22-26.31-30.75,10.21-30.62,26.31-30.62,26.3,12.96,26.3,30.62ZM401.57,62.42c0,18.19,6.94,28.79,17.67,28.79s17.54-10.6,17.54-28.79-6.94-28.79-17.54-28.79-17.67,10.47-17.67,28.79Z"/>
        <path class="cls-1" d="M389.14,85.06c-1.05.13-1.96.26-2.62.26-3.4,0-3.92-1.96-3.92-7.07,0-21.04.01-42.09.02-63.13,0-5.55,1.35-8.72,4.01-9.42.38-.08.63-.25.75-.51.15-.32.08-.75-.21-1.32-.49-.96-1.42-1.85-2.75-2.66-1.32-.81-2.76-1.22-4.29-1.22-1.87,0-3.24.67-4.05,2-.8,1.31-1.29,2.95-1.47,4.87-.17,1.92-.26,4.69-.26,8.26v17.85h-10.34c-14.79,0-26.31,12.18-26.31,33.11,0,16.62,7.33,26.95,19.5,26.95,8.9,0,15.58-6.02,17.15-13.48v10.74c0,1.3.79,1.96,2.09,1.44l12.57-4.98c1.05-.39.52-1.7.13-1.7ZM374.35,72.63c0,8.77-6.02,14.93-13.61,14.93-9.17,0-14.53-8.64-14.53-23.43,0-17.67,7.72-29.18,19.89-29.18,4.32,0,8.25,1.7,8.25,7.46v30.22Z"/>
        <path class="cls-1" d="M69.69,89.91c-2.87-.79-5.1-4.71-7.85-12.83L36.19.13h-1.96l-.47,1.4h-.02L8.08,78.13c-2.59,7.41-4.86,11.15-7.48,11.78-.92.13-.66,1.83,0,1.83h11.64c.66,0,.92-1.57,0-1.83-1.42-.51-2.35-1.52-2.86-2.83-.17-1.63.11-3.59.8-5.67l5.34-16.39c3.35-1.15,7.63-2.24,12.66-2.65,4.58-.38,8.66-.1,12.09.41v-1.81c-3.29-.54-7.25-.87-11.72-.53-4.92.36-9.09,1.42-12.33,2.53l.31-.93.61-1.83,1.59-4.78,13.71-42.43,15.02,47.21.65,1.83,5.5,17.28c1.57,4.71.91,8.37-2.49,10.6-.78.52-.65,1.83,0,1.83h18.58c.79,0,.92-1.57,0-1.83Z"/>
      </g>
      <g>
        <g id="_Repetição_radial_" data-name="&amp;lt;Repetição radial&amp;gt;">
          <path class="cls-1" d="M503.94,95.86l5.45-12.95c.06-.14.05-.3-.01-.44l-6.46-12.99c-.2-.41-.79-.39-.97.03l-5.45,12.95c-.06.14-.05.3.01.44l6.46,12.99c.2.41.79.39.97-.03Z"/>
        </g>
        <g id="_Repetição_radial_-2" data-name="&amp;lt;Repetição radial&amp;gt;">
          <path class="cls-1" d="M474.49,80l13.94-1.76c.15-.02.29-.1.38-.23l8.02-12.09c.25-.38-.06-.88-.51-.82l-13.94,1.76c-.15.02-.29.1-.38.23l-8.02,12.09c-.25.38.06.88.51.82Z"/>
        </g>
        <g id="_Repetição_radial_-3" data-name="&amp;lt;Repetição radial&amp;gt;">
          <path class="cls-1" d="M473.49,46.57l8.49,11.19c.09.12.24.2.39.21l14.48.9c.45.03.73-.49.46-.85l-8.49-11.19c-.09-.12-.24-.2-.39-.21l-14.48-.9c-.45-.03-.73.49-.46.85Z"/>
        </g>
        <g id="_Repetição_radial_-4" data-name="&amp;lt;Repetição radial&amp;gt;">
          <path class="cls-1" d="M501.94,28.99l-5.45,12.95c-.06.14-.05.3.01.44l6.46,12.99c.2.41.79.39.97-.03l5.45-12.95c.06-.14.05-.3-.01-.44l-6.46-12.99c-.2-.41-.79-.39-.97.03Z"/>
        </g>
        <g id="_Repetição_radial_-5" data-name="&amp;lt;Repetição radial&amp;gt;">
          <path class="cls-1" d="M531.4,44.84l-13.94,1.76c-.15.02-.29.1-.38.23l-8.02,12.09c-.25.38.06.88.51.82l13.94-1.76c.15-.02.29-.1.38-.23l8.02-12.09c.25-.38-.06-.88-.51-.82Z"/>
        </g>
        <g id="_Repetição_radial_-6" data-name="&amp;lt;Repetição radial&amp;gt;">
          <path class="cls-1" d="M532.39,78.28l-8.49-11.19c-.09-.12-.24-.2-.39-.21l-14.48-.9c-.45-.03-.73.49-.46.85l8.49,11.19c.09.12.24.2.39.21l14.48.9c.45.03.73-.49.46-.85Z"/>
        </g>
      </g>
    </g>
  </g>
</svg>