<?xml version="1.0" encoding="UTF-8"?>
<svg id="Camada_2" data-name="Camada 2" xmlns="http://www.w3.org/2000/svg" viewBox="0 0 615.32 306.01">
  <defs>
    <style>
      .cls-1 {
        fill: #162612;
      }
    </style>
  </defs>
  <g id="Camada_1-2" data-name="Camada 1">
    <g>
      <g>
        <path class="cls-1" d="M229.15,279.2c-27.16-18.51-25.64-47.33-12.74-66.27,7.01-10.29,17.06-17.5,28.3-20.28,12.67-3.15,25.82-.41,38.03,7.91,27.15,18.5,25.62,47.31,12.72,66.25-7.01,10.29-17.06,17.5-28.29,20.29-12.67,3.15-25.81.42-38.01-7.89ZM281.28,202.7c-9.46-6.45-20.13-7.86-30.84-4.09-9.56,3.36-18.48,10.59-25.13,20.34-12.19,17.88-15.71,43.67,5.36,58.03,9.46,6.45,20.13,7.87,30.84,4.1,9.55-3.36,18.47-10.58,25.12-20.33,12.19-17.89,15.72-43.69-5.34-58.05Z"/>
        <path class="cls-1" d="M310.26,286l-.13-1.29c2.76-.56,5.71-3.89,5.71-7.95v-93.76c0-1.67-.37-7.11-5.17-7.11-.12,0-.25,0-.37.01l-.25-1.26,16.51-5.76v107.88c0,4.06,2.95,7.39,5.71,7.95l-.13,1.29h-21.88ZM342.83,286l-.13-1.29c2.76-.56,5.72-3.89,5.72-7.95v-103.17c0-1.66-.37-7.09-5.15-7.09-.13,0-.26,0-.4.01l-.25-1.26,16.51-5.76v117.27c0,4.06,2.96,7.39,5.72,7.95l-.13,1.29h-21.88Z"/>
        <path class="cls-1" d="M407.77,287.3c-14.26,0-25.48-5.82-31.58-16.39-6.06-10.49-5.93-24.29.34-35.14,6.71-11.62,18.83-18.02,34.11-18.02.95,0,1.91.02,2.9.08,13.59.69,24.12,7.25,28.85,17.76v-13.54c0-25.09-19.9-27.04-26-27.04s-13.07,1.77-18.37,4.85l-.7-1.1c6.06-4.18,14.27-6.57,22.51-6.57,16.56,0,33.27,9.73,33.27,31.46v49.01c.07,2.01.72,6.67,5.14,6.67.13,0,.26,0,.4-.01l.25,1.26-16.51,5.76-.02-37.56c0-19.01-14.96-27.72-28.86-27.77h-.17c-9.32,0-17.24,3.28-22.91,9.48-6.01,6.58-9.08,16.22-8.21,25.8,1.72,19.12,16.3,27.83,29.13,27.83,9.41,0,18.33-4.1,25.13-11.56l1,.83c-6.68,8.78-16.47,13.58-28.31,13.89-.47.01-.93.02-1.39.02h0Z"/>
        <path class="cls-1" d="M531.17,198.38c-1.86,2.36-3.55,4.84-5.04,7.46-2.08-6.43-7.6-10.08-15.32-10.08-6.99,0-14.49,3.19-19.57,8.35-3.19,3.23-6.97,8.75-6.86,16.74v55.99c0,4.06,2.96,7.38,5.72,7.93l-.13,1.29h-21.87l-.13-1.29c2.76-.55,5.72-3.87,5.72-7.93v-69.3c0-1.67-.38-7.11-5.18-7.11-.12,0-.25.01-.36.01l-.26-1.26,16.51-5.75v16.11c5.61-11.9,18.4-17.28,29.31-17.28,6.93,0,13.15,2.23,17.49,6.13Z"/>
        <path class="cls-1" d="M614.7,219.94l.61-.23-.26-.61c-7.07-17.07-22.02-26.86-40.97-26.86-13.92,0-25.61,5.16-33.8,14.91-7.25,8.62-11.25,20.23-11.25,32.68,0,22.91,14.09,47.59,45.05,47.59,15.57,0,28.59-6.65,36.65-18.75l-1.04-.78c-8.15,9.7-20.35,15.48-32.61,15.48-14.48,0-32.65-8.88-36.53-33.89l8.58-3.41c21.86-8.7,43.72-17.41,65.58-26.12ZM540.19,246.87c-1.78-16.09,2.42-32.07,11.05-41.82,5.92-6.69,13.77-10.22,22.71-10.22v-.65l.12.65c14.67.07,26.09,9.56,31.39,26.05l-65.27,25.99Z"/>
        <path class="cls-1" d="M233.88,145.23c-4.37-1.76-9.17-2.5-14.37-2.23-4.86.25-9.63,1.22-14.35,2.93-4.71,1.72-9.02,3.79-12.93,6.21-4.71-2.46-10.18-4.4-16.38-5.82-6.2-1.42-13.28-1.91-21.26-1.5-13.18.68-25.7,3.61-37.58,8.78-11.87,5.17-22.54,12.37-32,21.6-1.99,1.98-3.88,4-5.69,6.07-1.81,2.08-3.39,4.15-4.74,6.24-1.04-.01-2.03-.01-2.97,0-.94.01-1.9.05-2.86.09-4.23.22-8.37.82-12.43,1.81-4.05.98-8.15,2.33-12.3,4.09-4.83,2.06-9.17,4.44-12.99,7.15-3.81,2.71-7.58,6-11.28,9.88-3.55,3.81-6.48,7.56-8.8,11.28-2.3,3.71-4.39,7.94-6.22,12.71-.86,2.2-1.6,4.34-2.21,6.43-.62,2.08-1.15,4.23-1.55,6.44-.4,2.21-.69,4.53-.83,6.94-.16,2.41-.16,5.08,0,7.99.21,4.1.77,7.86,1.68,11.3.91,3.42,2.37,6.98,4.36,10.62,2.59,4.26,5.72,7.81,9.39,10.69,3.66,2.88,7.66,5.17,11.99,6.9,4.34,1.72,8.87,2.89,13.59,3.52,4.73.62,9.49.81,14.27.56,6.25-.33,12.46-1.38,18.62-3.16,6.17-1.78,12.03-4.19,17.58-7.23,5.55-3.05,10.64-6.69,15.29-10.98,4.65-4.28,8.58-9.07,11.77-14.39,3.52-6.09,6.8-12.19,9.86-18.25,3.06-6.08,6.05-12.15,9.01-18.21,3.84-7.92,7.72-15.74,11.67-23.46,3.95-7.72,8.44-15.3,13.48-22.72,4.32-6.56,8.65-12.36,12.98-17.38,4.32-5.03,8.83-9.34,13.51-12.92l2.01-1.46c4.4,3.05,7.66,6.63,9.75,10.75,2.1,4.14,3.27,8.67,3.53,13.59.2,3.89-.33,7.73-1.59,11.51-1.26,3.79-3.18,7.3-5.72,10.53-2.55,3.23-5.66,6.05-9.37,8.48-3.7,2.41-7.88,4.21-12.55,5.35-3.19-1.22-6.64-2.27-10.34-3.12-3.7-.85-7.84-1.15-12.41-.91-1.6.08-2.75.44-3.45,1.07-.69.62-1.03,1.22-1,1.77.05.98.76,1.81,2.12,2.5,1.35.7,3.02,1.24,4.99,1.61,1.97.39,4.06.65,6.3.77,2.23.13,4.22.14,5.95.07,2.36-.13,4.67-.35,6.95-.68,4.37,2.41,7.66,5.59,9.84,9.5,2.19,3.92,3.4,8.16,3.63,12.75.29,5.55-.65,11.24-2.81,17.06-2.16,5.82-5.33,11.16-9.49,16.04-4.17,4.88-9.21,8.93-15.13,12.16-5.91,3.24-12.45,5.04-19.59,5.42-4.31.22-8.75-.09-13.36-.92-4.6-.85-8.74-2.59-12.42-5.25l-.13,1.68c2.3,1.55,4.78,2.8,7.4,3.79,2.63.96,5.31,1.71,8.05,2.19,2.75.48,5.49.77,8.24.87,2.76.09,5.46.08,8.09-.07,5.42-.27,10.44-1.17,15.1-2.66,4.65-1.5,8.85-3.44,12.63-5.83,3.78-2.38,7.1-5.13,9.96-8.24,2.86-3.11,5.22-6.43,7.1-9.97,1.86-3.54,3.24-7.19,4.11-10.96.89-3.76,1.24-7.53,1.04-11.28-.3-5.61-1.78-10.81-4.47-15.57-2.7-4.77-6.89-8.63-12.62-11.6,5.64-1.28,10.57-3.15,14.79-5.62,4.22-2.49,7.72-5.36,10.51-8.65,2.79-3.27,4.83-6.82,6.12-10.65,1.3-3.81,1.85-7.67,1.64-11.56-.29-5.42-1.9-10.6-4.88-15.56-2.97-4.95-7.37-9.17-13.18-12.62,3.57-2.2,7.5-4.11,11.81-5.73,4.3-1.61,8.74-2.54,13.31-2.79,5.14-.26,9.97.48,14.52,2.23,4.54,1.74,8.88,4.14,13.01,7.2l.12-1.68c-4.54-3.24-9.01-5.74-13.37-7.49ZM186.87,155.66c-4.69,3.52-9.36,7.82-14.04,12.94-4.67,5.12-9.17,10.32-13.48,15.62-5.62,6.98-10.81,14.35-15.55,22.11-4.75,7.76-9.26,15.4-13.51,22.93-3.19,5.6-6.38,11.13-9.57,16.63-3.2,5.49-6.6,10.83-10.23,16.03-3.62,5.19-7.59,10.21-11.89,15.02-4.31,4.82-8.96,9.11-13.94,12.89-4.99,3.76-10.3,6.86-15.95,9.28-5.65,2.42-11.6,3.79-17.84,4.11-3.96.21-7.86-.09-11.73-.9-3.88-.81-7.58-2.11-11.12-3.91-3.53-1.81-6.8-4.09-9.8-6.85-2.99-2.77-5.56-6.02-7.71-9.73-1.39-2.85-2.54-5.83-3.44-8.94-.9-3.12-1.42-6.25-1.59-9.36-.25-4.73.08-9.31.95-13.77.89-4.47,2.19-8.83,3.92-13.1,1.72-4.32,3.63-8.19,5.75-11.56,2.12-3.39,4.79-6.84,8.02-10.34,3.36-3.66,6.78-6.77,10.26-9.36,3.48-2.58,7.4-4.88,11.74-6.93,4.49-2.03,8.78-3.58,12.85-4.64,4.09-1.04,8.42-1.72,12.99-2.03l6.46-.23c3.27.04,6.39.22,9.37.56,2.97.33,5.94.79,8.89,1.41,2.96.61,5.91,1.35,8.88,2.2,2.97.86,6.04,1.86,9.23,3.02l.36-.96c-5.83-2.68-11.5-4.84-16.98-6.5-5.48-1.64-11.2-2.81-17.15-3.49,1.11-1.52,2.3-3.02,3.58-4.52,1.28-1.48,2.62-2.96,4-4.41,4.43-4.4,9.19-8.45,14.28-12.15,5.1-3.71,10.44-6.94,16.04-9.69,5.6-2.76,11.39-4.99,17.39-6.69,5.99-1.71,12.12-2.71,18.36-3.05,7.36-.38,13.87.1,19.54,1.43,5.66,1.34,10.51,3.2,14.53,5.56l-1.91,1.35ZM168.49,217.15c-.49.03-.94.04-1.35.07-1.88.1-3.78.13-5.69.09-1.91-.04-3.66-.18-5.23-.4-1.58-.23-2.88-.51-3.91-.85-1.03-.33-1.55-.77-1.59-1.33,0-.13.12-.27.35-.43s.73-.25,1.5-.29c3.25-.17,6.33.05,9.22.66,2.88.61,5.56,1.38,8.05,2.29-.42.09-.86.16-1.34.18Z"/>
      </g>
      <g>
        <g>
          <g>
            <g>
              <path class="cls-1" d="M317.72,37.2c-.12-1.83-.2-6.12,1.78-9.63,1.06-1.88,2.67-3.45,3.85-3.56.03,0,.14,0,.29,0,1.5.09,2.57,1.57,2.25,3.04,0,.02-.01.05-.02.07-.35,1.46-1.68,2.6-3.41,2.96-.73.45-1.74,1.2-2.67,2.37-1.46,1.85-1.91,3.75-2.07,4.74Z"/>
              <path class="cls-1" d="M313.25,37.2c.12-1.83.2-6.12-1.78-9.63-1.06-1.88-2.67-3.45-3.85-3.56-.03,0-.14,0-.29,0-1.5.09-2.57,1.57-2.25,3.04,0,.02.01.05.02.07.35,1.46,1.68,2.6,3.41,2.96.73.45,1.74,1.2,2.67,2.37,1.46,1.85,1.91,3.75,2.07,4.74Z"/>
              <path class="cls-1" d="M315.64,32.49l3-12.55c.08-.37.33-1.76-.44-3.22-.14-.26-.3-.5-.46-.7-1.05-1.33-3.1-1.4-4.18-.1,0,0-.01.02-.02.03-1.29,1.57-1.05,3.44-1,3.78,1.04,4.26,2.07,8.52,3.11,12.78Z"/>
            </g>
            <path class="cls-1" d="M314.6,55.81c-.28,0-.5-.22-.5-.5,0-.07,0-.15,0-.23-.03-1.67-.23-8.48-4.91-14.06,0,0-2.71-3.24-5.53-3.93-1.3-.32-2.64-.35-3.99-.08-.33.06-.61.27-.76.57-.08.16-.2.47-.04.83.24.53.69.94,1.24,1.16s.96.79.96,1.42h0c0,1.06-1.07,1.76-2.05,1.37-1.28-.51-2.33-1.47-2.88-2.71l-.03-.06c-.59-1.37-.36-2.98.67-4.19.63-.74,1.52-1.2,2.48-1.37,1.73-.32,3.45-.27,5.13.15,4.19,1.04,6.53,4,7.33,5.22l.04.06c1.2,2.04,2.17,4.21,2.88,6.46.05.17.11.35.16.52.07-.18.14-.35.22-.53,1.05-2.5,2.51-4.8,4.34-6.83,1.18-1.3,3.73-3.59,7.6-4.46,1.71-.38,3.47-.45,5.23-.19,1.35.2,2.55.92,3.28,1.99.51.75.76,1.57.73,2.39-.04,1.1-.61,2.19-1.56,2.99-.66.56-1.45.95-2.31,1.15-.95.22-1.86-.4-1.9-1.38-.03-.75.48-1.38,1.19-1.53.41-.09.78-.26,1.08-.52.36-.31.5-.63.5-.83,0-.17-.07-.37-.21-.58-.26-.38-.71-.64-1.23-.72-1.39-.2-2.79-.15-4.14.15-3.35.75-5.6,3.14-6.03,3.55-.59.54-6.31,5.97-6.47,13.99,0,.08,0,.15,0,.22,0,.27-.22.49-.49.5h0Z"/>
          </g>
          <g>
            <g>
              <path class="cls-1" d="M312.1,87.62c.12,1.83.2,6.12-1.78,9.63-1.06,1.88-2.67,3.45-3.85,3.56-.03,0-.14,0-.29,0-1.5-.09-2.57-1.57-2.25-3.04,0-.02.01-.05.02-.07.35-1.46,1.68-2.6,3.41-2.96.73-.45,1.74-1.2,2.67-2.37,1.46-1.85,1.91-3.75,2.07-4.74Z"/>
              <path class="cls-1" d="M316.57,87.62c-.12,1.83-.2,6.12,1.78,9.63,1.06,1.88,2.67,3.45,3.85,3.56.03,0,.14,0,.29,0,1.5-.09,2.57-1.57,2.25-3.04,0-.02-.01-.05-.02-.07-.35-1.46-1.68-2.6-3.41-2.96-.73-.45-1.74-1.2-2.67-2.37-1.46-1.85-1.91-3.75-2.07-4.74Z"/>
              <path class="cls-1" d="M314.17,92.32l-3,12.55c-.08.37-.33,1.76.44,3.22.14.26.3.5.46.7,1.05,1.33,3.1,1.4,4.18.1,0,0,.01-.02.02-.03,1.29-1.57,1.05-3.44,1-3.78-1.04-4.26-2.07-8.52-3.11-12.78Z"/>
            </g>
            <path class="cls-1" d="M314.98,69.01c.28,0,.5.22.5.5,0,.07,0,.15,0,.23.03,1.67.47,8.48,5.14,14.06,0,0,3.18,3.24,6,3.93,1.3.32,2.64.35,3.99.08.33-.06.61-.27.76-.57.08-.16.2-.47.04-.83-.24-.53-.69-.94-1.24-1.16s-.96-.79-.96-1.42h0c0-1.06,1.07-1.76,2.05-1.37,1.28.51,2.33,1.47,2.88,2.71l.03.06c.59,1.37.36,2.98-.67,4.19-.63.74-1.52,1.2-2.48,1.37-1.73.32-3.45.27-5.13-.15-4.19-1.04-7-4-7.81-5.22l-.04-.06c-1.2-2.04-2.4-4.21-3.11-6.46-.05-.17-.11-.35-.16-.52-.07.18-.14.35-.22.53-1.05,2.5-2.28,4.8-4.1,6.83-1.18,1.3-3.73,3.59-7.6,4.46-1.71.38-3.47.45-5.23.19-1.35-.2-2.55-.92-3.28-1.99-.51-.75-.76-1.57-.73-2.39.04-1.1.61-2.19,1.56-2.99.66-.56,1.45-.95,2.31-1.15.95-.22,1.86.4,1.9,1.38.03.75-.48,1.38-1.19,1.53-.41.09-.78.26-1.08.52-.36.31-.5.63-.5.83,0,.17.07.37.21.58.26.38.71.64,1.23.72,1.39.2,2.79.15,4.14-.15,3.35-.75,5.6-3.14,6.03-3.55.59-.54,6.07-5.97,6.24-13.99,0-.08,0-.15,0-.22,0-.27.22-.49.49-.5h0Z"/>
          </g>
          <g>
            <g>
              <path class="cls-1" d="M285.17,59.88c-1.83.12-6.12.2-9.63-1.78-1.88-1.06-3.45-2.67-3.56-3.85,0-.03,0-.14,0-.29.09-1.5,1.57-2.57,3.04-2.25.02,0,.05.01.07.02,1.46.35,2.6,1.68,2.96,3.41.45.73,1.2,1.74,2.37,2.67,1.85,1.46,3.75,1.91,4.74,2.07Z"/>
              <path class="cls-1" d="M285.17,64.35c-1.83-.12-6.12-.2-9.63,1.78-1.88,1.06-3.45,2.67-3.56,3.85,0,.03,0,.14,0,.29.09,1.5,1.57,2.57,3.04,2.25.02,0,.05-.01.07-.02,1.46-.35,2.6-1.68,2.96-3.41.45-.73,1.2-1.74,2.37-2.67,1.85-1.46,3.75-1.91,4.74-2.07Z"/>
              <path class="cls-1" d="M280.47,61.96l-12.55-3c-.37-.08-1.76-.33-3.22.44-.26.14-.5.3-.7.46-1.33,1.05-1.4,3.1-.1,4.18,0,0,.02.01.03.02,1.57,1.29,3.44,1.05,3.78,1,4.26-1.04,8.52-2.07,12.78-3.11Z"/>
            </g>
            <path class="cls-1" d="M303.78,63c0,.28-.22.5-.5.5-.07,0-.15,0-.23,0-1.67.03-8.48.23-14.06,4.91,0,0-3.24,2.71-3.93,5.53-.32,1.3-.35,2.64-.08,3.99.06.33.27.61.57.76.16.08.47.2.83.04.53-.24.94-.69,1.16-1.24s.79-.96,1.42-.96h0c1.06,0,1.76,1.07,1.37,2.05-.51,1.28-1.47,2.33-2.71,2.88l-.06.03c-1.37.59-2.98.36-4.19-.67-.74-.63-1.2-1.52-1.37-2.48-.32-1.73-.27-3.45.15-5.13,1.04-4.19,4-6.53,5.22-7.33l.06-.04c2.04-1.2,4.21-2.17,6.46-2.88.17-.05.35-.11.52-.16-.18-.07-.35-.14-.53-.22-2.5-1.05-4.8-2.51-6.83-4.34-1.3-1.18-3.59-3.73-4.46-7.6-.38-1.71-.45-3.47-.19-5.23.2-1.35.92-2.55,1.99-3.28.75-.51,1.57-.76,2.39-.73,1.1.04,2.19.61,2.99,1.56.56.66.95,1.45,1.15,2.31.22.95-.4,1.86-1.38,1.9-.75.03-1.38-.48-1.53-1.19-.09-.41-.26-.78-.52-1.08-.31-.36-.63-.5-.83-.5-.17,0-.37.07-.58.21-.38.26-.64.71-.72,1.23-.2,1.39-.15,2.79.15,4.14.75,3.35,3.14,5.6,3.55,6.03.54.59,5.97,6.31,13.99,6.47.08,0,.15,0,.22,0,.27,0,.49.22.5.49h0Z"/>
          </g>
          <g>
            <g>
              <path class="cls-1" d="M347.73,59.88c1.83.12,6.12.2,9.63-1.78,1.88-1.06,3.45-2.67,3.56-3.85,0-.03,0-.14,0-.29-.09-1.5-1.57-2.57-3.04-2.25-.02,0-.05.01-.07.02-1.46.35-2.6,1.68-2.96,3.41-.45.73-1.2,1.74-2.37,2.67-1.85,1.46-3.75,1.91-4.74,2.07Z"/>
              <path class="cls-1" d="M347.73,64.35c1.83-.12,6.12-.2,9.63,1.78,1.88,1.06,3.45,2.67,3.56,3.85,0,.03,0,.14,0,.29-.09,1.5-1.57,2.57-3.04,2.25-.02,0-.05-.01-.07-.02-1.46-.35-2.6-1.68-2.96-3.41-.45-.73-1.2-1.74-2.37-2.67-1.85-1.46-3.75-1.91-4.74-2.07Z"/>
              <path class="cls-1" d="M352.44,61.96l12.55-3c.37-.08,1.76-.33,3.22.44.26.14.5.3.7.46,1.33,1.05,1.4,3.1.1,4.18,0,0-.02.01-.03.02-1.57,1.29-3.44,1.05-3.78,1-4.26-1.04-8.52-2.07-12.78-3.11Z"/>
            </g>
            <path class="cls-1" d="M329.12,63c0,.28.22.5.5.5.07,0,.15,0,.23,0,1.67.03,8.48.23,14.06,4.91,0,0,3.24,2.71,3.93,5.53.32,1.3.35,2.64.08,3.99-.06.33-.27.61-.57.76-.16.08-.47.2-.83.04-.53-.24-.94-.69-1.16-1.24s-.79-.96-1.42-.96h0c-1.06,0-1.76,1.07-1.37,2.05.51,1.28,1.47,2.33,2.71,2.88l.06.03c1.37.59,2.98.36,4.19-.67.74-.63,1.2-1.52,1.37-2.48.32-1.73.27-3.45-.15-5.13-1.04-4.19-4-6.53-5.22-7.33l-.06-.04c-2.04-1.2-4.21-2.17-6.46-2.88-.17-.05-.35-.11-.52-.16.18-.07.35-.14.53-.22,2.5-1.05,4.8-2.51,6.83-4.34,1.3-1.18,3.59-3.73,4.46-7.6.38-1.71.45-3.47.19-5.23-.2-1.35-.92-2.55-1.99-3.28-.75-.51-1.57-.76-2.39-.73-1.1.04-2.19.61-2.99,1.56-.56.66-.95,1.45-1.15,2.31-.22.95.4,1.86,1.38,1.9.75.03,1.38-.48,1.53-1.19.09-.41.26-.78.52-1.08.31-.36.63-.5.83-.5.17,0,.37.07.58.21.38.26.64.71.72,1.23.2,1.39.15,2.79-.15,4.14-.75,3.35-3.14,5.6-3.55,6.03-.54.59-5.97,6.31-13.99,6.47-.08,0-.15,0-.22,0-.27,0-.49.22-.5.49h0Z"/>
          </g>
          <circle class="cls-1" cx="314.76" cy="62.6" r="3.75"/>
          <path class="cls-1" d="M319.98,58.83l10.92-6.89c.32-.21,1.47-1.02,1.93-2.62.08-.29.14-.56.16-.83.17-1.68-1.24-3.16-2.92-2.99-.01,0-.02,0-.03,0-2.02.22-3.16,1.73-3.35,2-2.23,3.77-4.47,7.54-6.7,11.32Z"/>
          <path class="cls-1" d="M309.07,58.83l-10.92-6.89c-.32-.21-1.47-1.02-1.93-2.62-.08-.29-.14-.56-.16-.83-.17-1.68,1.24-3.16,2.92-2.99.01,0,.02,0,.03,0,2.02.22,3.16,1.73,3.35,2,2.23,3.77,4.47,7.54,6.7,11.32Z"/>
          <path class="cls-1" d="M309.07,65.9l-10.92,6.89c-.32.21-1.47,1.02-1.93,2.62-.08.29-.14.56-.16.83-.17,1.68,1.24,3.16,2.92,2.99.01,0,.02,0,.03,0,2.02-.22,3.16-1.73,3.35-2,2.23-3.77,4.47-7.54,6.7-11.32Z"/>
          <path class="cls-1" d="M319.98,65.9l10.92,6.89c.32.21,1.47,1.02,1.93,2.62.08.29.14.56.16.83.17,1.68-1.24,3.16-2.92,2.99-.01,0-.02,0-.03,0-2.02-.22-3.16-1.73-3.35-2-2.23-3.77-4.47-7.54-6.7-11.32Z"/>
          <path class="cls-1" d="M314.96,122.82c-.33,0-.66,0-.99-.02-9.55-.41-18.2-6.87-21.51-16.06-1.02-2.84-3.7-4.74-6.67-4.74h-8.92v-9.2c0-3.09-2.05-5.87-4.98-6.74-10.72-3.22-18.17-13.23-18.11-24.36.06-11,7.5-20.9,18.09-24.09,2.94-.88,4.99-3.66,4.99-6.75v-8.59h8.57c3.08,0,5.84-2.02,6.73-4.91,3.24-10.63,13.43-17.92,24.21-17.31,9.84.55,18.47,7.43,21.47,17.13.94,3.05,3.67,5.1,6.78,5.1h9.12v8.7c0,3.11,1.97,5.82,4.9,6.72,10.72,3.31,18.14,12.95,18.47,23.98.34,11.56-7.26,22.05-18.48,25.53-2.88.89-4.88,3.65-4.88,6.72v8.08h-9.51c-2.98,0-5.64,1.85-6.62,4.6-3.45,9.67-12.68,16.22-22.67,16.22ZM279.36,99.49h6.42c4.01,0,7.64,2.57,9.02,6.39,2.98,8.25,10.72,14.04,19.27,14.41,9.28.42,18-5.58,21.19-14.54,1.34-3.75,4.94-6.26,8.97-6.26h7.01v-5.58c0-4.21,2.67-7.87,6.64-9.11,10.16-3.15,17.03-12.63,16.72-23.07-.3-9.96-7.01-18.67-16.71-21.67-3.98-1.23-6.66-4.89-6.66-9.11v-6.2h-6.62c-4.22,0-7.9-2.76-9.17-6.86-2.7-8.7-10.42-14.88-19.22-15.37-9.66-.55-18.77,6-21.68,15.55-1.2,3.93-4.95,6.68-9.12,6.68h-6.07v6.1c0,4.18-2.78,7.94-6.77,9.14-9.55,2.87-16.26,11.8-16.31,21.71-.05,10.02,6.66,19.05,16.33,21.95,3.98,1.19,6.76,4.95,6.76,9.14v6.7Z"/>
        </g>
        <g>
          <path class="cls-1" d="M51.86,60.96c0,1.19-.21,2.24-.62,3.14s-1,1.6-1.77,2.08c-.77.49-1.65.73-2.65.73-1.51,0-2.74-.54-3.67-1.62s-1.4-2.55-1.4-4.39v-1.34c0-1.18.21-2.23.63-3.14.42-.91,1.01-1.61,1.78-2.1.77-.49,1.65-.73,2.65-.73s1.88.24,2.64.72c.76.48,1.35,1.16,1.77,2.04.42.88.63,1.9.65,3.06v1.55ZM50.76,59.55c0-1.56-.35-2.79-1.06-3.67-.71-.88-1.67-1.33-2.9-1.33s-2.17.44-2.88,1.33-1.07,2.13-1.07,3.72v1.35c0,1.54.36,2.76,1.07,3.66.71.9,1.68,1.35,2.9,1.35s2.21-.44,2.9-1.33c.69-.89,1.04-2.12,1.04-3.71v-1.37Z"/>
          <path class="cls-1" d="M64.58,64.29c0-.53-.21-.95-.64-1.27-.42-.32-1.06-.57-1.92-.75-.86-.18-1.52-.39-1.99-.62-.47-.23-.82-.52-1.05-.86-.23-.34-.34-.75-.34-1.23,0-.76.32-1.39.95-1.88.63-.5,1.45-.74,2.44-.74,1.07,0,1.94.27,2.59.8.65.53.97,1.22.97,2.08h-1.07c0-.56-.24-1.03-.71-1.41-.47-.37-1.07-.56-1.79-.56s-1.26.16-1.69.47c-.42.31-.64.72-.64,1.22s.18.85.53,1.12c.35.26,1,.51,1.93.73.94.22,1.64.45,2.1.7.47.25.81.55,1.04.9.23.35.34.77.34,1.27,0,.81-.33,1.46-.98,1.95-.66.49-1.51.73-2.57.73-1.12,0-2.03-.27-2.73-.81-.7-.54-1.05-1.23-1.05-2.06h1.07c.04.62.3,1.11.79,1.46.48.35,1.12.52,1.92.52.74,0,1.34-.16,1.8-.49.46-.33.69-.74.69-1.24Z"/>
          <path class="cls-1" d="M74.13,66.74c-.11-.3-.18-.75-.21-1.34-.37.49-.85.86-1.43,1.13-.58.26-1.19.4-1.84.4-.93,0-1.68-.26-2.25-.77s-.86-1.17-.86-1.96c0-.94.39-1.68,1.17-2.23.78-.55,1.87-.82,3.26-.82h1.93v-1.1c0-.69-.21-1.23-.64-1.63-.42-.39-1.04-.59-1.86-.59-.74,0-1.36.19-1.84.57-.49.38-.73.84-.73,1.37h-1.07c0-.78.36-1.44,1.07-2,.71-.56,1.59-.84,2.63-.84s1.92.27,2.54.81c.62.54.94,1.29.96,2.25v4.56c0,.93.1,1.63.29,2.09v.11h-1.14ZM70.78,65.97c.71,0,1.35-.17,1.91-.52.56-.34.97-.8,1.22-1.38v-2.12h-1.91c-1.06.01-1.89.21-2.49.58-.6.38-.9.9-.9,1.55,0,.54.2.99.6,1.34.4.36.92.54,1.56.54Z"/>
          <path class="cls-1" d="M85.57,62.02c0,1.5-.33,2.69-1,3.58s-1.56,1.32-2.68,1.32c-1.34,0-2.36-.5-3.05-1.5l-.04,1.32h-1v-13.68h1.06v5.44c.68-1.05,1.68-1.58,3.01-1.58,1.14,0,2.04.44,2.7,1.31.66.87.99,2.08.99,3.63v.16ZM84.5,61.83c0-1.27-.25-2.25-.74-2.94-.49-.69-1.19-1.04-2.08-1.04-.68,0-1.26.17-1.74.5-.48.34-.83.83-1.08,1.47v4.35c.54,1.21,1.48,1.82,2.83,1.82.88,0,1.57-.35,2.06-1.04.5-.7.74-1.73.74-3.12Z"/>
          <path class="cls-1" d="M87.34,61.78c0-.93.18-1.76.54-2.5s.87-1.32,1.52-1.73c.66-.41,1.4-.62,2.23-.62,1.28,0,2.32.45,3.12,1.35s1.19,2.09,1.19,3.58v.22c0,.93-.18,1.77-.54,2.52s-.87,1.32-1.52,1.72c-.65.4-1.4.61-2.24.61-1.28,0-2.31-.45-3.11-1.35-.8-.9-1.2-2.09-1.2-3.58v-.21ZM88.4,62.07c0,1.15.3,2.1.9,2.84.6.74,1.38,1.11,2.35,1.11s1.74-.37,2.34-1.11c.6-.74.9-1.71.9-2.93v-.21c0-.74-.14-1.41-.41-2.02s-.66-1.08-1.15-1.42c-.49-.33-1.06-.5-1.69-.5-.95,0-1.72.37-2.32,1.12-.6.75-.9,1.72-.9,2.93v.2Z"/>
          <path class="cls-1" d="M102.6,58.01c-.23-.04-.47-.06-.72-.06-.67,0-1.23.19-1.69.56s-.79.91-.98,1.62v6.62h-1.06v-9.64h1.04l.02,1.53c.56-1.14,1.47-1.71,2.72-1.71.3,0,.53.04.7.12l-.03.97Z"/>
          <path class="cls-1" d="M108.29,61.83c0-1.51.33-2.7,1-3.58s1.58-1.32,2.74-1.32c1.3,0,2.29.5,2.97,1.49l.05-1.31h1v13.34h-1.07v-4.9c-.7.91-1.69,1.37-2.97,1.37-1.13,0-2.03-.45-2.71-1.34s-1.02-2.09-1.02-3.61v-.14ZM109.37,62.02c0,1.25.25,2.23.75,2.93.5.71,1.2,1.06,2.09,1.06,1.28,0,2.2-.55,2.77-1.67v-4.72c-.27-.58-.64-1.02-1.11-1.33-.47-.31-1.02-.47-1.64-.47-.9,0-1.6.35-2.1,1.06-.5.71-.76,1.75-.76,3.12Z"/>
          <path class="cls-1" d="M125.09,65.52c-.64.93-1.67,1.4-3.07,1.4-1.03,0-1.81-.3-2.34-.89-.54-.6-.81-1.48-.82-2.65v-6.27h1.06v6.14c0,1.83.74,2.75,2.23,2.75s2.52-.64,2.93-1.92v-6.97h1.07v9.64h-1.03l-.02-1.22Z"/>
          <path class="cls-1" d="M132.64,66.92c-.82,0-1.56-.2-2.22-.61-.66-.4-1.18-.97-1.55-1.69s-.55-1.53-.55-2.43v-.38c0-.93.18-1.76.54-2.5s.86-1.33,1.5-1.75c.64-.42,1.34-.64,2.08-.64,1.17,0,2.1.4,2.78,1.2.69.8,1.03,1.89,1.03,3.27v.6h-6.88v.21c0,1.09.31,2,.94,2.73.63.73,1.41,1.09,2.36,1.09.57,0,1.07-.1,1.51-.31.44-.21.83-.54,1.19-1l.67.51c-.78,1.13-1.92,1.7-3.41,1.7ZM132.44,57.83c-.8,0-1.48.29-2.03.88-.55.59-.88,1.38-1,2.37h5.78v-.12c-.03-.93-.29-1.68-.79-2.26s-1.15-.87-1.96-.87Z"/>
          <path class="cls-1" d="M148.85,66.74c-.11-.3-.18-.75-.21-1.34-.37.49-.85.86-1.43,1.13-.58.26-1.19.4-1.84.4-.93,0-1.68-.26-2.25-.77s-.86-1.17-.86-1.96c0-.94.39-1.68,1.17-2.23.78-.55,1.87-.82,3.26-.82h1.93v-1.1c0-.69-.21-1.23-.64-1.63-.42-.39-1.04-.59-1.86-.59-.74,0-1.36.19-1.84.57-.49.38-.73.84-.73,1.37h-1.07c0-.78.36-1.44,1.07-2,.71-.56,1.59-.84,2.63-.84s1.92.27,2.54.81c.62.54.94,1.29.96,2.25v4.56c0,.93.1,1.63.29,2.09v.11h-1.14ZM145.5,65.97c.71,0,1.35-.17,1.91-.52.56-.34.97-.8,1.22-1.38v-2.12h-1.91c-1.06.01-1.89.21-2.49.58-.6.38-.9.9-.9,1.55,0,.54.2.99.6,1.34.4.36.92.54,1.56.54Z"/>
          <path class="cls-1" d="M160.3,62.02c0,1.5-.33,2.69-1,3.58s-1.56,1.32-2.68,1.32c-1.34,0-2.36-.5-3.05-1.5l-.04,1.32h-1v-13.68h1.06v5.44c.68-1.05,1.68-1.58,3.01-1.58,1.14,0,2.04.44,2.7,1.31.66.87.99,2.08.99,3.63v.16ZM159.23,61.83c0-1.27-.25-2.25-.74-2.94-.49-.69-1.19-1.04-2.08-1.04-.68,0-1.26.17-1.74.5-.48.34-.83.83-1.08,1.47v4.35c.54,1.21,1.48,1.82,2.83,1.82.88,0,1.57-.35,2.06-1.04.5-.7.74-1.73.74-3.12Z"/>
          <path class="cls-1" d="M167.1,58.01c-.23-.04-.47-.06-.72-.06-.67,0-1.23.19-1.69.56s-.79.91-.98,1.62v6.62h-1.06v-9.64h1.04l.02,1.53c.56-1.14,1.47-1.71,2.72-1.71.3,0,.53.04.7.12l-.03.97Z"/>
          <path class="cls-1" d="M174.52,66.74c-.11-.3-.18-.75-.21-1.34-.37.49-.85.86-1.43,1.13-.58.26-1.19.4-1.84.4-.93,0-1.68-.26-2.25-.77s-.86-1.17-.86-1.96c0-.94.39-1.68,1.17-2.23.78-.55,1.87-.82,3.26-.82h1.93v-1.1c0-.69-.21-1.23-.64-1.63-.42-.39-1.04-.59-1.86-.59-.74,0-1.36.19-1.84.57-.49.38-.73.84-.73,1.37h-1.07c0-.78.36-1.44,1.07-2,.71-.56,1.59-.84,2.63-.84s1.92.27,2.54.81c.62.54.94,1.29.96,2.25v4.56c0,.93.1,1.63.29,2.09v.11h-1.14ZM171.17,65.97c.71,0,1.35-.17,1.91-.52.56-.34.97-.8,1.22-1.38v-2.12h-1.91c-1.06.01-1.89.21-2.49.58-.6.38-.9.9-.9,1.55,0,.54.2.99.6,1.34.4.36.92.54,1.56.54Z"/>
          <path class="cls-1" d="M181.77,66.02c.74,0,1.36-.21,1.87-.63s.77-.96.82-1.63h1.02c-.03.59-.21,1.12-.55,1.61-.34.48-.79.86-1.35,1.14-.56.27-1.16.41-1.8.41-1.26,0-2.27-.44-3.01-1.32-.74-.88-1.11-2.06-1.11-3.54v-.32c0-.95.17-1.79.5-2.52.33-.73.81-1.29,1.43-1.69.62-.4,1.35-.6,2.18-.6,1.06,0,1.93.32,2.61.94.69.63,1.05,1.46,1.1,2.49h-1.02c-.05-.75-.32-1.36-.82-1.83-.5-.46-1.12-.69-1.88-.69-.96,0-1.71.35-2.24,1.04-.53.69-.8,1.67-.8,2.92v.31c0,1.23.27,2.19.8,2.88.53.69,1.28,1.03,2.25,1.03ZM182.06,66.82l-.11.57c.98.12,1.47.63,1.47,1.52,0,.55-.23.98-.7,1.3-.47.32-1.11.48-1.92.48l-.06-.7c.53,0,.96-.1,1.3-.29.33-.19.5-.45.5-.78,0-.34-.13-.58-.39-.71-.26-.13-.65-.22-1.18-.27l.26-1.13h.83Z"/>
          <path class="cls-1" d="M193.68,66.74c-.11-.3-.18-.75-.21-1.34-.37.49-.85.86-1.43,1.13-.58.26-1.19.4-1.84.4-.93,0-1.68-.26-2.25-.77s-.86-1.17-.86-1.96c0-.94.39-1.68,1.17-2.23.78-.55,1.87-.82,3.26-.82h1.93v-1.1c0-.69-.21-1.23-.64-1.63-.42-.39-1.04-.59-1.86-.59-.74,0-1.36.19-1.84.57-.49.38-.73.84-.73,1.37h-1.07c0-.78.36-1.44,1.07-2,.71-.56,1.59-.84,2.63-.84s1.92.27,2.54.81c.62.54.94,1.29.96,2.25v4.56c0,.93.1,1.63.29,2.09v.11h-1.14ZM190.34,65.97c.71,0,1.35-.17,1.91-.52.56-.34.97-.8,1.22-1.38v-2.12h-1.91c-1.06.01-1.89.21-2.49.58-.6.38-.9.9-.9,1.55,0,.54.2.99.6,1.34.4.36.92.54,1.56.54Z"/>
          <path class="cls-1" d="M197.15,69.16l-.63-.46c.54-.72.82-1.48.84-2.25v-1.38h1.04v1.11c0,1.24-.42,2.23-1.25,2.98Z"/>
          <path class="cls-1" d="M208.86,66.02c.74,0,1.36-.21,1.87-.63s.77-.96.82-1.63h1.02c-.03.59-.21,1.12-.55,1.61-.34.48-.79.86-1.35,1.14-.56.27-1.16.41-1.8.41-1.26,0-2.27-.44-3.01-1.32-.74-.88-1.11-2.06-1.11-3.54v-.32c0-.95.17-1.79.5-2.52.33-.73.81-1.29,1.43-1.69.62-.4,1.35-.6,2.18-.6,1.06,0,1.93.32,2.61.94.69.63,1.05,1.46,1.1,2.49h-1.02c-.05-.75-.32-1.36-.82-1.83-.5-.46-1.12-.69-1.88-.69-.96,0-1.71.35-2.24,1.04-.53.69-.8,1.67-.8,2.92v.31c0,1.23.27,2.19.8,2.88.53.69,1.28,1.03,2.25,1.03Z"/>
          <path class="cls-1" d="M214.11,61.78c0-.93.18-1.76.54-2.5s.87-1.32,1.52-1.73c.66-.41,1.4-.62,2.23-.62,1.28,0,2.32.45,3.12,1.35s1.19,2.09,1.19,3.58v.22c0,.93-.18,1.77-.54,2.52s-.87,1.32-1.52,1.72c-.65.4-1.4.61-2.24.61-1.28,0-2.31-.45-3.11-1.35-.8-.9-1.2-2.09-1.2-3.58v-.21ZM215.18,62.07c0,1.15.3,2.1.9,2.84.6.74,1.38,1.11,2.35,1.11s1.74-.37,2.34-1.11c.6-.74.9-1.71.9-2.93v-.21c0-.74-.14-1.41-.41-2.02s-.66-1.08-1.15-1.42c-.49-.33-1.06-.5-1.69-.5-.95,0-1.72.37-2.32,1.12-.6.75-.9,1.72-.9,2.93v.2Z"/>
          <path class="cls-1" d="M225.89,57.1l.04,1.57c.36-.58.8-1.02,1.34-1.31s1.13-.44,1.78-.44c1.52,0,2.49.62,2.9,1.87.34-.6.8-1.06,1.38-1.39.58-.32,1.21-.49,1.91-.49,2.07,0,3.12,1.13,3.16,3.38v6.43h-1.07v-6.35c0-.86-.19-1.5-.56-1.92-.37-.42-.96-.62-1.79-.62-.77.01-1.41.26-1.94.74-.53.48-.82,1.07-.88,1.77v6.38h-1.07v-6.43c0-.83-.2-1.44-.58-1.85-.38-.41-.97-.61-1.77-.61-.67,0-1.25.19-1.73.57-.48.38-.84.95-1.07,1.71v6.61h-1.07v-9.64h1.02Z"/>
        </g>
        <g>
          <path class="cls-1" d="M394.12,54.32c0-.2.07-.37.2-.51.13-.14.31-.21.53-.21s.41.07.54.21.2.31.2.51-.07.37-.2.5-.31.2-.54.2-.4-.07-.53-.2c-.13-.14-.2-.3-.2-.5ZM395.38,66.74h-1.07v-9.64h1.07v9.64Z"/>
          <path class="cls-1" d="M399.29,57.1l.04,1.65c.36-.59.81-1.05,1.35-1.36.54-.31,1.14-.47,1.79-.47,1.03,0,1.8.29,2.31.87.5.58.76,1.46.77,2.62v6.32h-1.06v-6.33c0-.86-.19-1.5-.55-1.92-.36-.42-.93-.63-1.72-.63-.66,0-1.24.21-1.75.62s-.88.97-1.13,1.67v6.6h-1.06v-9.64h1.02Z"/>
          <path class="cls-1" d="M407.87,61.83c0-1.51.33-2.7,1-3.58s1.58-1.32,2.72-1.32c1.31,0,2.31.52,2.99,1.57l.05-1.39h1v9.44c0,1.24-.35,2.22-1.04,2.95-.7.72-1.64,1.09-2.82,1.09-.67,0-1.31-.15-1.92-.45-.61-.3-1.09-.7-1.44-1.2l.6-.64c.75.93,1.65,1.39,2.69,1.39.89,0,1.59-.26,2.08-.79.5-.53.76-1.25.77-2.19v-1.21c-.68.95-1.68,1.42-2.98,1.42-1.12,0-2.01-.45-2.69-1.34s-1.02-2.09-1.02-3.61v-.14ZM408.94,62.02c0,1.23.25,2.2.74,2.91s1.19,1.06,2.08,1.06c1.31,0,2.24-.59,2.79-1.76v-4.48c-.25-.62-.61-1.09-1.08-1.41-.47-.32-1.03-.49-1.69-.49-.9,0-1.59.35-2.09,1.06-.5.7-.75,1.74-.75,3.11Z"/>
          <path class="cls-1" d="M422.87,58.01c-.23-.04-.47-.06-.72-.06-.67,0-1.23.19-1.69.56s-.79.91-.98,1.62v6.62h-1.06v-9.64h1.04l.02,1.53c.56-1.14,1.47-1.71,2.72-1.71.3,0,.53.04.7.12l-.03.97Z"/>
          <path class="cls-1" d="M428.11,66.92c-.82,0-1.56-.2-2.22-.61-.66-.4-1.18-.97-1.55-1.69s-.55-1.53-.55-2.43v-.38c0-.93.18-1.76.54-2.5s.86-1.33,1.5-1.75c.64-.42,1.34-.64,2.08-.64,1.17,0,2.1.4,2.78,1.2.69.8,1.03,1.89,1.03,3.27v.6h-6.88v.21c0,1.09.31,2,.94,2.73.63.73,1.41,1.09,2.36,1.09.57,0,1.07-.1,1.51-.31.44-.21.83-.54,1.19-1l.67.51c-.78,1.13-1.92,1.7-3.41,1.7ZM427.92,57.83c-.8,0-1.48.29-2.03.88-.55.59-.88,1.38-1,2.37h5.78v-.12c-.03-.93-.29-1.68-.79-2.26s-1.15-.87-1.96-.87Z"/>
          <path class="cls-1" d="M433.38,61.83c0-1.5.33-2.69,1-3.58s1.58-1.33,2.72-1.33c1.3,0,2.29.51,2.97,1.54v-5.41h1.06v13.68h-1l-.04-1.28c-.68.97-1.69,1.46-3.01,1.46-1.11,0-2.01-.45-2.69-1.34-.68-.89-1.02-2.1-1.02-3.62v-.12ZM434.46,62.02c0,1.23.25,2.2.74,2.91s1.19,1.06,2.08,1.06c1.31,0,2.25-.58,2.8-1.74v-4.53c-.55-1.25-1.48-1.88-2.78-1.88-.9,0-1.59.35-2.09,1.06-.5.7-.75,1.74-.75,3.11Z"/>
          <path class="cls-1" d="M443.88,54.32c0-.2.07-.37.2-.51.13-.14.31-.21.53-.21s.41.07.54.21.2.31.2.51-.07.37-.2.5-.31.2-.54.2-.4-.07-.53-.2c-.13-.14-.2-.3-.2-.5ZM445.14,66.74h-1.07v-9.64h1.07v9.64Z"/>
          <path class="cls-1" d="M451.76,66.92c-.82,0-1.56-.2-2.22-.61-.66-.4-1.18-.97-1.55-1.69s-.55-1.53-.55-2.43v-.38c0-.93.18-1.76.54-2.5s.86-1.33,1.5-1.75c.64-.42,1.34-.64,2.08-.64,1.17,0,2.1.4,2.78,1.2.69.8,1.03,1.89,1.03,3.27v.6h-6.88v.21c0,1.09.31,2,.94,2.73.63.73,1.41,1.09,2.36,1.09.57,0,1.07-.1,1.51-.31.44-.21.83-.54,1.19-1l.67.51c-.78,1.13-1.92,1.7-3.41,1.7ZM451.57,57.83c-.8,0-1.48.29-2.03.88-.55.59-.88,1.38-1,2.37h5.78v-.12c-.03-.93-.29-1.68-.79-2.26s-1.15-.87-1.96-.87Z"/>
          <path class="cls-1" d="M458.47,57.1l.04,1.65c.36-.59.81-1.05,1.35-1.36.54-.31,1.14-.47,1.79-.47,1.03,0,1.8.29,2.31.87.5.58.76,1.46.77,2.62v6.32h-1.06v-6.33c0-.86-.19-1.5-.55-1.92-.36-.42-.93-.63-1.72-.63-.66,0-1.24.21-1.75.62s-.88.97-1.13,1.67v6.6h-1.06v-9.64h1.02Z"/>
          <path class="cls-1" d="M469.13,54.63v2.47h2v.87h-2v6.43c0,.54.1.93.29,1.2.19.26.51.39.97.39.18,0,.47-.03.86-.09l.04.87c-.28.1-.66.15-1.14.15-.73,0-1.26-.21-1.59-.64-.33-.42-.5-1.05-.5-1.88v-6.43h-1.77v-.87h1.77v-2.47h1.07Z"/>
          <path class="cls-1" d="M477.07,66.92c-.82,0-1.56-.2-2.22-.61-.66-.4-1.18-.97-1.55-1.69s-.55-1.53-.55-2.43v-.38c0-.93.18-1.76.54-2.5s.86-1.33,1.5-1.75c.64-.42,1.34-.64,2.08-.64,1.17,0,2.1.4,2.78,1.2.69.8,1.03,1.89,1.03,3.27v.6h-6.88v.21c0,1.09.31,2,.94,2.73.63.73,1.41,1.09,2.36,1.09.57,0,1.07-.1,1.51-.31.44-.21.83-.54,1.19-1l.67.51c-.78,1.13-1.92,1.7-3.41,1.7ZM476.87,57.83c-.8,0-1.48.29-2.03.88-.55.59-.88,1.38-1,2.37h5.78v-.12c-.03-.93-.29-1.68-.79-2.26s-1.15-.87-1.96-.87Z"/>
          <path class="cls-1" d="M488.53,64.29c0-.53-.21-.95-.64-1.27-.42-.32-1.06-.57-1.92-.75-.86-.18-1.52-.39-1.99-.62-.47-.23-.82-.52-1.05-.86-.23-.34-.34-.75-.34-1.23,0-.76.32-1.39.95-1.88.63-.5,1.45-.74,2.44-.74,1.07,0,1.94.27,2.59.8.65.53.97,1.22.97,2.08h-1.07c0-.56-.24-1.03-.71-1.41-.47-.37-1.07-.56-1.79-.56s-1.26.16-1.69.47c-.42.31-.64.72-.64,1.22s.18.85.53,1.12c.35.26,1,.51,1.93.73.94.22,1.64.45,2.1.7.47.25.81.55,1.04.9.23.35.34.77.34,1.27,0,.81-.33,1.46-.98,1.95-.66.49-1.51.73-2.57.73-1.12,0-2.03-.27-2.73-.81-.7-.54-1.05-1.23-1.05-2.06h1.07c.04.62.3,1.11.79,1.46.48.35,1.12.52,1.92.52.74,0,1.34-.16,1.8-.49.46-.33.69-.74.69-1.24Z"/>
          <path class="cls-1" d="M496.01,61.83c0-1.51.33-2.7,1-3.58s1.58-1.32,2.74-1.32c1.3,0,2.29.5,2.97,1.49l.05-1.31h1v13.34h-1.07v-4.9c-.7.91-1.69,1.37-2.97,1.37-1.13,0-2.03-.45-2.71-1.34s-1.02-2.09-1.02-3.61v-.14ZM497.09,62.02c0,1.25.25,2.23.75,2.93.5.71,1.2,1.06,2.09,1.06,1.28,0,2.2-.55,2.77-1.67v-4.72c-.27-.58-.64-1.02-1.11-1.33-.47-.31-1.02-.47-1.64-.47-.9,0-1.6.35-2.1,1.06-.5.71-.76,1.75-.76,3.12Z"/>
          <path class="cls-1" d="M512.81,65.52c-.64.93-1.67,1.4-3.07,1.4-1.03,0-1.81-.3-2.34-.89-.54-.6-.81-1.48-.82-2.65v-6.27h1.06v6.14c0,1.83.74,2.75,2.23,2.75s2.52-.64,2.93-1.92v-6.97h1.07v9.64h-1.03l-.02-1.22Z"/>
          <path class="cls-1" d="M520.36,66.92c-.82,0-1.56-.2-2.22-.61-.66-.4-1.18-.97-1.55-1.69s-.55-1.53-.55-2.43v-.38c0-.93.18-1.76.54-2.5s.86-1.33,1.5-1.75c.64-.42,1.34-.64,2.08-.64,1.17,0,2.1.4,2.78,1.2.69.8,1.03,1.89,1.03,3.27v.6h-6.88v.21c0,1.09.31,2,.94,2.73.63.73,1.41,1.09,2.36,1.09.57,0,1.07-.1,1.51-.31.44-.21.83-.54,1.19-1l.67.51c-.78,1.13-1.92,1.7-3.41,1.7ZM520.16,57.83c-.8,0-1.48.29-2.03.88-.55.59-.88,1.38-1,2.37h5.78v-.12c-.03-.93-.29-1.68-.79-2.26s-1.15-.87-1.96-.87Z"/>
          <path class="cls-1" d="M534.05,66.02c.74,0,1.36-.21,1.87-.63s.77-.96.82-1.63h1.02c-.03.59-.21,1.12-.55,1.61-.34.48-.79.86-1.35,1.14-.56.27-1.16.41-1.8.41-1.26,0-2.27-.44-3.01-1.32-.74-.88-1.11-2.06-1.11-3.54v-.32c0-.95.17-1.79.5-2.52.33-.73.81-1.29,1.43-1.69.62-.4,1.35-.6,2.18-.6,1.06,0,1.93.32,2.61.94.69.63,1.05,1.46,1.1,2.49h-1.02c-.05-.75-.32-1.36-.82-1.83-.5-.46-1.12-.69-1.88-.69-.96,0-1.71.35-2.24,1.04-.53.69-.8,1.67-.8,2.92v.31c0,1.23.27,2.19.8,2.88.53.69,1.28,1.03,2.25,1.03Z"/>
          <path class="cls-1" d="M546.09,65.52c-.64.93-1.67,1.4-3.07,1.4-1.03,0-1.81-.3-2.34-.89-.54-.6-.81-1.48-.82-2.65v-6.27h1.06v6.14c0,1.83.74,2.75,2.23,2.75s2.52-.64,2.93-1.92v-6.97h1.07v9.64h-1.03l-.02-1.22Z"/>
          <path class="cls-1" d="M549.85,54.32c0-.2.07-.37.2-.51.13-.14.31-.21.53-.21s.41.07.54.21.2.31.2.51-.07.37-.2.5-.31.2-.54.2-.4-.07-.53-.2c-.13-.14-.2-.3-.2-.5ZM551.1,66.74h-1.07v-9.64h1.07v9.64Z"/>
          <path class="cls-1" d="M553.57,61.83c0-1.5.33-2.69,1-3.58s1.58-1.33,2.72-1.33c1.3,0,2.29.51,2.97,1.54v-5.41h1.06v13.68h-1l-.04-1.28c-.68.97-1.69,1.46-3.01,1.46-1.11,0-2.01-.45-2.69-1.34-.68-.89-1.02-2.1-1.02-3.62v-.12ZM554.65,62.02c0,1.23.25,2.2.74,2.91s1.19,1.06,2.08,1.06c1.31,0,2.25-.58,2.8-1.74v-4.53c-.55-1.25-1.48-1.88-2.78-1.88-.9,0-1.59.35-2.09,1.06-.5.7-.75,1.74-.75,3.11Z"/>
          <path class="cls-1" d="M570.22,66.74c-.11-.3-.18-.75-.21-1.34-.37.49-.85.86-1.43,1.13-.58.26-1.19.4-1.84.4-.93,0-1.68-.26-2.25-.77s-.86-1.17-.86-1.96c0-.94.39-1.68,1.17-2.23.78-.55,1.87-.82,3.26-.82h1.93v-1.1c0-.69-.21-1.23-.64-1.63-.42-.39-1.04-.59-1.86-.59-.74,0-1.36.19-1.84.57-.49.38-.73.84-.73,1.37h-1.07c0-.78.36-1.44,1.07-2,.71-.56,1.59-.84,2.63-.84s1.92.27,2.54.81c.62.54.94,1.29.96,2.25v4.56c0,.93.1,1.63.29,2.09v.11h-1.14ZM566.87,65.97c.71,0,1.35-.17,1.91-.52.56-.34.97-.8,1.22-1.38v-2.12h-1.91c-1.06.01-1.89.21-2.49.58-.6.38-.9.9-.9,1.55,0,.54.2.99.6,1.34.4.36.92.54,1.56.54Z"/>
          <path class="cls-1" d="M574.88,57.1l.04,1.57c.36-.58.8-1.02,1.34-1.31s1.13-.44,1.78-.44c1.52,0,2.49.62,2.9,1.87.34-.6.8-1.06,1.38-1.39.58-.32,1.21-.49,1.91-.49,2.07,0,3.12,1.13,3.16,3.38v6.43h-1.07v-6.35c0-.86-.19-1.5-.56-1.92-.37-.42-.96-.62-1.79-.62-.77.01-1.41.26-1.94.74-.53.48-.82,1.07-.88,1.77v6.38h-1.07v-6.43c0-.83-.2-1.44-.58-1.85-.38-.41-.97-.61-1.77-.61-.67,0-1.25.19-1.73.57-.48.38-.84.95-1.07,1.71v6.61h-1.07v-9.64h1.02Z"/>
        </g>
      </g>
    </g>
  </g>
</svg>