<?xml version="1.0" encoding="UTF-8"?>
<svg id="Camada_2" data-name="Camada 2" xmlns="http://www.w3.org/2000/svg" viewBox="0 0 491.75 312.4">
  <defs>
    <style>
      .cls-1 {
        fill: #b4c0a8;
      }
    </style>
  </defs>
  <g id="Camada_1-2" data-name="Camada 1">
    <g>
      <g>
        <g>
          <path class="cls-1" d="M70.27,217.8v54.99h10.36v-54.99c-1.39.27-3.12.5-5.12.51-2.05,0-3.83-.23-5.24-.51ZM75.44,201.08c-3.8,0-6.32,2.47-6.32,6.06,0,3.81,2.52,6.28,6.32,6.28s6.33-2.47,6.33-6.28c0-3.59-2.53-6.06-6.33-6.06Z"/>
          <path class="cls-1" d="M126.57,197.33l-.7,24.67c-2.71-1.56-7.5-2.76-11.97-2.93-14.61-.56-24.84,10.5-25.53,27.66-.5,12.43,4.51,21.97,13.05,26.06,2.7,1.29,5.75,2.04,9.09,2.16,2.3.09,5.19-.67,8.15-2.16,1.78-.88,3.57-2.02,5.31-3.38l-.07,2.82c-.01.19,0,.38.01.56h10.33c0-.06.01-.11.01-.17l2.7-75.29h-10.37ZM124.65,252.15c-.32,7.84-6.51,12.89-13.75,12.62-7.71-.3-12.6-7.45-12.17-17.98.43-10.87,6.35-17.94,14.75-17.63,4.94.18,9.69,2.16,11.89,4.83l-.72,18.16Z"/>
          <path class="cls-1" d="M188.89,263.39s-2.24-1.16-2.77-5c-.07-.54-.11-1.14-.11-1.14-.02-.39-.03-.77-.03-1.15.06-12.51.12-25.03.19-37.54-2.86-.08-5.71-.17-8.57-.25-.13,1.03-.26,2.05-.39,3.08-3.11-1.41-10.73-4.3-18.82-1.64-13.03,4.28-17.16,19.62-17.29,28.63-.04,3.03-.03,11.49,6.09,18.67,1.76,2.06,5.92,6.93,12.89,7.8,9.92,1.24,16.97-6.68,17.6-7.41.34,1.66,1,2.82,1.57,3.58,3.81,5.09,12.04,3.87,12.44,3.81.01-3.69.04-7.37.06-11.06-.95-.13-1.91-.25-2.86-.38ZM175.05,247.36c.34,10.43-5.07,17.39-13.47,17.39-6.1,0-10.13-6.84-10.13-16.37,0-12.57,6.1-20.41,15.31-20.41,4.49,0,8.16,1.79,8.28,4.37v15.03Z"/>
          <path class="cls-1" d="M242.46,238.73c-.56-11.76-7.76-19.37-18-18.99-5.4.19-11.95,3.56-16.36,8.55l-.85-30.96h-10.37l2.42,76.73h10.36l-1.1-33.67c1.5-6.11,6.18-10.2,12.96-10.45,6.09-.22,10.26,3.34,10.47,8.94l1.38,35.18h10.49l-1.39-35.33Z"/>
          <path class="cls-1" d="M59.98,247.36c-.25-10.29-.79-38.6-6.17-46.4-1.47-2.15-3.54-3.69-6.27-3.63-2.55.06-4.44,1.58-5.82,3.6-6.38,9.35-7.99,36.22-14.71,48.85-5.43-6.81-12.23-27.95-14.47-36.91-.56-2.27-1.94-9.26-2.88-10.83-1.06-1.66-2.71-2.81-4.74-2.77-2.53.06-3.83,1.47-4.79,3.58-.49,1,.56,45.93.65,49.69l.43,18.6c.01.3.03.58.11.85h9.95c.34-2.73-.15-16.3-.22-18.89l-.3-13.06c2.49,6.38,8.21,21.1,16.74,20.92,3.15-.07,5.54-2.11,7.31-4.52,6-8.15,9.73-31.41,12.63-42.07,1.88,10.95,2.15,22.13,2.41,33.22.12,5.24.34,10.49.06,15.64-.14,2.77-.48,5.54-.42,8.32,0,.15.01.3.04.43h10.02c.75-5.17.54-21.22.46-24.63Z"/>
        </g>
        <g>
          <path class="cls-1" d="M304.23,197.96c-1.12-1.59-2.65-2.29-4.59-2.29-4.47,0-4.88,4.96-5.7,8.14-.51,1.99-1.12,3.97-1.73,5.95-5.2,16.98-11,33.85-18.54,49.93-.76,1.63-6.17,12.21-7.05,14.59h11.52s.02-.06.05-.09c2.06-4.29,7.88-17.08,8.53-18.76,1.94.21,3.97.21,5.91.21,5.4,0,10.79-.9,15.98-1.99.82,3.97,2.59,15.89,2.9,19.96.01.19.02.39.04.59h10.29c-1.47-14.73-12.95-69.58-17.59-76.23ZM290.79,245.7c3.56-8.94,6.72-18.06,9.57-27.29,2.35,8.33,4.38,16.87,6.21,25.31-5.09,1.39-10.49,1.98-15.78,1.98Z"/>
          <path class="cls-1" d="M386.74,270.18c-.07-4.41.05-16.55-.02-20.96-.16-9.67-.54-32.09-14.79-31.86-5.49.09-9.38,3.53-12.09,7.89-2.2-4.57-5.71-7.61-11.11-7.51-4.23.07-7.85,2.09-10.69,5.04.05-2.63-2.21-4.84-4.89-4.79-5.97.09-4.7,7.2-4.64,11.04l.18,10.13c.12,6.75-.44,21.43-.33,28.19l.12,6.92h9.75c-.02-.85-.06-1.67-.07-2.39l.18-20.21c-.04-1.97-.07-3.94-.01-5.91.12-4.69,4.7-18.56,10.57-18.65,4.61-.08,5.23,19.44,5.29,23,.11,5.44.05,10.88.11,16.34h9.61c-.11-5.93-.01-11.88-.12-17.81-.02-1.79-.06-3.56.11-5.35.33-3.58,3.67-16.49,8.2-16.56,4.04-.07,4.95,19.63,5,23,.1,5.58.05,18.87.1,24.44h9.71c-.01-1.45-.14-2.87-.16-4.01Z"/>
          <path class="cls-1" d="M486.91,227.65c.02-.63.15-2.6-1.12-4.08-.28-.32-1.1-1.17-3.45-1.76-2.53-.64-4.54-.39-6.03-.26,0,0-3.19.27-8.33-.03.76-4.01.79-8.08-.19-12-1.48-5.99-5.44-11.82-12.56-10.79-6.37.92-10.33,6.64-10.11,12.71.22,6.81,5.06,12.6,10.89,16.01-1.19,2.55-2.7,5.06-4.29,7.07-2.57,3.28-5.72,6.05-9.28,7.94.53-9.85-3.96-17.94-12.75-21.79-13.54-5.93-27.38.56-34.59,16.21-7.02,15.25-2.71,29.43,10.83,35.36,12.7,5.56,25.92-.95,32.94-16.2.43-.94.82-1.87,1.17-2.8,7-1.9,13.23-6.12,18.13-11.93,2.59-3.06,4.93-6.65,6.73-10.49,3.73.79,7.52.91,11.36.72-3.26,15.02-1.93,32.98,8.85,45.1,1.66-1.54,4.3-4.22,6.62-6.63-11.45-13.47-5.13-34.89-4.85-42.35ZM425.03,229.68c5.64,2.47,7.95,8.27,6.59,15.46-.86,0-1.72-.05-2.6-.17-7.78-.99-14.36-5.87-19.16-11.78,4.44-4.4,9.92-5.82,15.17-3.52ZM409.76,262.83c-7.64-3.35-9.72-11.97-5.28-21.66,5.73,6.24,13.03,11.19,21.59,12.67.74.13,1.48.23,2.21.31-4.59,8.18-11.74,11.65-18.51,8.68ZM458.35,219.82c-.21-.13-.41-.27-.6-.43-3.54-2.95-4.75-9.23-2.63-11.08.18-.15.68-.42,1.26-.48,3.35-.34,2.81,7,1.96,11.99Z"/>
        </g>
      </g>
      <g>
        <path class="cls-1" d="M165.19,311.98v-14.31h6.2c1.57,0,2.83.32,3.74.96.97.68,1.46,1.67,1.46,2.94,0,.82-.21,1.54-.62,2.12-.23.32-.5.59-.82.83.67.3,1.19.73,1.56,1.27.4.59.6,1.33.6,2.18,0,1.28-.49,2.29-1.45,3-.93.69-2.26,1.02-4.08,1.02h-6.59ZM171.78,310.15c1.21,0,2.13-.19,2.74-.58.54-.34.8-.89.8-1.68s-.26-1.32-.8-1.66c-.6-.38-1.53-.58-2.74-.58h-4.59v4.5h4.59ZM171.35,303.81c1.08,0,1.91-.19,2.47-.58.51-.35.76-.87.76-1.58s-.25-1.22-.76-1.56c-.56-.38-1.39-.58-2.47-.58h-4.16v4.31h4.16Z"/>
        <path class="cls-1" d="M194.02,311.98l-1.75-3.75h-7.28l-1.74,3.75h-2.18l6.75-14.31h1.63l6.75,14.31h-2.18ZM191.42,306.42l-2.8-6-2.79,6h5.59Z"/>
        <path class="cls-1" d="M201.29,311.98v-14.31h6.2c1.57,0,2.83.32,3.74.96.97.68,1.46,1.67,1.46,2.94,0,.82-.21,1.54-.62,2.12-.23.32-.5.59-.82.83.67.3,1.19.73,1.56,1.27.4.59.6,1.33.6,2.18,0,1.28-.49,2.29-1.45,3-.93.69-2.26,1.02-4.08,1.02h-6.59ZM207.88,310.15c1.21,0,2.13-.19,2.74-.58.54-.34.8-.89.8-1.68s-.26-1.32-.8-1.66c-.6-.38-1.53-.58-2.74-.58h-4.59v4.5h4.59ZM207.45,303.81c1.08,0,1.91-.19,2.47-.58.51-.35.76-.87.76-1.58s-.25-1.22-.76-1.56c-.56-.38-1.39-.58-2.47-.58h-4.16v4.31h4.16Z"/>
        <polygon class="cls-1" points="222.36 311.98 222.36 307.05 216.46 297.67 218.73 297.67 223.39 305.07 228.05 297.67 230.27 297.67 224.36 307.05 224.36 311.98 222.36 311.98"/>
        <path class="cls-1" d="M252.29,310.37c-.43.41-.91.76-1.44,1.02-.91.46-1.96.69-3.11.69-.92,0-1.76-.15-2.49-.46-.75-.31-1.35-.76-1.78-1.33-.45-.59-.68-1.27-.68-2.04,0-.63.14-1.21.43-1.75.28-.52.72-1.03,1.34-1.54.4-.33.89-.67,1.47-1.02-.29-.31-.52-.6-.71-.85-.3-.41-.5-.78-.61-1.15-.11-.35-.17-.73-.17-1.13,0-.64.16-1.22.48-1.7.32-.48.77-.86,1.34-1.13.56-.26,1.2-.39,1.92-.39.68,0,1.28.12,1.79.35.53.24.96.59,1.26,1.04.3.46.45,1.01.45,1.64,0,.55-.14,1.08-.41,1.55-.26.46-.69.91-1.28,1.35-.32.24-.7.49-1.15.76l3.13,3.22c.26-.56.46-1.22.6-1.95l.11-.55,1.76.54-.09.44c-.22,1.11-.57,2.08-1.04,2.9l2.09,2.15-1.27,1.36-1.98-2.03ZM247.3,305.25c-.57.34-1.03.65-1.39.94-.44.35-.75.68-.92,1-.16.3-.24.63-.24.99,0,.41.11.76.35,1.07.25.32.58.57,1.03.75.46.19,1.02.29,1.65.29.85,0,1.62-.17,2.27-.5.35-.18.68-.42.97-.7l-3.72-3.82ZM248.29,299.33c-.6,0-1.06.14-1.38.42-.3.26-.44.61-.44,1.06,0,.22.04.43.11.63.07.2.21.44.42.71.18.23.42.51.71.83.45-.27.83-.51,1.13-.73.42-.3.72-.59.88-.84.15-.24.22-.49.22-.77,0-.4-.12-.7-.39-.94-.27-.24-.7-.37-1.26-.37Z"/>
        <polygon class="cls-1" points="279.97 311.98 274.29 305.66 271.75 308.19 271.75 311.98 269.76 311.98 269.76 297.67 271.75 297.67 271.75 305.51 279.57 297.67 282.19 297.67 275.67 304.25 282.51 311.98 279.97 311.98"/>
        <rect class="cls-1" x="287.38" y="297.67" width="2" height="14.31"/>
        <path class="cls-1" d="M297.03,311.98v-14.31h5.9c1.52,0,2.88.31,4.04.91,1.17.61,2.09,1.47,2.74,2.54.65,1.08.98,2.32.98,3.7s-.33,2.62-.98,3.7c-.65,1.08-1.57,1.93-2.74,2.54-1.16.61-2.52.91-4.04.91h-5.9ZM302.86,310.11c1.2,0,2.25-.23,3.12-.68.87-.46,1.53-1.06,2.01-1.86.47-.79.71-1.71.71-2.74s-.24-1.95-.71-2.74c-.47-.78-1.15-1.41-2.01-1.86-.87-.46-1.92-.69-3.12-.69h-3.83v10.56h3.83Z"/>
        <path class="cls-1" d="M321.14,312.08c-1.07,0-2.09-.18-3.05-.53-.97-.36-1.74-.84-2.29-1.43l-.26-.28.98-1.58.45.45c.42.42,1.01.78,1.75,1.08.75.3,1.55.45,2.4.45s1.53-.11,2.05-.31c.49-.2.85-.45,1.07-.77.22-.31.33-.64.33-1.02,0-.44-.11-.78-.34-1.03-.26-.28-.61-.52-1.05-.69-.48-.19-1.02-.36-1.58-.49-.6-.14-1.21-.29-1.83-.45-.64-.17-1.24-.39-1.78-.66-.58-.29-1.05-.69-1.41-1.2-.36-.52-.55-1.19-.55-1.99,0-.73.2-1.41.58-2.02.39-.61.99-1.11,1.79-1.48.78-.36,1.78-.54,2.96-.54.79,0,1.59.12,2.37.34.79.23,1.47.55,2.03.95l.34.24-.8,1.68-.48-.32c-.53-.35-1.1-.61-1.7-.78-.61-.17-1.2-.26-1.77-.26-.8,0-1.46.11-1.97.32-.48.2-.83.47-1.05.78-.22.32-.32.66-.32,1.06,0,.45.11.79.33,1.04.25.28.6.51,1.03.69.48.19,1.02.35,1.6.49.62.14,1.23.29,1.83.45.63.17,1.22.39,1.75.66.58.29,1.05.69,1.41,1.18.37.52.56,1.18.56,1.97,0,.71-.2,1.39-.61,2.01-.4.62-1.02,1.12-1.82,1.48-.79.35-1.79.53-2.99.53Z"/>
      </g>
      <g>
        <path class="cls-1" d="M243.83,68.58c-1.67-.42-1.95.85-2.25,2.15-.96,4.12-4.83,5.34-8.09,2.56-.79-.68-1.48-1.55-2.59-.59-1.18,1.03-.87,2.23-.12,3.28,1.43,1.98,3.57,2.6,5.9,2.76,4.12.07,8.49-3.38,8.89-7.02.15-1.45-.2-2.77-1.74-3.15ZM265.43,72.51c-.94-.72-1.9-.35-2.86.16-1.06.57-2.01,1.25-3.33,1.44-1.49.21-3.19.94-3.23,2.76-.04,1.91,1.7,2.43,3.23,2.66,1.97.29,3.06,1.07,2.6,2.96.01,3.59-1.55,4.6-4.69,3.24-.84-.36-1.61-.87-2.44-1.26-.97-.45-1.86-.2-2.43.64-.51.76-.24,1.51.32,2.24,1.52,1.99,5.68,3.06,8.48,1.98,2.67-1.02,4.3-3.03,3.81-5.92-.47-2.81-.67-5.35,1.06-7.85.63-.91.53-2.25-.53-3.06ZM279.23,54.35c-1.87-.04-1.81,1.44-1.95,2.83-.37,3.72-3.46,5.2-6.56,3.11-1.21-.81-2.24-1.61-3.34-.05-1.06,1.5.01,2.5,1.05,3.34,2.54,2.05,5.37,2.34,8.27.93,2.88-1.4,4.4-3.83,4.79-7.35-.55-.87-.26-2.76-2.26-2.8ZM279.23,54.35c-1.87-.04-1.81,1.44-1.95,2.83-.37,3.72-3.46,5.2-6.56,3.11-1.21-.81-2.24-1.61-3.34-.05-1.06,1.5.01,2.5,1.05,3.34,2.54,2.05,5.37,2.34,8.27.93,2.88-1.4,4.4-3.83,4.79-7.35-.55-.87-.26-2.76-2.26-2.8ZM265.43,72.51c-.94-.72-1.9-.35-2.86.16-1.06.57-2.01,1.25-3.33,1.44-1.49.21-3.19.94-3.23,2.76-.04,1.91,1.7,2.43,3.23,2.66,1.97.29,3.06,1.07,2.6,2.96.01,3.59-1.55,4.6-4.69,3.24-.84-.36-1.61-.87-2.44-1.26-.97-.45-1.86-.2-2.43.64-.51.76-.24,1.51.32,2.24,1.52,1.99,5.68,3.06,8.48,1.98,2.67-1.02,4.3-3.03,3.81-5.92-.47-2.81-.67-5.35,1.06-7.85.63-.91.53-2.25-.53-3.06ZM243.83,68.58c-1.67-.42-1.95.85-2.25,2.15-.96,4.12-4.83,5.34-8.09,2.56-.79-.68-1.48-1.55-2.59-.59-1.18,1.03-.87,2.23-.12,3.28,1.43,1.98,3.57,2.6,5.9,2.76,4.12.07,8.49-3.38,8.89-7.02.15-1.45-.2-2.77-1.74-3.15ZM243.83,68.58c-1.67-.42-1.95.85-2.25,2.15-.96,4.12-4.83,5.34-8.09,2.56-.79-.68-1.48-1.55-2.59-.59-1.18,1.03-.87,2.23-.12,3.28,1.43,1.98,3.57,2.6,5.9,2.76,4.12.07,8.49-3.38,8.89-7.02.15-1.45-.2-2.77-1.74-3.15ZM265.43,72.51c-.94-.72-1.9-.35-2.86.16-1.06.57-2.01,1.25-3.33,1.44-1.49.21-3.19.94-3.23,2.76-.04,1.91,1.7,2.43,3.23,2.66,1.97.29,3.06,1.07,2.6,2.96.01,3.59-1.55,4.6-4.69,3.24-.84-.36-1.61-.87-2.44-1.26-.97-.45-1.86-.2-2.43.64-.51.76-.24,1.51.32,2.24,1.52,1.99,5.68,3.06,8.48,1.98,2.67-1.02,4.3-3.03,3.81-5.92-.47-2.81-.67-5.35,1.06-7.85.63-.91.53-2.25-.53-3.06ZM279.23,54.35c-1.87-.04-1.81,1.44-1.95,2.83-.37,3.72-3.46,5.2-6.56,3.11-1.21-.81-2.24-1.61-3.34-.05-1.06,1.5.01,2.5,1.05,3.34,2.54,2.05,5.37,2.34,8.27.93,2.88-1.4,4.4-3.83,4.79-7.35-.55-.87-.26-2.76-2.26-2.8ZM279.23,54.35c-1.87-.04-1.81,1.44-1.95,2.83-.37,3.72-3.46,5.2-6.56,3.11-1.21-.81-2.24-1.61-3.34-.05-1.06,1.5.01,2.5,1.05,3.34,2.54,2.05,5.37,2.34,8.27.93,2.88-1.4,4.4-3.83,4.79-7.35-.55-.87-.26-2.76-2.26-2.8ZM265.43,72.51c-.94-.72-1.9-.35-2.86.16-1.06.57-2.01,1.25-3.33,1.44-1.49.21-3.19.94-3.23,2.76-.04,1.91,1.7,2.43,3.23,2.66,1.97.29,3.06,1.07,2.6,2.96.01,3.59-1.55,4.6-4.69,3.24-.84-.36-1.61-.87-2.44-1.26-.97-.45-1.86-.2-2.43.64-.51.76-.24,1.51.32,2.24,1.52,1.99,5.68,3.06,8.48,1.98,2.67-1.02,4.3-3.03,3.81-5.92-.47-2.81-.67-5.35,1.06-7.85.63-.91.53-2.25-.53-3.06ZM243.83,68.58c-1.67-.42-1.95.85-2.25,2.15-.96,4.12-4.83,5.34-8.09,2.56-.79-.68-1.48-1.55-2.59-.59-1.18,1.03-.87,2.23-.12,3.28,1.43,1.98,3.57,2.6,5.9,2.76,4.12.07,8.49-3.38,8.89-7.02.15-1.45-.2-2.77-1.74-3.15ZM308.61,146.78c-4.18-2.62-8.79-4.39-13.19-6.57-2.32-1.16-4.69-2.23-7.58-3.6,10.21-1.24,15.23-5.44,17.68-14.29,2.13-7.67,1.59-15.2-1.31-22.58-2.7-6.87-7.32-12.25-13.12-16.72-1-.77-2.66-1.27-1.58-3.34,3.33-6.44,3.22-13.18,1.44-20.02-1.15-4.38-2.31-8.76-3.55-13.48,5.99,1.08,11.57.59,16.96-1.27,7.92-2.74,8.76-6.56,3.03-12.73-5.64-6.06-12.88-8.04-20.82-8.19-1.63-.03-2.84-.27-3.79-1.91-2.78-4.8-7.31-7.12-12.63-7.69-1.95-.2-2.74-.93-3.53-2.57-1.92-3.99-5.04-6.94-8.95-9-9.76-5.15-22.29-3.08-27.91,4.76-1.1,1.54-2.04,1.97-3.94,1.82-13.03-1-21.38,6.93-21.5,20.33-.01,1.25-.72,1.55-1.48,2.03-5.84,3.66-8.4,9.24-8.39,15.84,0,2.67-.98,3.91-2.81,5.46-8.11,6.9-12.57,15.54-11.68,26.44.28,3.43,1.49,4.57,4.88,4.35,8.87-.56,15.93-4.76,21.97-11.28.95,2.3,1.71,4.43,2.7,6.45.8,1.63.69,2.36-1.22,3.13-7.53,3.06-11.77,10.26-10.92,18.43.16,1.53-.17,2.11-1.49,2.79-9.85,5.1-13.24,17.38-7.37,26.83.9,1.45.88,2.28-.13,3.7-6.33,8.89-5.22,20.48,2.68,28,6.22,5.91,13.9,7.55,22.18,6.81,1.45-.13,2.54.13,3.74.8,11.54,6.52,23.96,10.54,36.98,12.8,7.76,1.35,14.25-.53,18.73-7.44,2.75-4.24,2.12-6.76-2.27-9.23-3.08-1.74-6.46-2.95-9.43-5.21,2.62-2.32,5-3.31,8.55-1.96,8.08,3.08,16.62,4.46,25.19,5.37,8.52.91,13.12-1.78,16.3-9,1.67-3.8,1.09-5.87-2.41-8.07ZM301.28,108.85c1.08,5.94.37,11.67-2.85,16.85-4,6.45-12.68,7.77-18.87,2.82,1.62-.73,4.3.84,4.36-1.35.08-2.53-2.82-1.77-4.8-2.24,1.87-2.14,4.34-2.46,6.66-2.84,9.22-1.48,13.42-7.76,10.96-16.96-2.22-8.29-7.84-12.89-16.49-14.12,1.01-2.03,2.98-3.07,4.32-4.67.92-1.11,1.68-.1,2.37.32,8.49,4.99,12.64,12.82,14.34,22.19ZM290.14,29.16c5.43,1.06,10.22,3.43,14.07,7.53,1.25,1.33,1.55,2.13-.61,2.88-3.72,1.29-7.49,2.04-10.72,1.87-7.28.02-7.88-.63-7.97-7.86-.07-5.13.18-5.41,5.23-4.43ZM286.98,65.5c.68,6.34-1.05,12.07-5.5,16.66-6.85,7.07-14.62,12.73-24.69,14.39-1.42.23-2.46.09-3.69-.76-6.91-4.79-14.39-6.79-22.61-3.86-1.55.55-2.6-.23-3.7-.86-7.68-4.37-11.57-11.64-14.6-19.49-.76-1.98-2.16-4.5-1.51-6.01.7-1.63,3.68-.41,5.63-.74,4.36-.74,8.26-2.41,11.18-5.8,1.11-1.29,1.83-1.32,3.21-.4,12.36,8.35,30.66.56,33.37-10.9.18-.77.38-1.53,1.62-1.23,5.85,1.42,10.83-.4,15.33-4.63,2.07,8.1,5.1,15.59,5.96,23.63ZM204.49,66.43c-1.76,4.13-5.32,6.35-9.01,8.4-2.52,1.4-5.23,2.3-8.05,2.86-2.46.48-2.62.29-2.52-2.65.8-7.02,4.09-13.14,9.75-18.06,1.23-1.06,1.86-.67,2.66.43,1.58,2.18,3.5,4.15,5.95,5.21,2.19.95,1.89,2.22,1.22,3.81ZM205.07,57.13c-3.74-2.56-5.78-6.13-5.32-10.7.48-4.74,2.6-8.74,7.25-10.54,2.95-1.14,3.44-2.52,2.72-5.55-1.99-8.31,4.52-15.54,14.13-15.57,1.46-.07,3.38.19,5.22.86,1.81.65,3.16.02,3.71-1.65,2.19-6.68,7.43-8.55,13.67-8.7,6.3-.14,11.79,2.23,14.57,7.91,2.19,4.47,4.29,6.87,9.78,6.54,4.65-.28,7.92,3.12,9.15,7.73,1.2,4.52.07,8.58-3.44,11.74-3.55,3.2-7.69,3.57-12.04,1.88-3.35-1.31-4.12-.9-4.46,2.65-.55,5.9-5.04,10.49-12.08,12.25-6.33,1.57-12.15.65-17.29-3.64-2.45-2.05-3.3-1.81-5.66,1.22-5.08,6.52-13.38,8.03-19.91,3.54ZM267.22,169.4c.14.06.22.28.34.44-1.44,1-4.47-1.15-4.62,1.82-.12,2.29,2.58,1.13,4.07,1.9-2.52,2.96-5.6,4.19-9.27,3.76-14.08-1.64-27.16-6.38-39.55-13.1-1.54-.84-3.01-1.04-4.69-.93-5.28.36-10.45.1-15.2-2.65-9.37-5.44-11.69-16.89-4.8-25.24,2.27-2.75,2.3-4.57.12-7.4-5.52-7.17-2.09-17.65,6.46-20.57,3.76-1.28,3.99-1.7,3.03-5.54-1.49-5.95,1.28-11.98,6.62-14.33,2.24-.99,4.12-1.14,5.79,1.32,2.03,2.98,5.01,5.07,8.15,7.01-6.88,7.79-8.82,16.39-4.28,25.9,2.8,5.85,7.72,9.29,13.7,11.59,5.89,2.27,11.76,1.62,17.8.76-.51.29-1.02.57-1.53.87-.79.46-1.28,1.14-.84,2.03.47.93,1.32,1.33,2.32.84,1.19-.59,2.31-1.3,3.48-1.92.48-.26.91-1.01,1.56-.43.57.5.15,1.14.02,1.72-.41,1.8-1.53,3.13-2.94,4.2-5.84,4.42-12.3,5.64-19.37,3.72-2.26-.61-4.59-1.02-6.8-1.76-1.73-.58-2.92-.14-3.45,1.44-.57,1.69.5,2.63,2.03,3.19,4.45,1.63,9.05,2.53,13.77,2.83,1.28.08,2.31.37,3.27,1.33,7.22,7.24,15.25,13.34,24.81,17.21ZM259.38,155.14c-1.51.99-2.56,1.19-3.97-.08-2.04-1.84-4.25-3.49-6.73-5.49,2.71-1.17,4.87-2.31,6.84-3.8,2.52-1.89,4.45-4.21,5.41-7.26,1.98-6.27-1.03-10.5-7.55-10.24-3.46.14-6.88,1-10.34,1.23-10.82.7-19.79-6.12-20.95-16.76-1.27-11.57,9.44-20.14,21.45-16.15,4.21,1.4,7.49,4.13,10.44,7.34,3.77,4.09,4.26,4.06,7.73-.13,3.53-4.26,7.9-7.13,13.42-7.99,6.96-1.08,17.3,3.7,16.91,14.58-.15,4.16-1.73,5.68-5.91,6.17-2.96.35-5.79,1.24-8.37,2.8-6.6,4.02-6.68,11.14.14,14.77,2.85,1.52,2.3,2.37.57,4.18-5.89,6.16-11.93,12.11-19.1,16.83ZM301.59,154.12c1.09-.03,2.18,0,3.78,0-1.56,2.68-3.16,4.26-5.92,4.32-9.89.22-19.33-2.1-28.79-4.76,4.27-4.4,8.38-8.62,12.46-12.85.62-.64,1.2-.62,1.91-.25,6.93,3.61,14.05,6.82,21.05,10.44-1.53,0-3.07-.04-4.6.01-1.03.04-1.87.59-1.84,1.65.03,1.1.91,1.47,1.96,1.45ZM267.38,60.24c-1.06,1.5.01,2.5,1.05,3.34,2.54,2.05,5.37,2.34,8.27.93,2.88-1.4,4.4-3.83,4.79-7.35-.55-.87-.26-2.76-2.26-2.8-1.87-.04-1.81,1.44-1.95,2.83-.37,3.72-3.46,5.2-6.56,3.11-1.21-.81-2.24-1.61-3.34-.05ZM265.43,72.51c-.94-.72-1.9-.35-2.86.16-1.06.57-2.01,1.25-3.33,1.44-1.49.21-3.19.94-3.23,2.76-.04,1.91,1.7,2.43,3.23,2.66,1.97.29,3.06,1.07,2.6,2.96.01,3.59-1.55,4.6-4.69,3.24-.84-.36-1.61-.87-2.44-1.26-.97-.45-1.86-.2-2.43.64-.51.76-.24,1.51.32,2.24,1.52,1.99,5.68,3.06,8.48,1.98,2.67-1.02,4.3-3.03,3.81-5.92-.47-2.81-.67-5.35,1.06-7.85.63-.91.53-2.25-.53-3.06ZM243.83,68.58c-1.67-.42-1.95.85-2.25,2.15-.96,4.12-4.83,5.34-8.09,2.56-.79-.68-1.48-1.55-2.59-.59-1.18,1.03-.87,2.23-.12,3.28,1.43,1.98,3.57,2.6,5.9,2.76,4.12.07,8.49-3.38,8.89-7.02.15-1.45-.2-2.77-1.74-3.15ZM243.83,68.58c-1.67-.42-1.95.85-2.25,2.15-.96,4.12-4.83,5.34-8.09,2.56-.79-.68-1.48-1.55-2.59-.59-1.18,1.03-.87,2.23-.12,3.28,1.43,1.98,3.57,2.6,5.9,2.76,4.12.07,8.49-3.38,8.89-7.02.15-1.45-.2-2.77-1.74-3.15ZM265.43,72.51c-.94-.72-1.9-.35-2.86.16-1.06.57-2.01,1.25-3.33,1.44-1.49.21-3.19.94-3.23,2.76-.04,1.91,1.7,2.43,3.23,2.66,1.97.29,3.06,1.07,2.6,2.96.01,3.59-1.55,4.6-4.69,3.24-.84-.36-1.61-.87-2.44-1.26-.97-.45-1.86-.2-2.43.64-.51.76-.24,1.51.32,2.24,1.52,1.99,5.68,3.06,8.48,1.98,2.67-1.02,4.3-3.03,3.81-5.92-.47-2.81-.67-5.35,1.06-7.85.63-.91.53-2.25-.53-3.06ZM279.23,54.35c-1.87-.04-1.81,1.44-1.95,2.83-.37,3.72-3.46,5.2-6.56,3.11-1.21-.81-2.24-1.61-3.34-.05-1.06,1.5.01,2.5,1.05,3.34,2.54,2.05,5.37,2.34,8.27.93,2.88-1.4,4.4-3.83,4.79-7.35-.55-.87-.26-2.76-2.26-2.8ZM279.23,54.35c-1.87-.04-1.81,1.44-1.95,2.83-.37,3.72-3.46,5.2-6.56,3.11-1.21-.81-2.24-1.61-3.34-.05-1.06,1.5.01,2.5,1.05,3.34,2.54,2.05,5.37,2.34,8.27.93,2.88-1.4,4.4-3.83,4.79-7.35-.55-.87-.26-2.76-2.26-2.8ZM265.43,72.51c-.94-.72-1.9-.35-2.86.16-1.06.57-2.01,1.25-3.33,1.44-1.49.21-3.19.94-3.23,2.76-.04,1.91,1.7,2.43,3.23,2.66,1.97.29,3.06,1.07,2.6,2.96.01,3.59-1.55,4.6-4.69,3.24-.84-.36-1.61-.87-2.44-1.26-.97-.45-1.86-.2-2.43.64-.51.76-.24,1.51.32,2.24,1.52,1.99,5.68,3.06,8.48,1.98,2.67-1.02,4.3-3.03,3.81-5.92-.47-2.81-.67-5.35,1.06-7.85.63-.91.53-2.25-.53-3.06ZM243.83,68.58c-1.67-.42-1.95.85-2.25,2.15-.96,4.12-4.83,5.34-8.09,2.56-.79-.68-1.48-1.55-2.59-.59-1.18,1.03-.87,2.23-.12,3.28,1.43,1.98,3.57,2.6,5.9,2.76,4.12.07,8.49-3.38,8.89-7.02.15-1.45-.2-2.77-1.74-3.15Z"/>
        <g>
          <path class="cls-1" d="M265.96,75.57c-1.74,2.5-1.53,5.04-1.06,7.85.48,2.89-1.14,4.9-3.81,5.92-2.81,1.08-6.97.02-8.48-1.98-.56-.73-.84-1.48-.32-2.24.57-.85,1.46-1.09,2.43-.64.82.39,1.6.9,2.44,1.26,3.15,1.35,4.71.35,4.69-3.24.46-1.89-.64-2.68-2.6-2.96-1.53-.22-3.27-.74-3.23-2.66.04-1.82,1.74-2.55,3.23-2.76,1.31-.19,2.27-.87,3.33-1.44.95-.51,1.91-.89,2.86-.16,1.06.81,1.16,2.15.53,3.06Z"/>
          <path class="cls-1" d="M281.49,57.15c-.38,3.52-1.9,5.95-4.79,7.35-2.91,1.41-5.73,1.13-8.27-.93-1.04-.84-2.11-1.84-1.05-3.34,1.1-1.56,2.13-.76,3.34.05,3.1,2.09,6.2.61,6.56-3.11.14-1.39.08-2.86,1.95-2.83,2,.04,1.71,1.94,2.26,2.8Z"/>
          <path class="cls-1" d="M245.57,71.72c-.4,3.64-4.77,7.08-8.89,7.02-2.32-.16-4.47-.78-5.9-2.76-.75-1.05-1.06-2.25.12-3.28,1.1-.96,1.79-.09,2.59.59,3.26,2.78,7.13,1.57,8.09-2.56.31-1.3.59-2.57,2.25-2.15,1.54.38,1.89,1.7,1.74,3.15Z"/>
        </g>
      </g>
    </g>
  </g>
</svg>