<?xml version="1.0" encoding="UTF-8"?>
<svg id="Camada_2" data-name="Camada 2" xmlns="http://www.w3.org/2000/svg" viewBox="0 0 51.53 26.86">
  <defs>
    <style>
      .cls-1, .cls-2 {
        fill: #987688;
      }

      .cls-2 {
        opacity: .2;
      }
    </style>
  </defs>
  <g id="Camada_1-2" data-name="Camada 1">
    <g>
      <g>
        <path class="cls-1" d="M19.09,26.83v-1.25h.42c.1,0,.18.02.24.05.06.04.11.08.14.14.03.06.05.13.05.2s-.01.14-.04.2c-.03.06-.08.11-.14.14-.06.04-.14.05-.24.05h-.3v-.13h.3c.07,0,.12-.01.16-.03s.07-.05.09-.09c.02-.04.03-.08.03-.13s0-.09-.03-.13c-.02-.04-.05-.07-.09-.09-.04-.02-.1-.03-.16-.03h-.27v1.11h-.15Z"/>
        <path class="cls-1" d="M21.34,25.9c0-.06-.04-.11-.09-.14-.05-.03-.12-.05-.19-.05-.06,0-.1,0-.14.03s-.07.04-.1.07-.03.07-.03.11c0,.03,0,.06.02.09.02.02.04.04.06.06.03.02.05.03.08.04s.05.02.08.02l.13.03s.07.02.11.04c.04.02.08.04.12.06.04.03.07.06.09.1.02.04.04.09.04.15,0,.07-.02.13-.05.18-.04.05-.09.1-.15.13-.07.03-.15.05-.24.05-.09,0-.17-.01-.23-.04s-.12-.07-.15-.12c-.04-.05-.06-.11-.06-.18h.16s.02.09.05.12c.03.03.06.05.11.07s.09.02.14.02c.06,0,.11,0,.16-.03s.08-.05.11-.08c.03-.03.04-.07.04-.12,0-.04-.01-.08-.03-.1-.02-.03-.05-.05-.09-.06s-.08-.03-.12-.04l-.15-.04c-.1-.03-.17-.07-.23-.12-.06-.05-.09-.12-.09-.2,0-.07.02-.13.06-.18.04-.05.09-.09.15-.12.06-.03.14-.04.22-.04s.15.01.21.04c.06.03.11.07.15.12.04.05.06.11.06.17h-.15Z"/>
        <path class="cls-1" d="M22.39,25.59v1.25h-.15v-1.25h.15Z"/>
        <path class="cls-1" d="M24.17,25.98h-.15s-.02-.08-.05-.11c-.02-.03-.05-.06-.08-.08s-.07-.04-.1-.05-.08-.02-.12-.02c-.08,0-.14.02-.21.06s-.11.09-.15.17c-.04.07-.05.17-.05.27s.02.2.05.27c.04.07.08.13.15.17s.13.06.21.06c.04,0,.08,0,.12-.02.04-.01.07-.03.1-.05.03-.02.06-.05.08-.08.02-.03.04-.07.05-.11h.15c-.01.06-.03.12-.06.17-.03.05-.07.09-.11.13-.04.04-.09.06-.15.08-.06.02-.11.03-.18.03-.11,0-.2-.03-.28-.08-.08-.05-.15-.13-.2-.22-.05-.1-.07-.21-.07-.34s.02-.25.07-.34c.05-.1.11-.17.2-.22.08-.05.18-.08.28-.08.06,0,.12,0,.18.03.06.02.11.04.15.08s.08.08.11.13c.03.05.05.11.06.17Z"/>
        <path class="cls-1" d="M25.95,26.21c0,.13-.02.25-.07.34s-.11.17-.2.22c-.08.05-.18.08-.28.08s-.2-.03-.28-.08c-.08-.05-.15-.13-.2-.22-.05-.1-.07-.21-.07-.34s.02-.25.07-.34c.05-.1.11-.17.2-.22.08-.05.18-.08.28-.08s.2.03.28.08c.08.05.15.13.2.22.05.1.07.21.07.34ZM25.8,26.21c0-.11-.02-.2-.05-.27-.04-.07-.08-.13-.15-.17-.06-.04-.13-.06-.21-.06s-.14.02-.21.06-.11.09-.15.17c-.04.07-.05.17-.05.27s.02.2.05.27c.04.07.08.13.15.17s.13.06.21.06.14-.02.21-.06c.06-.04.11-.09.15-.17.04-.07.05-.17.05-.27ZM25.33,25.46l.15-.28h.17l-.19.28h-.13Z"/>
        <path class="cls-1" d="M26.68,26.83v-1.25h.15v1.11h.58v.13h-.73Z"/>
        <path class="cls-1" d="M29.13,26.21c0,.13-.02.25-.07.34s-.11.17-.2.22c-.08.05-.18.08-.28.08s-.2-.03-.28-.08c-.08-.05-.15-.13-.2-.22-.05-.1-.07-.21-.07-.34s.02-.25.07-.34c.05-.1.11-.17.2-.22.08-.05.18-.08.28-.08s.2.03.28.08c.08.05.15.13.2.22.05.1.07.21.07.34ZM28.99,26.21c0-.11-.02-.2-.05-.27-.04-.07-.08-.13-.15-.17-.06-.04-.13-.06-.21-.06s-.14.02-.21.06-.11.09-.15.17c-.04.07-.05.17-.05.27s.02.2.05.27c.04.07.08.13.15.17s.13.06.21.06.14-.02.21-.06c.06-.04.11-.09.15-.17.04-.07.05-.17.05-.27Z"/>
        <path class="cls-1" d="M30.72,25.98s-.03-.08-.05-.11c-.02-.03-.05-.06-.08-.08-.03-.02-.06-.04-.1-.05s-.08-.02-.12-.02c-.07,0-.14.02-.2.06s-.11.09-.14.17c-.04.07-.05.17-.05.27s.02.2.05.27c.04.07.09.13.15.17.06.04.13.06.21.06.07,0,.13-.02.19-.05.05-.03.1-.07.13-.13.03-.06.05-.12.05-.2h.05s-.38,0-.38,0v-.13h.48v.13c0,.1-.02.19-.07.27-.04.08-.1.13-.18.18-.08.04-.16.06-.26.06-.11,0-.21-.03-.29-.08s-.15-.13-.2-.22c-.05-.1-.07-.21-.07-.34,0-.1.01-.19.04-.27.03-.08.06-.15.11-.2.05-.06.11-.1.17-.13s.14-.04.22-.04c.07,0,.13,0,.18.03.06.02.11.05.15.08.04.04.08.08.11.13.03.05.05.1.06.17h-.16Z"/>
        <path class="cls-1" d="M31.64,26.83h-.16l.46-1.25h.16l.46,1.25h-.16l-.37-1.05h0l-.37,1.05ZM31.69,26.35h.64v.13h-.64v-.13Z"/>
      </g>
      <g>
        <path class="cls-1" d="M11.06,18.38c0-.11-.04-.16-.11-.16-.06,0-.14.06-.24.17-.11.12-.22.27-.33.47l-.09-.04c.12-.24.27-.46.45-.65.19-.19.38-.28.58-.28.11,0,.19.02.25.07.05.05.08.13.08.26,0,.07-.01.17-.04.32l-.5,2.35h.04c.26-.7.48-1.25.66-1.67.18-.41.36-.74.55-.98.19-.24.38-.36.57-.36.27,0,.4.14.4.41,0,.08-.01.18-.04.3l-.71,2.98c-.03.14-.04.24-.04.29,0,.14.05.21.14.21.07,0,.14-.05.23-.16.09-.11.19-.28.31-.51l.09.05c-.14.28-.27.49-.39.64-.12.15-.26.22-.44.22-.14,0-.25-.04-.34-.12-.09-.08-.13-.21-.13-.39,0-.07.01-.18.04-.32l.68-2.92c.02-.07.02-.12.02-.17,0-.11-.04-.17-.13-.17-.29,0-.88,1.3-1.78,3.89l-.02.06h-.55l.71-3.34c.05-.23.07-.38.07-.47Z"/>
        <path class="cls-1" d="M14.16,21.44v-2.75c0-.11-.02-.2-.07-.25-.04-.06-.11-.11-.19-.16-.05-.03-.09-.06-.11-.08-.02-.02-.03-.05-.03-.09,0-.07.04-.1.11-.1h.19c.1.02.23.03.4.03h.25c.08,0,.12.03.12.08,0,.02-.01.06-.04.13-.03.07-.04.17-.04.31v2.83c0,.22.04.38.12.47.08.09.18.13.32.13s.27-.07.42-.2c.14-.14.26-.3.36-.49v-2.6c0-.11-.02-.2-.07-.25-.04-.06-.11-.11-.19-.16-.05-.03-.09-.06-.11-.08-.02-.02-.03-.05-.03-.09,0-.07.04-.1.11-.1h.19c.1.02.23.03.4.03h.25c.08,0,.12.03.12.08,0,.02-.01.06-.04.13-.03.07-.04.17-.04.31v2.7c0,.24.02.42.06.52.04.11.09.18.15.24.06.05.08.09.08.12s-.02.05-.05.05c-.03,0-.1.02-.2.04l-.31.06c-.13.02-.21.03-.23.03-.03,0-.05,0-.06-.03-.01-.02-.02-.05-.02-.1v-.6c-.11.19-.25.36-.42.51-.17.15-.37.22-.59.22-.52,0-.78-.29-.78-.88Z"/>
        <path class="cls-1" d="M18.09,22.1c-.29-.15-.52-.39-.7-.72-.18-.33-.28-.73-.3-1.22s.06-.92.22-1.26c.16-.34.38-.59.66-.75.27-.16.57-.25.89-.26.28,0,.53.04.75.14.22.1.4.25.53.44.13.19.2.4.21.64.01.33-.09.58-.29.74-.2.16-.53.25-.99.27l-1.3.05c.03.6.17,1.06.42,1.36.25.3.56.45.95.43.26,0,.49-.07.68-.17.19-.11.34-.24.45-.39.03-.05.06-.07.09-.07s.04.01.04.04c0,.03,0,.06-.03.09-.17.3-.37.51-.6.64-.23.13-.48.2-.74.21-.33.01-.64-.06-.93-.21ZM18.92,19.92c.28,0,.48-.08.6-.21.12-.13.17-.31.16-.56-.01-.29-.09-.52-.24-.69-.15-.17-.35-.26-.59-.25-.34.01-.61.16-.81.43-.2.28-.29.72-.28,1.32l1.16-.04Z"/>
        <path class="cls-1" d="M21.23,21.88c0,.14.05.21.14.21.07,0,.14-.05.23-.16.09-.11.19-.28.31-.51l.09.05c-.14.28-.27.49-.39.64-.12.15-.26.22-.44.22-.14,0-.25-.04-.34-.12-.09-.08-.13-.21-.13-.39,0-.07.01-.18.04-.32l1.06-4.48s0-.05,0-.09c0-.08-.04-.15-.11-.19-.07-.04-.19-.07-.37-.07-.08-.01-.12-.03-.12-.06,0-.03.04-.06.11-.07.11-.03.19-.06.26-.08.46-.16.75-.22.86-.2.03,0,.05.02.06.04.01.02.01.05,0,.08l-1.24,5.22c-.03.14-.04.24-.04.29Z"/>
        <path class="cls-1" d="M23.1,21.88c0,.14.05.21.14.21.07,0,.14-.05.23-.16.09-.11.19-.28.31-.51l.09.05c-.14.28-.27.49-.39.64-.12.15-.26.22-.44.22-.14,0-.25-.04-.34-.12-.09-.08-.13-.21-.13-.39,0-.07.01-.18.04-.32l1.06-4.48s0-.05,0-.09c0-.08-.04-.15-.11-.19-.07-.04-.19-.07-.37-.07-.08-.01-.12-.03-.12-.06,0-.03.04-.06.11-.07.11-.03.19-.06.26-.08.46-.16.75-.22.86-.2.03,0,.05.02.06.04.01.02.01.05,0,.08l-1.24,5.22c-.03.14-.04.24-.04.29Z"/>
        <path class="cls-1" d="M25.33,22.1c-.29-.15-.52-.39-.7-.72-.18-.33-.28-.73-.3-1.22s.06-.92.22-1.26c.16-.34.38-.59.66-.75.27-.16.57-.25.89-.26.28,0,.53.04.75.14.22.1.4.25.53.44.13.19.2.4.21.64.01.33-.09.58-.29.74-.2.16-.53.25-.99.27l-1.3.05c.03.6.17,1.06.42,1.36.25.3.56.45.95.43.26,0,.49-.07.68-.17.19-.11.34-.24.45-.39.03-.05.06-.07.09-.07s.04.01.04.04c0,.03,0,.06-.03.09-.17.3-.37.51-.6.64-.23.13-.48.2-.74.21-.33.01-.64-.06-.93-.21ZM26.16,19.92c.28,0,.48-.08.6-.21.12-.13.17-.31.16-.56-.01-.29-.09-.52-.24-.69-.15-.17-.35-.26-.59-.25-.34.01-.61.16-.81.43-.2.28-.29.72-.28,1.32l1.16-.04Z"/>
        <path class="cls-1" d="M35.84,22.02s.06-.05.11-.08c.08-.05.15-.1.19-.16.04-.06.07-.14.07-.25v-2.57c0-.2-.02-.34-.06-.43-.04-.09-.09-.15-.15-.2-.06-.05-.08-.08-.08-.11,0-.03.02-.06.06-.07.04-.02.1-.03.19-.04.12-.02.24-.06.34-.12.11-.06.17-.09.2-.09s.05,0,.06.03c.01.02.02.05.02.1v.51c.11-.17.26-.32.44-.45.18-.13.39-.19.64-.19.17,0,.29.03.38.1.09.06.13.15.13.27,0,.1-.03.17-.08.22-.06.05-.13.07-.22.07-.05,0-.09,0-.12-.02-.03-.02-.08-.04-.13-.07-.06-.04-.12-.07-.16-.09-.05-.02-.11-.03-.2-.03-.12,0-.24.05-.37.15-.13.1-.23.23-.32.39v2.66c0,.11.02.2.07.25.04.06.11.11.19.16.05.03.09.06.11.08.02.02.03.05.03.09,0,.07-.04.1-.11.1-.04,0-.1,0-.19-.02-.13-.01-.26-.02-.39-.02s-.26,0-.39.02c-.09.01-.15.02-.19.02-.07,0-.11-.03-.11-.1,0-.04.01-.07.03-.09Z"/>
        <path class="cls-1" d="M48.71,21.99c-.27-.19-.47-.46-.62-.82-.15-.35-.21-.77-.18-1.25.03-.43.14-.8.34-1.12.2-.31.45-.55.74-.7.29-.15.58-.22.87-.2s.57.12.83.31c.27.19.48.45.64.79.16.34.22.72.19,1.15-.03.48-.14.89-.33,1.22-.19.33-.43.58-.71.73-.28.16-.58.23-.9.21s-.61-.13-.88-.32ZM48.79,21.44c.19.35.46.53.83.56s.64-.13.86-.45c.22-.32.35-.81.39-1.46.04-.56-.04-1.01-.23-1.35-.19-.33-.45-.51-.78-.53-.22-.01-.42.04-.61.17-.19.13-.34.33-.46.6-.12.27-.19.59-.21.96-.04.65.03,1.14.22,1.49Z"/>
        <g>
          <path class="cls-1" d="M6.92,22.02c-.28-.17-.5-.43-.67-.78-.17-.34-.25-.76-.25-1.24,0-.43.09-.81.27-1.14.18-.33.41-.58.69-.75.28-.17.57-.26.86-.26s.57.09.85.26c.28.17.51.42.69.75.18.33.27.71.27,1.14,0,.48-.08.89-.25,1.24-.17.34-.39.6-.66.78-.27.17-.57.26-.88.26s-.62-.09-.9-.26ZM6.98,21.47c.21.34.49.5.86.5s.63-.17.83-.5c.2-.33.29-.83.29-1.48,0-.56-.1-1.01-.31-1.33-.21-.32-.48-.48-.81-.48-.22,0-.42.07-.6.21-.18.14-.32.35-.42.62-.1.27-.15.6-.15.98,0,.65.1,1.14.31,1.47Z"/>
          <path class="cls-1" d="M9.85,22.01c-.06-.05-.1-.13-.15-.24-.04-.11-.06-.28-.06-.52v-2.97c0-.24-.19-.43-.43-.43h-.05c-.05,0-.1.04-.1.1v4.24s0,.08.02.1c.01.02.03.03.06.03.02,0,.09-.01.2-.03.09-.03.2-.05.34-.07.04,0,.08,0,.11-.01.04,0,.07,0,.1-.02.03,0,.04-.02.04-.05,0-.03-.03-.07-.08-.12Z"/>
        </g>
        <g>
          <path class="cls-1" d="M39.28,22c-.28-.17-.5-.43-.67-.78-.17-.34-.25-.76-.25-1.24,0-.43.09-.81.27-1.14.18-.33.41-.58.69-.75.28-.17.57-.26.86-.26s.57.09.85.26c.28.17.51.42.69.75.18.33.27.71.27,1.14,0,.48-.08.89-.25,1.24-.17.34-.39.6-.66.78-.27.17-.57.26-.88.26s-.62-.09-.9-.26ZM39.33,21.44c.21.34.49.5.86.5s.63-.17.83-.5c.2-.33.29-.83.29-1.48,0-.56-.1-1.01-.31-1.33-.21-.32-.48-.48-.81-.48-.22,0-.42.07-.6.21-.18.14-.32.35-.42.62-.1.27-.15.6-.15.98,0,.65.1,1.14.31,1.47Z"/>
          <path class="cls-1" d="M42.2,21.99c-.06-.05-.1-.13-.15-.24-.04-.11-.06-.28-.06-.52v-2.97c0-.24-.19-.43-.43-.43h-.05c-.05,0-.1.04-.1.1v4.24s0,.08.02.1c.01.02.03.03.06.03.02,0,.09-.01.2-.03.09-.03.2-.05.34-.07.04,0,.08,0,.11-.01.04,0,.07,0,.1-.02.03,0,.04-.02.04-.05,0-.03-.03-.07-.08-.12Z"/>
        </g>
        <g>
          <path class="cls-1" d="M47.55,17.89c-.2,0-.39.09-.59.28,0,0,0,0,0,0-.05.05-.11.12-.17.19-.16.2-.26.44-.33.69-.19.7-.38,1.4-.57,2.1-.06.24-.16.47-.3.68-.02.03-.04.06-.06.09-.09.11-.16.16-.23.16-.09,0-.14-.07-.14-.21,0-.06.01-.15.04-.29l.84-3.56h-.61c-.19.59-.43,1.19-.69,1.8-.27.61-.52,1.13-.76,1.53-.24.41-.43.61-.56.61-.12,0-.17-.08-.17-.23,0-.05,0-.11.02-.18l.71-3.01c.03-.14.05-.26.05-.35,0-.12-.03-.2-.08-.24-.05-.04-.13-.07-.24-.07-.2,0-.39.09-.59.27-.19.18-.35.39-.47.62l.09.05c.12-.2.24-.36.34-.47.11-.11.19-.17.25-.17.07,0,.1.05.1.14,0,.1-.03.26-.08.48l-.66,2.78c-.02.07-.02.14-.02.21,0,.16.04.28.13.37.09.09.2.13.34.13.3,0,.61-.25.92-.75.31-.5.66-1.25,1.06-2.26h.06l-.51,2.18c-.03.13-.04.23-.04.31,0,.18.04.31.13.39.09.08.2.12.34.12.06,0,.12,0,.18-.03.1-.04.18-.1.26-.19.05-.06.1-.12.14-.18.25-.37.32-.72.32-.72.19-.75.44-1.49.63-2.24,0,0,.08-.3.26-.53.02-.03.05-.05.05-.05.11-.11.19-.17.25-.17.03,0,.06.02.07.04.02.02.02.06.02.11,0,.09-.03.25-.08.47l-.98,4.2c-.07.29-.16.5-.26.63-.1.13-.2.2-.31.2s-.18-.04-.22-.12c-.04-.08-.07-.2-.1-.36-.02-.16-.05-.27-.1-.36-.04-.08-.11-.12-.22-.12-.08,0-.16.03-.22.1-.06.07-.1.16-.1.27,0,.22.09.4.28.53.19.13.39.2.62.2.33,0,.6-.11.79-.32.19-.21.34-.52.44-.94l.99-4.17c.03-.14.05-.26.05-.35,0-.12-.03-.2-.08-.25-.05-.05-.13-.07-.24-.07Z"/>
          <path class="cls-1" d="M48.09,16.41c-.05-.07-.12-.1-.21-.1-.12,0-.22.06-.32.17-.1.11-.15.24-.15.38,0,.1.03.18.08.25.05.07.12.1.21.1.12,0,.22-.06.32-.17.1-.11.15-.24.15-.38,0-.1-.03-.18-.08-.25Z"/>
        </g>
        <path class="cls-1" d="M35.47,22.07l-.06-.04c-.27-.17-.49-.42-.62-.72h0s-.01-.03-.02-.04l-1.78-4.67c-.06-.14-.19-.24-.35-.24h0c-.06,0-.13,0-.19,0-.14,0-.28-.02-.41-.03-.08,0-.12.03-.12.1,0,.03.02.06.05.09.06.06.12.09.16.1.04.02.16.09.22.21.05.09.03.19.03.27,0,.06-.01.11-.03.17l-1.37,3.85h0s-.06.18-.06.18c0,0,0,.01,0,.02-.1.26-.28.49-.52.63-.05.03-.09.05-.14.06-.05.02-.09.06-.09.09,0,.02,0,.04.01.05.02.04.07.05.15.05l.32-.02c.09,0,.26,0,.49-.02.17.01.29.02.36.02l.23.02c.08,0,.12-.03.12-.1,0-.03-.02-.06-.05-.09l-.25-.12c-.24-.12-.35-.4-.26-.65l.37-1.03h2.04l.4,1.04h0s.02.04.02.04c0,0,0,0,0,0l.08.22c.04.11,0,.23-.1.29l-.46.26c-.07.04-.04.14.04.15h0s.23,0,.23,0c.14-.02.31-.02.51-.02.23,0,.44,0,.62.02h.29c.11,0,.16-.02.16-.09,0-.02,0-.03,0-.05ZM31.76,19.89l.86-2.43.94,2.43h-1.8Z"/>
        <path class="cls-1" d="M6.18,22.03s-.05-.04-.08-.06c-.32-.19-.52-.54-.52-.92h0s-.24-3.53-.24-3.53l-.02-.34c-.01-.2.06-.39.21-.52.03-.02.05-.04.07-.05.06-.03.08-.05.12-.1.02-.03.04-.06.04-.09,0-.07-.05-.1-.13-.1h-.21c-.32.02-.46.03-.57.03-.19,0-.31.09-.36.27l-1.31,4.69-1.48-4.7c-.03-.09-.07-.16-.14-.2-.07-.04-.16-.06-.28-.06-.19,0-.29,0-.44-.02h-.23c-.09,0-.13.03-.13.1,0,.03.01.06.04.08.02.03.07.06.12.1.12.09.21.18.27.27.06.09.02.22,0,.38l-.28,4.03c-.01.16-.06.29-.13.37-.08.09-.18.17-.3.25-.07.04-.12.07-.15.1-.03.03-.05.07-.05.1,0,.06.04.08.12.08l.27-.02c.16-.01.27-.02.33-.02s.18,0,.33.02l.27.02c.09,0,.13-.04.13-.11,0-.03-.01-.06-.04-.08-.02-.03-.07-.06-.12-.1-.12-.09-.21-.18-.27-.27-.06-.09-.09-.22-.08-.38l.28-3.96,1.4,4.42c.05.16.11.28.18.34.07.07.16.11.27.1.13,0,.23-.09.27-.21l1.3-4.62.27,3.72c.04.36-.12.72-.41.94l-.08.06s0,.02,0,.04c.01.07.06.1.13.1h.22c.32-.02.52-.03.61-.03.18,0,.34,0,.49.02h.23c.08,0,.12-.02.12-.07v-.02s-.02-.06-.05-.09Z"/>
      </g>
      <g>
        <path class="cls-2" d="M30.02,5.07c-.26-.08-.3-.1-.53-.2-.19-.08-.52-.17-.86,0-.36.17-.49.5-.51.57-.02-.25-.07-.64-.21-1.09-.5-1.52-1.73-2.45-3.09-3.46-.31-.23-.75-.54-1.3-.88.44.49.91,1.12,1.33,1.9.1.18.19.36.27.54.13.27.22.58.24.64,0,0,0,0,0,.01.11.37.17.55.36,1.28.06.23.2.77.49,1.27-.77.02-1.8.2-3.09.71-.76.3-1.84.81-3.02,1.68.45-.17,1.01-.33,1.67-.42.01,0,.02,0,.03,0,.47-.06.95-.01,1.41.12.34.1.61.13.62.13.47.11,1.24.1,2.53-.49-.44.58-.7,1.09-.86,1.46-.21.48-.43,1.14-1.02,1.89,0,0,0,0-.01.01-.68.86-1.11,1.71-1.37,2.38.39-.73.94-1.51,1.72-2.21.29-.26.55-.45.79-.61-.13.34-.27.67-.4,1.01-.22.55-.44,1.09-.66,1.64.28-.55.61-1.15,1.02-1.78.36-.54.72-1.02,1.06-1.45l-1.02.58c.88-.58,1.55-.71,2.38-1.66.93-1.06,1.37-2.35,1.37-2.37,0,0,0,0,0,0,0-.02.02-.06.04-.11,0,0,.03-.06.06-.12.05-.08.53-.45,1.26-.86-.17,0-.42,0-.71-.09Z"/>
        <path class="cls-1" d="M31.07,5.23s-.04,0-.06,0c-.31,0-.64-.07-.97-.22-.03-.01-.07-.03-.1-.04-.09-.04-.18-.08-.26-.1-.09-.03-.19-.04-.29-.04-.31,0-.6.13-.82.37l-.03.03v-.04c-.32-2.12-2.07-3.36-3.77-4.56l-.07-.05c-.25-.17-.52-.34-.79-.5-.02-.01-.04-.02-.06-.02-.04,0-.09.03-.11.07-.02.04-.01.09.02.12.57.65,1.04,1.32,1.39,2,.24.45.41.86.5,1.25.05.19.11.39.17.6.09.34.19.69.29.99.07.21.15.4.24.58v.03s-.02,0-.02,0c-.25.02-.53.05-.84.09-.36.06-.76.16-1.06.24-1.44.43-2.81,1.13-4.07,2.07-.04.03-.06.08-.04.12.02.05.06.08.11.08.01,0,.03,0,.04,0,.83-.31,1.5-.46,2.11-.46.34,0,.67.05.97.14.18.05.38.09.59.13.18.04.36.06.55.06.47,0,.98-.11,1.61-.36l.06-.02-.04.05c-.23.35-.44.71-.6,1.07l-.08.18c-.19.46-.37.89-.64,1.29-.11.17-.22.32-.35.48-.05.06-.09.12-.14.18-.42.56-.77,1.16-1.06,1.8l-.12.27s-.01.04-.02.06h0c-.02.1.11.15.17.08.02-.02.04-.05.05-.07l.09-.15c.05-.08.1-.16.15-.24.33-.52.71-.98,1.12-1.38.26-.25.53-.47.81-.67-.25.63-.57,1.38-.83,2.01l-.12.3s0,.08,0,.1c.02.03.06.05.09.05.04,0,.07-.04.09-.06.14-.18.27-.48.27-.48,0,0,.07-.12.19-.35.1-.18.26-.45.49-.77.54-.77.96-1.37,1.09-1.55.31-.17.62-.35.89-.58.83-.71,1.49-1.73,1.96-3.05v-.07s.02,0,.02,0c.01-.01.02-.02.03-.03h0c.04-.06.11-.11.16-.15h0c.29-.23.62-.44,1.03-.68.04-.02.06-.06.06-.1,0-.06-.05-.11-.12-.11ZM25.55,11.7s.01-.06.06-.16c.07-.15.14-.3.2-.46l.2-.49c.15-.09.3-.18.45-.26-.1.13-.2.27-.29.42-.4.65-.61.97-.63.96ZM30.64,5.48c-.27.16-.58.36-.86.59-.08.07-.11.16-.15.26h0s0,.01,0,.01c-.14.37-.29.7-.47,1.03-.43.79-.9,1.4-1.42,1.85-.33.29-.72.51-1.1.72-.6.33-.68.41-.91.56-.37.25-.88.65-1.41,1.3.05-.06.1-.13.14-.19.12-.18.25-.35.38-.52.14-.18.28-.37.41-.57.28-.42.48-.91.68-1.37l.05-.13c.21-.48.49-.95.83-1.4.03-.03.03-.07.01-.11,0,0-.02-.05-.1-.07-.18-.05-1.26.59-2.02.56-.06,0-.25-.01-.48-.05-.22-.03-.41-.08-.59-.13-.36-.11-.72-.16-1.09-.16-.18,0-.37.01-.54.04-.24.03-.48.08-.72.14l-.02-.04c.34-.21.7-.41,1.07-.61,1.05-.53,2.63-1.18,4.17-1.25h.01s0,0,0,0c.35.56.77.88,1.27.95.02,0,.04,0,.06,0,.17,0,.33-.08.44-.23.1-.12.15-.27.12-.39,0-.02,0-.02,0-.03,0,0,0,0,0-.01-.04-.15-.17-.28-.33-.34-.4-.15-.85-.23-1.38-.23-.03,0-.09,0-.09,0h0c-.1-.2-.19-.42-.28-.67-.11-.33-.21-.7-.31-1.06-.07-.26-.15-.54-.22-.79-.11-.36-.29-.72-.44-1.02-.24-.47-.53-.93-.86-1.37l.03-.03c.26.18.52.36.79.57,1.4,1.02,2.9,2.29,3.03,4.29,0,.07.06.11.12.11.05,0,.09-.03.11-.07.13-.35.45-.58.82-.58.13,0,.26.03.39.09l.17.07c.23.1.46.17.68.2h.06s-.05.04-.05.04ZM26.77,5.95h.04c.2,0,.39.01.58.03.25.03.45.08.62.15.1.04.17.1.2.17h0c.04.13-.07.3-.19.37-.05.03-.1.04-.17.04-.08,0-.17-.02-.27-.06-.3-.12-.57-.35-.79-.67l-.02-.03Z"/>
      </g>
    </g>
  </g>
</svg>